

<svg width="200" height="100" viewBox="0 0 200 100" fill="none" xmlns="http://www.w3.org/2000/svg">
<rect x="0.531982" width="199.468" height="99.734" rx="10" fill="white" fill-opacity="0.75"/>
<path d="M49.1002 49.4561C49.8288 50.7312 48.1895 51.0955 47.4609 51.1866C46.368 51.2777 46.0947 50.6401 46.2769 49.8205C46.368 49.5472 46.5501 49.274 46.7323 49.0918C46.9144 48.9097 47.2787 48.7275 47.5519 48.7275C47.8252 48.7275 48.1895 48.7275 48.3716 48.9097C48.7359 49.0008 48.9181 49.1829 49.1002 49.4561Z" fill="#EB1A6B"/>
<path d="M53.4727 47.1792C52.653 53.5545 63.7642 52.1884 63.5821 57.1975C64.675 55.7403 65.1304 51.9151 61.9427 49.9115C59.0283 48.09 55.2942 49.0918 53.4727 47.1792Z" fill="#EB1A6B"/>
<path d="M59.9388 44.7206C59.8476 44.6293 59.7563 44.6293 59.7563 44.5381C59.7563 44.6293 59.8476 44.7206 59.9388 44.7206Z" fill="#EB1A6B"/>
<path d="M62.488 49.3651C62.3969 49.183 62.3059 49.0008 62.1237 48.8187C61.7594 48.2722 61.213 47.9079 60.5754 47.8168C60.2111 47.7258 59.7557 47.6347 59.3004 47.6347C58.845 47.6347 58.4807 47.5436 58.0253 47.5436C57.1145 47.4525 56.2949 47.3615 55.3841 47.1793C55.202 47.0882 54.9287 47.0882 54.7466 46.9972C54.6555 46.9972 54.5644 46.9061 54.3823 46.9061C54.2912 46.815 54.2001 46.815 54.018 46.7239C53.5626 46.5418 53.1983 46.1775 52.9251 45.9042C52.2875 45.2667 51.7411 44.5381 51.1946 43.9006C50.6482 43.172 50.1928 42.5344 49.5552 41.8969C49.0088 41.2594 48.2802 40.7129 47.5516 40.3486C46.823 39.9843 45.9122 39.7111 45.0925 39.62C46.0033 39.5289 46.914 39.62 47.7337 39.9843C48.5534 40.3486 49.3731 40.804 50.0106 41.4415C50.466 41.8058 50.8303 42.2612 51.1946 42.7166C54.018 42.1701 56.2038 42.6255 57.9342 43.6273C58.4807 43.9006 59.0271 44.2649 59.4825 44.7203C59.5736 44.8113 59.6647 44.8113 59.6647 44.9024C60.029 45.2667 60.3933 45.631 60.6665 45.9953C61.9416 47.1793 62.488 48.5454 62.488 49.3651Z" fill="#EB1A6B"/>
<path d="M45.3667 40.3486C46.0953 40.4397 46.8239 40.7129 47.2793 41.2594C47.7347 41.8058 47.9168 42.5345 48.099 43.172C48.1901 43.7184 48.2811 44.2649 48.4633 44.7203C48.5544 44.9935 48.7365 45.1757 48.8276 45.3578C48.9187 45.54 49.1008 45.7221 49.1919 45.9043V45.9953V46.0864C48.9187 46.3596 48.2811 46.0864 48.0079 45.9043C47.5525 45.7221 47.1882 45.3578 46.8239 44.9935C45.8221 43.9006 45.2756 42.2612 45.2756 40.804C45.2756 40.7129 45.3667 40.5308 45.3667 40.3486Z" fill="#EB1A6B"/>
<path d="M57.2064 53.0994C55.6581 57.3799 62.6709 60.2944 60.0297 64.666C62.6709 63.5731 63.946 60.2033 62.8531 57.5621C61.9423 55.1941 59.0279 54.2834 57.2064 53.0994Z" fill="#EB1A6B"/>
<path d="M48.0081 58.6549C48.4634 58.3816 48.9188 58.1084 49.3742 57.8352C49.8296 57.653 50.376 57.4709 50.9225 57.3798C51.9243 57.1977 53.0172 57.1066 53.8369 56.7423C54.2923 56.5601 54.6566 56.378 55.0209 56.0137C55.3852 55.7404 55.5673 55.3761 55.7495 54.9208C55.9317 54.4654 55.9317 54.01 55.9317 53.5546C55.9317 53.0082 55.7495 52.5528 55.5674 52.0974C55.9317 52.4617 56.2049 53.0082 56.387 53.5546C56.5692 54.1011 56.5692 54.6475 56.4781 55.194C56.387 55.7404 56.0227 56.2869 55.6584 56.7423C55.2941 57.1066 54.7477 57.4709 54.2012 57.653C53.6548 57.8352 53.1083 57.9263 52.5618 58.0173C52.0154 58.0173 51.56 58.1084 51.0136 58.1084C50.0117 58.1084 49.0099 58.2906 48.0081 58.6549Z" fill="#EB1A6B"/>
<path d="M57.8438 66.214C57.6617 66.3051 57.5706 66.4872 57.3885 66.5783C57.2063 66.6694 57.0241 66.7604 56.842 66.8515C56.4777 67.0337 56.0223 67.1247 55.5669 67.1247C54.383 67.1247 53.5633 66.214 53.1079 65.2121C52.7436 64.5746 52.5614 63.846 52.1971 63.2085C51.6507 62.2977 50.6488 61.5691 49.5559 61.6602C49.1005 61.7513 48.6452 61.9334 48.463 62.2977C47.8255 63.2996 48.7362 64.7568 50.0113 64.5746C50.1024 64.5746 50.1935 64.5746 50.2845 64.4835C50.3756 64.4835 50.4667 64.3925 50.5578 64.3014C50.7399 64.1192 50.831 63.9371 50.9221 63.7549C51.0131 63.5728 51.0131 63.2996 51.0131 63.0263C50.9221 62.7531 50.831 62.5709 50.6488 62.4799C50.9221 62.5709 51.1042 62.7531 51.1953 63.0263C51.1042 63.4817 51.1042 63.7549 51.1042 64.0282C51.0131 64.3014 50.9221 64.5746 50.7399 64.7568C50.6488 64.8478 50.5578 64.9389 50.3756 65.03C50.2845 65.1211 50.1024 65.2121 50.0113 65.2121C49.7381 65.3032 49.4649 65.3032 49.1916 65.3032C48.8273 65.2121 48.3719 65.1211 48.0987 64.8478C47.7344 64.5746 47.4612 64.1192 47.0969 63.846C46.7326 63.3906 46.2772 63.1174 45.7307 62.8442C45.3664 62.662 45.0021 62.5709 44.6378 62.4799C44.4557 62.4799 44.2735 62.3888 44.0914 62.3888C44.0003 62.3888 43.5449 62.2977 43.5449 62.2977C44.1825 61.7513 44.82 61.2959 45.4575 60.8405C46.1861 60.3851 46.9147 60.1119 47.7344 59.8387C48.5541 59.5654 49.3738 59.5654 50.2845 59.6565C50.7399 59.7476 51.1042 59.8387 51.5596 60.0208C52.015 60.203 52.3793 60.4762 52.7436 60.7494C53.1079 61.1137 53.3811 61.478 53.5633 61.8423C53.7454 62.2066 53.8365 62.662 53.9276 63.1174C54.2008 64.3925 54.1097 66.3961 55.7491 66.6694C55.8402 66.6694 55.9312 66.6694 56.0223 66.6694H56.2955C56.4777 66.6694 56.6598 66.6694 56.842 66.5783C57.1152 66.5783 57.4795 66.3961 57.8438 66.214Z" fill="#EB1A6B"/>
<path d="M46.6413 46.8149C46.5502 47.0882 46.4591 47.2703 46.3681 47.4525C46.0948 47.8168 45.7305 48.09 45.3662 48.2721C45.0019 48.4543 44.6376 48.5454 44.1823 48.5454C44.0912 48.5454 44.0001 48.5454 43.909 48.5454C43.6358 48.5454 43.4536 48.6365 43.1804 48.8186C42.9983 49.0008 42.8161 49.1829 42.8161 49.4561C42.8161 49.5472 42.725 49.7294 42.725 49.8204C42.725 50.1847 42.634 50.458 42.634 50.9134C42.5429 51.642 42.3607 52.2795 42.0875 52.917C41.7232 53.7367 41.2678 54.4653 41.3589 55.3761C41.45 56.0136 41.7232 56.469 42.1786 56.8333C42.9072 57.653 44.6376 58.0173 44.2733 59.9299C44.0001 61.1139 42.0875 62.2978 39.4463 62.7532C39.7195 62.7532 39.082 61.6603 39.082 61.5692C38.8088 61.1138 38.4445 60.6585 38.2623 60.2031C37.8069 59.2923 37.6248 58.1083 37.8069 57.1065C37.9891 56.0136 38.8088 55.1939 39.4463 54.2832C40.266 53.2813 41.0857 52.0063 41.2678 50.6401C41.2678 50.3669 41.3589 49.9115 41.45 49.5472C41.541 49.0918 41.6321 48.7275 41.8143 48.2721C41.9054 47.9989 42.0875 47.8168 42.3607 47.5435C42.4518 47.4525 42.5429 47.2703 42.5429 47.1792C42.5429 46.9971 42.5429 46.906 42.4518 46.7239L38.1712 38.9824L44.3644 46.6328C44.4555 46.7239 44.5466 46.8149 44.6376 46.8149C44.7287 46.906 44.8198 46.906 45.0019 46.906C45.093 46.906 45.1841 46.906 45.3662 46.8149C45.4573 46.7239 45.5484 46.7239 45.6395 46.6328C45.7305 46.5417 45.7305 46.4506 45.7305 46.2685C45.7305 46.1774 45.7305 45.9953 45.6395 45.9042C45.2752 45.3577 44.8198 44.9023 44.3644 44.3559L42.8161 42.4433L39.7195 38.6181L35.439 33.2446L40.0838 38.2538L43.3626 41.8968L45.0019 43.7184C45.5484 44.3559 46.0948 44.9023 46.6413 45.6309L46.7324 45.722V45.9042C46.7324 46.2685 46.7324 46.5417 46.6413 46.8149Z" fill="#EB1A6B"/>
<path d="M48.0987 64.7567C47.8255 64.4835 47.5523 64.2102 47.2791 63.937C47.5523 64.3013 47.7344 64.5745 48.0987 64.7567Z" fill="#EB1A6B"/>
<path fill-rule="evenodd" clip-rule="evenodd" d="M116.052 43.7857C113.911 44.3002 112.938 45.9725 113.522 47.9663C113.781 48.8024 114.56 49.7029 115.728 50.346C117.739 51.5038 118.388 51.954 118.713 52.6615C118.972 53.2403 119.037 53.4333 118.907 54.0121C118.583 55.2985 117.674 55.9416 116.377 55.9416C115.079 55.9416 114.171 55.2342 113.911 54.0121C113.846 53.4976 113.716 53.369 113.522 53.369C113.262 53.369 113.197 53.4976 113.197 54.7196V56.0703L114.041 56.3275C115.403 56.7778 117.285 56.7134 118.388 56.1989C120.594 55.1698 121.438 53.176 120.464 51.3108C120.075 50.6033 119.167 49.8315 117.609 48.8668C115.922 47.8377 115.209 47.1302 115.079 46.4227C114.884 45.265 115.922 44.3645 117.35 44.3645C118.453 44.3645 118.907 44.6218 119.296 45.4579C119.556 45.9725 119.686 46.1654 120.01 46.1654C120.335 46.1654 120.4 46.1011 120.27 45.7795C120.205 45.5866 120.14 45.072 120.14 44.6861C120.14 44.1716 120.075 43.9143 119.88 43.85C119.426 43.6571 116.636 43.5927 116.052 43.7857ZM73.2283 44.2359C73.2283 44.4932 73.358 44.5575 73.6176 44.5575C74.3962 44.5575 74.4611 44.7504 74.526 49.4456C74.5909 53.4976 74.6557 53.8192 74.9802 54.4623C75.4344 55.2985 76.0832 55.8773 77.0565 56.3275C77.7053 56.6491 78.1595 56.7134 79.5221 56.7134C80.9496 56.7134 81.274 56.6491 82.0526 56.2632C82.5717 56.006 83.2205 55.5557 83.4801 55.2342C84.3885 54.1408 84.5182 53.5619 84.5831 49.0597C84.7129 44.6861 84.7129 44.6218 85.4266 44.6218C85.6213 44.6218 85.6862 44.4932 85.6862 44.3002C85.6862 43.9786 85.5564 43.9786 83.7396 43.9786C81.9228 43.9786 81.7931 43.9786 81.7931 44.3002C81.7931 44.5575 81.9228 44.6218 82.3121 44.6861C83.1556 44.7505 83.2205 45.072 83.2205 49.0597C83.2205 53.1117 83.0908 53.8835 82.1824 54.7196C81.4038 55.4914 80.7549 55.7487 79.6519 55.7487C78.0946 55.7487 76.9267 55.0412 76.6023 53.7549C76.4725 53.3046 76.4076 51.761 76.4725 48.9954L76.5374 44.8791L77.1214 44.6861C77.4458 44.5575 77.7053 44.3645 77.7702 44.2359C77.8351 43.9786 77.5756 43.9786 75.5641 43.9786C73.358 43.9143 73.2283 43.9143 73.2283 44.2359ZM88.3464 44.2359C88.3464 44.4932 88.4762 44.5575 88.8006 44.5575C89.6441 44.5575 90.0983 44.8791 90.293 45.5866C90.4227 45.9725 90.4227 47.8377 90.4227 50.4747C90.3579 55.2342 90.293 55.5557 89.3197 55.7487C88.9953 55.813 88.8655 55.9416 88.8655 56.1346C88.8655 56.3919 88.9953 56.4562 91.1365 56.4562C93.2128 56.4562 93.4074 56.4562 93.4074 56.1989C93.4074 56.006 93.2128 55.8773 92.6937 55.7487C92.0449 55.5557 91.98 55.4914 91.7853 54.9769C91.5258 54.2051 91.5258 46.9372 91.7204 47.0016C91.7853 47.0016 92.4342 47.6447 93.1479 48.4808C93.8616 49.317 95.7433 51.4394 97.4303 53.176C100.026 55.9416 100.48 56.4562 100.869 56.4562H101.323L101.388 50.7963C101.453 46.7443 101.518 45.072 101.648 44.9434C101.778 44.8148 102.102 44.6861 102.362 44.6218C102.686 44.5575 102.881 44.4289 102.881 44.3002C102.881 44.1073 102.491 44.043 100.675 44.043C98.5333 43.9786 98.4685 43.9786 98.4685 44.3002C98.4685 44.5575 98.5982 44.6218 98.8578 44.6218C99.0524 44.6218 99.4417 44.8148 99.7013 45.0077L100.155 45.3936L100.22 49.2527C100.22 51.4394 100.22 53.1117 100.155 53.1117C100.091 53.1117 99.5715 52.5971 99.0524 52.0183C98.5333 51.4394 97.041 49.7672 95.7433 48.3522C94.4456 46.9372 93.0181 45.3936 92.5639 44.8791L91.7853 43.9786H90.0983C88.4113 43.9143 88.3464 43.9143 88.3464 44.2359ZM105.346 44.2359C105.346 44.4932 105.476 44.5575 105.8 44.5575C106.06 44.5575 106.384 44.6861 106.579 44.8148C106.903 45.0077 106.903 45.3293 106.968 49.7672C107.033 55.2985 106.968 55.6201 105.995 55.7487C105.541 55.813 105.346 55.9416 105.346 56.1346C105.346 56.3919 105.541 56.4562 107.812 56.4562C110.148 56.4562 110.277 56.4562 110.277 56.1346C110.277 55.8773 110.148 55.813 109.888 55.813C109.694 55.813 109.369 55.6844 109.174 55.5557C108.85 55.3628 108.85 55.0412 108.785 50.2817C108.72 45.3936 108.72 45.2007 109.045 44.8791C109.239 44.6861 109.564 44.5575 109.758 44.5575C110.083 44.5575 110.148 44.4932 110.148 44.2359C110.148 43.9143 110.018 43.9143 107.682 43.9143C105.476 43.9143 105.346 43.9143 105.346 44.2359ZM122.411 44.2359C122.476 44.4289 122.606 44.5575 122.865 44.5575C123.06 44.5575 123.384 44.7505 123.579 44.9434C123.774 45.1364 124.877 47.7734 126.109 50.9249L128.251 56.5205L128.835 56.5848L129.418 56.6491L130.911 52.6615C131.754 50.4747 132.533 48.4808 132.598 48.2879C132.793 47.902 132.793 47.9663 133.312 49.2527C133.571 50.0245 134.35 51.954 134.999 53.6262L136.167 56.6491H136.686C136.945 56.6491 137.205 56.5848 137.27 56.4562C137.334 56.3275 138.048 54.4623 138.957 52.2756C139.8 50.0888 140.773 47.6447 141.098 46.8729C141.811 45.072 141.941 44.8791 142.46 44.6861C142.72 44.6218 142.915 44.4289 142.915 44.3002C142.915 44.1073 142.59 44.043 140.968 44.043C139.151 44.043 139.021 44.043 139.021 44.3645C139.021 44.6218 139.151 44.6861 139.411 44.6861C140.06 44.6861 140.319 44.8791 140.319 45.265C140.319 45.5866 137.205 53.8835 137.01 54.0764C136.88 54.2051 134.09 46.487 134.025 45.7152C133.896 45.0077 134.22 44.6861 134.934 44.6861C135.193 44.6861 135.323 44.6218 135.323 44.3645C135.323 44.043 135.193 44.043 132.793 44.043C130.392 44.043 130.262 44.043 130.262 44.3645C130.262 44.5575 130.392 44.6861 130.522 44.6861C131.041 44.6861 131.689 45.2007 131.884 45.6509C132.144 46.3584 131.949 47.0659 130.457 50.9249L129.224 54.2051L128.964 53.5619C128.835 53.2403 128.056 51.1822 127.277 49.0597C125.72 44.8791 125.72 44.6861 126.758 44.6861C127.148 44.6861 127.212 44.6218 127.212 44.3645C127.212 44.043 127.083 44.043 124.812 44.043C122.346 43.9143 122.281 43.9143 122.411 44.2359ZM155.243 44.3645C155.243 44.3645 155.243 44.5575 155.243 44.6218C155.243 44.6861 155.437 44.6861 155.437 44.6861C155.567 44.6861 155.632 44.7505 155.762 44.7505C156.281 44.8791 156.605 44.9434 156.735 45.265C156.8 45.4579 156.865 46.2297 156.865 50.2817C156.865 54.5267 156.865 55.0412 156.735 55.2985C156.605 55.6201 156.346 55.813 155.697 56.006C155.697 56.006 155.437 56.0703 155.372 56.1346C155.308 56.1989 155.308 56.3275 155.308 56.3275C155.308 56.3275 155.308 56.4562 155.372 56.5205C155.437 56.5848 155.632 56.5848 155.632 56.5848H157.254H159.979C159.979 56.5848 160.109 56.5848 160.174 56.5205C160.239 56.4562 160.239 56.3275 160.239 56.3275C160.239 56.3275 160.239 56.1989 160.174 56.1346C160.109 56.0703 159.849 56.006 159.849 56.006C159.266 55.8773 158.941 55.6844 158.811 55.3628C158.682 55.1055 158.682 54.5267 158.682 53.176V51.2465C158.746 51.3108 158.811 51.3108 158.876 51.3751C159.201 51.5681 159.59 51.8897 161.017 51.8897C162.769 51.954 163.807 51.1822 164.456 50.2817C165.105 49.3813 165.3 47.9663 164.846 46.4227C164.391 44.9434 163.029 43.9786 161.147 43.9143C160.174 43.85 158.682 43.9143 157.903 43.9786H157.708C156.995 43.9786 156.086 44.1073 155.632 44.1073C155.502 44.1073 155.502 44.1073 155.437 44.1716C155.243 44.3002 155.243 44.3645 155.243 44.3645ZM162.445 50.2817C163.159 49.6386 163.159 48.6095 163.159 47.902C163.094 46.8729 162.64 44.8791 160.304 44.8791C159.72 44.8791 158.617 44.9434 158.552 45.7152C158.487 45.8438 158.487 46.8086 158.487 48.2236V50.539L158.746 50.6676C158.876 50.7319 159.071 50.7963 159.33 50.8606C160.304 51.1179 161.731 50.9249 162.445 50.2817ZM147.521 44.1073C147.716 44.043 147.846 43.9786 147.846 43.9786C147.846 43.9786 148.105 43.85 148.17 43.9786C148.17 44.043 148.3 44.2359 148.56 44.8791C148.624 45.0077 148.689 45.1364 148.689 45.265C149.014 46.1654 149.533 47.4518 149.792 48.1593C150.052 48.8667 150.571 50.1531 150.96 51.1822C151.35 52.1469 151.804 53.369 152.063 53.9478C152.258 54.5267 152.582 55.0412 152.647 55.1698C152.712 55.2341 152.712 55.2985 152.777 55.3628C152.972 55.6201 153.166 56.006 153.621 56.0703C153.621 56.0703 153.945 56.1346 154.01 56.1989C154.075 56.2632 154.075 56.3275 154.075 56.3275V56.5205C154.075 56.5205 154.075 56.5848 154.01 56.5848C154.01 56.6491 153.88 56.5848 153.88 56.5848H151.155H149.208C149.208 56.5848 149.143 56.5848 149.079 56.5848C149.014 56.5848 149.014 56.4562 149.014 56.4562V56.3275C149.014 56.3275 149.014 56.1989 149.079 56.1346C149.143 56.0703 149.468 56.006 149.468 56.006C150.052 55.9416 150.311 55.4914 150.376 55.2342V55.1698C150.506 54.9126 150.441 54.7196 149.857 53.369C149.468 52.4685 149.338 52.2112 149.273 52.1469C149.208 52.1469 148.17 52.1469 147.067 52.1469H144.926L144.796 52.4685C144.407 53.4976 144.082 54.4623 144.082 54.7196C143.953 55.2341 144.147 55.8773 144.926 56.006C144.926 56.006 145.25 56.0703 145.315 56.1346C145.38 56.1989 145.445 56.3275 145.445 56.3275V56.4562C145.445 56.4562 145.445 56.5205 145.38 56.5848C145.315 56.6491 145.186 56.5848 145.186 56.5848H143.174H141.228C141.228 56.5848 141.163 56.5848 141.098 56.5205C141.033 56.4562 141.033 56.3919 141.033 56.3919V56.2632C141.033 56.2632 141.033 56.1989 141.163 56.0703C141.292 55.9416 141.552 55.9416 141.552 55.9416C142.071 55.8773 142.395 55.2985 142.59 54.9769C142.59 54.9769 142.59 54.9126 142.655 54.9126C142.72 54.7839 143.044 54.0764 143.369 53.3046C143.693 52.5328 144.018 51.6324 144.147 51.3751C144.537 50.4104 144.926 49.5099 145.51 48.0949C145.834 47.3231 146.289 46.1654 146.548 45.5223L147.002 44.3645L147.521 44.1073ZM147.392 46.8729C147.521 47.1302 147.651 47.5161 147.716 47.709C147.781 47.902 148.04 48.4808 148.235 48.9954C148.43 49.5099 148.689 50.0888 148.819 50.346C148.949 50.6033 149.014 50.7963 149.014 50.7963C149.014 50.7963 148.235 50.7963 147.262 50.7963C146.159 50.7963 145.51 50.7963 145.51 50.7319C145.51 50.7319 145.575 50.6033 145.575 50.4747C145.64 50.2817 146.029 49.2527 146.808 47.0659C146.937 46.7443 147.067 46.4227 147.067 46.3584C147.132 46.3584 147.197 46.4227 147.392 46.8729Z" fill="#0B0C04"/>
</svg>
