
<svg width="201" height="100" viewBox="0 0 201 100" fill="none" xmlns="http://www.w3.org/2000/svg">
<rect x="0.765869" width="199.468" height="99.734" rx="10" fill="white" fill-opacity="0.75"/>
<path d="M66.39 53.4263L59.6476 41.72C58.1761 39.2822 54.5521 39.2602 53.1245 41.8299L46.0524 53.9973C44.7346 56.2375 46.3599 59.0268 49.0174 59.0268H63.2274C65.885 59.0488 67.8836 56.1497 66.39 53.4263Z" fill="#003087"/>
<path d="M56.6603 54.3486L56.243 53.6238C55.8477 52.943 54.9911 51.4935 54.9911 51.4935L49.2808 41.5662C47.8093 39.3699 44.2952 39.1723 42.8237 41.9616L36.1689 53.4701C34.7853 55.886 36.4325 59.0267 39.4195 59.0487H53.5416H59.5594H63.1394C59.4935 59.0707 58.3295 57.1599 56.6603 54.3486Z" fill="#1877F2"/>
<path d="M56.6605 54.3047L56.2432 53.5799C55.8479 52.8991 54.9913 51.4495 54.9913 51.4495L51.3016 44.9485L46.0085 53.9972C44.6907 56.2374 46.316 59.0267 48.9735 59.0267H53.5198H59.5377H63.1396C59.4718 59.0048 58.3297 57.1379 56.6605 54.3047Z" fill="url(#paint0_linear_3476_6862)"/>
<path d="M154.17 44.9139C155.158 43.9915 156.893 43.5522 159.419 43.5522H165.327V40.1919H158.343C156.674 40.1919 155.268 40.3676 154.17 40.719C153.094 41.0704 152.149 41.6195 151.337 42.3882C150.48 43.2228 149.799 44.255 149.316 45.485C148.833 46.7368 148.591 48.0985 148.591 49.5261C148.591 50.8878 148.833 52.2056 149.316 53.4136C149.799 54.6215 150.48 55.6757 151.337 56.5103C152.127 57.279 153.072 57.8281 154.126 58.1795C155.202 58.5309 156.63 58.7066 158.343 58.7066H165.327V55.3902H159.419C158.079 55.3902 157.157 55.3463 156.63 55.2365C156.081 55.1267 155.576 54.951 155.158 54.6874C154.324 54.1603 153.687 53.4794 153.269 52.6229C152.874 51.7883 152.676 50.7341 152.676 49.5042C152.676 47.3957 153.182 45.8364 154.17 44.9139Z" fill="#151618"/>
<path d="M102.754 58.7506H119.227V55.5001H106.774V50.8659H117.645V47.7911H106.774V43.4863H119.227V40.2139H102.754V58.7506Z" fill="#151618"/>
<path d="M123.334 40.2139L131.043 49.4822L123.334 58.7506H128.319L134.403 51.415V47.5714L128.319 40.2139H123.334Z" fill="#151618"/>
<path d="M142.046 40.2139L135.962 47.5714V51.415L142.046 58.7506H147.032L139.301 49.4822L147.032 40.2139H142.046Z" fill="#151618"/>
<path d="M86.612 49.3504L79.2104 40.2139H75.3889V58.7506H79.4081V46.3854L85.8213 54.0725H87.3806L93.7937 46.3196V58.7506H97.8129V40.2139H94.0354L86.612 49.3504Z" fill="#151618"/>
<defs>
<linearGradient id="paint0_linear_3476_6862" x1="44.1194" y1="49.8962" x2="60.5272" y2="55.9594" gradientUnits="userSpaceOnUse">
<stop stop-color="#003087" stop-opacity="0"/>
<stop offset="1" stop-color="#003087"/>
</linearGradient>
</defs>
</svg>
