
<svg width="200" height="100" viewBox="0 0 200 100" fill="none" xmlns="http://www.w3.org/2000/svg">
<rect width="199.468" height="99.734" rx="10" fill="white" fill-opacity="0.75"/>
<path d="M163.983 43.3711C164.127 43.3711 164.272 43.3711 164.417 43.5157C164.561 43.6604 164.561 43.8051 164.561 43.9497V47.1323C164.561 47.277 164.561 47.4217 164.417 47.5663C164.272 47.711 164.127 47.711 163.983 47.711H161.235V60.4414C161.235 60.586 161.235 60.7307 161.091 60.8754C160.946 61.02 160.802 61.02 160.657 61.02H156.464C156.319 61.02 156.174 61.02 156.03 60.8754C155.885 60.7307 155.885 60.586 155.885 60.4414V47.5663H153.138C152.993 47.5663 152.849 47.5663 152.704 47.4217C152.559 47.277 152.559 47.1323 152.559 46.9877V43.8051C152.559 43.6604 152.559 43.5157 152.704 43.3711C152.849 43.3711 152.993 43.3711 153.138 43.3711H155.885V38.8865C155.885 38.7419 155.885 38.5972 156.03 38.4525C156.174 38.3079 156.319 38.3079 156.464 38.3079H160.657C160.802 38.3079 160.946 38.3079 161.091 38.4525C161.235 38.5972 161.235 38.7419 161.235 38.8865V43.3711H163.983Z" fill="#1EA2B4"/>
<path d="M151.981 51.9062C151.981 52.6296 151.836 53.2082 151.692 53.6422C151.547 53.9315 151.258 54.0762 150.679 54.0762H140.268C140.557 55.0888 140.991 55.8121 141.714 56.2461C142.437 56.6801 143.449 56.9695 144.606 56.9695C145.185 56.9695 145.763 56.9695 146.197 56.8248C146.775 56.6801 147.354 56.3908 147.932 55.9568C148.077 55.8121 148.221 55.8122 148.366 55.8122C148.51 55.8122 148.655 55.8121 148.8 55.9568L150.679 57.6928C150.824 57.8374 150.824 57.8374 150.824 57.9821C150.824 58.1268 150.824 58.2714 150.679 58.4161C149.812 59.2841 148.944 59.8627 147.787 60.4414C146.775 60.8754 145.618 61.1647 144.317 61.1647C142.582 61.1647 140.991 60.7307 139.545 60.0074C138.244 59.1394 137.087 58.1268 136.364 56.6801C135.641 55.3782 135.207 53.7869 135.207 52.1956C135.207 50.6043 135.641 49.013 136.364 47.711C137.087 46.409 138.244 45.2517 139.545 44.5284C140.846 43.6604 142.292 43.3711 144.028 43.3711C145.618 43.3711 147.064 43.8051 148.221 44.5284C149.523 45.2517 150.39 46.409 151.113 47.711C151.692 48.8683 151.981 50.3149 151.981 51.9062ZM143.883 47.711C143.015 47.711 142.148 48.0003 141.569 48.4343C140.846 48.8683 140.557 49.5916 140.268 50.6043H147.354C147.209 49.5916 146.775 48.8683 146.197 48.4343C145.474 48.0003 144.751 47.711 143.883 47.711Z" fill="#1EA2B4"/>
<path d="M132.894 43.6606C133.038 43.6606 133.183 43.6606 133.327 43.8052C133.472 43.9499 133.472 44.0945 133.472 44.2392V60.8755C133.472 62.6115 133.038 64.0581 132.026 65.0707C131.158 66.228 130.002 66.9514 128.556 67.3854C127.109 67.6747 125.808 67.964 124.217 67.964C122.771 67.964 121.325 67.8193 120.024 67.3854C118.723 66.9514 117.566 66.3727 116.698 65.7941C116.554 65.6494 116.554 65.5047 116.554 65.3601C116.554 65.2154 116.554 65.0707 116.554 65.0707L117.855 62.6115C118 62.4668 118.144 62.3221 118.289 62.3221C118.433 62.3221 118.433 62.3221 118.578 62.3221C119.301 62.7561 120.169 63.1901 121.036 63.3348C121.904 63.4794 122.771 63.6241 123.928 63.6241C125.085 63.6241 126.242 63.3348 127.109 62.9008C128.122 62.4668 128.556 61.5988 128.556 60.4415V58.8502C127.254 60.4415 125.519 61.1648 123.494 61.1648C121.904 61.1648 120.458 60.7308 119.301 60.0075C118 59.1395 116.987 58.1269 116.264 56.6803C115.541 55.3783 115.252 53.787 115.252 52.1957C115.252 50.6044 115.541 49.1578 116.264 47.7111C117.132 46.2645 118 45.2518 119.301 44.3839C120.602 43.5159 121.904 43.2266 123.494 43.2266C125.374 43.2266 126.965 43.9499 128.411 45.5412L128.556 44.0945C128.556 43.8052 128.845 43.5159 129.134 43.5159H132.894V43.6606ZM124.217 56.2463C125.23 56.2463 126.242 55.8123 126.965 54.9443C127.688 54.0763 128.122 53.2083 128.122 52.051C128.122 50.8937 127.688 50.0257 126.965 49.1578C126.242 48.2898 125.374 47.8558 124.217 47.8558C123.061 47.8558 122.193 48.2898 121.47 49.0131C120.747 49.7364 120.313 50.7491 120.313 51.9064C120.313 53.0637 120.602 54.0763 121.325 54.7996C122.193 55.8123 123.061 56.2463 124.217 56.2463Z" fill="#1EA2B4"/>
<path d="M113.517 43.3711C113.662 43.3711 113.806 43.3711 113.951 43.5157C114.095 43.6604 114.095 43.8051 114.095 43.9497V47.1323C114.095 47.277 114.095 47.4217 113.951 47.5663C113.806 47.711 113.662 47.711 113.517 47.711H110.77V60.4414C110.77 60.586 110.77 60.7307 110.625 60.8754C110.48 61.02 110.336 61.02 110.191 61.02H105.998C105.853 61.02 105.709 61.02 105.564 60.8754C105.564 60.7307 105.564 60.586 105.564 60.4414V47.5663H102.672C102.527 47.5663 102.383 47.5663 102.238 47.4217C102.094 47.277 102.094 47.1323 102.094 46.9877V43.8051C102.094 43.6604 102.094 43.5157 102.238 43.3711C102.383 43.3711 102.527 43.3711 102.672 43.3711H105.564V38.8865C105.564 38.7419 105.564 38.5972 105.709 38.4525C105.853 38.3079 105.998 38.3079 106.142 38.3079H110.336C110.48 38.3079 110.625 38.3079 110.77 38.4525C110.914 38.5972 110.914 38.7419 110.914 38.8865V43.3711H113.517Z" fill="#1EA2B4"/>
<path d="M97.6107 41.9245C96.8877 41.9245 96.1647 41.6352 95.5863 41.0565C95.1525 40.4778 94.8633 39.8992 94.8633 39.0312C94.8633 38.1632 95.1525 37.5846 95.7309 37.0059C96.1647 36.4273 96.8877 36.1379 97.6107 36.1379C98.3337 36.1379 99.0567 36.4273 99.6351 37.0059C100.214 37.5846 100.503 38.3079 100.503 39.0312C100.503 39.7545 100.214 40.4778 99.6351 41.0565C99.0567 41.6352 98.4783 41.9245 97.6107 41.9245ZM95.0079 43.8051C95.0079 43.6604 95.0079 43.5158 95.1525 43.3711C95.2971 43.3711 95.4417 43.3711 95.5863 43.3711H99.7797C99.9243 43.3711 100.069 43.3711 100.214 43.5158C100.358 43.6604 100.358 43.8051 100.358 43.9498V60.4414C100.358 60.5861 100.358 60.7307 100.214 60.8754C100.069 61.0201 99.9243 61.0201 99.7797 61.0201H95.5863C95.4417 61.0201 95.2971 61.0201 95.1525 60.8754C95.0079 60.7307 95.0079 60.5861 95.0079 60.4414V43.8051Z" fill="#1EA2B4"/>
<path d="M88.3566 47.711C89.658 48.0003 90.8148 48.7237 91.6824 49.881C92.6946 51.0383 93.1284 52.3402 93.1284 53.7869C93.1284 56.1015 92.4054 57.9821 90.8148 59.1394C89.3688 60.2967 87.0552 60.8754 84.0186 60.8754H75.4871C75.3425 60.8754 75.1979 60.8754 75.0533 60.7307C74.9087 60.5861 74.9087 60.4414 74.9087 60.2967V36.7166C74.9087 36.5719 74.9087 36.4273 75.0533 36.2826C75.0533 36.2826 75.1979 36.1379 75.3425 36.1379H83.874C85.4646 36.1379 86.766 36.4273 87.7782 37.0059C88.935 37.5846 89.8026 38.3079 90.2364 39.3205C90.8148 40.3332 91.104 41.3458 91.104 42.6478C91.104 43.8051 90.8148 44.9624 90.2364 45.8304C89.8026 46.6984 89.0796 47.4217 88.3566 47.711ZM86.1876 43.3711C86.1876 41.9245 85.32 41.0565 83.4402 41.0565H80.2589V45.8304H83.4402C84.3078 45.8304 85.0308 45.6857 85.4646 45.2517C85.8984 44.8177 86.1876 44.0944 86.1876 43.3711ZM84.1632 56.1015C85.1754 56.1015 86.043 55.8122 86.766 55.3782C87.3444 54.9442 87.7782 54.0762 87.7782 53.2082C87.7782 52.1956 87.489 51.4723 86.766 51.0383C86.1876 50.6043 85.32 50.315 84.1632 50.315H80.2589V56.1015H84.1632Z" fill="#1EA2B4"/>
<path d="M44.9761 33.9679C45.4099 33.534 45.9883 33.2446 46.5667 33.2446H50.7601C51.3385 33.2446 51.6277 33.8233 51.1939 34.2573L42.9517 43.2264H47.5789L52.2061 48.145H42.9517L52.2061 58.1267H46.5667C45.9883 58.1267 45.2653 57.8374 44.8315 57.4034L35.4324 47.277C34.7094 46.409 34.7094 44.9624 35.577 44.0944L44.9761 33.9679Z" fill="#1EA2B4"/>
<path d="M57.8455 67.2406C57.4117 67.6746 56.8333 67.9639 56.1103 67.9639H51.9169C51.3385 67.9639 51.0493 67.3852 51.4831 66.9513L59.87 57.9821H55.2427L50.6155 53.0636H59.87L50.6155 43.0818H56.2549C56.8333 43.0818 57.5563 43.3711 57.9901 43.8051L67.3892 53.9315C68.2568 54.7995 68.2568 56.2462 67.3892 57.1141L57.8455 67.2406Z" fill="#1EA2B4"/>
</svg>
