<svg width="184" height="63" viewBox="0 0 184 63" fill="none" xmlns="http://www.w3.org/2000/svg">
<path d="M168.089 41.8821C165.544 38.6638 162.898 35.5465 160.195 32.5525C160.622 32.16 161.025 31.7451 161.406 31.2854C163.974 28.1344 164.804 23.6266 163.761 18.603C161.586 8.17457 152.201 0 142.401 0C142.233 0 142.065 0 141.908 0H79.4979L79.3185 5.42729L78.8699 19.3319C75.1361 13.8822 72.1311 8.66796 69.5971 3.24067L68.0946 0H32.8868L31.2161 2.47816C22.6945 15.1717 15.0026 28.3699 7.71432 42.8352L0 58.1415L15.2717 50.3594C20.3398 47.7803 25.5985 45.4479 30.9021 43.4295L32.7074 42.7455L33.7053 41.0859C34.8266 39.2357 35.9703 37.3631 37.1364 35.5241C43.0791 33.8757 49.1676 32.5076 55.2897 31.4536C55.5252 31.8461 55.7718 32.2385 56.0185 32.631L57.992 35.782L61.6585 35.1877C67.1527 34.2906 72.759 33.6851 78.3205 33.3711H78.4214V33.3935L84.3866 33.2029C86.0236 33.1468 87.6831 33.1244 89.3202 33.1244C92.6279 33.1244 95.9693 33.2253 99.2658 33.4384L102.854 33.6626L106.431 34.0551C111.364 34.5933 116.32 35.3671 121.175 36.3651L129.237 38.0246L127.914 30.4444C129.136 30.6799 130.359 30.9266 131.57 31.1733C135.741 34.6382 139.654 38.2377 143.5 42.1287L144.352 42.9922L145.496 43.4295C150.799 45.4479 156.069 47.7803 161.126 50.3594L184 62.0101L168.067 41.8821H168.089Z" fill="url(#paint0_linear_103_1031)"/>
<path d="M35.8805 5.61802C28.5698 16.5062 20.7546 29.4577 12.7263 45.3695C18.0187 42.6671 23.4232 40.2786 28.9174 38.193C30.476 35.6139 32.0233 33.1245 33.5483 30.7136C41.6438 28.3588 49.8739 26.5647 58.1825 25.2975C59.0122 26.7777 59.8756 28.213 60.7614 29.6371C66.4799 28.7064 72.2432 28.0785 78.0177 27.7645C72.7366 20.7 68.2627 13.6132 64.5289 5.61802H35.8805ZM39.2891 21.9223C42.9893 16.4165 46.555 11.4041 49.9636 6.773C51.5222 11.3369 53.2377 15.5419 55.1327 19.4778C49.8178 20.1282 44.5367 20.9467 39.2891 21.9223Z" fill="white"/>
<path d="M84.9249 5.61787C84.6894 12.9402 84.454 20.2738 84.2185 27.5961C85.9228 27.5401 87.6272 27.5176 89.3315 27.5176C92.7626 27.5176 96.2049 27.6298 99.6359 27.8428C99.165 20.4308 98.6941 13.0299 98.2231 5.61787H84.9361H84.9249Z" fill="white"/>
<path d="M149.88 29.8612C150.519 29.9622 151.135 30.0182 151.718 30.0182C156.854 30.0182 159.59 26.0823 158.267 19.758C156.618 11.8413 149.566 5.61787 142.401 5.61787C142.266 5.61787 142.12 5.61787 141.986 5.61787H104.625C105.433 13.243 106.24 20.8569 107.047 28.482C112.16 29.0427 117.251 29.8388 122.308 30.8705C121.882 28.4371 121.455 26.0038 121.041 23.5705C125.414 24.2321 129.775 25.0395 134.092 25.9702C138.476 29.5585 142.961 33.5841 147.503 38.1816C152.997 40.2673 158.401 42.6557 163.694 45.3582C159.063 39.5048 154.443 34.3803 149.88 29.85V29.8612ZM142.659 19.8925C142.446 19.8925 142.221 19.8701 141.997 19.8365C134.686 18.5694 127.297 17.5714 119.863 16.8425L119.134 12.6375C126.4 13.0972 133.632 13.714 140.831 14.5101C142.603 14.6895 144.307 16.1024 144.643 17.6499C144.935 18.9955 144.083 19.9037 142.67 19.9037L142.659 19.8925Z" fill="white"/>
<defs>
<linearGradient id="paint0_linear_103_1031" x1="92.0112" y1="0" x2="92.0112" y2="62.0101" gradientUnits="userSpaceOnUse">
<stop stop-color="#0071BC"/>
<stop offset="1" stop-color="#1B1464"/>
</linearGradient>
</defs>
</svg>
