<svg width="140" height="19" viewBox="0 0 140 19" fill="none" xmlns="http://www.w3.org/2000/svg">
<path d="M26.4927 2.91327H28.5136L32.5433 12.9234H30.4705L29.6506 10.8614H25.377L24.5236 12.9234H22.4508L26.4896 2.91327H26.4927ZM27.5169 5.56653L26.1117 9.00325H28.9129L27.5169 5.56653Z" fill="#9EB0CB"/>
<path d="M34.1923 5.51996H36.1371V6.28011C36.579 5.92479 36.9783 5.67723 37.335 5.54034C37.6916 5.40054 38.0604 5.33356 38.4323 5.33356C39.2005 5.33356 39.8528 5.58986 40.3892 6.10245C40.8404 6.53641 41.0659 7.18298 41.0659 8.03342V12.9264H39.1425V9.68479C39.1425 8.7994 39.0999 8.21399 39.0176 7.92566C38.9353 7.63441 38.789 7.41598 38.5847 7.26162C38.3805 7.10725 38.1245 7.03444 37.8196 7.03444C37.4264 7.03444 37.0881 7.15968 36.8076 7.41306C36.5272 7.66645 36.3291 8.01303 36.2224 8.45573C36.1645 8.68582 36.1371 9.18676 36.1371 9.95857V12.9293H34.1923V5.52578V5.51996Z" fill="#9EB0CB"/>
<path d="M48.9851 5.51992H50.9298V12.9234H48.9851V12.14C48.6041 12.4836 48.2261 12.7341 47.8421 12.8856C47.461 13.037 47.0465 13.1127 46.6015 13.1127C45.6017 13.1127 44.736 12.7429 44.0044 12.0002C43.2729 11.2575 42.9101 10.3372 42.9101 9.23333C42.9101 8.1295 43.2637 7.15382 43.9709 6.42279C44.6781 5.69176 45.5346 5.3277 46.5466 5.3277C47.0099 5.3277 47.4488 5.41216 47.8542 5.57817C48.2627 5.74709 48.6407 5.99757 48.9851 6.3325V5.51701V5.51992ZM46.9398 7.04315C46.3393 7.04315 45.8394 7.24702 45.4431 7.65185C45.0469 8.05669 44.8457 8.57802 44.8457 9.21294C44.8457 9.84786 45.0469 10.3779 45.4523 10.7915C45.8577 11.2051 46.3545 11.4119 46.9459 11.4119C47.5372 11.4119 48.0615 11.208 48.4639 10.8031C48.8662 10.3983 49.0674 9.86533 49.0674 9.20711C49.0674 8.54889 48.8662 8.04212 48.4639 7.6402C48.0615 7.23828 47.5525 7.04023 46.9367 7.04023L46.9398 7.04315Z" fill="#9EB0CB"/>
<path d="M53.0026 2.66272H54.9473V12.9234H53.0026V2.66272Z" fill="#9EB0CB"/>
<path d="M56.1758 5.51978H58.1632L60.1749 10.1652L62.3971 5.51978H64.3906L59.5379 15.6319H57.5291L59.1233 12.3699L56.1788 5.51978H56.1758Z" fill="#9EB0CB"/>
<path d="M66.0518 2.79095H67.9965V5.51994H69.1518V7.11889H67.9965V12.9235H66.0518V7.11889H65.055V5.51994H66.0518V2.79095Z" fill="#9EB0CB"/>
<path d="M71.2701 2.47069C71.6115 2.47069 71.9041 2.5901 72.148 2.8231C72.3918 3.05901 72.5138 3.34443 72.5138 3.68228C72.5138 4.02012 72.3918 4.29681 72.151 4.52981C71.9102 4.7628 71.6207 4.8793 71.2854 4.8793C70.9501 4.8793 70.6453 4.75989 70.4014 4.52107C70.1575 4.28225 70.0356 3.99391 70.0356 3.65315C70.0356 3.31239 70.1575 3.04736 70.3983 2.81436C70.6392 2.58427 70.9318 2.46777 71.2732 2.46777L71.2701 2.47069ZM70.2978 5.52005H72.2425V12.9236H70.2978V5.52005Z" fill="#9EB0CB"/>
<path d="M81.9145 7.01698L80.2959 7.86742C79.9911 7.56452 79.6924 7.35191 79.3937 7.23541C79.098 7.11891 78.7475 7.05775 78.3481 7.05775C77.6196 7.05775 77.0313 7.26454 76.5833 7.67811C76.1352 8.09168 75.9096 8.62466 75.9096 9.27123C75.9096 9.9178 76.126 10.4158 76.5589 10.8119C76.9917 11.2109 77.5587 11.409 78.2628 11.409C79.1315 11.409 79.8113 11.1265 80.2959 10.5585L81.8292 11.5604C80.997 12.5944 79.8265 13.1099 78.3116 13.1099C76.949 13.1099 75.8822 12.7254 75.111 11.9536C74.3398 11.1818 73.9527 10.2789 73.9527 9.24502C73.9527 8.52855 74.1417 7.86742 74.5166 7.26454C74.8915 6.66166 75.4158 6.18692 76.0864 5.84325C76.757 5.49958 77.5099 5.32483 78.3421 5.32483C79.1102 5.32483 79.8021 5.47045 80.4148 5.76461C81.0275 6.05877 81.5274 6.47526 81.9175 7.01406L81.9145 7.01698Z" fill="#9EB0CB"/>
<path d="M88.7301 6.55399L87.5261 7.70442C87.0384 7.24133 86.5933 7.01125 86.194 7.01125C85.9745 7.01125 85.8038 7.05493 85.6819 7.14522C85.5569 7.2326 85.496 7.34327 85.496 7.47433C85.496 7.57336 85.5356 7.66655 85.6149 7.75102C85.6941 7.83548 85.8861 7.94906 86.194 8.09469L86.9073 8.43545C87.6571 8.78786 88.1723 9.149 88.4527 9.51597C88.7331 9.88295 88.8733 10.314 88.8733 10.8091C88.8733 11.4673 88.6203 12.0149 88.1143 12.4547C87.6084 12.8944 86.9317 13.1158 86.0812 13.1158C84.9504 13.1158 84.0481 12.6935 83.3745 11.8489L84.5724 10.6023C84.801 10.8557 85.0662 11.0625 85.374 11.2198C85.6789 11.377 85.9532 11.4528 86.191 11.4528C86.447 11.4528 86.6543 11.3945 86.8097 11.2751C86.9652 11.1586 87.0444 11.0217 87.0444 10.8674C87.0444 10.5819 86.761 10.3023 86.1971 10.0315L85.5417 9.71985C84.2889 9.11697 83.661 8.35972 83.661 7.45394C83.661 6.86854 83.8957 6.36759 84.3712 5.95402C84.8437 5.54045 85.4472 5.33075 86.1849 5.33075C86.6878 5.33075 87.1603 5.4356 87.6053 5.64821C88.0503 5.85791 88.4253 6.16081 88.7331 6.5569L88.7301 6.55399Z" fill="#9EB0CB"/>
<path d="M93.6802 2.91327H95.6615V12.9234H93.6802V2.91327Z" fill="#9EB0CB"/>
<path d="M98.0116 5.51996H99.9564V6.28011C100.398 5.92479 100.798 5.67723 101.154 5.54034C101.511 5.40054 101.88 5.33356 102.252 5.33356C103.02 5.33356 103.672 5.58986 104.209 6.10245C104.66 6.53641 104.885 7.18298 104.885 8.03342V12.9264H102.962V9.68479C102.962 8.7994 102.919 8.21399 102.837 7.92566C102.755 7.63441 102.608 7.41598 102.404 7.26162C102.2 7.10725 101.944 7.03444 101.639 7.03444C101.246 7.03444 100.907 7.15968 100.627 7.41306C100.347 7.66645 100.148 8.01303 100.042 8.45573C99.9838 8.68582 99.9564 9.18676 99.9564 9.95857V12.9293H98.0116V5.52578V5.51996Z" fill="#9EB0CB"/>
<path d="M111.829 6.55399L110.625 7.70442C110.137 7.24133 109.692 7.01125 109.293 7.01125C109.074 7.01125 108.903 7.05493 108.781 7.14522C108.656 7.2326 108.595 7.34327 108.595 7.47433C108.595 7.57336 108.635 7.66655 108.714 7.75102C108.793 7.83548 108.985 7.94906 109.293 8.09469L110.006 8.43545C110.756 8.78786 111.271 9.149 111.552 9.51597C111.832 9.88295 111.972 10.314 111.972 10.8091C111.972 11.4673 111.719 12.0149 111.213 12.4547C110.707 12.8944 110.031 13.1158 109.18 13.1158C108.049 13.1158 107.147 12.6935 106.473 11.8489L107.671 10.6023C107.9 10.8557 108.165 11.0625 108.473 11.2198C108.778 11.377 109.052 11.4528 109.29 11.4528C109.546 11.4528 109.753 11.3945 109.909 11.2751C110.064 11.1586 110.143 11.0217 110.143 10.8674C110.143 10.5819 109.86 10.3023 109.296 10.0315L108.641 9.71985C107.388 9.11697 106.76 8.35972 106.76 7.45394C106.76 6.86854 106.995 6.36759 107.47 5.95402C107.943 5.54045 108.546 5.33075 109.284 5.33075C109.787 5.33075 110.259 5.4356 110.704 5.64821C111.149 5.85791 111.524 6.16081 111.832 6.5569L111.829 6.55399Z" fill="#9EB0CB"/>
<path d="M114.582 2.47069C114.923 2.47069 115.216 2.5901 115.459 2.8231C115.703 3.05901 115.825 3.34443 115.825 3.68228C115.825 4.02012 115.703 4.29681 115.462 4.52981C115.222 4.7628 114.932 4.8793 114.597 4.8793C114.261 4.8793 113.957 4.75989 113.713 4.52107C113.469 4.28225 113.347 3.99391 113.347 3.65315C113.347 3.31239 113.469 3.04736 113.71 2.81436C113.951 2.58427 114.243 2.46777 114.585 2.46777L114.582 2.47069ZM113.609 5.52005H115.554V12.9236H113.609V5.52005Z" fill="#9EB0CB"/>
<path d="M123.366 5.52006H125.305V11.8634C125.305 13.1158 125.04 14.0361 124.516 14.6274C123.808 15.4254 122.742 15.8244 121.318 15.8244C120.559 15.8244 119.919 15.7341 119.401 15.5535C118.883 15.373 118.447 15.105 118.09 14.7526C117.733 14.4002 117.471 13.975 117.301 13.4711H119.443C119.632 13.6808 119.876 13.8381 120.178 13.9429C120.477 14.0507 120.83 14.1031 121.239 14.1031C121.76 14.1031 122.181 14.0245 122.501 13.873C122.818 13.7187 123.043 13.5206 123.174 13.2731C123.305 13.0284 123.369 12.6061 123.369 12.0061C123.028 12.3323 122.668 12.5682 122.293 12.711C121.919 12.8537 121.495 12.9265 121.019 12.9265C119.98 12.9265 119.102 12.5682 118.386 11.8518C117.669 11.1353 117.31 10.2266 117.31 9.12862C117.31 7.95489 117.691 7.01125 118.45 6.29769C119.139 5.65403 119.959 5.33075 120.913 5.33075C121.358 5.33075 121.781 5.40939 122.178 5.56375C122.574 5.72102 122.973 5.97732 123.369 6.33555V5.52006H123.366ZM121.352 7.06367C120.739 7.06367 120.233 7.25881 119.834 7.65199C119.434 8.04518 119.236 8.53738 119.236 9.13153C119.236 9.72567 119.44 10.2557 119.849 10.6489C120.257 11.045 120.769 11.2402 121.388 11.2402C122.007 11.2402 122.489 11.0479 122.879 10.6635C123.269 10.279 123.467 9.77227 123.467 9.14609C123.467 8.51991 123.269 8.0277 122.876 7.64325C122.482 7.25881 121.973 7.06367 121.352 7.06367Z" fill="#9EB0CB"/>
<path d="M127.597 2.66272H129.527V6.26836C129.908 5.95382 130.289 5.72082 130.673 5.56354C131.057 5.40627 131.447 5.33055 131.84 5.33055C132.608 5.33055 133.258 5.58393 133.785 6.09361C134.236 6.5334 134.462 7.17997 134.462 8.03332V12.9263H132.544V9.68178C132.544 8.82552 132.502 8.24302 132.416 7.94012C132.331 7.63723 132.185 7.41005 131.977 7.2586C131.77 7.10716 131.514 7.03434 131.212 7.03434C130.819 7.03434 130.481 7.15958 130.197 7.41005C129.914 7.66053 129.719 8.00129 129.609 8.43233C129.551 8.65368 129.524 9.16336 129.524 9.95556V12.9292H127.594V2.66272H127.597Z" fill="#9EB0CB"/>
<path d="M136.9 2.79095H138.845V5.51994H140V7.11889H138.845V12.9235H136.9V7.11889H135.903V5.51994H136.9V2.79095Z" fill="#9EB0CB"/>
<path d="M6.8293 -4.6401e-05L4.74936 1.9873L6.8293 3.97466L8.90924 1.9873L6.8293 -4.6401e-05Z" fill="#9EB0CB"/>
<path d="M12.1692 0.000380351L10.0893 1.98773L12.1692 3.97508L14.2492 1.98773L12.1692 0.000380351Z" fill="#9EB0CB"/>
<path d="M6.82612 4.72383L4.74619 6.71118L6.82612 8.69853L8.90606 6.71118L6.82612 4.72383Z" fill="#9EB0CB"/>
<path d="M12.1691 4.72432L10.0892 6.71167L12.1691 8.69902L14.2491 6.71167L12.1691 4.72432Z" fill="#9EB0CB"/>
<path d="M6.82588 9.45058L4.74594 11.4379L6.82588 13.4253L8.90582 11.4379L6.82588 9.45058Z" fill="#9EB0CB"/>
<path d="M12.1689 9.45131L10.0889 11.4387L12.1689 13.426L14.2488 11.4387L12.1689 9.45131Z" fill="#9EB0CB"/>
<path d="M17.1152 4.72548L15.0352 6.71283L17.1152 8.70018L19.1951 6.71283L17.1152 4.72548Z" fill="#9EB0CB"/>
<path d="M17.1149 9.44917L15.035 11.4365L17.1149 13.4239L19.1949 11.4365L17.1149 9.44917Z" fill="#9EB0CB"/>
<path d="M2.0803 4.72359L0.000366211 6.71094L2.08031 8.69829L4.16024 6.71094L2.0803 4.72359Z" fill="#9EB0CB"/>
<path d="M2.07994 9.44752L0 11.4349L2.07994 13.4222L4.15988 11.4349L2.07994 9.44752Z" fill="#9EB0CB"/>
<path d="M6.82789 14.1763L4.74796 16.1637L6.82789 18.151L8.90783 16.1637L6.82789 14.1763Z" fill="#9EB0CB"/>
<path d="M12.1677 14.1771L10.0878 16.1644L12.1677 18.1518L14.2476 16.1644L12.1677 14.1771Z" fill="#9EB0CB"/>
<path d="M3.258 7.44659H6.98129V10.7045" stroke="#E3EAF3" stroke-miterlimit="10"/>
</svg>
