<svg width="140" height="19" viewBox="0 0 140 19" fill="none" xmlns="http://www.w3.org/2000/svg">
<path d="M26.4927 3.06512H28.5136L32.5433 13.0753H30.4705L29.6506 11.0133H25.377L24.5236 13.0753H22.4508L26.4896 3.06512H26.4927ZM27.5169 5.71839L26.1117 9.15511H28.9129L27.5169 5.71839Z" fill="#1E1E1E"/>
<path d="M34.1923 5.67181H36.1371V6.43197C36.579 6.07664 36.9783 5.82908 37.335 5.6922C37.6916 5.5524 38.0604 5.48541 38.4323 5.48541C39.2005 5.48541 39.8528 5.74171 40.3892 6.25431C40.8404 6.68826 41.0659 7.33483 41.0659 8.18528V13.0782H39.1425V9.83665C39.1425 8.95126 39.0999 8.36585 39.0176 8.07751C38.9353 7.78627 38.789 7.56783 38.5847 7.41347C38.3805 7.25911 38.1245 7.1863 37.8196 7.1863C37.4264 7.1863 37.0881 7.31153 36.8076 7.56492C36.5272 7.81831 36.3291 8.16489 36.2224 8.60759C36.1645 8.83767 36.1371 9.33862 36.1371 10.1104V13.0811H34.1923V5.67764V5.67181Z" fill="#1E1E1E"/>
<path d="M48.9851 5.67178H50.9298V13.0753H48.9851V12.2918C48.6041 12.6355 48.2261 12.886 47.8421 13.0374C47.461 13.1889 47.0465 13.2646 46.6015 13.2646C45.6017 13.2646 44.736 12.8947 44.0044 12.152C43.2729 11.4094 42.9101 10.489 42.9101 9.38518C42.9101 8.28135 43.2637 7.30567 43.9709 6.57464C44.6781 5.84361 45.5346 5.47955 46.5466 5.47955C47.0099 5.47955 47.4488 5.56401 47.8542 5.73003C48.2627 5.89895 48.6407 6.14942 48.9851 6.48436V5.66886V5.67178ZM46.9398 7.195C46.3393 7.195 45.8394 7.39887 45.4431 7.80371C45.0469 8.20854 44.8457 8.72987 44.8457 9.36479C44.8457 9.99971 45.0469 10.5298 45.4523 10.9434C45.8577 11.3569 46.3545 11.5637 46.9459 11.5637C47.5372 11.5637 48.0615 11.3598 48.4639 10.955C48.8662 10.5502 49.0674 10.0172 49.0674 9.35897C49.0674 8.70075 48.8662 8.19398 48.4639 7.79206C48.0615 7.39014 47.5525 7.19209 46.9367 7.19209L46.9398 7.195Z" fill="#1E1E1E"/>
<path d="M53.0026 2.81458H54.9473V13.0752H53.0026V2.81458Z" fill="#1E1E1E"/>
<path d="M56.1758 5.67163H58.1632L60.1749 10.317L62.3971 5.67163H64.3906L59.5379 15.7837H57.5291L59.1233 12.5218L56.1788 5.67163H56.1758Z" fill="#1E1E1E"/>
<path d="M66.0518 2.94281H67.9965V5.6718H69.1518V7.27075H67.9965V13.0753H66.0518V7.27075H65.055V5.6718H66.0518V2.94281Z" fill="#1E1E1E"/>
<path d="M71.2701 2.62254C71.6115 2.62254 71.9041 2.74195 72.148 2.97495C72.3918 3.21086 72.5138 3.49628 72.5138 3.83413C72.5138 4.17198 72.3918 4.44866 72.151 4.68166C71.9102 4.91466 71.6207 5.03116 71.2854 5.03116C70.9501 5.03116 70.6453 4.91175 70.4014 4.67292C70.1575 4.4341 70.0356 4.14577 70.0356 3.80501C70.0356 3.46425 70.1575 3.19921 70.3983 2.96621C70.6392 2.73613 70.9318 2.61963 71.2732 2.61963L71.2701 2.62254ZM70.2978 5.6719H72.2425V13.0754H70.2978V5.6719Z" fill="#1E1E1E"/>
<path d="M81.9145 7.16883L80.2959 8.01927C79.9911 7.71638 79.6924 7.50377 79.3937 7.38727C79.098 7.27077 78.7475 7.20961 78.3481 7.20961C77.6196 7.20961 77.0313 7.41639 76.5833 7.82996C76.1352 8.24354 75.9096 8.77652 75.9096 9.42309C75.9096 10.0697 76.126 10.5677 76.5589 10.9638C76.9917 11.3628 77.5587 11.5608 78.2628 11.5608C79.1315 11.5608 79.8113 11.2783 80.2959 10.7104L81.8292 11.7123C80.997 12.7462 79.8265 13.2617 78.3116 13.2617C76.949 13.2617 75.8822 12.8773 75.111 12.1055C74.3398 11.3337 73.9527 10.4308 73.9527 9.39688C73.9527 8.68041 74.1417 8.01927 74.5166 7.41639C74.8915 6.81351 75.4158 6.33878 76.0864 5.9951C76.757 5.65143 77.5099 5.47668 78.3421 5.47668C79.1102 5.47668 79.8021 5.62231 80.4148 5.91647C81.0275 6.21063 81.5274 6.62711 81.9175 7.16592L81.9145 7.16883Z" fill="#1E1E1E"/>
<path d="M88.7301 6.70584L87.5261 7.85627C87.0384 7.39319 86.5933 7.1631 86.194 7.1631C85.9745 7.1631 85.8038 7.20679 85.6819 7.29708C85.5569 7.38445 85.496 7.49513 85.496 7.62619C85.496 7.72521 85.5356 7.81841 85.6149 7.90287C85.6941 7.98733 85.8861 8.10092 86.194 8.24654L86.9073 8.5873C87.6571 8.93971 88.1723 9.30086 88.4527 9.66783C88.7331 10.0348 88.8733 10.4658 88.8733 10.961C88.8733 11.6192 88.6203 12.1667 88.1143 12.6065C87.6084 13.0463 86.9317 13.2676 86.0812 13.2676C84.9504 13.2676 84.0481 12.8453 83.3745 12.0007L84.5724 10.7542C84.801 11.0076 85.0662 11.2144 85.374 11.3716C85.6789 11.5289 85.9532 11.6046 86.191 11.6046C86.447 11.6046 86.6543 11.5464 86.8097 11.427C86.9652 11.3105 87.0444 11.1736 87.0444 11.0192C87.0444 10.7338 86.761 10.4542 86.1971 10.1833L85.5417 9.8717C84.2889 9.26882 83.661 8.51158 83.661 7.6058C83.661 7.02039 83.8957 6.51945 84.3712 6.10587C84.8437 5.6923 85.4472 5.4826 86.1849 5.4826C86.6878 5.4826 87.1603 5.58745 87.6053 5.80006C88.0503 6.00976 88.4253 6.31266 88.7331 6.70876L88.7301 6.70584Z" fill="#1E1E1E"/>
<path d="M93.6802 3.06512H95.6615V13.0753H93.6802V3.06512Z" fill="#83C457"/>
<path d="M98.0116 5.67181H99.9564V6.43197C100.398 6.07664 100.798 5.82908 101.154 5.6922C101.511 5.5524 101.88 5.48541 102.252 5.48541C103.02 5.48541 103.672 5.74171 104.209 6.25431C104.66 6.68826 104.885 7.33483 104.885 8.18528V13.0782H102.962V9.83665C102.962 8.95126 102.919 8.36585 102.837 8.07751C102.755 7.78627 102.608 7.56783 102.404 7.41347C102.2 7.25911 101.944 7.1863 101.639 7.1863C101.246 7.1863 100.907 7.31153 100.627 7.56492C100.347 7.81831 100.148 8.16489 100.042 8.60759C99.9838 8.83767 99.9564 9.33862 99.9564 10.1104V13.0811H98.0116V5.67764V5.67181Z" fill="#83C457"/>
<path d="M111.829 6.70584L110.625 7.85627C110.137 7.39319 109.692 7.1631 109.293 7.1631C109.074 7.1631 108.903 7.20679 108.781 7.29708C108.656 7.38445 108.595 7.49513 108.595 7.62619C108.595 7.72521 108.635 7.81841 108.714 7.90287C108.793 7.98733 108.985 8.10092 109.293 8.24654L110.006 8.5873C110.756 8.93971 111.271 9.30086 111.552 9.66783C111.832 10.0348 111.972 10.4658 111.972 10.961C111.972 11.6192 111.719 12.1667 111.213 12.6065C110.707 13.0463 110.031 13.2676 109.18 13.2676C108.049 13.2676 107.147 12.8453 106.473 12.0007L107.671 10.7542C107.9 11.0076 108.165 11.2144 108.473 11.3716C108.778 11.5289 109.052 11.6046 109.29 11.6046C109.546 11.6046 109.753 11.5464 109.909 11.427C110.064 11.3105 110.143 11.1736 110.143 11.0192C110.143 10.7338 109.86 10.4542 109.296 10.1833L108.641 9.8717C107.388 9.26882 106.76 8.51158 106.76 7.6058C106.76 7.02039 106.995 6.51945 107.47 6.10587C107.943 5.6923 108.546 5.4826 109.284 5.4826C109.787 5.4826 110.259 5.58745 110.704 5.80006C111.149 6.00976 111.524 6.31266 111.832 6.70876L111.829 6.70584Z" fill="#83C457"/>
<path d="M114.582 2.62254C114.923 2.62254 115.216 2.74195 115.459 2.97495C115.703 3.21086 115.825 3.49628 115.825 3.83413C115.825 4.17198 115.703 4.44866 115.462 4.68166C115.222 4.91466 114.932 5.03116 114.597 5.03116C114.261 5.03116 113.957 4.91175 113.713 4.67292C113.469 4.4341 113.347 4.14577 113.347 3.80501C113.347 3.46425 113.469 3.19921 113.71 2.96621C113.951 2.73613 114.243 2.61963 114.585 2.61963L114.582 2.62254ZM113.609 5.6719H115.554V13.0754H113.609V5.6719Z" fill="#83C457"/>
<path d="M123.366 5.67192H125.305V12.0153C125.305 13.2676 125.04 14.188 124.516 14.7792C123.808 15.5772 122.742 15.9762 121.318 15.9762C120.559 15.9762 119.919 15.886 119.401 15.7054C118.883 15.5248 118.447 15.2569 118.09 14.9045C117.733 14.552 117.471 14.1268 117.301 13.623H119.443C119.632 13.8327 119.876 13.9899 120.178 14.0948C120.477 14.2026 120.83 14.255 121.239 14.255C121.76 14.255 122.181 14.1763 122.501 14.0249C122.818 13.8705 123.043 13.6725 123.174 13.4249C123.305 13.1803 123.369 12.758 123.369 12.158C123.028 12.4842 122.668 12.7201 122.293 12.8628C121.919 13.0055 121.495 13.0783 121.019 13.0783C119.98 13.0783 119.102 12.7201 118.386 12.0036C117.669 11.2872 117.31 10.3785 117.31 9.28047C117.31 8.10674 117.691 7.1631 118.45 6.44955C119.139 5.80589 119.959 5.4826 120.913 5.4826C121.358 5.4826 121.781 5.56124 122.178 5.7156C122.574 5.87288 122.973 6.12917 123.369 6.48741V5.67192H123.366ZM121.352 7.21553C120.739 7.21553 120.233 7.41066 119.834 7.80385C119.434 8.19703 119.236 8.68924 119.236 9.28338C119.236 9.87753 119.44 10.4076 119.849 10.8008C120.257 11.1969 120.769 11.392 121.388 11.392C122.007 11.392 122.489 11.1998 122.879 10.8153C123.269 10.4309 123.467 9.92413 123.467 9.29795C123.467 8.67176 123.269 8.17956 122.876 7.79511C122.482 7.41066 121.973 7.21553 121.352 7.21553Z" fill="#83C457"/>
<path d="M127.597 2.81458H129.527V6.42022C129.908 6.10567 130.289 5.87267 130.673 5.7154C131.057 5.55813 131.447 5.4824 131.84 5.4824C132.608 5.4824 133.258 5.73579 133.785 6.24547C134.236 6.68525 134.462 7.33182 134.462 8.18518V13.0781H132.544V9.83364C132.544 8.97737 132.502 8.39488 132.416 8.09198C132.331 7.78908 132.185 7.56191 131.977 7.41046C131.77 7.25901 131.514 7.1862 131.212 7.1862C130.819 7.1862 130.481 7.31144 130.197 7.56191C129.914 7.81238 129.719 8.15314 129.609 8.58419C129.551 8.80554 129.524 9.31522 129.524 10.1074V13.081H127.594V2.81458H127.597Z" fill="#83C457"/>
<path d="M136.9 2.94281H138.845V5.6718H140V7.27075H138.845V13.0753H136.9V7.27075H135.903V5.6718H136.9V2.94281Z" fill="#83C457"/>
<path d="M6.8293 0.151809L4.74936 2.13916L6.8293 4.12651L8.90924 2.13916L6.8293 0.151809Z" fill="#83C457"/>
<path d="M12.1692 0.152236L10.0893 2.13959L12.1692 4.12694L14.2492 2.13959L12.1692 0.152236Z" fill="#83C457"/>
<path d="M6.82612 4.87569L4.74619 6.86304L6.82612 8.85039L8.90606 6.86304L6.82612 4.87569Z" fill="#83C457"/>
<path d="M12.1691 4.87617L10.0892 6.86353L12.1691 8.85088L14.2491 6.86353L12.1691 4.87617Z" fill="#83C457"/>
<path d="M6.82588 9.60243L4.74594 11.5898L6.82588 13.5771L8.90582 11.5898L6.82588 9.60243Z" fill="#1E1E1E"/>
<path d="M12.1689 9.60316L10.0889 11.5905L12.1689 13.5779L14.2488 11.5905L12.1689 9.60316Z" fill="#83C457"/>
<path d="M17.1152 4.87733L15.0352 6.86469L17.1152 8.85204L19.1951 6.86469L17.1152 4.87733Z" fill="#83C457"/>
<path d="M17.1149 9.60103L15.035 11.5884L17.1149 13.5757L19.1949 11.5884L17.1149 9.60103Z" fill="#83C457"/>
<path d="M2.0803 4.87544L0.000366211 6.86279L2.08031 8.85014L4.16024 6.86279L2.0803 4.87544Z" fill="#83C457"/>
<path d="M2.07994 9.59938L0 11.5867L2.07994 13.5741L4.15988 11.5867L2.07994 9.59938Z" fill="#1E1E1E"/>
<path d="M6.82789 14.3282L4.74796 16.3156L6.82789 18.3029L8.90783 16.3156L6.82789 14.3282Z" fill="#1E1E1E"/>
<path d="M12.1677 14.3289L10.0878 16.3163L12.1677 18.3036L14.2476 16.3163L12.1677 14.3289Z" fill="#83C457"/>
<path d="M3.258 7.59845H6.98129V10.8563" stroke="white" stroke-miterlimit="10"/>
</svg>
