<svg width="90" height="36" viewBox="0 0 90 36" fill="none" xmlns="http://www.w3.org/2000/svg">
<path d="M27.2852 7.76019H21.9911V25.6787H27.2852V7.76019Z" fill="black"/>
<path d="M16.3566 12.4476C17.55 11.0905 18.2504 9.30286 18.1596 7.33253C17.991 3.43103 14.6704 0.429871 10.779 0.429871H0V25.6787H12.3356C16.3177 25.6787 19.5475 22.4427 19.5475 18.4499C19.5475 17.1972 19.2362 16.0228 18.6784 15.0051C18.1207 13.9742 17.3294 13.1 16.3566 12.4606V12.4476ZM5.16251 4.70978H10.1305C11.7908 4.70978 13.1917 6.02768 13.1917 7.80228C13.1917 9.55078 11.7908 10.8948 10.1564 10.8948H5.14954V4.70978H5.16251ZM11.5313 21.3858H5.16251V15.1877H11.4795C13.1398 15.1877 14.5406 16.5056 14.5406 18.2933C14.5406 20.0809 13.1398 21.3858 11.5054 21.3858H11.5313Z" fill="black"/>
<path d="M40.6605 7.98045C40.016 7.83793 39.3585 7.76019 38.6752 7.76019C37.3087 7.76019 36.0196 8.07114 34.8722 8.61531V7.76019H29.7285V25.6787H34.8722V14.938C34.8722 13.3962 36.0583 12.0617 37.5924 12.0099C39.178 11.971 40.4801 13.2407 40.4801 14.8214V25.6787H45.6109V15.7154C45.6109 15.1712 45.6109 14.627 45.598 14.0958C45.5206 11.1677 43.5096 8.62826 40.6605 7.98045Z" fill="black"/>
<path d="M27.2852 0.429871H21.9911V5.72399H27.2852V0.429871Z" fill="black"/>
<path d="M56.8032 7.76019C51.7501 7.76019 47.6469 11.7323 47.6469 16.627C47.6469 21.5217 51.7105 25.4425 56.7241 25.481C56.7504 25.481 56.7768 25.481 56.8032 25.481C58.7559 25.481 60.7085 26.0319 60.7085 27.672C60.7085 29.3121 58.9406 30.76 56.8032 30.76C54.6659 30.76 52.9111 29.0687 52.9111 26.9929H47.6469C47.6469 31.8876 51.7501 35.8597 56.8032 35.8597C61.8563 35.8597 65.9595 31.8876 65.9595 26.9929C65.9595 26.9929 66.0651 24.3406 63.743 22.4058C65.1283 20.8554 65.9595 18.8309 65.9595 16.627C65.9595 14.9228 65.4582 13.3212 64.6006 11.9758H65.9727V7.77301H56.9088C56.9088 7.77301 56.856 7.77301 56.8164 7.77301L56.8032 7.76019ZM60.7085 16.627C60.7085 18.7156 58.967 20.3941 56.8032 20.3941C54.6395 20.3941 52.9111 18.7027 52.9111 16.627C52.9111 14.5512 54.6527 12.8599 56.8032 12.8599C58.9538 12.8599 60.7085 14.5512 60.7085 16.627Z" fill="black"/>
<path d="M90.0001 12.388V7.35297C87.3697 7.35297 84.7652 8.02342 82.4717 9.2986C81.2407 9.9822 80.1134 10.8236 79.1027 11.8095C78.9343 11.9804 78.7658 12.1513 78.5974 12.3354C78.4289 12.1645 78.2734 11.9804 78.092 11.8095C77.0813 10.8236 75.954 9.96906 74.723 9.2986C72.4295 8.02342 69.8251 7.35297 67.1947 7.35297V12.388C70.4989 12.388 73.5439 13.8866 75.5912 16.5159C73.5569 19.1451 70.5118 20.6438 67.1947 20.6438V25.6788C69.8251 25.6788 72.4295 25.0083 74.723 23.7331C75.954 23.0495 77.0813 22.2082 78.092 21.2222C78.2605 21.0513 78.4289 20.8804 78.5974 20.6964C78.7658 20.8673 78.9213 21.0513 79.1027 21.2222C80.1134 22.2082 81.2407 23.0627 82.4717 23.7331C84.7652 25.0083 87.3697 25.6788 90.0001 25.6788V20.6438C86.6959 20.6438 83.6508 19.132 81.6035 16.5159C83.6379 13.8866 86.6829 12.3748 90.0001 12.3748V12.388Z" fill="#0047FF"/>
</svg>
