<svg width="90" height="36" viewBox="0 0 90 36" fill="none" xmlns="http://www.w3.org/2000/svg">
<path d="M27.2852 7.33032H21.9911V25.2489H27.2852V7.33032Z" fill="#9EB0CB"/>
<path d="M16.3566 12.0177C17.55 10.6606 18.2504 8.87299 18.1596 6.90266C17.991 3.00116 14.6704 0 10.779 0H0V25.2489H12.3356C16.3177 25.2489 19.5475 22.0128 19.5475 18.02C19.5475 16.7673 19.2362 15.593 18.6784 14.5752C18.1207 13.5444 17.3294 12.6701 16.3566 12.0307V12.0177ZM5.16251 4.27991H10.1305C11.7908 4.27991 13.1917 5.59781 13.1917 7.37241C13.1917 9.12091 11.7908 10.4649 10.1564 10.4649H5.14954V4.27991H5.16251ZM11.5313 20.9559H5.16251V14.7579H11.4795C13.1398 14.7579 14.5406 16.0758 14.5406 17.8634C14.5406 19.6511 13.1398 20.9559 11.5054 20.9559H11.5313Z" fill="#9EB0CB"/>
<path d="M40.6605 7.55058C40.016 7.40806 39.3585 7.33032 38.6752 7.33032C37.3087 7.33032 36.0196 7.64127 34.8722 8.18544V7.33032H29.7285V25.2489H34.8722V14.5081C34.8722 12.9663 36.0583 11.6318 37.5924 11.58C39.178 11.5411 40.4801 12.8108 40.4801 14.3915V25.2489H45.6109V15.2855C45.6109 14.7413 45.6109 14.1972 45.598 13.6659C45.5206 10.7378 43.5096 8.19839 40.6605 7.55058Z" fill="#9EB0CB"/>
<path d="M27.2852 0H21.9911V5.29412H27.2852V0Z" fill="#9EB0CB"/>
<path d="M56.8032 7.33032C51.7501 7.33032 47.6469 11.3024 47.6469 16.1971C47.6469 21.0918 51.7105 25.0127 56.7241 25.0511C56.7504 25.0511 56.7768 25.0511 56.8032 25.0511C58.7559 25.0511 60.7085 25.6021 60.7085 27.2422C60.7085 28.8823 58.9406 30.3302 56.8032 30.3302C54.6659 30.3302 52.9111 28.6388 52.9111 26.5631H47.6469C47.6469 31.4578 51.7501 35.4299 56.8032 35.4299C61.8563 35.4299 65.9595 31.4578 65.9595 26.5631C65.9595 26.5631 66.0651 23.9107 63.743 21.9759C65.1283 20.4255 65.9595 18.401 65.9595 16.1971C65.9595 14.493 65.4582 12.8913 64.6006 11.5459H65.9727V7.34314H56.9088C56.9088 7.34314 56.856 7.34314 56.8164 7.34314L56.8032 7.33032ZM60.7085 16.1971C60.7085 18.2857 58.967 19.9642 56.8032 19.9642C54.6395 19.9642 52.9111 18.2729 52.9111 16.1971C52.9111 14.1214 54.6527 12.43 56.8032 12.43C58.9538 12.43 60.7085 14.1214 60.7085 16.1971Z" fill="#9EB0CB"/>
<path d="M90.0001 11.9581V6.9231C87.3697 6.9231 84.7652 7.59355 82.4717 8.86873C81.2407 9.55233 80.1134 10.3937 79.1027 11.3797C78.9343 11.5506 78.7658 11.7215 78.5974 11.9055C78.4289 11.7346 78.2734 11.5506 78.092 11.3797C77.0813 10.3937 75.954 9.53919 74.723 8.86873C72.4295 7.59355 69.8251 6.9231 67.1947 6.9231V11.9581C70.4989 11.9581 73.5439 13.4568 75.5912 16.086C73.5569 18.7152 70.5118 20.2139 67.1947 20.2139V25.2489C69.8251 25.2489 72.4295 24.5784 74.723 23.3033C75.954 22.6196 77.0813 21.7783 78.092 20.7923C78.2605 20.6214 78.4289 20.4505 78.5974 20.2665C78.7658 20.4374 78.9213 20.6214 79.1027 20.7923C80.1134 21.7783 81.2407 22.6328 82.4717 23.3033C84.7652 24.5784 87.3697 25.2489 90.0001 25.2489V20.2139C86.6959 20.2139 83.6508 18.7021 81.6035 16.086C83.6379 13.4568 86.6829 11.9449 90.0001 11.9449V11.9581Z" fill="#9EB0CB"/>
</svg>
