
<svg width="140" height="38" viewBox="0 0 140 38" fill="none" xmlns="http://www.w3.org/2000/svg">
<path d="M139.376 10.9345C139.532 10.9345 139.688 10.9345 139.844 11.0907C140 11.2469 140 11.4031 140 11.5593V14.9959C140 15.1521 140 15.3083 139.844 15.4645C139.688 15.6207 139.532 15.6207 139.376 15.6207H136.409V29.3669C136.409 29.5231 136.409 29.6793 136.253 29.8355C136.097 29.9917 135.94 29.9917 135.784 29.9917H131.256C131.1 29.9917 130.944 29.9917 130.788 29.8355C130.632 29.6793 130.632 29.5231 130.632 29.3669V15.4645H127.665C127.509 15.4645 127.353 15.4645 127.197 15.3083C127.041 15.1521 127.041 14.9959 127.041 14.8397V11.4031C127.041 11.2469 127.041 11.0907 127.197 10.9345C127.353 10.9345 127.509 10.9345 127.665 10.9345H130.632V6.09208C130.632 5.93588 130.632 5.77967 130.788 5.62346C130.944 5.46725 131.1 5.46725 131.256 5.46725H135.784C135.94 5.46725 136.097 5.46725 136.253 5.62346C136.409 5.77967 136.409 5.93588 136.409 6.09208V10.9345H139.376Z" fill="#9EB0CB"/>
<path d="M126.416 20.1506C126.416 20.9317 126.26 21.5565 126.103 22.0251C125.947 22.3375 125.635 22.4937 125.01 22.4937H113.768C114.081 23.5872 114.549 24.3682 115.33 24.8368C116.11 25.3055 117.203 25.6179 118.453 25.6179C119.077 25.6179 119.702 25.6179 120.17 25.4617C120.795 25.3055 121.419 24.993 122.044 24.5244C122.2 24.3682 122.356 24.3682 122.512 24.3682C122.668 24.3682 122.824 24.3682 122.981 24.5244L125.01 26.3989C125.167 26.5551 125.167 26.5551 125.167 26.7113C125.167 26.8675 125.167 27.0237 125.01 27.1799C124.074 28.1172 123.137 28.742 121.888 29.3668C120.795 29.8355 119.546 30.1479 118.14 30.1479C116.267 30.1479 114.549 29.6793 112.988 28.8982C111.582 27.961 110.333 26.8675 109.553 25.3055C108.772 23.8996 108.303 22.1813 108.303 20.4631C108.303 18.7448 108.772 17.0265 109.553 15.6206C110.333 14.2148 111.582 12.9651 112.988 12.1841C114.393 11.2468 115.954 10.9344 117.828 10.9344C119.546 10.9344 121.107 11.4031 122.356 12.1841C123.761 12.9651 124.698 14.2148 125.479 15.6206C126.103 16.8703 126.416 18.4324 126.416 20.1506ZM117.672 15.6206C116.735 15.6206 115.798 15.9331 115.174 16.4017C114.393 16.8703 114.081 17.6513 113.768 18.7448H121.419C121.263 17.6513 120.795 16.8703 120.17 16.4017C119.389 15.9331 118.609 15.6206 117.672 15.6206Z" fill="#9EB0CB"/>
<path d="M105.806 11.2469C105.962 11.2469 106.118 11.2469 106.274 11.4031C106.43 11.5593 106.43 11.7155 106.43 11.8718V29.8355C106.43 31.71 105.962 33.2721 104.869 34.3655C103.932 35.6152 102.683 36.3962 101.121 36.8648C99.5599 37.1773 98.1547 37.4897 96.4371 37.4897C94.8757 37.4897 93.3143 37.3335 91.9091 36.8648C90.5038 36.3962 89.2547 35.7714 88.3179 35.1466C88.1617 34.9904 88.1617 34.8342 88.1617 34.678C88.1617 34.5217 88.1617 34.3655 88.1617 34.3655L89.567 31.71C89.7231 31.5538 89.8793 31.3976 90.0354 31.3976C90.1915 31.3976 90.1915 31.3976 90.3477 31.3976C91.1284 31.8662 92.0652 32.3348 93.0021 32.4911C93.9389 32.6473 94.8757 32.8035 96.1248 32.8035C97.374 32.8035 98.6231 32.4911 99.5599 32.0224C100.653 31.5538 101.121 30.6166 101.121 29.3669V27.6486C99.7161 29.3669 97.8424 30.148 95.6564 30.148C93.9389 30.148 92.3775 29.6793 91.1284 28.8983C89.7231 27.9611 88.6301 26.8676 87.8494 25.3055C87.0688 23.8997 86.7565 22.1814 86.7565 20.4631C86.7565 18.7449 87.0688 17.1828 87.8494 15.6207C88.7863 14.0586 89.7231 12.9652 91.1284 12.028C92.5336 11.0907 93.9389 10.7783 95.6564 10.7783C97.6862 10.7783 99.4038 11.5593 100.965 13.2776L101.121 11.7155C101.121 11.4031 101.434 11.0907 101.746 11.0907H105.806V11.2469ZM96.4371 24.8369C97.5301 24.8369 98.6231 24.3683 99.4038 23.4311C100.184 22.4938 100.653 21.5566 100.653 20.3069C100.653 19.0573 100.184 18.12 99.4038 17.1828C98.6231 16.2455 97.6862 15.7769 96.4371 15.7769C95.188 15.7769 94.2512 16.2455 93.4705 17.0266C92.6898 17.8076 92.2214 18.9011 92.2214 20.1507C92.2214 21.4004 92.5336 22.4938 93.3143 23.2749C94.2512 24.3683 95.188 24.8369 96.4371 24.8369Z" fill="#9EB0CB"/>
<path d="M84.8826 10.9345C85.0388 10.9345 85.1949 10.9345 85.3511 11.0907C85.5072 11.2469 85.5072 11.4031 85.5072 11.5593V14.9959C85.5072 15.1521 85.5072 15.3083 85.3511 15.4645C85.1949 15.6207 85.0388 15.6207 84.8826 15.6207H81.916V29.3669C81.916 29.5231 81.916 29.6793 81.7598 29.8355C81.6037 29.9917 81.4476 29.9917 81.2914 29.9917H76.7634C76.6072 29.9917 76.4511 29.9917 76.295 29.8355C76.295 29.6793 76.295 29.5231 76.295 29.3669V15.4645H73.1722C73.016 15.4645 72.8599 15.4645 72.7038 15.3083C72.5476 15.1521 72.5476 14.9959 72.5476 14.8397V11.4031C72.5476 11.2469 72.5476 11.0907 72.7038 10.9345C72.8599 10.9345 73.016 10.9345 73.1722 10.9345H76.295V6.09208C76.295 5.93588 76.295 5.77967 76.4511 5.62346C76.6072 5.46725 76.7634 5.46725 76.9195 5.46725H81.4476C81.6037 5.46725 81.7598 5.46725 81.916 5.62346C82.0721 5.77967 82.0721 5.93588 82.0721 6.09208V10.9345H84.8826Z" fill="#9EB0CB"/>
<path d="M67.7073 9.37244C66.9266 9.37244 66.1459 9.06002 65.5213 8.43519C65.0529 7.81037 64.7406 7.18554 64.7406 6.2483C64.7406 5.31106 65.0529 4.68623 65.6774 4.0614C66.1459 3.43657 66.9266 3.12416 67.7073 3.12416C68.488 3.12416 69.2687 3.43657 69.8932 4.0614C70.5178 4.68623 70.8301 5.46726 70.8301 6.2483C70.8301 7.02933 70.5178 7.81037 69.8932 8.43519C69.2687 9.06002 68.6441 9.37244 67.7073 9.37244ZM64.8967 11.4031C64.8967 11.2469 64.8967 11.0907 65.0529 10.9345C65.209 10.9345 65.3652 10.9345 65.5213 10.9345H70.0494C70.2055 10.9345 70.3616 10.9345 70.5178 11.0907C70.6739 11.2469 70.6739 11.4031 70.6739 11.5593V29.3669C70.6739 29.5231 70.6739 29.6793 70.5178 29.8355C70.3616 29.9917 70.2055 29.9917 70.0494 29.9917H65.5213C65.3652 29.9917 65.209 29.9917 65.0529 29.8355C64.8967 29.6793 64.8967 29.5231 64.8967 29.3669V11.4031Z" fill="#9EB0CB"/>
<path d="M57.7146 15.6207C59.1198 15.9331 60.369 16.7142 61.3058 17.9638C62.3988 19.2135 62.8672 20.6193 62.8672 22.1814C62.8672 24.6807 62.0865 26.7114 60.369 27.961C58.8076 29.2107 56.3093 29.8355 53.0304 29.8355H43.8182C43.662 29.8355 43.5059 29.8355 43.3497 29.6793C43.1936 29.5231 43.1936 29.3669 43.1936 29.2107V3.74899C43.1936 3.59278 43.1936 3.43657 43.3497 3.28037C43.3497 3.28037 43.5059 3.12416 43.662 3.12416H52.8743C54.5918 3.12416 55.9971 3.43657 57.09 4.0614C58.3391 4.68623 59.276 5.46726 59.7444 6.56071C60.369 7.65416 60.6812 8.74761 60.6812 10.1535C60.6812 11.4031 60.369 12.6528 59.7444 13.59C59.276 14.5273 58.4953 15.3083 57.7146 15.6207ZM55.3725 10.9345C55.3725 9.37243 54.4357 8.43519 52.4058 8.43519H48.9708V13.59H52.4058C53.3427 13.59 54.1234 13.4338 54.5918 12.9652C55.0602 12.4966 55.3725 11.7155 55.3725 10.9345ZM53.1865 24.6807C54.2795 24.6807 55.2164 24.3683 55.9971 23.8997C56.6216 23.4311 57.09 22.4938 57.09 21.5566C57.09 20.4631 56.7778 19.6821 55.9971 19.2135C55.3725 18.7448 54.4357 18.4324 53.1865 18.4324H48.9708V24.6807H53.1865Z" fill="#9EB0CB"/>
<path d="M10.8726 0.781034C11.341 0.312414 11.9655 0 12.5901 0H17.1181C17.7427 0 18.055 0.624827 17.5866 1.09345L8.6866 10.7783H13.6831L18.6795 16.0893H8.6866L18.6795 26.8676H12.5901C11.9655 26.8676 11.1848 26.5552 10.7164 26.0865L0.567339 15.1521C-0.213359 14.2148 -0.213359 12.6528 0.723478 11.7155L10.8726 0.781034Z" fill="#9EB0CB"/>
<path d="M24.7688 36.7087C24.3004 37.1773 23.6758 37.4897 22.8951 37.4897H18.367C17.7425 37.4897 17.4302 36.8649 17.8986 36.3962L26.9547 26.7114H21.9583L16.9618 21.4004H26.9547L16.9618 10.6221H23.0512C23.6758 10.6221 24.4565 10.9345 24.9249 11.4032L35.074 22.3376C36.0108 23.2749 36.0108 24.8369 35.074 25.7742L24.7688 36.7087Z" fill="#9EB0CB"/>
</svg>
