
<svg width="140" height="38" viewBox="0 0 140 38" fill="none" xmlns="http://www.w3.org/2000/svg">
<path d="M139.376 11.4241C139.532 11.4241 139.688 11.4241 139.844 11.5804C140 11.7366 140 11.8928 140 12.049V15.4855C140 15.6417 140 15.7979 139.844 15.9541C139.688 16.1104 139.532 16.1104 139.376 16.1104H136.409V29.8566C136.409 30.0128 136.409 30.169 136.253 30.3252C136.097 30.4814 135.94 30.4814 135.784 30.4814H131.256C131.1 30.4814 130.944 30.4814 130.788 30.3252C130.632 30.169 130.632 30.0128 130.632 29.8566V15.9541H127.665C127.509 15.9541 127.353 15.9541 127.197 15.7979C127.04 15.6417 127.04 15.4855 127.04 15.3293V11.8928C127.04 11.7366 127.04 11.5804 127.197 11.4241C127.353 11.4241 127.509 11.4241 127.665 11.4241H130.632V6.58174C130.632 6.42553 130.632 6.26932 130.788 6.11312C130.944 5.95691 131.1 5.95691 131.256 5.95691H135.784C135.94 5.95691 136.097 5.95691 136.253 6.11312C136.409 6.26932 136.409 6.42553 136.409 6.58174V11.4241H139.376Z" fill="#1EA2B4"/>
<path d="M126.416 20.6403C126.416 21.4213 126.26 22.0461 126.103 22.5148C125.947 22.8272 125.635 22.9834 125.01 22.9834H113.768C114.081 24.0768 114.549 24.8579 115.33 25.3265C116.11 25.7951 117.203 26.1075 118.453 26.1075C119.077 26.1075 119.702 26.1075 120.17 25.9513C120.795 25.7951 121.419 25.4827 122.044 25.0141C122.2 24.8579 122.356 24.8579 122.512 24.8579C122.668 24.8579 122.824 24.8579 122.981 25.0141L125.01 26.8886C125.167 27.0448 125.167 27.0448 125.167 27.201C125.167 27.3572 125.167 27.5134 125.01 27.6696C124.074 28.6068 123.137 29.2317 121.888 29.8565C120.795 30.3251 119.546 30.6375 118.14 30.6375C116.267 30.6375 114.549 30.1689 112.988 29.3879C111.582 28.4506 110.333 27.3572 109.553 25.7951C108.772 24.3892 108.303 22.671 108.303 20.9527C108.303 19.2344 108.772 17.5161 109.553 16.1103C110.333 14.7044 111.582 13.4548 112.988 12.6737C114.393 11.7365 115.954 11.4241 117.828 11.4241C119.546 11.4241 121.107 11.8927 122.356 12.6737C123.761 13.4548 124.698 14.7044 125.479 16.1103C126.103 17.3599 126.416 18.922 126.416 20.6403ZM117.672 16.1103C116.735 16.1103 115.798 16.4227 115.174 16.8913C114.393 17.3599 114.081 18.141 113.768 19.2344H121.419C121.263 18.141 120.795 17.3599 120.17 16.8913C119.389 16.4227 118.609 16.1103 117.672 16.1103Z" fill="#1EA2B4"/>
<path d="M105.805 11.7366C105.962 11.7366 106.118 11.7366 106.274 11.8928C106.43 12.049 106.43 12.2052 106.43 12.3614V30.3252C106.43 32.1997 105.962 33.7618 104.869 34.8552C103.932 36.1049 102.683 36.8859 101.121 37.3545C99.5599 37.6669 98.1546 37.9793 96.4371 37.9793C94.8757 37.9793 93.3143 37.8231 91.909 37.3545C90.5038 36.8859 89.2547 36.2611 88.3178 35.6362C88.1617 35.48 88.1617 35.3238 88.1617 35.1676C88.1617 35.0114 88.1617 34.8552 88.1617 34.8552L89.5669 32.1997C89.7231 32.0435 89.8792 31.8873 90.0354 31.8873C90.1915 31.8873 90.1915 31.8873 90.3476 31.8873C91.1283 32.3559 92.0652 32.8245 93.002 32.9807C93.9389 33.1369 94.8757 33.2931 96.1248 33.2931C97.3739 33.2931 98.623 32.9807 99.5599 32.5121C100.653 32.0435 101.121 31.1062 101.121 29.8566V28.1383C99.716 29.8566 97.8423 30.6376 95.6564 30.6376C93.9389 30.6376 92.3775 30.169 91.1283 29.388C89.7231 28.4507 88.6301 27.3573 87.8494 25.7952C87.0687 24.3894 86.7564 22.6711 86.7564 20.9528C86.7564 19.2345 87.0687 17.6725 87.8494 16.1104C88.7862 14.5483 89.7231 13.4549 91.1283 12.5176C92.5336 11.5804 93.9389 11.268 95.6564 11.268C97.6862 11.268 99.4037 12.049 100.965 13.7673L101.121 12.2052C101.121 11.8928 101.434 11.5804 101.746 11.5804H105.805V11.7366ZM96.4371 25.3266C97.5301 25.3266 98.623 24.858 99.4037 23.9207C100.184 22.9835 100.653 22.0462 100.653 20.7966C100.653 19.5469 100.184 18.6097 99.4037 17.6725C98.623 16.7352 97.6862 16.2666 96.4371 16.2666C95.188 16.2666 94.2511 16.7352 93.4704 17.5162C92.6897 18.2973 92.2213 19.3907 92.2213 20.6404C92.2213 21.89 92.5336 22.9835 93.3143 23.7645C94.2511 24.858 95.188 25.3266 96.4371 25.3266Z" fill="#1EA2B4"/>
<path d="M84.8826 11.4241C85.0388 11.4241 85.1949 11.4241 85.3511 11.5804C85.5072 11.7366 85.5072 11.8928 85.5072 12.049V15.4855C85.5072 15.6417 85.5072 15.7979 85.3511 15.9541C85.1949 16.1104 85.0388 16.1104 84.8826 16.1104H81.916V29.8566C81.916 30.0128 81.916 30.169 81.7598 30.3252C81.6037 30.4814 81.4476 30.4814 81.2914 30.4814H76.7634C76.6072 30.4814 76.4511 30.4814 76.295 30.3252C76.295 30.169 76.295 30.0128 76.295 29.8566V15.9541H73.1722C73.016 15.9541 72.8599 15.9541 72.7038 15.7979C72.5476 15.6417 72.5476 15.4855 72.5476 15.3293V11.8928C72.5476 11.7366 72.5476 11.5804 72.7038 11.4241C72.8599 11.4241 73.016 11.4241 73.1722 11.4241H76.295V6.58174C76.295 6.42553 76.295 6.26932 76.4511 6.11312C76.6072 5.95691 76.7634 5.95691 76.9195 5.95691H81.4476C81.6037 5.95691 81.7598 5.95691 81.916 6.11312C82.0721 6.26932 82.0721 6.42553 82.0721 6.58174V11.4241H84.8826Z" fill="#1EA2B4"/>
<path d="M67.7072 9.86207C66.9265 9.86207 66.1458 9.54966 65.5213 8.92483C65.0529 8.30001 64.7406 7.67518 64.7406 6.73794C64.7406 5.8007 65.0529 5.17587 65.6774 4.55104C66.1458 3.92621 66.9265 3.6138 67.7072 3.6138C68.4879 3.6138 69.2686 3.92621 69.8932 4.55104C70.5178 5.17587 70.83 5.9569 70.83 6.73794C70.83 7.51897 70.5178 8.30001 69.8932 8.92483C69.2686 9.54966 68.6441 9.86207 67.7072 9.86207ZM64.8967 11.8928C64.8967 11.7366 64.8967 11.5804 65.0529 11.4241C65.209 11.4241 65.3651 11.4241 65.5213 11.4241H70.0493C70.2055 11.4241 70.3616 11.4241 70.5177 11.5804C70.6739 11.7366 70.6739 11.8928 70.6739 12.049V29.8566C70.6739 30.0128 70.6739 30.169 70.5177 30.3252C70.3616 30.4814 70.2055 30.4814 70.0493 30.4814H65.5213C65.3651 30.4814 65.209 30.4814 65.0529 30.3252C64.8967 30.169 64.8967 30.0128 64.8967 29.8566V11.8928Z" fill="#1EA2B4"/>
<path d="M57.7146 16.1103C59.1198 16.4228 60.3689 17.2038 61.3058 18.4535C62.3988 19.7031 62.8672 21.109 62.8672 22.671C62.8672 25.1703 62.0865 27.201 60.3689 28.4507C58.8075 29.7003 56.3093 30.3252 53.0304 30.3252H43.8181C43.662 30.3252 43.5059 30.3252 43.3497 30.169C43.1936 30.0128 43.1936 29.8566 43.1936 29.7003V4.23863C43.1936 4.08242 43.1936 3.92621 43.3497 3.77001C43.3497 3.77001 43.5059 3.6138 43.662 3.6138H52.8742C54.5918 3.6138 55.997 3.92621 57.09 4.55104C58.3391 5.17587 59.276 5.9569 59.7444 7.05035C60.3689 8.1438 60.6812 9.23725 60.6812 10.6431C60.6812 11.8928 60.3689 13.1424 59.7444 14.0797C59.276 15.0169 58.4953 15.7979 57.7146 16.1103ZM55.3725 11.4241C55.3725 9.86207 54.4356 8.92483 52.4058 8.92483H48.9707V14.0797H52.4058C53.3427 14.0797 54.1234 13.9235 54.5918 13.4548C55.0602 12.9862 55.3725 12.2052 55.3725 11.4241ZM53.1865 25.1703C54.2795 25.1703 55.2163 24.8579 55.997 24.3893C56.6216 23.9207 57.09 22.9834 57.09 22.0462C57.09 20.9528 56.7777 20.1717 55.997 19.7031C55.3725 19.2345 54.4356 18.9221 53.1865 18.9221H48.9707V25.1703H53.1865Z" fill="#1EA2B4"/>
<path d="M10.8726 1.27069C11.341 0.802068 11.9655 0.489655 12.5901 0.489655H17.1181C17.7427 0.489655 18.055 1.11448 17.5866 1.5831L8.6866 11.2679H13.6831L18.6795 16.579H8.6866L18.6795 27.3572H12.5901C11.9655 27.3572 11.1848 27.0448 10.7164 26.5762L0.567339 15.6417C-0.213359 14.7045 -0.213359 13.1424 0.723478 12.2052L10.8726 1.27069Z" fill="#1EA2B4"/>
<path d="M24.7688 37.1983C24.3004 37.6669 23.6758 37.9793 22.8951 37.9793H18.3671C17.7425 37.9793 17.4302 37.3545 17.8987 36.8859L26.9548 27.2011H21.9583L16.9618 21.89H26.9548L16.9618 11.1118H23.0513C23.6758 11.1118 24.4565 11.4242 24.9249 11.8928L35.074 22.8273C36.0109 23.7645 36.0109 25.3266 35.074 26.2638L24.7688 37.1983Z" fill="#1EA2B4"/>
</svg>
