<svg width="140" height="33" viewBox="0 0 140 33" fill="none" xmlns="http://www.w3.org/2000/svg">
<path d="M23.8972 15.479C23.8512 15.4414 23.8011 15.4038 23.753 15.3662C24.762 13.9018 25.2759 12.1221 25.2759 10.0269C25.2759 6.85169 24.1896 4.40764 22.038 2.65294C19.8864 0.87735 16.941 0 13.181 0H3.82257V1.31603H13.0139C16.2099 1.31603 19.0926 1.96359 20.8682 3.5094C22.0631 4.54969 23.0491 5.91376 23.5671 7.5473C23.0407 6.09341 22.0735 5.1889 21.2442 4.53298C19.9073 3.5094 18.3824 2.69472 14.0374 2.69472H6.80974V3.96897C6.80974 3.96897 10.0476 3.92719 13.8703 3.96897C17.5677 4.01074 18.9255 4.42853 20.1789 5.34766C21.7665 6.51746 22.7692 7.97971 22.7692 10.006C22.7692 11.5852 22.1195 12.7863 21.027 13.8162C20.9058 13.7681 20.7826 13.7222 20.6573 13.6783C20.6928 13.6595 20.7283 13.6407 20.7638 13.6198C21.9336 12.9722 22.7274 11.6353 22.7274 9.9433C22.7274 8.02149 21.662 6.89347 20.5967 6.22501C19.594 5.59833 18.7166 5.18054 14.5597 5.18054H9.35823V6.01612H14.4134C18.09 6.01612 19.4687 6.66368 19.9073 6.93524C20.7429 7.43659 21.8291 8.27216 21.8291 9.9433C21.8291 11.0087 21.2025 12.3665 20.2624 12.8887C20.0139 13.0287 19.7005 13.1644 19.3203 13.2877C18.0336 12.9806 16.6089 12.826 15.0401 12.826H8.77333V14.142H14.8521C18.0482 14.142 20.9309 14.8105 22.7065 16.3354C23.8846 17.3465 24.8664 18.6917 25.397 20.3002C24.8685 18.8965 23.9306 18.0045 23.1034 17.359C21.7665 16.3563 20.2416 15.5207 15.8966 15.5207H6.07861V16.795C6.07861 16.795 11.9067 16.7532 15.7295 16.795C19.4269 16.8368 20.7847 17.2546 22.038 18.1737C23.6256 19.3435 24.6283 20.8057 24.6283 22.832C24.6283 24.8583 23.6256 26.1743 22.0171 27.365C20.3878 28.5765 17.8811 28.5765 16.8575 28.6183H11.4889V29.8926C11.4889 29.8926 13.9748 29.9344 15.4997 29.8926C19.0091 29.809 21.098 29.6001 23.0407 28.1588C24.8351 26.8198 25.7918 25.0713 25.8169 22.8571C25.8169 22.8842 25.819 22.9093 25.819 22.9364C25.819 25.652 24.6701 27.6365 22.8318 29.1614C20.9936 30.6864 17.714 31.3548 14.4343 31.3548H3.88524V32.6708H14.5179C18.466 32.6708 21.5576 31.8144 23.7927 30.1015C26.0279 28.3885 27.135 25.9654 27.135 22.8529C27.1141 19.6986 26.0488 17.2546 23.8972 15.479ZM23.9578 10.0415C23.9578 10.0645 23.9578 10.0874 23.9578 10.1104C23.9578 11.886 23.4543 13.3483 22.6 14.5745C22.4851 14.5055 22.366 14.4429 22.2469 14.3781C23.3478 13.1958 23.9348 11.7586 23.9557 10.0394L23.9578 10.0415Z" fill="#9EB0CB"/>
<path d="M17.3799 20.9937H8.16773V21.704H17.3799V20.9937Z" fill="#9EB0CB"/>
<path d="M17.3172 23.584H11.9695V24.1898H17.3172V23.584Z" fill="#9EB0CB"/>
<path d="M6.60098 20.9937H3.88538V21.704H6.60098V20.9937Z" fill="#9EB0CB"/>
<path d="M10.4655 23.5213H2.1724V24.2316H10.4655V23.5213Z" fill="#9EB0CB"/>
<path d="M7.4576 5.36853H4.21976V5.95343H7.4576V5.36853Z" fill="#9EB0CB"/>
<path d="M9.35841 10.0477H1.98449V10.7162H9.35841V10.0477Z" fill="#9EB0CB"/>
<path d="M9.96411 28.9734H2.1724V29.809H9.96411V28.9734Z" fill="#9EB0CB"/>
<path d="M2.1935 31.3548H0.250793V32.5873H2.1935V31.3548Z" fill="#9EB0CB"/>
<path d="M17.338 7.9588H5.09683V8.62726H17.338V7.9588Z" fill="#9EB0CB"/>
<path d="M17.1083 10.0477H11.2175V10.7162H17.1083V10.0477Z" fill="#9EB0CB"/>
<path d="M22.6231 26.2996C23.7929 25.6729 24.5658 24.3987 24.5658 22.7484C24.5867 20.931 23.5213 19.8448 22.456 19.1763C21.4533 18.5706 20.576 18.1528 16.419 18.1528H9.81797V18.9675H16.2936C19.9702 18.9675 21.3697 19.5941 21.7875 19.8448C22.6022 20.3253 23.7093 21.119 23.7093 22.7484C23.7093 23.7929 23.0827 25.088 22.1427 25.5894C21.2862 26.0489 19.7195 26.4667 16.983 26.4667H0V27.2814H17.0039C20.3253 27.2814 21.4533 26.9263 22.6231 26.2996Z" fill="#9EB0CB"/>
<path d="M51.0952 17.6097C50.0716 16.7114 48.6929 16.1892 46.9591 16.0221V15.9594C48.3378 15.5834 49.4031 14.9776 50.1969 14.1003C50.9698 13.2647 51.3876 12.1575 51.3667 11.0295C51.3667 9.62995 50.7192 8.48103 49.424 7.60368C48.1289 6.72633 46.3742 6.28766 44.1599 6.28766H36.8696V27.0307H44.327C46.7293 27.0307 48.7138 26.4876 50.2805 25.3805C51.8472 24.2733 52.641 22.8529 52.641 21.0773C52.6827 19.7404 52.1187 18.4661 51.0952 17.6097ZM39.8776 8.48103L43.3243 8.46014C46.604 8.46014 48.2333 9.48372 48.2333 11.4891C48.2751 12.5753 47.732 13.6198 46.8129 14.2047C45.8728 14.8523 44.5986 15.1656 42.9483 15.1656H39.8776V8.48103ZM48.0453 23.8138C47.0844 24.4822 45.7057 24.8165 43.951 24.8165H39.8776V17.359H43.3243C47.4395 17.359 49.5076 18.5915 49.5076 21.0355C49.5285 22.1635 48.9853 23.208 48.0453 23.8138Z" fill="#9EB0CB"/>
<path d="M58.9078 12.2202H55.9833V27.0098H58.9078V12.2202Z" fill="#9EB0CB"/>
<path d="M58.8241 5.80722C58.4481 5.51477 57.9676 5.34765 57.4663 5.36854C56.9858 5.34765 56.5054 5.51477 56.1293 5.80722C55.7951 6.05789 55.5862 6.47567 55.5862 6.91435C55.5653 7.33214 55.7742 7.74992 56.1293 8.00059C56.5054 8.29304 56.9858 8.46016 57.4663 8.43927C57.9676 8.46016 58.4481 8.31393 58.8241 8.00059C58.9494 7.91704 59.0538 7.81259 59.1374 7.68725C59.5552 7.08146 59.4299 6.24589 58.8241 5.80722Z" fill="#9EB0CB"/>
<path d="M69.9163 25.3178C68.9554 25.3178 68.2661 25.1298 67.8483 24.6911C67.4305 24.2524 67.2216 23.5422 67.2216 22.5604V14.2256H71.8172V12.1993H67.2216V7.81256L64.2971 8.58546V12.1993H61.1637V14.2256H64.2971V22.9782C64.2971 25.8818 65.9056 27.3232 69.1016 27.3232C70.2296 27.3232 71.1488 27.1769 71.8381 26.8636L71.8172 24.8164C71.2532 25.1716 70.5848 25.3387 69.9163 25.3178Z" fill="#9EB0CB"/>
<path d="M87.6307 21.1817C87.3591 21.704 86.9831 22.4769 86.5026 23.5213H86.3982C86.1057 22.7275 85.7297 21.9546 85.3119 21.2235L78.0842 7.93793H74.4286V26.989H77.0816V14.2256C77.1025 12.9722 77.0607 11.7189 76.9562 10.4864H77.0189C77.186 11.1758 77.4158 11.8233 77.7291 12.45L85.7506 26.989H87.1084L95.1508 12.3456C95.4432 11.7607 95.6939 11.134 95.861 10.5073H95.9237C95.7775 11.7398 95.7148 12.9931 95.6939 14.2256V27.0098H98.4513V7.93793H95.0046L87.6307 21.1817Z" fill="#9EB0CB"/>
<path d="M109.794 11.8651C107.455 11.8651 105.387 12.3247 103.59 13.2438V15.667C105.345 14.4554 107.413 13.8287 109.544 13.8496C112.05 13.8496 113.304 15.103 113.304 17.6097L107.831 18.2363C103.799 18.6959 101.794 20.3044 101.794 23.0618C101.773 24.2942 102.337 25.464 103.339 26.1743C104.384 26.9472 105.804 27.3441 107.622 27.3441C110.087 27.3441 111.967 26.4667 113.241 24.6911H113.304V27.0098H116.228V17.3799C116.228 13.7034 114.097 11.8651 109.794 11.8651ZM113.304 20.9937C113.324 22.2053 112.802 23.3542 111.883 24.1271C110.943 24.9418 109.752 25.3596 108.29 25.3596C107.225 25.3596 106.368 25.1298 105.742 24.6702C105.136 24.2734 104.781 23.6049 104.781 22.8947C104.781 21.9129 105.136 21.2235 105.825 20.8266C106.515 20.4297 107.538 20.1582 108.896 20.0119L113.304 19.5106V20.9937Z" fill="#9EB0CB"/>
<path d="M139.979 24.8164C139.415 25.1716 138.747 25.3387 138.078 25.3178C137.117 25.3178 136.428 25.1298 136.01 24.6911C135.592 24.2524 135.383 23.5422 135.383 22.5604V14.2256H139.979V12.1993H135.383V7.81256L132.459 8.58546V12.1993H129.827V12.1575C129.263 11.9904 128.657 11.9278 128.072 11.9486C127.028 11.9486 126.025 12.2411 125.189 12.826C124.312 13.4318 123.644 14.2882 123.268 15.27H123.205V12.2202H120.28V27.0098H123.205V19.4688C123.205 17.8185 123.623 16.5234 124.458 15.5625C125.231 14.6225 126.38 14.1002 127.592 14.1211C128.553 14.1211 129.284 14.2882 129.806 14.6016L129.81 14.2256H132.459V22.9782C132.459 25.8818 134.067 27.3232 137.263 27.3232C138.391 27.3232 139.311 27.1769 140 26.8636L139.979 24.8164Z" fill="#9EB0CB"/>
</svg>
