<svg width="140" height="34" viewBox="0 0 140 34" fill="none" xmlns="http://www.w3.org/2000/svg">
<path d="M23.8972 16.1498C23.8512 16.1122 23.8011 16.0746 23.753 16.037C24.762 14.5727 25.2759 12.7929 25.2759 10.6977C25.2759 7.52252 24.1896 5.07848 22.038 3.32378C19.8864 1.54819 16.941 0.670837 13.181 0.670837H3.82257V1.98686H13.0139C16.2099 1.98686 19.0926 2.63443 20.8682 4.18024C22.0631 5.22052 23.0491 6.5846 23.5671 8.21814C23.0407 6.76424 22.0735 5.85974 21.2442 5.20381C19.9073 4.18024 18.3824 3.36556 14.0374 3.36556H6.80974V4.6398C6.80974 4.6398 10.0476 4.59802 13.8703 4.6398C17.5677 4.68158 18.9255 5.09937 20.1789 6.0185C21.7665 7.1883 22.7692 8.65055 22.7692 10.6768C22.7692 12.256 22.1195 13.4572 21.027 14.487C20.9058 14.439 20.7826 14.393 20.6573 14.3491C20.6928 14.3303 20.7283 14.3115 20.7638 14.2907C21.9336 13.6431 22.7274 12.3062 22.7274 10.6141C22.7274 8.69232 21.662 7.5643 20.5967 6.89585C19.594 6.26917 18.7166 5.85138 14.5597 5.85138H9.35823V6.68695H14.4134C18.09 6.68695 19.4687 7.33452 19.9073 7.60608C20.7429 8.10742 21.8291 8.943 21.8291 10.6141C21.8291 11.6795 21.2025 13.0373 20.2624 13.5595C20.0139 13.6995 19.7005 13.8353 19.3203 13.9585C18.0336 13.6514 16.6089 13.4969 15.0401 13.4969H8.77333V14.8129H14.8521C18.0482 14.8129 20.9309 15.4813 22.7065 17.0063C23.8846 18.0173 24.8664 19.3626 25.397 20.971C24.8685 19.5673 23.9306 18.6753 23.1034 18.0298C21.7665 17.0272 20.2416 16.1916 15.8966 16.1916H6.07861V17.4658C6.07861 17.4658 11.9067 17.424 15.7295 17.4658C19.4269 17.5076 20.7847 17.9254 22.038 18.8445C23.6256 20.0143 24.6283 21.4766 24.6283 23.5028C24.6283 25.5291 23.6256 26.8451 22.0171 28.0358C20.3878 29.2474 17.8811 29.2474 16.8575 29.2892H11.4889V30.5634C11.4889 30.5634 13.9748 30.6052 15.4997 30.5634C19.0091 30.4799 21.098 30.271 23.0407 28.8296C24.8351 27.4906 25.7918 25.7422 25.8169 23.5279C25.8169 23.5551 25.819 23.5801 25.819 23.6073C25.819 26.3229 24.6701 28.3074 22.8318 29.8323C20.9936 31.3572 17.714 32.0257 14.4343 32.0257H3.88524V33.3417H14.5179C18.466 33.3417 21.5576 32.4852 23.7927 30.7723C26.0279 29.0594 27.135 26.6362 27.135 23.5237C27.1141 20.3694 26.0488 17.9254 23.8972 16.1498ZM23.9578 10.7123C23.9578 10.7353 23.9578 10.7583 23.9578 10.7813C23.9578 12.5568 23.4543 14.0191 22.6 15.2453C22.4851 15.1764 22.366 15.1137 22.2469 15.0489C23.3478 13.8666 23.9348 12.4294 23.9557 10.7102L23.9578 10.7123Z" fill="#13C2C1"/>
<path d="M17.3799 21.6646H8.16773V22.3748H17.3799V21.6646Z" fill="#13C2C1"/>
<path d="M17.3172 24.2549H11.9695V24.8607H17.3172V24.2549Z" fill="#13C2C1"/>
<path d="M6.60098 21.6646H3.88538V22.3748H6.60098V21.6646Z" fill="#13C2C1"/>
<path d="M10.4655 24.1922H2.1724V24.9024H10.4655V24.1922Z" fill="#13C2C1"/>
<path d="M7.4576 6.03937H4.21976V6.62427H7.4576V6.03937Z" fill="#13C2C1"/>
<path d="M9.35841 10.7186H1.98449V11.387H9.35841V10.7186Z" fill="#13C2C1"/>
<path d="M9.96411 29.6443H2.1724V30.4799H9.96411V29.6443Z" fill="#13C2C1"/>
<path d="M2.1935 32.0256H0.250793V33.2581H2.1935V32.0256Z" fill="#13C2C1"/>
<path d="M17.338 8.62964H5.09683V9.2981H17.338V8.62964Z" fill="#13C2C1"/>
<path d="M17.1083 10.7186H11.2175V11.387H17.1083V10.7186Z" fill="#13C2C1"/>
<path d="M22.6231 26.9704C23.7929 26.3438 24.5658 25.0695 24.5658 23.4193C24.5867 21.6019 23.5213 20.5156 22.456 19.8472C21.4533 19.2414 20.576 18.8236 16.419 18.8236H9.81797V19.6383H16.2936C19.9702 19.6383 21.3697 20.265 21.7875 20.5156C22.6022 20.9961 23.7093 21.7899 23.7093 23.4193C23.7093 24.4637 23.0827 25.7589 22.1427 26.2602C21.2862 26.7198 19.7195 27.1375 16.983 27.1375H0V27.9522H17.0039C20.3253 27.9522 21.4533 27.5971 22.6231 26.9704Z" fill="#13C2C1"/>
<path d="M51.0952 18.2805C50.0716 17.3823 48.6929 16.86 46.9591 16.6929V16.6302C48.3378 16.2542 49.4031 15.6484 50.1969 14.7711C50.9698 13.9355 51.3876 12.8284 51.3667 11.7004C51.3667 10.3008 50.7192 9.15187 49.424 8.27452C48.1289 7.39717 46.3742 6.9585 44.1599 6.9585H36.8696V27.7016H44.327C46.7293 27.7016 48.7138 27.1584 50.2805 26.0513C51.8472 24.9442 52.641 23.5237 52.641 21.7481C52.6827 20.4112 52.1187 19.137 51.0952 18.2805ZM39.8776 9.15187L43.3243 9.13098C46.604 9.13098 48.2333 10.1546 48.2333 12.1599C48.2751 13.2462 47.732 14.2906 46.8129 14.8755C45.8728 15.5231 44.5986 15.8364 42.9483 15.8364H39.8776V9.15187ZM48.0453 24.4846C47.0844 25.1531 45.7057 25.4873 43.951 25.4873H39.8776V18.0298H43.3243C47.4395 18.0298 49.5076 19.2623 49.5076 21.7063C49.5285 22.8344 48.9853 23.8788 48.0453 24.4846Z" fill="black"/>
<path d="M58.9078 12.8911H55.9833V27.6807H58.9078V12.8911Z" fill="black"/>
<path d="M58.8241 6.47805C58.4481 6.1856 57.9676 6.01849 57.4663 6.03938C56.9858 6.01849 56.5054 6.1856 56.1293 6.47805C55.7951 6.72873 55.5862 7.14651 55.5862 7.58519C55.5653 8.00297 55.7742 8.42076 56.1293 8.67143C56.5054 8.96388 56.9858 9.13099 57.4663 9.11011C57.9676 9.13099 58.4481 8.98477 58.8241 8.67143C58.9494 8.58787 59.0538 8.48343 59.1374 8.35809C59.5552 7.7523 59.4299 6.91673 58.8241 6.47805Z" fill="black"/>
<path d="M69.9163 25.9886C68.9554 25.9886 68.2661 25.8006 67.8483 25.3619C67.4305 24.9233 67.2216 24.213 67.2216 23.2312V14.8964H71.8172V12.8701H67.2216V8.4834L64.2971 9.2563V12.8701H61.1637V14.8964H64.2971V23.649C64.2971 26.5526 65.9056 27.994 69.1016 27.994C70.2296 27.994 71.1488 27.8478 71.8381 27.5344L71.8172 25.4873C71.2532 25.8424 70.5848 26.0095 69.9163 25.9886Z" fill="black"/>
<path d="M87.6307 21.8526C87.3591 22.3748 86.9831 23.1477 86.5026 24.1922H86.3982C86.1057 23.3984 85.7297 22.6255 85.3119 21.8944L78.0842 8.60876H74.4286V27.6598H77.0816V14.8964C77.1025 13.6431 77.0607 12.3897 76.9562 11.1573H77.0189C77.186 11.8466 77.4158 12.4942 77.7291 13.1209L85.7506 27.6598H87.1084L95.1508 13.0164C95.4432 12.4315 95.6939 11.8048 95.861 11.1781H95.9237C95.7775 12.4106 95.7148 13.664 95.6939 14.8964V27.6807H98.4513V8.60876H95.0046L87.6307 21.8526Z" fill="black"/>
<path d="M109.794 12.5359C107.455 12.5359 105.387 12.9955 103.59 13.9146V16.3378C105.345 15.1262 107.413 14.4995 109.544 14.5204C112.05 14.5204 113.304 15.7738 113.304 18.2805L107.831 18.9072C103.799 19.3667 101.794 20.9752 101.794 23.7326C101.773 24.9651 102.337 26.1349 103.339 26.8451C104.384 27.618 105.804 28.0149 107.622 28.0149C110.087 28.0149 111.967 27.1376 113.241 25.362H113.304V27.6807H116.228V18.0507C116.228 14.3742 114.097 12.5359 109.794 12.5359ZM113.304 21.6646C113.324 22.8761 112.802 24.0251 111.883 24.798C110.943 25.6126 109.752 26.0304 108.29 26.0304C107.225 26.0304 106.368 25.8006 105.742 25.3411C105.136 24.9442 104.781 24.2757 104.781 23.5655C104.781 22.5837 105.136 21.8944 105.825 21.4975C106.515 21.1006 107.538 20.829 108.896 20.6828L113.304 20.1814V21.6646Z" fill="black"/>
<path d="M139.979 25.4873C139.415 25.8424 138.747 26.0095 138.078 25.9886C137.117 25.9886 136.428 25.8006 136.01 25.3619C135.592 24.9233 135.383 24.213 135.383 23.2312V14.8964H139.979V12.8701H135.383V8.4834L132.459 9.2563V12.8701H129.827V12.8284C129.263 12.6613 128.657 12.5986 128.072 12.6195C127.028 12.6195 126.025 12.9119 125.189 13.4968C124.312 14.1026 123.644 14.9591 123.268 15.9409H123.205V12.891H120.28V27.6807H123.205V20.1396C123.205 18.4894 123.623 17.1942 124.458 16.2333C125.231 15.2933 126.38 14.7711 127.592 14.792C128.553 14.792 129.284 14.9591 129.806 15.2724L129.81 14.8964H132.459V23.649C132.459 26.5526 134.067 27.994 137.263 27.994C138.391 27.994 139.311 27.8478 140 27.5344L139.979 25.4873Z" fill="black"/>
</svg>
