<svg width="140" height="35" viewBox="0 0 140 35" fill="none" xmlns="http://www.w3.org/2000/svg">
<path d="M0 8.74162V26.2209L15.138 34.9586L30.276 26.2209V8.74162L15.138 0L0 8.74162Z" fill="#9EB0CB"/>
<path d="M15.138 15.9892L0 8.74963L7.45528 30.5311L8.21218 18.3854L15.138 22.4131L22.0678 18.3854L22.8208 30.5311L30.276 8.74963L15.138 15.9892Z" fill="white"/>
<path d="M40.3099 15.252C39.8398 15.252 39.4586 15.3446 39.1666 15.5334C38.8709 15.7186 38.6394 15.9501 38.4649 16.2172H38.3936C38.4079 16.0819 38.4257 15.8967 38.4399 15.658C38.4542 15.4194 38.4649 15.1772 38.4649 14.9314V12.8228H36.6875V21.8771H38.0446L38.3438 21.1611H38.4613C38.6359 21.3748 38.8603 21.5672 39.1345 21.7382C39.4088 21.9091 39.7828 21.9946 40.2601 21.9946C41.0081 21.9946 41.61 21.7097 42.0695 21.1362C42.529 20.5627 42.7605 19.7221 42.7605 18.6108C42.7605 17.4995 42.5326 16.6696 42.0802 16.1033C41.6278 15.5369 41.0366 15.252 40.3064 15.252H40.3099ZM40.6305 20.0463C40.4168 20.3846 40.1247 20.5521 39.7614 20.5521C39.2699 20.5521 38.9279 20.3846 38.7427 20.0463C38.5575 19.7079 38.4613 19.227 38.4613 18.6001V18.4078C38.4756 17.8201 38.5789 17.382 38.7641 17.097C38.9493 16.8121 39.2734 16.6696 39.7365 16.6696C40.1105 16.6696 40.4061 16.8299 40.6234 17.1504C40.8407 17.471 40.9511 17.9519 40.9511 18.5859C40.9511 19.2199 40.8442 19.7079 40.6305 20.0463Z" fill="#9EB0CB"/>
<path d="M45.407 12.8228H43.6332V21.8771H45.407V12.8228Z" fill="#9EB0CB"/>
<path d="M51.0668 15.6473C50.5966 15.3837 50.0588 15.2555 49.4461 15.2555C48.4595 15.2555 47.6865 15.544 47.1238 16.1246C46.561 16.7052 46.276 17.5351 46.276 18.6144C46.276 19.3374 46.4114 19.9501 46.6821 20.4558C46.9528 20.9616 47.3232 21.3428 47.797 21.6063C48.2707 21.8699 48.8085 21.9981 49.4105 21.9981C50.3865 21.9981 51.1594 21.7061 51.7293 21.1148C52.2956 20.5271 52.5806 19.6936 52.5806 18.6144C52.5806 17.8913 52.4452 17.2822 52.1745 16.7871C51.9038 16.292 51.5369 15.9109 51.0668 15.6509V15.6473ZM50.4541 20.0747C50.244 20.406 49.9056 20.5698 49.4354 20.5698C48.9653 20.5698 48.6162 20.406 48.406 20.0747C48.1959 19.747 48.089 19.2591 48.089 18.6144C48.089 17.9697 48.1923 17.4888 48.406 17.1682C48.6162 16.8477 48.9546 16.6874 49.4247 16.6874C49.8949 16.6874 50.244 16.8477 50.4541 17.1682C50.6643 17.4888 50.7711 17.9732 50.7711 18.6144C50.7711 19.2555 50.6643 19.7435 50.4541 20.0747Z" fill="#9EB0CB"/>
<path d="M56.2494 16.6838C56.4881 16.6838 56.7267 16.7195 56.9689 16.7907C57.2111 16.8619 57.4711 16.9545 57.749 17.065L58.2726 15.6936C58.0268 15.5761 57.7383 15.4728 57.4106 15.3837C57.0793 15.2947 56.6946 15.252 56.2494 15.252C55.6225 15.252 55.0669 15.3695 54.586 15.6081C54.1052 15.8468 53.7312 16.2172 53.4605 16.7159C53.1897 17.2146 53.0544 17.8628 53.0544 18.6571C53.0544 19.8076 53.318 20.6518 53.8451 21.1896C54.3723 21.7275 55.1203 21.9946 56.0927 21.9946C56.545 21.9946 56.919 21.9554 57.2182 21.8806C57.5174 21.8058 57.7988 21.6812 58.0695 21.5066V19.9928C57.7988 20.1674 57.521 20.3063 57.2361 20.4024C56.9511 20.4986 56.6198 20.552 56.2458 20.552C55.8077 20.552 55.4694 20.3953 55.2271 20.089C54.9849 19.7791 54.8638 19.2983 54.8638 18.6464C54.8638 17.3357 55.3233 16.6803 56.2458 16.6803L56.2494 16.6838Z" fill="#9EB0CB"/>
<path d="M65.2823 15.3731H63.2805L61.4568 17.3499C61.3143 17.4995 61.179 17.6634 61.0508 17.8308C60.9225 18.0017 60.8014 18.1691 60.6803 18.3366H60.6554C60.6803 18.0908 60.7017 17.845 60.7195 17.6028C60.7373 17.3606 60.748 17.1148 60.748 16.8691V12.8228H58.9742V21.8771H60.748V19.8504L61.5102 19.2413L63.3802 21.8735H65.4283L62.6892 18.1905L65.2752 15.3659L65.2823 15.3731Z" fill="#9EB0CB"/>
<path d="M68.57 16.6838C68.8086 16.6838 69.0473 16.7195 69.2895 16.7907C69.5317 16.8619 69.7917 16.9545 70.0695 17.065L70.5931 15.6936C70.3473 15.5761 70.0588 15.4728 69.7311 15.3837C69.3999 15.2947 69.0152 15.252 68.57 15.252C67.9431 15.252 67.3874 15.3695 66.9066 15.6081C66.4257 15.8468 66.0517 16.2172 65.781 16.7159C65.5103 17.2146 65.375 17.8628 65.375 18.6571C65.375 19.8076 65.6385 20.6518 66.1657 21.1896C66.6929 21.7275 67.4408 21.9946 68.4132 21.9946C68.8656 21.9946 69.2396 21.9554 69.5388 21.8806C69.838 21.8058 70.1194 21.6812 70.3901 21.5066V19.9928C70.1194 20.1674 69.8416 20.3063 69.5566 20.4024C69.2717 20.4986 68.9404 20.552 68.5664 20.552C68.1283 20.552 67.7899 20.3953 67.5477 20.089C67.3055 19.7791 67.1844 19.2983 67.1844 18.6464C67.1844 17.3357 67.6439 16.6803 68.5664 16.6803L68.57 16.6838Z" fill="#9EB0CB"/>
<path d="M74.9671 15.252C74.5682 15.252 74.2084 15.3268 73.8843 15.4799C73.5566 15.6295 73.293 15.8717 73.0865 16.2065H72.9903C73.0045 16.089 73.0223 15.8824 73.0437 15.5868C73.0615 15.2947 73.0722 14.9884 73.0722 14.6678V12.8228H71.2984V21.8771H73.0722V18.8138C73.0722 18.1228 73.1719 17.5921 73.375 17.2217C73.578 16.8512 73.9449 16.666 74.4756 16.666C75.1737 16.666 75.5228 17.1362 75.5228 18.073V21.8735H77.2966V17.6313C77.2966 16.7978 77.0829 16.1923 76.659 15.8147C76.2352 15.4372 75.6688 15.2484 74.96 15.2484L74.9671 15.252Z" fill="#9EB0CB"/>
<path d="M83.2058 15.8077C82.7428 15.4302 82.0732 15.2414 81.1969 15.2414C80.7374 15.2414 80.2922 15.2948 79.8683 15.3946C79.4445 15.4978 79.0562 15.6403 78.7072 15.822L79.2913 17.0259C79.5941 16.8905 79.8933 16.7766 80.196 16.6875C80.4988 16.5949 80.8087 16.5522 81.1257 16.5522C81.4427 16.5522 81.692 16.6305 81.8701 16.7908C82.0482 16.9511 82.1373 17.2004 82.1373 17.5424V17.8273L81.0046 17.8629C80.0358 17.895 79.3091 18.0767 78.8247 18.4044C78.3403 18.732 78.0981 19.245 78.0981 19.936C78.0981 20.627 78.2904 21.1541 78.6716 21.4925C79.0527 21.8309 79.5335 21.9983 80.1141 21.9983C80.6555 21.9983 81.0794 21.9199 81.3893 21.7596C81.6992 21.5994 81.9912 21.3465 82.2726 20.9974H82.3189L82.6644 21.8808H83.904V17.5424C83.904 16.7623 83.6724 16.1853 83.2058 15.8077ZM82.1408 19.3981C82.1408 19.8113 82.009 20.1319 81.749 20.3563C81.4854 20.5842 81.1649 20.6946 80.7838 20.6946C80.5309 20.6946 80.3243 20.6377 80.164 20.5237C80.0037 20.4097 79.9253 20.2174 79.9253 19.9466C79.9253 19.6368 80.0358 19.3874 80.2602 19.1951C80.4846 19.0027 80.8799 18.903 81.4534 18.8852L82.1444 18.8603V19.3981H82.1408Z" fill="#9EB0CB"/>
<path d="M86.9065 15.3731H85.1327V21.8771H86.9065V15.3731Z" fill="#9EB0CB"/>
<path d="M86.7035 13.008C86.5112 12.8833 86.2868 12.8228 86.0232 12.8228C85.7596 12.8228 85.5246 12.8833 85.3393 13.008C85.1541 13.1326 85.058 13.3606 85.058 13.6919C85.058 14.0231 85.1506 14.2439 85.3393 14.3722C85.5246 14.5004 85.7561 14.5645 86.0232 14.5645C86.2904 14.5645 86.5112 14.5004 86.7035 14.3722C86.8959 14.2439 86.9885 14.0195 86.9885 13.6919C86.9885 13.3642 86.8923 13.1291 86.7035 13.008Z" fill="#9EB0CB"/>
<path d="M91.8648 15.252C91.4588 15.252 91.0776 15.3268 90.7143 15.4799C90.351 15.6295 90.0696 15.8717 89.863 16.2066H89.7669L89.5282 15.3731H88.1711V21.8771H89.945V18.8139C89.945 18.1229 90.0447 17.5921 90.2441 17.2217C90.4436 16.8513 90.8105 16.666 91.3519 16.666C91.7188 16.666 91.9824 16.7836 92.1498 17.0187C92.3172 17.2538 92.3991 17.6064 92.3991 18.073V21.8735H94.1729V17.6313C94.1729 16.7978 93.9628 16.1923 93.5425 15.8148C93.1222 15.4372 92.5629 15.2484 91.8612 15.2484L91.8648 15.252Z" fill="#9EB0CB"/>
<path d="M103.038 15.252C102.664 15.252 102.301 15.3268 101.948 15.4799C101.596 15.6295 101.318 15.8717 101.122 16.2065H100.969C100.794 15.8824 100.541 15.6402 100.207 15.487C99.8717 15.3303 99.4692 15.2555 98.9919 15.2555C98.6179 15.2555 98.2582 15.3303 97.9127 15.4835C97.5672 15.6331 97.2965 15.8753 97.097 16.2101H97.0008L96.7622 15.3766H95.4051V21.8806H97.1789V18.8174C97.1789 18.1264 97.2715 17.5957 97.4603 17.2252C97.6455 16.8548 97.9875 16.6696 98.479 16.6696C99.1309 16.6696 99.455 17.1398 99.455 18.0765V21.8771H101.229V18.6108C101.229 17.9839 101.329 17.5031 101.528 17.1682C101.727 16.8334 102.059 16.6696 102.529 16.6696C103.181 16.6696 103.505 17.1398 103.505 18.0765V21.8771H105.279V17.6349C105.279 16.8014 105.09 16.1959 104.712 15.8183C104.335 15.4407 103.776 15.252 103.038 15.252Z" fill="#9EB0CB"/>
<path d="M109.186 15.2522C108.574 15.2522 108.039 15.3805 107.576 15.6334C107.117 15.8863 106.757 16.2674 106.497 16.7696C106.237 17.2754 106.109 17.9058 106.109 18.6681C106.109 19.4303 106.251 20.0359 106.536 20.5274C106.821 21.0189 107.216 21.3858 107.715 21.628C108.217 21.8702 108.791 21.9913 109.443 21.9913C109.945 21.9913 110.369 21.9522 110.725 21.8774C111.078 21.8026 111.412 21.685 111.733 21.5247V20.1534C111.366 20.3279 111.013 20.4562 110.671 20.5416C110.33 20.6236 109.948 20.6663 109.528 20.6663C109.026 20.6663 108.638 20.5238 108.356 20.2389C108.075 19.9539 107.925 19.5586 107.911 19.0599H112.103V18.2015C112.103 17.2576 111.84 16.5274 111.316 16.0145C110.793 15.5016 110.08 15.2451 109.183 15.2451L109.186 15.2522ZM107.947 17.8845C107.986 17.4143 108.121 17.0688 108.346 16.848C108.574 16.6271 108.855 16.5131 109.197 16.5131C109.617 16.5131 109.927 16.6414 110.126 16.9014C110.326 17.1614 110.429 17.4891 110.436 17.8845H107.947Z" fill="#9EB0CB"/>
<path d="M116.858 14.9065C116.858 15.1594 116.873 15.4087 116.905 15.6509C116.937 15.8931 116.965 16.0783 116.987 16.2065H116.926C116.752 15.9358 116.513 15.7114 116.21 15.5262C115.907 15.3446 115.523 15.252 115.053 15.252C114.305 15.252 113.703 15.5369 113.243 16.1104C112.784 16.6838 112.552 17.5244 112.552 18.6358C112.552 19.7471 112.78 20.577 113.236 21.1433C113.692 21.7097 114.283 21.9946 115.006 21.9946C115.476 21.9946 115.858 21.902 116.15 21.7132C116.442 21.528 116.677 21.2965 116.851 21.0293H116.923L117.268 21.8771H118.625V12.8228H116.851V14.9065H116.858ZM116.976 18.8388C116.969 19.4194 116.866 19.8539 116.666 20.1424C116.467 20.4309 116.121 20.577 115.63 20.577C115.224 20.577 114.91 20.4167 114.689 20.0961C114.468 19.7756 114.354 19.2947 114.354 18.6607C114.354 18.0267 114.465 17.5387 114.689 17.2003C114.91 16.8619 115.216 16.6945 115.608 16.6945C116.132 16.6945 116.492 16.8619 116.687 17.1932C116.883 17.528 116.98 18.0124 116.98 18.6464V18.8388H116.976Z" fill="#9EB0CB"/>
<path d="M121.471 13.008C121.279 12.8833 121.054 12.8228 120.791 12.8228C120.527 12.8228 120.292 12.8833 120.107 13.008C119.922 13.1326 119.826 13.3606 119.826 13.6919C119.826 14.0231 119.918 14.2439 120.107 14.3722C120.292 14.5004 120.524 14.5645 120.791 14.5645C121.058 14.5645 121.279 14.5004 121.471 14.3722C121.664 14.2439 121.756 14.0195 121.756 13.6919C121.756 13.3642 121.66 13.1291 121.471 13.008Z" fill="#9EB0CB"/>
<path d="M121.671 15.3731H119.897V21.8771H121.671V15.3731Z" fill="#9EB0CB"/>
<path d="M127.612 15.8077C127.149 15.4302 126.479 15.2414 125.603 15.2414C125.143 15.2414 124.698 15.2948 124.274 15.3946C123.85 15.4978 123.462 15.6403 123.113 15.822L123.697 17.0259C124 16.8905 124.299 16.7766 124.602 16.6875C124.905 16.5949 125.215 16.5522 125.532 16.5522C125.849 16.5522 126.098 16.6305 126.276 16.7908C126.454 16.9511 126.543 17.2004 126.543 17.5424V17.8273L125.41 17.8629C124.442 17.895 123.715 18.0767 123.231 18.4044C122.746 18.732 122.504 19.245 122.504 19.936C122.504 20.627 122.696 21.1541 123.077 21.4925C123.459 21.8309 123.939 21.9983 124.52 21.9983C125.061 21.9983 125.485 21.9199 125.795 21.7596C126.105 21.5994 126.397 21.3465 126.679 20.9974H126.725L127.07 21.8808H128.31V17.5424C128.31 16.7623 128.078 16.1853 127.612 15.8077ZM126.547 19.3981C126.547 19.8113 126.415 20.1319 126.155 20.3563C125.891 20.5842 125.571 20.6946 125.19 20.6946C124.937 20.6946 124.73 20.6377 124.57 20.5237C124.41 20.4097 124.331 20.2174 124.331 19.9466C124.331 19.6368 124.442 19.3874 124.666 19.1951C124.89 19.0027 125.286 18.903 125.859 18.8852L126.55 18.8603V19.3981H126.547Z" fill="#9EB0CB"/>
<path d="M130.191 20.4348C129.991 20.4348 129.82 20.4954 129.678 20.6129C129.535 20.7305 129.464 20.9406 129.464 21.2327C129.464 21.5248 129.535 21.7242 129.678 21.8524C129.82 21.9807 129.991 22.0448 130.191 22.0448C130.39 22.0448 130.575 21.9807 130.721 21.8524C130.867 21.7242 130.942 21.5176 130.942 21.2327C130.942 20.9477 130.867 20.734 130.721 20.6129C130.575 20.4954 130.397 20.4348 130.191 20.4348Z" fill="#9EB0CB"/>
<path d="M132.755 13.0974C132.581 13.0974 132.435 13.1508 132.314 13.2576C132.196 13.3645 132.135 13.5319 132.135 13.7634C132.135 13.9949 132.196 14.1517 132.314 14.2621C132.431 14.3725 132.581 14.4295 132.755 14.4295C132.915 14.4295 133.054 14.3725 133.179 14.2621C133.304 14.1517 133.364 13.9843 133.364 13.7634C133.364 13.5426 133.304 13.3645 133.179 13.2576C133.054 13.1508 132.915 13.0974 132.755 13.0974Z" fill="#9EB0CB"/>
<path d="M133.265 15.4905H132.217V21.877H133.265V15.4905Z" fill="#9EB0CB"/>
<path d="M138.949 12.8228V15.3731C138.949 15.4906 138.96 15.6545 138.978 15.8539C138.999 16.0569 139.01 16.2101 139.021 16.3134H138.949C138.75 16.0498 138.493 15.829 138.18 15.6473C137.867 15.4657 137.464 15.3731 136.972 15.3731C136.178 15.3731 135.541 15.6545 135.06 16.2137C134.579 16.7729 134.34 17.6028 134.34 18.6963C134.34 19.7898 134.579 20.6162 135.056 21.1683C135.533 21.7203 136.168 21.9946 136.962 21.9946C137.464 21.9946 137.87 21.8984 138.191 21.7097C138.508 21.5173 138.764 21.2894 138.953 21.0187H138.999L139.152 21.8771H140V12.8228H138.953H138.949ZM138.96 18.8993C138.96 19.6473 138.825 20.203 138.55 20.5734C138.276 20.9439 137.802 21.1291 137.126 21.1291C136.552 21.1291 136.128 20.9189 135.843 20.4986C135.562 20.0783 135.42 19.487 135.42 18.7248C135.42 17.9626 135.562 17.3677 135.843 16.9189C136.125 16.4701 136.549 16.2457 137.111 16.2457C137.817 16.2457 138.301 16.4594 138.565 16.8833C138.828 17.3072 138.956 17.9163 138.956 18.7106V18.9029L138.96 18.8993Z" fill="#9EB0CB"/>
</svg>
