<svg width="140" height="36" viewBox="0 0 140 36" fill="none" xmlns="http://www.w3.org/2000/svg">
<path d="M0 9.70024V27.1796L15.138 35.9173L30.276 27.1796V9.70024L15.138 0.958618L0 9.70024Z" fill="#FF0000"/>
<path d="M15.138 16.9478L0 9.70825L7.45528 31.4897L8.21218 19.344L15.138 23.3717L22.0678 19.344L22.8208 31.4897L30.276 9.70825L15.138 16.9478Z" fill="white"/>
<path d="M40.3099 16.2106C39.8398 16.2106 39.4586 16.3032 39.1666 16.492C38.8709 16.6772 38.6394 16.9087 38.4649 17.1759H38.3936C38.4079 17.0405 38.4257 16.8553 38.4399 16.6166C38.4542 16.378 38.4649 16.1358 38.4649 15.89V13.7814H36.6875V22.8357H38.0446L38.3438 22.1198H38.4613C38.6359 22.3335 38.8603 22.5258 39.1345 22.6968C39.4088 22.8677 39.7828 22.9532 40.2601 22.9532C41.0081 22.9532 41.61 22.6683 42.0695 22.0948C42.529 21.5214 42.7605 20.6807 42.7605 19.5694C42.7605 18.4581 42.5326 17.6282 42.0802 17.0619C41.6278 16.4955 41.0366 16.2106 40.3064 16.2106H40.3099ZM40.6305 21.0049C40.4168 21.3433 40.1247 21.5107 39.7614 21.5107C39.2699 21.5107 38.9279 21.3433 38.7427 21.0049C38.5575 20.6665 38.4613 20.1856 38.4613 19.5588V19.3664C38.4756 18.7787 38.5789 18.3406 38.7641 18.0556C38.9493 17.7707 39.2734 17.6282 39.7365 17.6282C40.1105 17.6282 40.4061 17.7885 40.6234 18.1091C40.8407 18.4296 40.9511 18.9105 40.9511 19.5445C40.9511 20.1785 40.8442 20.6665 40.6305 21.0049Z" fill="black"/>
<path d="M45.407 13.7814H43.6332V22.8357H45.407V13.7814Z" fill="black"/>
<path d="M51.0668 16.6059C50.5966 16.3423 50.0588 16.2141 49.4461 16.2141C48.4595 16.2141 47.6865 16.5026 47.1238 17.0832C46.561 17.6638 46.276 18.4937 46.276 19.573C46.276 20.296 46.4114 20.9087 46.6821 21.4145C46.9528 21.9203 47.3232 22.3014 47.797 22.565C48.2707 22.8285 48.8085 22.9568 49.4105 22.9568C50.3865 22.9568 51.1594 22.6647 51.7293 22.0734C52.2956 21.4857 52.5806 20.6522 52.5806 19.573C52.5806 18.8499 52.4452 18.2408 52.1745 17.7457C51.9038 17.2506 51.5369 16.8695 51.0668 16.6095V16.6059ZM50.4541 21.0333C50.244 21.3646 49.9056 21.5284 49.4354 21.5284C48.9653 21.5284 48.6162 21.3646 48.406 21.0333C48.1959 20.7057 48.089 20.2177 48.089 19.573C48.089 18.9283 48.1923 18.4474 48.406 18.1268C48.6162 17.8063 48.9546 17.646 49.4247 17.646C49.8949 17.646 50.244 17.8063 50.4541 18.1268C50.6643 18.4474 50.7711 18.9318 50.7711 19.573C50.7711 20.2141 50.6643 20.7021 50.4541 21.0333Z" fill="black"/>
<path d="M56.2494 17.6425C56.4881 17.6425 56.7267 17.6781 56.9689 17.7493C57.2111 17.8205 57.4711 17.9132 57.749 18.0236L58.2726 16.6522C58.0268 16.5347 57.7383 16.4314 57.4106 16.3424C57.0793 16.2533 56.6946 16.2106 56.2494 16.2106C55.6225 16.2106 55.0669 16.3281 54.586 16.5668C54.1052 16.8054 53.7312 17.1758 53.4605 17.6745C53.1897 18.1732 53.0544 18.8214 53.0544 19.6157C53.0544 20.7662 53.318 21.6104 53.8451 22.1482C54.3723 22.6861 55.1203 22.9532 56.0927 22.9532C56.545 22.9532 56.919 22.914 57.2182 22.8392C57.5174 22.7644 57.7988 22.6398 58.0695 22.4652V20.9514C57.7988 21.126 57.521 21.2649 57.2361 21.3611C56.9511 21.4572 56.6198 21.5107 56.2458 21.5107C55.8077 21.5107 55.4694 21.3539 55.2271 21.0476C54.9849 20.7377 54.8638 20.2569 54.8638 19.6051C54.8638 18.2943 55.3233 17.6389 56.2458 17.6389L56.2494 17.6425Z" fill="black"/>
<path d="M65.2823 16.3317H63.2805L61.4568 18.3085C61.3143 18.4581 61.179 18.622 61.0508 18.7894C60.9225 18.9604 60.8014 19.1278 60.6803 19.2952H60.6554C60.6803 19.0494 60.7017 18.8036 60.7195 18.5614C60.7373 18.3192 60.748 18.0734 60.748 17.8277V13.7814H58.9742V22.8357H60.748V20.809L61.5102 20.1999L63.3802 22.8321H65.4283L62.6892 19.1491L65.2752 16.3246L65.2823 16.3317Z" fill="black"/>
<path d="M68.57 17.6425C68.8086 17.6425 69.0473 17.6781 69.2895 17.7493C69.5317 17.8205 69.7917 17.9132 70.0695 18.0236L70.5931 16.6522C70.3473 16.5347 70.0588 16.4314 69.7311 16.3424C69.3999 16.2533 69.0152 16.2106 68.57 16.2106C67.9431 16.2106 67.3874 16.3281 66.9066 16.5668C66.4257 16.8054 66.0517 17.1758 65.781 17.6745C65.5103 18.1732 65.375 18.8214 65.375 19.6157C65.375 20.7662 65.6385 21.6104 66.1657 22.1482C66.6929 22.6861 67.4408 22.9532 68.4132 22.9532C68.8656 22.9532 69.2396 22.914 69.5388 22.8392C69.838 22.7644 70.1194 22.6398 70.3901 22.4652V20.9514C70.1194 21.126 69.8416 21.2649 69.5566 21.3611C69.2717 21.4572 68.9404 21.5107 68.5664 21.5107C68.1283 21.5107 67.7899 21.3539 67.5477 21.0476C67.3055 20.7377 67.1844 20.2569 67.1844 19.6051C67.1844 18.2943 67.6439 17.6389 68.5664 17.6389L68.57 17.6425Z" fill="black"/>
<path d="M74.9671 16.2106C74.5682 16.2106 74.2084 16.2854 73.8843 16.4385C73.5566 16.5881 73.293 16.8303 73.0865 17.1652H72.9903C73.0045 17.0476 73.0223 16.841 73.0437 16.5454C73.0615 16.2533 73.0722 15.947 73.0722 15.6264V13.7814H71.2984V22.8357H73.0722V19.7725C73.0722 19.0815 73.1719 18.5507 73.375 18.1803C73.578 17.8099 73.9449 17.6246 74.4756 17.6246C75.1737 17.6246 75.5228 18.0948 75.5228 19.0316V22.8321H77.2966V18.5899C77.2966 17.7564 77.0829 17.1509 76.659 16.7734C76.2352 16.3958 75.6688 16.207 74.96 16.207L74.9671 16.2106Z" fill="black"/>
<path d="M83.2058 16.7664C82.7428 16.3888 82.0732 16.2 81.1969 16.2C80.7374 16.2 80.2922 16.2534 79.8683 16.3532C79.4445 16.4565 79.0562 16.5989 78.7072 16.7806L79.2913 17.9845C79.5941 17.8492 79.8933 17.7352 80.196 17.6461C80.4988 17.5535 80.8087 17.5108 81.1257 17.5108C81.4427 17.5108 81.692 17.5891 81.8701 17.7494C82.0482 17.9097 82.1373 18.1591 82.1373 18.501V18.7859L81.0046 18.8216C80.0358 18.8536 79.3091 19.0353 78.8247 19.363C78.3403 19.6907 78.0981 20.2036 78.0981 20.8946C78.0981 21.5856 78.2904 22.1127 78.6716 22.4511C79.0527 22.7895 79.5335 22.9569 80.1141 22.9569C80.6555 22.9569 81.0794 22.8786 81.3893 22.7183C81.6992 22.558 81.9912 22.3051 82.2726 21.956H82.3189L82.6644 22.8394H83.904V18.501C83.904 17.7209 83.6724 17.1439 83.2058 16.7664ZM82.1408 20.3567C82.1408 20.7699 82.009 21.0905 81.749 21.3149C81.4854 21.5428 81.1649 21.6533 80.7838 21.6533C80.5309 21.6533 80.3243 21.5963 80.164 21.4823C80.0037 21.3683 79.9253 21.176 79.9253 20.9053C79.9253 20.5954 80.0358 20.346 80.2602 20.1537C80.4846 19.9614 80.8799 19.8616 81.4534 19.8438L82.1444 19.8189V20.3567H82.1408Z" fill="black"/>
<path d="M86.9065 16.3317H85.1327V22.8357H86.9065V16.3317Z" fill="black"/>
<path d="M86.7035 13.9666C86.5112 13.8419 86.2868 13.7814 86.0232 13.7814C85.7596 13.7814 85.5246 13.8419 85.3393 13.9666C85.1541 14.0913 85.058 14.3192 85.058 14.6505C85.058 14.9817 85.1506 15.2026 85.3393 15.3308C85.5246 15.459 85.7561 15.5231 86.0232 15.5231C86.2904 15.5231 86.5112 15.459 86.7035 15.3308C86.8959 15.2026 86.9885 14.9782 86.9885 14.6505C86.9885 14.3228 86.8923 14.0877 86.7035 13.9666Z" fill="black"/>
<path d="M91.8648 16.2106C91.4588 16.2106 91.0776 16.2854 90.7143 16.4386C90.351 16.5882 90.0696 16.8304 89.863 17.1652H89.7669L89.5282 16.3317H88.1711V22.8357H89.945V19.7725C89.945 19.0815 90.0447 18.5508 90.2441 18.1803C90.4436 17.8099 90.8105 17.6247 91.3519 17.6247C91.7188 17.6247 91.9824 17.7422 92.1498 17.9773C92.3172 18.2124 92.3991 18.565 92.3991 19.0316V22.8321H94.1729V18.5899C94.1729 17.7565 93.9628 17.1509 93.5425 16.7734C93.1222 16.3958 92.5629 16.207 91.8612 16.207L91.8648 16.2106Z" fill="black"/>
<path d="M103.038 16.2106C102.664 16.2106 102.301 16.2854 101.948 16.4385C101.596 16.5881 101.318 16.8303 101.122 17.1652H100.969C100.794 16.841 100.541 16.5988 100.207 16.4457C99.8717 16.2889 99.4692 16.2141 98.9919 16.2141C98.6179 16.2141 98.2582 16.2889 97.9127 16.4421C97.5672 16.5917 97.2965 16.8339 97.097 17.1687H97.0008L96.7622 16.3352H95.4051V22.8392H97.1789V19.776C97.1789 19.085 97.2715 18.5543 97.4603 18.1839C97.6455 17.8134 97.9875 17.6282 98.479 17.6282C99.1309 17.6282 99.455 18.0984 99.455 19.0351V22.8357H101.229V19.5694C101.229 18.9425 101.329 18.4617 101.528 18.1269C101.727 17.792 102.059 17.6282 102.529 17.6282C103.181 17.6282 103.505 18.0984 103.505 19.0351V22.8357H105.279V18.5935C105.279 17.76 105.09 17.1545 104.712 16.7769C104.335 16.3994 103.776 16.2106 103.038 16.2106Z" fill="black"/>
<path d="M109.186 16.2109C108.574 16.2109 108.039 16.3391 107.576 16.592C107.117 16.8449 106.757 17.226 106.497 17.7282C106.237 18.234 106.109 18.8645 106.109 19.6267C106.109 20.389 106.251 20.9945 106.536 21.486C106.821 21.9776 107.216 22.3444 107.715 22.5866C108.217 22.8288 108.791 22.95 109.443 22.95C109.945 22.95 110.369 22.9108 110.725 22.836C111.078 22.7612 111.412 22.6436 111.733 22.4833V21.112C111.366 21.2865 111.013 21.4148 110.671 21.5003C110.33 21.5822 109.948 21.6249 109.528 21.6249C109.026 21.6249 108.638 21.4825 108.356 21.1975C108.075 20.9126 107.925 20.5172 107.911 20.0185H112.103V19.1601C112.103 18.2162 111.84 17.486 111.316 16.9731C110.793 16.4602 110.08 16.2037 109.183 16.2037L109.186 16.2109ZM107.947 18.8431C107.986 18.3729 108.121 18.0274 108.346 17.8066C108.574 17.5857 108.855 17.4718 109.197 17.4718C109.617 17.4718 109.927 17.6 110.126 17.86C110.326 18.12 110.429 18.4477 110.436 18.8431H107.947Z" fill="black"/>
<path d="M116.858 15.8651C116.858 16.118 116.873 16.3673 116.905 16.6095C116.937 16.8517 116.965 17.0369 116.987 17.1652H116.926C116.752 16.8945 116.513 16.6701 116.21 16.4848C115.907 16.3032 115.523 16.2106 115.053 16.2106C114.305 16.2106 113.703 16.4955 113.243 17.069C112.784 17.6425 112.552 18.4831 112.552 19.5944C112.552 20.7057 112.78 21.5356 113.236 22.1019C113.692 22.6683 114.283 22.9532 115.006 22.9532C115.476 22.9532 115.858 22.8606 116.15 22.6718C116.442 22.4866 116.677 22.2551 116.851 21.988H116.923L117.268 22.8357H118.625V13.7814H116.851V15.8651H116.858ZM116.976 19.7974C116.969 20.378 116.866 20.8125 116.666 21.1011C116.467 21.3896 116.121 21.5356 115.63 21.5356C115.224 21.5356 114.91 21.3753 114.689 21.0547C114.468 20.7342 114.354 20.2533 114.354 19.6193C114.354 18.9853 114.465 18.4973 114.689 18.1589C114.91 17.8206 115.216 17.6531 115.608 17.6531C116.132 17.6531 116.492 17.8206 116.687 18.1518C116.883 18.4866 116.98 18.971 116.98 19.6051V19.7974H116.976Z" fill="black"/>
<path d="M121.471 13.9666C121.279 13.8419 121.054 13.7814 120.791 13.7814C120.527 13.7814 120.292 13.8419 120.107 13.9666C119.922 14.0913 119.826 14.3192 119.826 14.6505C119.826 14.9817 119.918 15.2026 120.107 15.3308C120.292 15.459 120.524 15.5231 120.791 15.5231C121.058 15.5231 121.279 15.459 121.471 15.3308C121.664 15.2026 121.756 14.9782 121.756 14.6505C121.756 14.3228 121.66 14.0877 121.471 13.9666Z" fill="black"/>
<path d="M121.671 16.3317H119.897V22.8357H121.671V16.3317Z" fill="black"/>
<path d="M127.612 16.7664C127.149 16.3888 126.479 16.2 125.603 16.2C125.143 16.2 124.698 16.2534 124.274 16.3532C123.85 16.4565 123.462 16.5989 123.113 16.7806L123.697 17.9845C124 17.8492 124.299 17.7352 124.602 17.6461C124.905 17.5535 125.215 17.5108 125.532 17.5108C125.849 17.5108 126.098 17.5891 126.276 17.7494C126.454 17.9097 126.543 18.1591 126.543 18.501V18.7859L125.41 18.8216C124.442 18.8536 123.715 19.0353 123.231 19.363C122.746 19.6907 122.504 20.2036 122.504 20.8946C122.504 21.5856 122.696 22.1127 123.077 22.4511C123.459 22.7895 123.939 22.9569 124.52 22.9569C125.061 22.9569 125.485 22.8786 125.795 22.7183C126.105 22.558 126.397 22.3051 126.679 21.956H126.725L127.07 22.8394H128.31V18.501C128.31 17.7209 128.078 17.1439 127.612 16.7664ZM126.547 20.3567C126.547 20.7699 126.415 21.0905 126.155 21.3149C125.891 21.5428 125.571 21.6533 125.19 21.6533C124.937 21.6533 124.73 21.5963 124.57 21.4823C124.41 21.3683 124.331 21.176 124.331 20.9053C124.331 20.5954 124.442 20.346 124.666 20.1537C124.89 19.9614 125.286 19.8616 125.859 19.8438L126.55 19.8189V20.3567H126.547Z" fill="black"/>
<path d="M130.191 21.3934C129.991 21.3934 129.82 21.454 129.678 21.5715C129.535 21.6891 129.464 21.8992 129.464 22.1913C129.464 22.4834 129.535 22.6828 129.678 22.8111C129.82 22.9393 129.991 23.0034 130.191 23.0034C130.39 23.0034 130.575 22.9393 130.721 22.8111C130.867 22.6828 130.942 22.4762 130.942 22.1913C130.942 21.9063 130.867 21.6926 130.721 21.5715C130.575 21.454 130.397 21.3934 130.191 21.3934Z" fill="black"/>
<path d="M132.755 14.056C132.581 14.056 132.435 14.1094 132.314 14.2163C132.196 14.3231 132.135 14.4905 132.135 14.722C132.135 14.9536 132.196 15.1103 132.314 15.2207C132.431 15.3311 132.581 15.3881 132.755 15.3881C132.915 15.3881 133.054 15.3311 133.179 15.2207C133.304 15.1103 133.364 14.9429 133.364 14.722C133.364 14.5012 133.304 14.3231 133.179 14.2163C133.054 14.1094 132.915 14.056 132.755 14.056Z" fill="#FF0000"/>
<path d="M133.265 16.4492H132.217V22.8356H133.265V16.4492Z" fill="#FF0000"/>
<path d="M138.949 13.7814V16.3317C138.949 16.4492 138.96 16.6131 138.978 16.8125C138.999 17.0156 139.01 17.1687 139.021 17.272H138.949C138.75 17.0084 138.493 16.7876 138.18 16.6059C137.867 16.4243 137.464 16.3317 136.972 16.3317C136.178 16.3317 135.541 16.6131 135.06 17.1723C134.579 17.7315 134.34 18.5614 134.34 19.6549C134.34 20.7484 134.579 21.5748 135.056 22.1269C135.533 22.679 136.168 22.9532 136.962 22.9532C137.464 22.9532 137.87 22.8571 138.191 22.6683C138.508 22.4759 138.764 22.248 138.953 21.9773H138.999L139.152 22.8357H140V13.7814H138.953H138.949ZM138.96 19.858C138.96 20.6059 138.825 21.1616 138.55 21.532C138.276 21.9025 137.802 22.0877 137.126 22.0877C136.552 22.0877 136.128 21.8775 135.843 21.4572C135.562 21.0369 135.42 20.4457 135.42 19.6834C135.42 18.9212 135.562 18.3263 135.843 17.8775C136.125 17.4287 136.549 17.2043 137.111 17.2043C137.817 17.2043 138.301 17.4181 138.565 17.8419C138.828 18.2658 138.956 18.8749 138.956 19.6692V19.8615L138.96 19.858Z" fill="#FF0000"/>
</svg>
