<svg width="150" height="31" viewBox="0 0 150 31" fill="none" xmlns="http://www.w3.org/2000/svg">
<path d="M3.94924 4.53278H7.20928C10.1903 4.53278 11.5031 5.47359 11.5031 7.38805C11.5031 9.05088 10.1903 10.1777 7.55388 10.1777H3.94924V4.53278ZM0 23.3382H7.99147C12.1923 23.3382 16.3877 21.8394 16.3877 17.0095C16.3877 14.1543 14.3857 11.9663 11.5961 11.6491V11.5834C13.877 10.8997 15.4524 9.23686 15.4524 6.73166C15.4524 2.68397 12.0009 1.1524 8.64785 1.1524H0V23.3382ZM3.94924 13.5635H7.73985C10.9342 13.5635 12.4439 14.3785 12.4439 16.7032C12.4439 19.6132 9.61601 19.9578 7.58123 19.9578H3.94924V13.5635Z" fill="black"/>
<path fill-rule="evenodd" clip-rule="evenodd" d="M22.8512 1.1525V23.8634H18.8512V1.1525H22.8512Z" fill="black"/>
<path d="M29.0069 16.051C29.0069 13.6989 30.6698 11.5383 33.4266 11.5383C36.1834 11.5383 37.8407 13.6989 37.8407 16.051C37.8407 18.403 36.1834 20.5636 33.4266 20.5636C30.6698 20.5636 29.0069 18.403 29.0069 16.051ZM25.2437 16.051C25.2437 20.7824 28.8756 23.944 33.4266 23.944C37.9775 23.944 41.6095 20.7824 41.6095 16.051C41.6095 11.3195 37.972 8.1525 33.4266 8.1525C28.8756 8.1525 25.2437 11.3195 25.2437 16.051Z" fill="black"/>
<path d="M47.0682 16.051C47.0682 13.6989 48.731 11.5383 51.4878 11.5383C54.2447 11.5383 55.902 13.6989 55.902 16.051C55.902 18.403 54.2447 20.5636 51.4878 20.5636C48.731 20.5636 47.0682 18.403 47.0682 16.051ZM43.3049 16.051C43.3049 20.7824 46.9369 23.944 51.4878 23.944C56.0388 23.944 59.6708 20.7824 59.6708 16.051C59.6708 11.3195 56.0333 8.1525 51.4878 8.1525C46.9369 8.1525 43.3049 11.3195 43.3049 16.051Z" fill="black"/>
<path d="M61.9572 8.52989H65.529V10.8819H65.5891C66.2455 9.4707 67.6896 8.15247 70.1948 8.15247C72.514 8.15247 74.1166 9.06046 74.8988 10.9421C75.9928 9.03311 77.5955 8.15247 79.8491 8.15247C83.8585 8.15247 85.2752 11.0077 85.2752 14.6124V23.572H81.5119V15.05C81.5119 13.1738 80.954 11.5383 78.7223 11.5383C76.3757 11.5383 75.4951 13.4801 75.4951 15.4219V23.572H71.7373V14.6124C71.7373 12.7581 70.9824 11.5438 69.1664 11.5438C66.6941 11.5438 65.7204 13.3543 65.7204 15.3672V23.5775H61.9572V8.52989Z" fill="black"/>
<path d="M100.799 16.3423C100.799 18.6943 99.1412 20.8549 96.3789 20.8549C93.6167 20.8549 91.9593 18.6943 91.9593 16.3423C91.9593 13.9903 93.6221 11.8242 96.3789 11.8242C99.1357 11.8242 100.799 13.9903 100.799 16.3423ZM88.3218 23.8634H91.8991V21.6098H91.9593C93.0642 23.4203 95.0334 24.2408 97.1392 24.2408C101.772 24.2408 104.562 20.7948 104.562 16.3478C104.562 11.9008 101.581 8.44929 97.2924 8.44929C94.4754 8.44929 92.9657 9.76206 92.1836 10.7412H92.0906V1.1525H88.3273V23.8634H88.3218Z" fill="black"/>
<path d="M110.026 14.5468C110.305 12.3807 111.689 10.9749 113.91 10.9749C116.262 10.9749 117.7 12.3533 117.739 14.5468H110.026ZM121.496 17.3692V16.3354C121.496 11.1008 118.647 8.1525 114.446 8.1525C109.895 8.1525 106.263 11.3195 106.263 16.051C106.263 20.7824 109.889 23.944 114.446 23.944C116.82 23.944 119.051 23.0962 120.802 20.941L118.105 18.9062C117.17 20.0604 115.945 20.941 114.063 20.941C111.963 20.941 110.267 19.59 110.021 17.3637H121.491L121.496 17.3692Z" fill="black"/>
<path d="M123.942 8.52989H127.705V10.9147H127.77C128.586 9.19174 130.243 8.15247 132.217 8.15247C132.688 8.15247 133.125 8.25092 133.563 8.37673V12.0087C132.94 11.8556 132.338 11.7298 131.747 11.7298C128.208 11.7298 127.705 14.7108 127.705 15.5258V23.5775H123.942V8.52989Z" fill="black"/>
<path d="M141.981 10.7448C144.705 10.7448 146.428 12.5553 146.428 15.1644C146.428 17.7735 144.738 19.5786 141.948 19.5786C139.41 19.5786 137.529 17.604 137.529 15.2191C137.529 12.5498 139.345 10.7393 141.981 10.7393M146.428 7.73088V9.98993H146.368C145.263 8.16846 143.289 7.35345 141.188 7.35345C136.55 7.35345 133.766 10.8049 133.766 15.2574C133.766 19.7099 136.741 22.9644 141.254 22.9644C143.135 22.9644 145.077 22.2479 146.182 20.7765H146.237V21.8759C146.237 24.8515 145.116 26.9191 141.478 26.9191C139.378 26.9191 137.808 26.1315 136.304 24.7476L134.05 27.8271C136.172 29.7142 138.716 30.305 141.505 30.305C147.369 30.305 150 26.8535 150 21.4329V7.73635H146.423L146.428 7.73088Z" fill="black"/>
</svg>
