<svg width="150" height="31" viewBox="0 0 150 31" fill="none" xmlns="http://www.w3.org/2000/svg">
<path d="M3.94924 4.38028H7.20928C10.1903 4.38028 11.5031 5.3211 11.5031 7.23555C11.5031 8.89839 10.1903 10.0252 7.55388 10.0252H3.94924V4.38028ZM0 23.1857H7.99147C12.1923 23.1857 16.3877 21.6869 16.3877 16.857C16.3877 14.0018 14.3857 11.8138 11.5961 11.4966V11.4309C13.877 10.7472 15.4524 9.08436 15.4524 6.57917C15.4524 2.53147 12.0009 0.999908 8.64785 0.999908H0V23.1857ZM3.94924 13.411H7.73985C10.9342 13.411 12.4439 14.226 12.4439 16.5507C12.4439 19.4607 9.61601 19.8053 7.58123 19.8053H3.94924V13.411Z" fill="#9EB0CB"/>
<path fill-rule="evenodd" clip-rule="evenodd" d="M22.8512 1V23.7109H18.8512V1H22.8512Z" fill="#9EB0CB"/>
<path d="M29.0069 15.8985C29.0069 13.5464 30.6698 11.3858 33.4266 11.3858C36.1834 11.3858 37.8407 13.5464 37.8407 15.8985C37.8407 18.2505 36.1834 20.4111 33.4266 20.4111C30.6698 20.4111 29.0069 18.2505 29.0069 15.8985ZM25.2437 15.8985C25.2437 20.6299 28.8756 23.7915 33.4266 23.7915C37.9775 23.7915 41.6095 20.6299 41.6095 15.8985C41.6095 11.167 37.972 8 33.4266 8C28.8756 8 25.2437 11.167 25.2437 15.8985Z" fill="#9EB0CB"/>
<path d="M47.0682 15.8985C47.0682 13.5464 48.731 11.3858 51.4878 11.3858C54.2447 11.3858 55.902 13.5464 55.902 15.8985C55.902 18.2505 54.2447 20.4111 51.4878 20.4111C48.731 20.4111 47.0682 18.2505 47.0682 15.8985ZM43.3049 15.8985C43.3049 20.6299 46.9369 23.7915 51.4878 23.7915C56.0388 23.7915 59.6708 20.6299 59.6708 15.8985C59.6708 11.167 56.0333 8 51.4878 8C46.9369 8 43.3049 11.167 43.3049 15.8985Z" fill="#9EB0CB"/>
<path d="M61.9572 8.37739H65.529V10.7294H65.5891C66.2455 9.31821 67.6896 7.99997 70.1948 7.99997C72.514 7.99997 74.1166 8.90797 74.8988 10.7896C75.9928 8.88062 77.5955 7.99997 79.8491 7.99997C83.8585 7.99997 85.2752 10.8552 85.2752 14.4599V23.4195H81.5119V14.8975C81.5119 13.0213 80.954 11.3858 78.7223 11.3858C76.3757 11.3858 75.4951 13.3276 75.4951 15.2694V23.4195H71.7373V14.4599C71.7373 12.6056 70.9824 11.3913 69.1664 11.3913C66.6941 11.3913 65.7204 13.2018 65.7204 15.2147V23.425H61.9572V8.37739Z" fill="#9EB0CB"/>
<path d="M100.799 16.1898C100.799 18.5418 99.1412 20.7024 96.3789 20.7024C93.6167 20.7024 91.9593 18.5418 91.9593 16.1898C91.9593 13.8378 93.6221 11.6717 96.3789 11.6717C99.1357 11.6717 100.799 13.8378 100.799 16.1898ZM88.3218 23.7109H91.8991V21.4573H91.9593C93.0642 23.2678 95.0334 24.0883 97.1392 24.0883C101.772 24.0883 104.562 20.6423 104.562 16.1953C104.562 11.7483 101.581 8.29679 97.2924 8.29679C94.4754 8.29679 92.9657 9.60956 92.1836 10.5887H92.0906V1H88.3273V23.7109H88.3218Z" fill="#9EB0CB"/>
<path d="M110.026 14.3943C110.305 12.2282 111.689 10.8224 113.91 10.8224C116.262 10.8224 117.7 12.2009 117.739 14.3943H110.026ZM121.496 17.2167V16.1829C121.496 10.9483 118.647 8 114.446 8C109.895 8 106.263 11.167 106.263 15.8985C106.263 20.6299 109.889 23.7915 114.446 23.7915C116.82 23.7915 119.051 22.9437 120.802 20.7885L118.105 18.7537C117.17 19.9079 115.945 20.7885 114.063 20.7885C111.963 20.7885 110.267 19.4375 110.021 17.2112H121.491L121.496 17.2167Z" fill="#9EB0CB"/>
<path d="M123.942 8.37739H127.705V10.7622H127.77C128.586 9.03924 130.243 7.99997 132.217 7.99997C132.688 7.99997 133.125 8.09843 133.563 8.22423V11.8562C132.94 11.7031 132.338 11.5773 131.747 11.5773C128.208 11.5773 127.705 14.5583 127.705 15.3733V23.425H123.942V8.37739Z" fill="#9EB0CB"/>
<path d="M141.981 10.5923C144.705 10.5923 146.428 12.4028 146.428 15.0119C146.428 17.6211 144.738 19.4261 141.948 19.4261C139.41 19.4261 137.529 17.4515 137.529 15.0666C137.529 12.3973 139.345 10.5868 141.981 10.5868M146.428 7.57839V9.83745H146.368C145.263 8.01598 143.289 7.20097 141.188 7.20097C136.55 7.20097 133.766 10.6525 133.766 15.1049C133.766 19.5574 136.741 22.812 141.254 22.812C143.135 22.812 145.077 22.0954 146.182 20.624H146.237V21.7235C146.237 24.6991 145.116 26.7667 141.478 26.7667C139.378 26.7667 137.808 25.979 136.304 24.5951L134.05 27.6747C136.172 29.5618 138.716 30.1525 141.505 30.1525C147.369 30.1525 150 26.701 150 21.2804V7.58386H146.423L146.428 7.57839Z" fill="#9EB0CB"/>
</svg>
