<svg width="327" height="156" viewBox="0 0 327 156" fill="none" xmlns="http://www.w3.org/2000/svg">
<path d="M321.14 62.6681C321.14 62.6681 174.959 66.6987 201.769 78.7759C201.769 78.7759 188.227 78.311 167.645 77.5586C126.676 76.0585 57.8005 73.4418 12.262 71.151C-56.1536 67.7051 37.4143 58.6472 20.314 57.6407C3.20891 56.6343 -72.9904 53.3322 -72.9904 53.3322L-45.6826 43.9053C-45.6826 43.9053 -50.6977 16.3672 -30.7857 17.3737C-10.8737 18.3801 11.2561 27.4428 11.2561 27.4428C11.2561 27.4428 18.2064 13.2425 30.6029 15.2554C42.9994 17.2682 45.1549 20.393 45.1549 20.393C45.1549 20.393 52.0573 -0.133536 69.5696 0.000655099C73.8183 0.034203 78.6945 1.28506 84.2509 4.34271C99.2005 12.5715 99.7897 25.43 99.7897 25.43C99.7897 25.43 117.901 24.4235 121.924 29.4557C125.948 34.4879 127.979 43.5506 127.979 43.5506C127.979 43.5506 130.977 34.7994 137.018 38.1686C143.053 41.5378 138.023 46.5699 138.023 46.5699C138.023 46.5699 269.748 45.113 304.96 53.1693C340.176 61.2208 321.136 62.6777 321.136 62.6777L321.14 62.6681Z" fill="url(#paint0_linear_2_4)"/>
<path d="M203.057 18.9887C193.745 23.3404 138.541 17.2011 135.03 15.5812C135.03 15.5812 133.645 10.3286 147.699 7.77414C161.748 5.21971 167.209 3.1014 173.465 5.65583C173.465 5.65583 179.337 1.6205 185.914 4.59668C192.491 7.57286 193.128 9.69596 193.128 9.69596C193.128 9.69596 217.418 12.2743 203.062 18.9887H203.057Z" fill="url(#paint1_linear_2_4)"/>
<path d="M100.638 33.1604C100.59 33.1844 100.087 33.4911 99.043 33.8889C99.977 33.4527 100.581 33.1844 100.638 33.1604Z" fill="url(#paint2_linear_2_4)"/>
<path d="M250.885 70.7771C295.389 67.1492 321.14 62.6729 321.14 62.6729C321.14 62.6729 258.899 64.8488 192.816 66.2386C196.246 65.467 198.148 64.9015 198.148 64.9015C198.148 64.9015 191.547 62.5579 191.331 59.5338C191.121 56.5097 216.666 53.1837 216.666 53.1837C163.482 49.3832 139.173 52.5463 139.173 52.5463C139.173 52.5463 153.648 51.9089 160.034 55.7429C166.419 59.5769 133.847 60.2144 124.065 58.9395C114.284 57.6599 119.587 52.1245 119.587 52.1245C108.728 54.2524 86.5884 45.3047 86.5884 42.3237C86.5884 39.9706 95.3541 35.619 99.0376 33.8936C96.2882 34.9528 89.7929 36.6925 78.0718 35.9305C61.6756 34.8665 46.3476 26.561 46.3476 26.561C46.3476 26.561 55.8222 38.4897 43.3682 41.9116C30.9142 45.3335 15.9072 36.2516 15.9072 36.2516C15.9072 36.2516 16.8652 42.9612 2.81612 46.4741C-11.233 49.987 -45.6922 43.9053 -45.6922 43.9053L-73 53.3322C-73 53.3322 -71.7498 56.8164 -68.1813 56.9746C-43.2924 58.0865 -19.0119 61.3838 -19.0119 61.3838C-34.8572 68.1796 -118.055 69.5982 32.1022 78.2152C182.259 86.8274 258.525 87.345 236.372 78.7807C214.218 70.2164 206.377 74.4099 250.881 70.7819L250.885 70.7771Z" fill="url(#paint3_linear_2_4)"/>
<path d="M150.593 154.387C150.593 154.387 143.474 157.358 71.5842 147.147C71.5842 147.147 78.1546 152.959 68.3521 155.152C64.7537 155.959 58.9502 156.275 49.8058 155.638C15.7465 153.264 -34.0436 149.111 -34.0436 149.111C-34.0436 149.111 -21.0965 156.442 -65.0911 152.645C-108.592 148.891 -97.1231 144.141 -96.863 144.035H-96.8577C-96.8577 144.035 -131.281 131.28 -88.7058 130.651C-46.1336 130.022 -45.9849 135.56 -45.9849 135.56C-45.9849 135.56 -41.2695 121.897 -12.8172 132.812C-12.8172 132.812 -2.62461 116.906 28.6537 137.721C28.6537 137.721 50.0712 134.777 62.2779 141.648C62.2779 141.648 91.7093 138.167 100.222 141.486C108.738 144.808 108.913 146.879 108.913 146.879C108.913 146.879 155.821 150.983 150.593 154.387Z" fill="url(#paint4_linear_2_4)"/>
<path d="M68.3521 155.149C64.7538 155.956 58.9503 156.272 49.8059 155.635C15.7465 153.261 -34.0436 149.109 -34.0436 149.109C-34.0436 149.109 -21.0965 156.439 -65.0911 152.643C-108.592 148.889 -97.123 144.139 -96.863 144.032H-96.8577C-96.8577 144.032 -44.4033 149.698 -45.7434 138.016C-45.7434 138.016 -43.1906 145.45 -37.5304 146.334C-31.8702 147.219 -6.22024 145.094 -14.0007 139.078C-13.8547 139.139 -6.17248 142.397 -1.09077 138.016C-1.1465 138.178 -4.46619 147.757 14.3029 148.812C33.2313 149.874 12.18 141.484 12.18 141.484C12.18 141.484 37.2064 137.7 52.693 143.459C59.9454 146.156 72.3273 151.392 68.3521 155.146V155.149Z" fill="url(#paint5_linear_2_4)"/>
<defs>
<linearGradient id="paint0_linear_2_4" x1="122.968" y1="218.575" x2="130.641" y2="-118.821" gradientUnits="userSpaceOnUse">
<stop offset="0.02" stop-color="#B8D4FF"/>
<stop offset="1" stop-color="#E0F7F6"/>
</linearGradient>
<linearGradient id="paint1_linear_2_4" x1="175.17" y1="-51.8165" x2="169.564" y2="44.8107" gradientUnits="userSpaceOnUse">
<stop offset="0.02" stop-color="#B8D4FF"/>
<stop offset="1" stop-color="#E0F7F6"/>
</linearGradient>
<linearGradient id="paint2_linear_2_4" x1="99.8429" y1="33.9847" x2="99.8429" y2="33.4623" gradientUnits="userSpaceOnUse">
<stop offset="0.02" stop-color="#B8D4FF"/>
<stop offset="1" stop-color="#E0F7F6"/>
</linearGradient>
<linearGradient id="paint3_linear_2_4" x1="124.07" y1="243.515" x2="124.07" y2="-272.245" gradientUnits="userSpaceOnUse">
<stop stop-color="#3195F7"/>
<stop offset="0.23" stop-color="#76C1ED"/>
<stop offset="0.49" stop-color="#8EE1FE"/>
<stop offset="0.57" stop-color="#9AE1FA"/>
<stop offset="0.69" stop-color="#B7E3F3"/>
<stop offset="0.78" stop-color="#C7E3F0"/>
<stop offset="0.85" stop-color="#CEE4F0"/>
<stop offset="1" stop-color="#AFC9DE"/>
</linearGradient>
<linearGradient id="paint4_linear_2_4" x1="20.5018" y1="174.945" x2="20.5018" y2="117.588" gradientUnits="userSpaceOnUse">
<stop offset="0.02" stop-color="#B8D4FF"/>
<stop offset="1" stop-color="white"/>
</linearGradient>
<linearGradient id="paint5_linear_2_4" x1="-14.6482" y1="198.137" x2="-14.6482" y2="28.6866" gradientUnits="userSpaceOnUse">
<stop stop-color="#3195F7"/>
<stop offset="0.23" stop-color="#76C1ED"/>
<stop offset="0.49" stop-color="#8EE1FE"/>
<stop offset="0.74" stop-color="#B7E3F3"/>
<stop offset="0.85" stop-color="#CEE4F0"/>
<stop offset="1" stop-color="#CFE3FE"/>
</linearGradient>
</defs>
</svg>
