<svg width="319" height="160" viewBox="0 0 319 160" fill="none" xmlns="http://www.w3.org/2000/svg">
<path d="M69.8626 127.012C69.8626 127.012 112.758 110.579 143.973 116.154C166.136 120.113 152.659 128.234 152.659 128.234C152.659 128.234 227.046 136.165 173.743 142.432C173.743 142.432 183.691 155.966 263.878 151.613C263.878 151.613 227.557 144.439 255.117 142.939C282.677 141.438 374.088 149.178 358.148 153.471C347.42 156.356 300.377 153.471 300.377 153.471C300.377 153.471 341.254 160.106 264.324 159.999C183.987 159.887 -45.4017 131.677 7.96251 128.949C47.4038 126.938 69.8626 127.007 69.8626 127.007V127.012Z" fill="url(#paint0_linear_2_3)"/>
<path d="M503.084 62.5984C525.742 63.3652 520.025 63.3961 540.792 64.3979C544.921 64.8988 514.605 67.997 514.605 67.997C514.605 67.997 379.045 74.1191 329.05 72.2516C217.168 68.065 141.319 61.8131 91.0392 61.1947C91.0392 61.1947 167.407 38.246 207.149 41.3999C207.149 41.3999 200.863 23.1139 231.377 21.7349C253.739 20.7269 259.32 26.4595 260.704 29.5947C261.044 30.3677 261.131 30.9799 261.155 31.3015C261.18 28.9145 262.02 9.11349 283.968 2.24931C286.601 1.42685 289.537 0.789897 292.813 0.387941C325.156 -3.55123 322.677 23.8066 322.677 23.8066C322.677 23.8066 348.222 13.9864 353.5 21.1784C358.772 28.3703 355.447 36.8794 355.447 36.8794C355.447 36.8794 381.103 22.409 384.985 29.6627C388.866 36.9165 385.708 45.7224 385.708 45.7224C385.708 45.7224 439.405 38.345 452.329 47.6704C465.253 56.9896 478.714 61.7821 503.09 62.6108L503.084 62.5984Z" fill="url(#paint1_linear_2_3)"/>
<path d="M91.0317 61.1885C91.0317 61.1885 159.18 49.742 239.108 58.0099C272.224 61.4358 264.393 45.0546 264.393 45.0546C281.698 60.1991 311.57 40.2002 311.57 40.2002C280.048 66.9952 337.738 69.9202 337.738 69.9202C378.011 71.1941 450.436 56.2537 427.197 62.2522C403.958 68.2506 394.236 71.3735 394.236 71.3735C394.236 71.3735 461.357 65.1772 493.602 66.8839C525.846 68.5907 542.763 60.5268 541.193 65.913C539.623 71.2993 483.212 69.7162 462.933 72.7525C442.655 75.7888 347.355 77.0998 300.376 77.9655C253.397 78.8313 280.431 73.643 272.761 72.8762C250.27 70.6438 236.926 70.217 213.798 68.634C208.884 68.3 155.057 68.6463 150.267 68.3371C141.756 67.7929 163.716 64.701 163.716 64.701C122.232 62.3202 91.0255 61.1761 91.0255 61.1761L91.0317 61.1885Z" fill="url(#paint2_linear_2_3)"/>
<defs>
<linearGradient id="paint0_linear_2_3" x1="179.998" y1="200.15" x2="179.998" y2="50.5618" gradientUnits="userSpaceOnUse">
<stop offset="0.02" stop-color="#B8D4FF"/>
<stop offset="1" stop-color="#E0F7F6"/>
</linearGradient>
<linearGradient id="paint1_linear_2_3" x1="316.101" y1="129.218" x2="316.101" y2="20.7517" gradientUnits="userSpaceOnUse">
<stop offset="0.02" stop-color="#B8D4FF"/>
<stop offset="1" stop-color="#E0F7F6"/>
</linearGradient>
<linearGradient id="paint2_linear_2_3" x1="316.162" y1="97.983" x2="316.162" y2="-47.4139" gradientUnits="userSpaceOnUse">
<stop offset="0.02" stop-color="#A2CCEA"/>
<stop offset="1" stop-color="#E0F7F6"/>
</linearGradient>
</defs>
</svg>
