<svg width="299" height="253" viewBox="0 0 299 253" fill="none" xmlns="http://www.w3.org/2000/svg">
<path d="M119.367 187.615C119.367 187.615 140.446 195.917 156.432 189.468C162.821 186.891 183.475 193.598 211.44 185.121L161.412 182.014L119.367 187.615Z" fill="url(#paint0_linear_2_5)"/>
<path d="M189.206 182.878C189.206 182.878 152.604 168.957 145.525 174.167C138.451 179.377 134.963 183.379 134.963 183.379C134.963 183.379 112.293 184.875 119.368 187.619C126.442 190.362 146.802 189.729 151.134 187.869C172.554 178.669 165.139 186.417 165.139 186.417C165.139 186.417 196.617 189.574 211.44 185.125C219.101 182.829 178.318 175.001 189.202 182.882L189.206 182.878Z" fill="url(#paint1_linear_2_5)"/>
<path d="M70.073 251.784C77.6989 254.332 105.161 252.085 105.161 252.085C105.161 252.085 115.127 249.627 106.455 245.743C95.663 240.912 88.7568 243.326 87.0302 246.391C87.0302 246.391 68.7045 251.325 70.073 251.784Z" fill="url(#paint2_linear_2_5)"/>
<path d="M376.28 94.7843C369.482 95.5224 366.352 96.3994 371.8 97.588C384.014 100.248 313.418 98.4506 333.748 93.4759C339.093 92.1676 258.007 91.3912 204.799 92.2586C203.258 92.2826 184.851 91.0845 183.326 91.1132C182.258 91.1324 185.185 92.8433 184.126 92.8625C154.708 93.4664 140.121 94.3769 137.142 95.7716C135.669 96.4569 137.035 97.2621 140.846 98.2014C157.659 102.347 102.667 95.4744 51.9071 95.7141C19.1361 95.8674 0.984375 100.061 0.984375 100.061C24.2494 70.0356 95.6337 83.8956 95.6337 83.8956C95.6337 55.9215 145.788 59.4536 145.788 59.4536C145.788 59.4536 142.542 48.8189 153.06 51.0906C157.659 52.0874 161 55.0684 161 55.0684C161 55.0684 169.583 19.6226 192.21 25.8338C192.21 25.8338 203.19 18.2711 211.33 28.1774C211.33 28.1774 213.281 20.1882 219.92 23.0637C223.838 24.7603 224.213 32.6824 224.213 32.6824C224.213 32.6824 228.681 29.457 232.265 33.7703C235.288 37.4078 233.46 42.555 233.46 42.555L240.895 56.2953C247.534 36.4637 257.354 40.9591 262.4 49.2646C262.328 49.0873 257.689 29.7829 265.586 23.7059C265.586 23.7059 262.734 4.46379 281.81 13.2342C281.81 13.2342 288.783 -1.07161 298.241 0.0642259C315.608 2.14899 320.013 14.4419 320.013 14.4419C334.788 5.46064 360.084 17.696 361.266 60.091C361.27 60.091 361.274 60.091 361.278 60.091C361.888 59.9712 383.197 55.7729 393.822 59.9472C406.419 64.8979 385.256 85.9468 394.671 86.6753C456.983 91.5254 397.964 92.436 376.284 94.7843H376.28Z" fill="url(#paint3_linear_2_5)"/>
<path d="M422.42 90.3129C420.676 90.0589 394.345 92.0765 370.104 85.1417L366.161 80.0712C363.394 76.6733 360.08 54.1099 350.523 57.7954C350.523 57.7954 345.744 27.4345 325.035 25.8386C325.035 25.8386 334.991 61.7828 266.379 59.1661C266.379 59.1661 369.877 73.0549 256.144 84.7823C245.969 85.8318 172.12 100.056 227.26 50.0219C227.26 50.0219 213.632 64.3804 184.605 62.3579C196.818 73.2226 196.639 88.6642 178.942 89.3208C166.365 89.7857 128.322 90.4758 148.233 73.86C116.641 60.1198 99.6484 95.9058 99.6484 95.9058C77.367 82.64 17.1772 97.7461 0.984885 100.051C-10.2534 101.652 77.4546 101.077 123.14 104.906C123.14 104.906 79.2586 111.084 97.6533 112.095C117.637 113.193 173.772 116.063 178.766 115.287C196.504 112.522 187.297 100.301 187.297 100.301C234.556 97.4011 254.961 91.7507 254.961 91.7507C254.961 91.7507 240.892 98.1008 269.565 101.336C301.993 104.992 314.964 100.051 314.964 100.051C381.601 108.683 434.157 92.0094 422.42 90.3081V90.3129Z" fill="url(#paint4_linear_2_5)"/>
<defs>
<linearGradient id="paint0_linear_2_5" x1="165.403" y1="212.396" x2="165.403" y2="131.547" gradientUnits="userSpaceOnUse">
<stop stop-color="#3195F7"/>
<stop offset="0.23" stop-color="#76C1ED"/>
<stop offset="0.49" stop-color="#8EE1FE"/>
<stop offset="0.57" stop-color="#9AE1FA"/>
<stop offset="0.69" stop-color="#B7E3F3"/>
<stop offset="0.78" stop-color="#C7E3F0"/>
<stop offset="0.85" stop-color="#CEE4F0"/>
<stop offset="1" stop-color="#AFC9DE"/>
</linearGradient>
<linearGradient id="paint1_linear_2_5" x1="165.203" y1="261.317" x2="165.203" y2="136.95" gradientUnits="userSpaceOnUse">
<stop offset="0.02" stop-color="#B8D4FF"/>
<stop offset="1" stop-color="#E0F7F6"/>
</linearGradient>
<linearGradient id="paint2_linear_2_5" x1="75.1038" y1="220.133" x2="35.5768" y2="134.818" gradientUnits="userSpaceOnUse">
<stop offset="0.02" stop-color="#B8D4FF"/>
<stop offset="1" stop-color="#E0F7F6"/>
</linearGradient>
<linearGradient id="paint3_linear_2_5" x1="211.704" y1="125.313" x2="211.704" y2="23.0589" gradientUnits="userSpaceOnUse">
<stop offset="0.02" stop-color="#B8D4FF"/>
<stop offset="1" stop-color="white"/>
</linearGradient>
<linearGradient id="paint4_linear_2_5" x1="212.035" y1="198.155" x2="212.035" y2="-112.407" gradientUnits="userSpaceOnUse">
<stop stop-color="#3195F7"/>
<stop offset="0.23" stop-color="#76C1ED"/>
<stop offset="0.49" stop-color="#8EE1FE"/>
<stop offset="0.57" stop-color="#9AE1FA"/>
<stop offset="0.69" stop-color="#B7E3F3"/>
<stop offset="0.78" stop-color="#C7E3F0"/>
<stop offset="0.85" stop-color="#CEE4F0"/>
<stop offset="1" stop-color="#AFC9DE"/>
</linearGradient>
</defs>
</svg>
