<svg width="274" height="152" viewBox="0 0 274 152" fill="none" xmlns="http://www.w3.org/2000/svg">
<path d="M17.1358 95.1212C13.4803 94.0158 84.8272 92.7721 84.8272 92.7721C84.8272 92.7721 84.2089 83.8736 96.0173 85.1769C107.826 86.4783 115.666 88.9889 115.666 88.9889C115.666 88.9889 118.939 82.9451 129.928 85.7363C140.92 88.5295 144.061 92.1819 144.061 92.1819C144.061 92.1819 180.661 98.6006 175.502 100.513C175.502 100.513 149.042 101.799 108.575 100.19C58.7163 98.2084 20.4697 96.1285 17.1339 95.1212H17.1358Z" fill="url(#paint0_linear_2_2)"/>
<path d="M-41.485 129.369C-28.4682 134.157 -11.5132 136.386 -17.5091 132.985C-19.3973 131.914 -36.0055 124.375 -31.3814 123.419C-26.7573 122.462 42.6464 142.757 70.0056 144.039C97.3648 145.321 115.11 141.662 149.898 144.675C180.498 147.33 209.114 153.213 214.123 151.778C219.132 150.343 193.315 149.09 187.149 145.742C180.984 142.393 246.137 151.18 267.986 151.778C289.742 152.376 247.432 145.153 221.233 142.762C195.029 140.37 156.665 132.559 156.665 132.559C156.665 132.559 150.758 124.342 143.821 126.82C136.885 129.297 134.404 131.062 134.404 131.062C134.404 131.062 131.552 127.221 121.919 127.877C112.285 128.532 110.767 131.062 110.767 131.062C110.767 131.062 112.566 127.575 107.942 127.351C103.318 127.126 103.916 130.01 103.916 130.01C103.916 130.01 83.6197 127.087 75.1422 126.609C66.6647 126.131 50.203 124.906 46.3688 125.973C40.5848 127.58 68.4103 129.187 74.9688 131.062C91.4151 135.769 85.1572 137.261 48.9352 131.043C12.7132 124.825 -5.18206 113.637 -14.8348 113.073C-19.1391 112.82 -11.1279 114.69 -8.81582 117.56C-6.50378 120.429 -61.7 103.646 -79.1713 101.096C-92.2613 99.1829 -30.3602 126.494 -42.7258 123.299C-66.5052 117.153 -70.7015 118.621 -41.4927 129.369H-41.485Z" fill="url(#paint1_linear_2_2)"/>
<path d="M47.2584 37.4409C60.6891 36.6571 81.6801 32.354 78.9429 34.5701C76.2057 36.7892 72.6852 37.6669 72.6852 37.6669C72.6852 37.6669 108.955 37.2589 125.079 38.5123L90.7953 33.9889C90.7953 33.9889 84.3087 21.7134 71.0804 23.2457C57.8521 24.7779 56.9661 31.2737 56.9661 31.2737C56.9661 31.2737 56.0978 27.9833 50.9168 28.3208C45.7387 28.6584 42.8313 33.5046 42.8313 33.5046H34.1093C34.1093 33.5046 32.0527 27.5136 27.9953 28.3208C23.1165 29.2924 21.1333 34.1034 21.1333 34.1034L-25 36.7364C-25 36.7364 33.8276 38.2246 47.2554 37.4409H47.2584Z" fill="url(#paint2_linear_2_2)"/>
<path d="M128.656 39.4281C130.129 39.4193 131.106 39.3958 131.493 39.3577C131.493 39.3577 130.452 39.3811 128.656 39.4281Z" fill="url(#paint3_linear_2_2)"/>
<path d="M65.5391 13.9173C68.1032 13.9027 85.2627 8.83922 92.2597 8.69245C92.2597 8.69245 94.1402 -0.139918 101.302 1.65063C108.466 3.44117 113.829 5.81585 113.829 5.81585C113.829 5.81585 133.309 -0.812105 139.857 0.0831673C146.405 0.97844 144.976 8.7541 144.976 8.7541C144.976 8.7541 168.074 12.5172 166.801 16.2069C166.801 16.2069 129.213 9.303 108.985 12.7784C88.7538 16.2538 65.542 13.9173 65.542 13.9173H65.5391Z" fill="url(#paint4_linear_2_2)"/>
<defs>
<linearGradient id="paint0_linear_2_2" x1="92.832" y1="288.453" x2="97.2877" y2="55.9568" gradientUnits="userSpaceOnUse">
<stop stop-color="#3195F7"/>
<stop offset="0.23" stop-color="#76C1ED"/>
<stop offset="0.49" stop-color="#8EE1FE"/>
<stop offset="0.74" stop-color="#B7E3F3"/>
<stop offset="0.79" stop-color="#C8EAF5"/>
<stop offset="0.98" stop-color="white"/>
</linearGradient>
<linearGradient id="paint1_linear_2_2" x1="94.6327" y1="228.623" x2="100.004" y2="38.2325" gradientUnits="userSpaceOnUse">
<stop offset="0.02" stop-color="#B8D4FF"/>
<stop offset="1" stop-color="#E0F7F6"/>
</linearGradient>
<linearGradient id="paint2_linear_2_2" x1="50.0425" y1="58.1437" x2="50.0425" y2="4.96448" gradientUnits="userSpaceOnUse">
<stop offset="0.02" stop-color="#B8D4FF"/>
<stop offset="1" stop-color="#E0F7F6"/>
</linearGradient>
<linearGradient id="paint3_linear_2_2" x1="130.076" y1="51.8851" x2="130.076" y2="-1.30953" gradientUnits="userSpaceOnUse">
<stop offset="0.02" stop-color="#B8D4FF"/>
<stop offset="1" stop-color="#E0F7F6"/>
</linearGradient>
<linearGradient id="paint4_linear_2_2" x1="113.042" y1="48.1841" x2="117.689" y2="-1.03935" gradientUnits="userSpaceOnUse">
<stop offset="0.02" stop-color="#B8D4FF"/>
<stop offset="1" stop-color="#E0F7F6"/>
</linearGradient>
</defs>
</svg>
