<svg width="140" height="59" viewBox="0 0 140 59" fill="none" xmlns="http://www.w3.org/2000/svg">
<path d="M68.1672 21.0978C67.2653 21.0978 66.56 21.4072 66.0539 22.0285C65.5477 22.6498 65.2934 23.499 65.2934 24.5785C65.2934 25.658 65.5285 26.4927 66.0011 27.1092C66.4736 27.7257 67.1909 28.0328 68.1528 28.0328C68.5414 28.0328 68.9133 27.9968 69.2731 27.9248C69.6305 27.8529 69.9951 27.7593 70.3669 27.6394V28.8172C70.0119 28.9515 69.6521 29.0523 69.2851 29.1147C68.9181 29.177 68.4863 29.2106 67.9873 29.2106C67.059 29.2106 66.2913 29.0187 65.6844 28.6349C65.0775 28.2511 64.6218 27.7113 64.3171 27.0157C64.0125 26.32 63.8613 25.5044 63.8613 24.5665C63.8613 23.6285 64.0268 22.8489 64.3603 22.1485C64.6937 21.448 65.1807 20.9011 65.8212 20.5101C66.4617 20.1167 67.2461 19.9224 68.1744 19.9224C68.6302 19.9224 69.074 19.9703 69.5106 20.0687C69.9447 20.1646 70.3429 20.3038 70.7076 20.4789L70.2014 21.6183C69.9064 21.484 69.5873 21.3641 69.2467 21.2585C68.9061 21.153 68.5438 21.1002 68.1648 21.1002L68.1672 21.0978Z" fill="#29B190"/>
<path d="M75.0014 20.0471C76.1576 20.0471 77.0116 20.263 77.5634 20.6923C78.1151 21.1217 78.3934 21.7766 78.3934 22.6546C78.3934 23.1176 78.307 23.5086 78.1343 23.8252C77.9616 24.1419 77.7409 24.3985 77.4698 24.5976C77.1987 24.7967 76.9181 24.9551 76.623 25.0726L79.1538 29.0834H77.585L75.4092 25.4252H73.8404V29.0834H72.4731V20.0471H75.0038H75.0014ZM74.9127 21.2105H73.838V24.2858H74.9774C75.6779 24.2858 76.1888 24.1538 76.5079 23.8876C76.8293 23.6213 76.9876 23.2279 76.9876 22.705C76.9876 22.182 76.8197 21.7814 76.4815 21.5535C76.1433 21.3256 75.6203 21.2129 74.9127 21.2129V21.2105Z" fill="#29B190"/>
<path d="M83.1262 24.2738L85.3404 20.0471H86.8084L83.7979 25.5763V29.081H82.445V25.6267L79.4344 20.0471H80.9145L83.1286 24.2738H83.1262Z" fill="#29B190"/>
<path d="M90.6922 20.0471C91.8724 20.0471 92.7336 20.2845 93.2734 20.7619C93.8131 21.2393 94.0842 21.9037 94.0842 22.7553C94.0842 23.2615 93.9714 23.7341 93.7483 24.173C93.5252 24.612 93.151 24.9694 92.6281 25.2429C92.1051 25.5164 91.3975 25.6531 90.5027 25.6531H89.5288V29.0834H88.1615V20.0471H90.6922ZM90.5915 21.1985H89.5288V24.5017H90.3516C91.1192 24.5017 91.6997 24.3721 92.0907 24.1083C92.4842 23.8468 92.6785 23.4126 92.6785 22.8057C92.6785 22.266 92.5105 21.863 92.1723 21.5967C91.8341 21.3304 91.3087 21.1985 90.5915 21.1985Z" fill="#29B190"/>
<path d="M99.0952 29.0834H97.7279V21.2249H95.0196V20.0471H101.803V21.2249H99.0952V29.0834Z" fill="#29B190"/>
<path d="M111.053 24.5521C111.053 25.4876 110.897 26.3056 110.586 27.0013C110.274 27.6969 109.806 28.2391 109.18 28.6277C108.556 29.0163 107.779 29.2106 106.851 29.2106C105.922 29.2106 105.109 29.0163 104.485 28.6277C103.862 28.2391 103.396 27.6945 103.094 26.9941C102.789 26.2936 102.638 25.4756 102.638 24.5401C102.638 23.6045 102.792 22.8033 103.101 22.1101C103.408 21.4192 103.876 20.8795 104.5 20.4909C105.123 20.1023 105.913 19.908 106.865 19.908C107.817 19.908 108.566 20.0999 109.187 20.4837C109.806 20.8675 110.274 21.4072 110.586 22.1029C110.897 22.7985 111.053 23.6141 111.053 24.5521ZM104.08 24.5521C104.08 25.6316 104.303 26.4831 104.752 27.1092C105.198 27.7329 105.898 28.0448 106.853 28.0448C107.808 28.0448 108.515 27.7329 108.954 27.1092C109.393 26.4855 109.612 25.634 109.612 24.5521C109.612 23.4702 109.393 22.6234 108.959 22.0093C108.525 21.3928 107.827 21.0858 106.865 21.0858C105.903 21.0858 105.198 21.3928 104.752 22.0093C104.305 22.6258 104.08 23.4726 104.08 24.5521Z" fill="#29B190"/>
<path d="M71.2761 43.8146H69.6185L65.0511 36.5126H65.0008C65.0176 36.8508 65.0391 37.2371 65.0631 37.6712C65.0895 38.1054 65.1015 38.5516 65.1015 39.005V43.8146H63.8613V34.7783H65.5069L70.0623 42.0419H70.1007C70.0911 41.8644 70.0815 41.6413 70.0695 41.3702C70.0575 41.1016 70.0455 40.8113 70.0383 40.5043C70.0287 40.1972 70.0215 39.9069 70.0119 39.6383V34.7783H71.2785V43.8146H71.2761Z" fill="#29B190"/>
<path d="M78.9188 43.8146H73.8309V34.7783H78.9188V35.9417H75.1982V38.5228H78.6909V39.6743H75.1982V42.6344H78.9188V43.8122V43.8146Z" fill="#29B190"/>
<path d="M91.6229 34.7783L89.2432 43.8146H87.7872L86.1919 38.235C86.132 38.0335 86.072 37.8056 86.0096 37.5513C85.9473 37.2994 85.8897 37.0595 85.8393 36.8365C85.7889 36.6134 85.7553 36.455 85.7386 36.3615C85.729 36.455 85.705 36.611 85.6618 36.8293C85.6186 37.0499 85.5658 37.2898 85.5035 37.5513C85.4411 37.8128 85.3787 38.0527 85.3212 38.2733L83.7523 43.817H82.2962L79.931 34.7807H81.3367L82.6657 40.1204C82.7592 40.4827 82.8432 40.8641 82.9175 41.2647C82.9943 41.6653 83.0519 42.0227 83.0951 42.3346C83.1358 42.0131 83.2006 41.6461 83.2846 41.2335C83.3685 40.8209 83.4621 40.4491 83.5628 40.1204L85.0693 34.7807H86.4366L87.9934 40.1468C88.0942 40.4851 88.1878 40.8617 88.2717 41.2791C88.3557 41.6965 88.4204 42.0491 88.4612 42.3346C88.5044 42.0299 88.5644 41.6773 88.6435 41.2719C88.7227 40.8665 88.809 40.4827 88.9026 40.1204L90.2316 34.7807H91.6229V34.7783Z" fill="#29B190"/>
<path d="M98.2797 41.3725C98.2797 42.1737 97.9895 42.8022 97.4066 43.258C96.8236 43.7138 96.0272 43.9417 95.0149 43.9417C94.5256 43.9417 94.065 43.9009 93.6284 43.8217C93.1918 43.7426 92.8248 43.625 92.5201 43.4739V42.1833C92.8584 42.3345 93.2542 42.4736 93.71 42.5935C94.1657 42.7159 94.6287 42.7758 95.1013 42.7758C95.7082 42.7758 96.164 42.6583 96.4686 42.4208C96.7733 42.1857 96.9244 41.8691 96.9244 41.4709C96.9244 41.1926 96.8548 40.9575 96.7157 40.768C96.5766 40.5785 96.3583 40.4034 96.0632 40.2427C95.7682 40.082 95.3795 39.9044 94.8998 39.7101C94.4536 39.5422 94.0578 39.3431 93.7172 39.1152C93.3765 38.8873 93.1079 38.6043 92.9136 38.2684C92.7192 37.9302 92.6233 37.5176 92.6233 37.0283C92.6233 36.287 92.892 35.7041 93.4341 35.2819C93.9738 34.8597 94.6815 34.6486 95.5595 34.6486C96.0488 34.6486 96.5022 34.6966 96.9196 34.7949C97.337 34.8909 97.7352 35.0252 98.1166 35.1932L97.6872 36.3182C97.3418 36.1743 96.9892 36.0567 96.6317 35.9632C96.2719 35.8696 95.9049 35.824 95.5235 35.824C95.0245 35.824 94.6455 35.9344 94.384 36.1527C94.1226 36.3734 93.9906 36.6588 93.9906 37.0139C93.9906 37.2921 94.053 37.5272 94.1801 37.7167C94.3073 37.9062 94.5088 38.0765 94.787 38.2301C95.0653 38.3812 95.4323 38.5515 95.8881 38.7362C96.3942 38.9377 96.826 39.1512 97.1859 39.3743C97.5457 39.5974 97.8167 39.8685 98.0015 40.1851C98.1862 40.5018 98.2797 40.8952 98.2797 41.3677V41.3725Z" fill="#29B190"/>
<path d="M104.999 43.8146H103.646V34.7783H108.734V35.9417H105.001V38.8898H108.494V40.0533H105.001V43.8122L104.999 43.8146Z" fill="#29B190"/>
<path d="M110.478 43.8146V34.7783H111.845V42.6368H115.705V43.8146H110.478Z" fill="#29B190"/>
<path d="M123.045 43.8146L122.083 41.2071H118.59L117.629 43.8146H116.211L119.641 34.7422H121.059L124.475 43.8146H123.045ZM120.793 37.4745C120.766 37.381 120.723 37.2418 120.661 37.0571C120.598 36.8724 120.536 36.6781 120.478 36.4742C120.418 36.2727 120.373 36.1072 120.339 35.98C120.272 36.2415 120.195 36.5198 120.111 36.8148C120.027 37.1099 119.96 37.3306 119.91 37.4721L118.998 40.0149H121.707L120.795 37.4721L120.793 37.4745Z" fill="#29B190"/>
<path d="M131.028 41.3725C131.028 42.1737 130.738 42.8022 130.155 43.258C129.572 43.7138 128.776 43.9417 127.764 43.9417C127.274 43.9417 126.814 43.9009 126.377 43.8217C125.941 43.7426 125.574 43.625 125.269 43.4739V42.1833C125.607 42.3345 126.003 42.4736 126.459 42.5935C126.914 42.7159 127.377 42.7758 127.85 42.7758C128.457 42.7758 128.913 42.6583 129.217 42.4208C129.522 42.1857 129.673 41.8691 129.673 41.4709C129.673 41.1926 129.604 40.9575 129.464 40.768C129.325 40.5785 129.107 40.4034 128.812 40.2427C128.517 40.082 128.128 39.9044 127.649 39.7101C127.202 39.5422 126.807 39.3431 126.466 39.1152C126.125 38.8873 125.857 38.6043 125.662 38.2684C125.468 37.9302 125.372 37.5176 125.372 37.0283C125.372 36.287 125.641 35.7041 126.183 35.2819C126.723 34.8597 127.43 34.6486 128.308 34.6486C128.798 34.6486 129.251 34.6966 129.668 34.7949C130.086 34.8909 130.484 35.0252 130.865 35.1932L130.436 36.3182C130.091 36.1743 129.738 36.0567 129.38 35.9632C129.021 35.8696 128.654 35.824 128.272 35.824C127.773 35.824 127.394 35.9344 127.133 36.1527C126.871 36.3734 126.739 36.6588 126.739 37.0139C126.739 37.2921 126.802 37.5272 126.929 37.7167C127.056 37.9062 127.258 38.0765 127.536 38.2301C127.814 38.3812 128.181 38.5515 128.637 38.7362C129.143 38.9377 129.575 39.1512 129.935 39.3743C130.294 39.5974 130.565 39.8685 130.75 40.1851C130.935 40.5018 131.028 40.8952 131.028 41.3677V41.3725Z" fill="#29B190"/>
<path d="M140 43.8146H138.633V39.6887H134.317V43.8146H132.95V34.7783H134.317V38.5228H138.633V34.7783H140V43.8146Z" fill="#29B190"/>
<path d="M57.1452 29.7509H56.602C56.602 37.0566 53.6415 43.6662 48.8564 48.4512C44.0676 53.2401 37.458 56.1968 30.1561 56.1968C22.8504 56.1968 16.2408 53.2363 11.4557 48.4512C6.66685 43.6624 3.71014 37.0528 3.71014 29.7509C3.71014 22.4452 6.67067 15.8356 11.4557 11.0505C16.2446 6.26166 22.8542 3.30494 30.1561 3.30494C37.4618 3.30494 44.0714 6.26548 48.8564 11.0505C53.6453 15.8394 56.602 22.449 56.602 29.7509H57.6921C57.6921 14.5428 45.3642 2.211 30.1523 2.211C14.9441 2.211 2.61237 14.5389 2.61237 29.7509C2.61237 44.959 14.9403 57.2908 30.1523 57.2908C45.3604 57.2908 57.6921 44.9629 57.6921 29.7509H57.149H57.1452Z" fill="#28B08F"/>
<path d="M33.0287 2.61623L33.1282 2.45175C31.078 1.22776 28.9016 0.680786 26.6907 0.680786C20.3221 0.684611 13.6667 5.17514 8.59092 10.9776C6.05113 13.8808 3.90914 17.1167 2.39444 20.2991C0.883572 23.4853 0 26.6142 0 29.3185C0 29.7048 0.0191249 30.0796 0.0535498 30.4468V30.4545C0.470473 33.2467 0.971546 36.4176 2.45947 39.8945C3.94738 43.3714 6.41833 47.1544 10.7559 51.1744C16.1376 56.166 21.0642 58.3616 25.7345 58.3616C28.5879 58.3616 31.3343 57.543 34.0194 56.0627C37.5346 54.1235 40.2082 52.4022 43.1573 49.6788C46.1064 46.9555 49.3308 43.2337 53.9667 37.2935V37.2897C55.6 35.0406 56.3038 32.6768 56.3038 30.2938C56.3038 27.1267 55.0683 23.9367 53.1749 20.9035C47.4872 11.8 35.8478 4.02765 33.1167 2.45175L33.0211 2.61623L32.9255 2.7807C34.7156 3.81345 40.4875 7.61166 45.7889 12.6989C48.4434 15.2425 50.9794 18.1074 52.8498 21.1062C54.7202 24.105 55.9213 27.23 55.9213 30.2938C55.9213 32.6003 55.2481 34.8762 53.6569 37.064L53.8099 37.175L53.6607 37.0564C49.0287 42.9928 45.8157 46.6992 42.8934 49.3958C39.9711 52.0962 37.3357 53.7945 33.8282 55.7261C31.1889 57.1835 28.5076 57.9791 25.7307 57.9791C21.1866 57.9791 16.3556 55.8485 11.0121 50.8952C6.70902 46.9057 4.27633 43.1725 2.80754 39.7454C1.34257 36.3143 0.845322 33.1893 0.428398 30.3971L0.240974 30.4239L0.432223 30.4047C0.397798 30.0528 0.378674 29.6895 0.378674 29.3146C0.378674 26.6945 1.2393 23.6116 2.73486 20.4636C4.97631 15.7436 8.64064 10.882 12.9093 7.21004C17.1818 3.53805 22.051 1.05946 26.6907 1.06328C28.8404 1.06328 30.9441 1.59113 32.9293 2.7807L33.0249 2.61623H33.0287Z" fill="white"/>
<path d="M36.5401 12.6224V27.4328C36.5936 28.8442 36.6434 30.248 36.6969 31.6517C36.739 32.7533 36.7696 33.8664 36.7925 34.9833L24.9657 12.6224H17.0327V43.8687H22.8734V29.1425C22.8199 27.6738 22.7625 26.2126 22.6975 24.7476C22.6439 23.581 22.6018 22.4144 22.5559 21.244L35.1746 43.8649H42.4191V12.6224H36.5363H36.5401Z" fill="#29B190"/>
<path d="M47.843 21.0258H39.3056L35.079 43.8648L42.5071 36.0963V29.9495H47.843V27.0463H42.423V23.6727H47.843V21.0258Z" fill="white"/>
<path d="M21.4008 24.48C22.3264 24.48 23.2674 24.633 24.2275 24.9429C25.1875 25.2527 26.1399 25.6161 27.0885 26.033L27.1077 25.9909V21.313C26.4804 21.1026 25.8416 20.9228 25.1875 20.766C24.522 20.6092 23.8603 20.4982 23.2024 20.4256V18.471H21.0259V20.3299C20.4101 20.3414 19.8172 20.3873 19.2473 20.46V18.4672H16.9906V20.9534C16.2485 21.1906 15.5562 21.4966 14.9174 21.8714C13.1503 22.908 11.8077 24.3385 10.8821 26.163C9.95644 27.9914 9.49744 30.0913 9.49744 32.4704C9.49744 34.8496 9.89906 37.0107 10.7061 38.8276C11.5132 40.6444 12.7601 42.052 14.4546 43.0542C15.2081 43.4979 16.0573 43.8383 16.9906 44.0869V46.424H19.2473V44.4771C19.779 44.5268 20.3298 44.5536 20.9074 44.5536C20.9494 44.5536 20.9839 44.5536 21.0259 44.5536V46.424H23.2024V44.4426C23.6767 44.3967 24.1357 44.3355 24.5679 44.259C25.4094 44.106 26.2547 43.888 27.1115 43.605V39.386C26.1935 39.6691 25.3252 39.8986 24.5182 40.0707C23.4854 40.2925 22.4488 40.3996 21.4084 40.3996C19.1823 40.3996 17.5643 39.7111 16.5584 38.338C15.5524 36.961 15.0475 35.0179 15.0475 32.5087C15.0475 29.9995 15.5906 28.064 16.6808 26.6297C17.7709 25.1991 19.3468 24.4839 21.4084 24.4839L21.4008 24.48Z" fill="white"/>
</svg>
