<svg width="140" height="33" viewBox="0 0 140 33" fill="none" xmlns="http://www.w3.org/2000/svg">
<path fill-rule="evenodd" clip-rule="evenodd" d="M41.4925 19.43C41.934 19.43 42.2625 19.3088 42.4792 19.0665C42.6933 18.8242 42.7996 18.4688 42.7996 17.999H45.815L45.8352 18.0582C45.8621 19.2132 45.4623 20.1569 44.6411 20.8851C43.8159 21.6121 42.7673 21.9769 41.4911 21.9769C39.8919 21.9769 38.6561 21.4775 37.7892 20.4773C36.9196 19.4784 36.4848 18.1821 36.4848 16.5869V16.3621C36.4848 14.775 36.9183 13.4813 37.7838 12.4784C38.6481 11.4755 39.8758 10.9734 41.4629 10.9734C42.8036 10.9734 43.8725 11.3503 44.6748 12.1001C45.4744 12.8513 45.8621 13.8744 45.8352 15.1667L45.8163 15.2259H42.7996C42.7996 14.7225 42.6892 14.3132 42.4684 13.9969C42.2463 13.6792 41.9125 13.5217 41.4629 13.5217C40.8383 13.5217 40.4008 13.7801 40.1504 14.2957C39.9 14.8113 39.7734 15.5005 39.7734 16.3621V16.5882C39.7734 17.4767 39.9 18.1713 40.1504 18.6748C40.4008 19.1782 40.849 19.43 41.4925 19.43ZM53.1556 14.0898L51.9548 14.0803C51.5779 14.0803 51.2683 14.1436 51.0273 14.2715C50.7946 14.3905 50.6063 14.5812 50.4902 14.8153V21.7709H47.1921V11.1713H50.2963L50.4134 12.7288C50.6342 12.1742 50.9263 11.7434 51.2911 11.4365C51.6473 11.1326 52.1019 10.969 52.57 10.9761C52.8761 10.9781 53.1808 11.0174 53.4773 11.0932L53.1556 14.0911V14.0898ZM59.4192 17.0971L59.43 17.1765H59.4892L61.2352 11.17H64.75L60.5432 23.3486C60.2175 24.1321 59.7975 24.7782 59.2846 25.2871C58.769 25.7986 57.9519 26.053 56.8346 26.053C56.5465 26.053 56.3136 26.0342 56.1306 25.9992C55.8432 25.939 55.5573 25.8721 55.2731 25.7986L55.6729 23.4469L55.8775 23.49C55.9351 23.5013 55.9937 23.5067 56.0525 23.5061C56.5734 23.5061 56.9544 23.428 57.1954 23.2732C57.435 23.1198 57.6154 22.8882 57.7311 22.5786L57.995 21.8894L54.3456 11.17H57.8496L59.4192 17.0971ZM72.0986 16.49C72.0986 15.5948 71.9681 14.8773 71.7083 14.3361C71.4484 13.7923 71.0311 13.5217 70.459 13.5217C70.0875 13.5217 69.7738 13.589 69.5167 13.7276C69.2609 13.865 69.0563 14.0642 68.9069 14.3253V18.7542C69.0644 18.983 69.2704 19.1513 69.5261 19.263C69.7832 19.3748 70.1023 19.43 70.4779 19.43C71.0567 19.43 71.4727 19.189 71.7231 18.7098C71.9734 18.2292 72.0986 17.5575 72.0986 16.6959V16.49ZM75.3873 16.6959C75.3873 18.2898 75.0292 19.5686 74.3144 20.5325C73.5983 21.495 72.59 21.9769 71.2882 21.9769C70.821 21.9861 70.3581 21.8856 69.9367 21.6834C69.5339 21.4802 69.1819 21.189 68.9069 20.8313V25.8471H65.6088V11.17H68.6929L68.81 12.3357C69.1088 11.8982 69.4602 11.5617 69.864 11.3261C70.2679 11.0919 70.7363 10.9734 71.2694 10.9734C72.5779 10.9734 73.5902 11.4796 74.3104 12.4932C75.0279 13.5055 75.3873 14.8382 75.3873 16.4913V16.6959ZM80.7463 8.53418V11.1713H82.5327V13.4638H80.7463V18.3234C80.7463 18.703 80.8231 18.975 80.9752 19.1419C81.0542 19.2259 81.1504 19.2917 81.2573 19.3349C81.3642 19.3782 81.4792 19.3977 81.5944 19.3923C81.8031 19.3923 81.9673 19.3855 82.0884 19.3721C82.2082 19.3586 82.3631 19.3317 82.5515 19.294L82.7857 21.744C82.4607 21.8217 82.1318 21.8819 81.8004 21.9244C81.5069 21.9607 81.1623 21.9782 80.7652 21.9782C79.6788 21.9782 78.8563 21.6888 78.2963 21.1059C77.7363 20.5257 77.4563 19.605 77.4563 18.3436V13.4625H75.9729V11.1713H77.4563V8.53284L80.7463 8.53418ZM86.6519 16.5788C86.6519 17.4673 86.7892 18.1646 87.0665 18.6707C87.3425 19.1755 87.8123 19.43 88.4759 19.43C89.1207 19.43 89.5825 19.1742 89.8625 18.6653C90.1411 18.1565 90.2825 17.4605 90.2825 16.5788V16.3728C90.2825 15.5113 90.1411 14.8194 89.8625 14.2998C89.5825 13.7815 89.114 13.5217 88.4571 13.5217C87.8069 13.5217 87.3425 13.7828 87.0665 14.3051C86.7892 14.8288 86.6506 15.5167 86.6506 16.3728L86.6519 16.5788ZM83.3525 16.3728C83.3525 14.779 83.8007 13.4813 84.6986 12.4784C85.5965 11.4755 86.8498 10.9734 88.4571 10.9734C90.0711 10.9734 91.3271 11.4755 92.225 12.4784C93.1215 13.4813 93.5711 14.779 93.5711 16.3728V16.5788C93.5711 18.178 93.1215 19.4784 92.225 20.4786C91.3271 21.4775 90.0765 21.9769 88.4759 21.9769C86.8565 21.9769 85.5965 21.4775 84.6986 20.4786C83.8007 19.4784 83.3525 18.178 83.3525 16.5788V16.3728ZM98.0606 11.17L98.1884 12.6588C98.5317 12.1298 98.9584 11.7165 99.4673 11.4203C99.9818 11.1205 100.568 10.966 101.163 10.9734C102.199 10.9734 103.008 11.31 103.589 11.983C104.172 12.6561 104.464 13.7276 104.464 15.1976V21.7709H101.163V15.1882C101.163 14.5798 101.04 14.1503 100.789 13.8986C100.537 13.6469 100.169 13.5217 99.6813 13.5217C99.4119 13.513 99.144 13.5649 98.8973 13.6734C98.6506 13.782 98.4313 13.9445 98.2557 14.149V21.7709H94.9671V11.17H98.0606ZM110.846 13.5217C110.371 13.5217 110.016 13.6913 109.777 14.0305C109.539 14.3711 109.395 14.8248 109.343 15.3928L109.372 15.4413H112.213V15.1869C112.213 14.6511 112.102 14.2405 111.882 13.9525C111.659 13.6657 111.316 13.5217 110.846 13.5217ZM111.081 21.9755C109.526 21.9755 108.285 21.4869 107.357 20.5082C106.43 19.5282 105.967 18.3005 105.967 16.8238V16.4509C105.967 14.8369 106.387 13.5203 107.231 12.4973C108.073 11.4755 109.278 10.968 110.846 10.9748C112.277 10.9748 113.4 11.4055 114.213 12.2671C115.027 13.13 115.434 14.2998 115.434 15.7751V17.509H109.403L109.383 17.5682C109.454 18.1107 109.675 18.5563 110.045 18.9063C110.417 19.255 110.911 19.4286 111.529 19.4286C112.153 19.4286 112.653 19.3801 113.027 19.2819C113.401 19.185 113.875 19.0153 114.447 18.773L115.228 20.7909C114.768 21.1315 114.17 21.4142 113.438 21.639C112.674 21.8684 111.878 21.9818 111.081 21.9755ZM125.896 17.3138H125.956L127.097 11.17H130.142L127.664 21.7723H124.872L123.153 16.148H123.095L121.368 21.7723H118.587L116.096 11.17H119.143L120.303 17.3623H120.362L122.08 11.17H124.16L125.896 17.3138ZM136.828 18.7932C136.828 18.5321 136.68 18.2978 136.384 18.0932C136.088 17.8859 135.55 17.7028 134.769 17.5386C133.538 17.2963 132.612 16.9207 131.986 16.4119C131.362 15.9017 131.051 15.2071 131.051 14.3253C131.051 13.3911 131.441 12.5996 132.222 11.9494C133.003 11.2992 134.059 10.9748 135.393 10.9748C136.799 10.9748 137.917 11.2898 138.751 11.9198C139.584 12.5498 139.98 13.3655 139.942 14.3644L139.922 14.4236H136.721C136.721 14.0063 136.614 13.6886 136.403 13.4719C136.192 13.2565 135.851 13.1488 135.384 13.1488C135.07 13.1385 134.762 13.2396 134.514 13.4342C134.403 13.5187 134.313 13.6284 134.252 13.7542C134.191 13.8801 134.16 14.0186 134.163 14.1584C134.163 14.4398 134.298 14.678 134.568 14.8732C134.837 15.0698 135.384 15.2461 136.204 15.4023C137.492 15.658 138.447 16.0376 139.068 16.5438C139.689 17.05 140 17.7675 140 18.695C140 19.6494 139.579 20.4342 138.736 21.0507C137.893 21.67 136.779 21.9769 135.393 21.9769C133.956 21.9769 132.818 21.6121 131.982 20.8798C131.146 20.1475 130.748 19.3317 130.786 18.4298L130.806 18.3719H133.794C133.806 18.8753 133.957 19.2375 134.247 19.4596C134.536 19.6817 134.947 19.7921 135.481 19.7921C135.922 19.7921 136.258 19.7059 136.487 19.5323C136.714 19.36 136.828 19.1123 136.828 18.7919" fill="#151011"/>
<mask id="mask0_1_1667" style="mask-type:luminance" maskUnits="userSpaceOnUse" x="16" y="16" width="17" height="9">
<path d="M16.0918 24.5387H32.1837L24.1378 16.4617L16.0918 24.5387Z" fill="white"/>
</mask>
<g mask="url(#mask0_1_1667)">
<path fill-rule="evenodd" clip-rule="evenodd" d="M16.0918 24.5387H32.1837L24.1378 16.4617L16.0918 24.5387Z" fill="url(#paint0_linear_1_1667)"/>
</g>
<mask id="mask1_1_1667" style="mask-type:luminance" maskUnits="userSpaceOnUse" x="-1" y="8" width="10" height="17">
<path d="M-0.000118256 24.5387L8.04584 16.4618L-0.000118256 8.38483V24.5387Z" fill="white"/>
</mask>
<g mask="url(#mask1_1_1667)">
<path fill-rule="evenodd" clip-rule="evenodd" d="M-0.000118256 24.5387L8.04584 16.4618L-0.000118256 8.38483V24.5387Z" fill="url(#paint1_linear_1_1667)"/>
</g>
<mask id="mask2_1_1667" style="mask-type:luminance" maskUnits="userSpaceOnUse" x="16" y="8" width="17" height="9">
<path d="M16.0918 8.38483L24.1378 16.4618L32.1837 8.38483H16.0918Z" fill="white"/>
</mask>
<g mask="url(#mask2_1_1667)">
<path fill-rule="evenodd" clip-rule="evenodd" d="M16.0918 8.38483L24.1378 16.4618L32.1837 8.38483H16.0918Z" fill="url(#paint2_linear_1_1667)"/>
</g>
<mask id="mask3_1_1667" style="mask-type:luminance" maskUnits="userSpaceOnUse" x="8" y="0" width="17" height="9">
<path d="M8.04591 0.307922L16.0919 8.38485L24.1378 0.307922H8.04591Z" fill="white"/>
</mask>
<g mask="url(#mask3_1_1667)">
<path fill-rule="evenodd" clip-rule="evenodd" d="M8.04591 0.307922L16.0919 8.38485L24.1378 0.307922H8.04591Z" fill="url(#paint3_linear_1_1667)"/>
</g>
<mask id="mask4_1_1667" style="mask-type:luminance" maskUnits="userSpaceOnUse" x="16" y="24" width="17" height="9">
<path d="M16.0918 24.5386L24.1378 32.6156L32.1837 24.5386H16.0918Z" fill="white"/>
</mask>
<g mask="url(#mask4_1_1667)">
<path fill-rule="evenodd" clip-rule="evenodd" d="M16.0918 24.5386L24.1378 32.6156L32.1837 24.5386H16.0918Z" fill="url(#paint4_linear_1_1667)"/>
</g>
<mask id="mask5_1_1667" style="mask-type:luminance" maskUnits="userSpaceOnUse" x="-1" y="24" width="18" height="9">
<path d="M-0.000118256 24.5386L8.04584 32.6156L16.0918 24.5386H-0.000118256Z" fill="white"/>
</mask>
<g mask="url(#mask5_1_1667)">
<path fill-rule="evenodd" clip-rule="evenodd" d="M-0.000118256 24.5386L8.04584 32.6156L16.0918 24.5386H-0.000118256Z" fill="url(#paint5_linear_1_1667)"/>
</g>
<mask id="mask6_1_1667" style="mask-type:luminance" maskUnits="userSpaceOnUse" x="16" y="0" width="17" height="9">
<path d="M24.1378 0.307922L16.0918 8.38485H32.1837L24.1378 0.307922Z" fill="white"/>
</mask>
<g mask="url(#mask6_1_1667)">
<path fill-rule="evenodd" clip-rule="evenodd" d="M24.1378 0.307922L16.0918 8.38485H32.1837L24.1378 0.307922Z" fill="url(#paint6_linear_1_1667)"/>
</g>
<mask id="mask7_1_1667" style="mask-type:luminance" maskUnits="userSpaceOnUse" x="0" y="0" width="17" height="9">
<path d="M8.04596 0.307678L0 8.3846H16.0919L8.04596 0.307678Z" fill="white"/>
</mask>
<g mask="url(#mask7_1_1667)">
<path fill-rule="evenodd" clip-rule="evenodd" d="M8.04596 0.307678L0 8.3846H16.0919L8.04596 0.307678Z" fill="url(#paint7_linear_1_1667)"/>
</g>
<mask id="mask8_1_1667" style="mask-type:luminance" maskUnits="userSpaceOnUse" x="8" y="24" width="17" height="9">
<path d="M8.04591 32.6156H24.1378L16.0919 24.5386L8.04591 32.6156Z" fill="white"/>
</mask>
<g mask="url(#mask8_1_1667)">
<path fill-rule="evenodd" clip-rule="evenodd" d="M8.04591 32.6156H24.1378L16.0919 24.5386L8.04591 32.6156Z" fill="url(#paint8_linear_1_1667)"/>
</g>
<mask id="mask9_1_1667" style="mask-type:luminance" maskUnits="userSpaceOnUse" x="-1" y="16" width="18" height="9">
<path d="M-0.000118256 24.5387H16.0918L8.04584 16.4617L-0.000118256 24.5387Z" fill="white"/>
</mask>
<g mask="url(#mask9_1_1667)">
<path fill-rule="evenodd" clip-rule="evenodd" d="M-0.000118256 24.5387H16.0918L8.04584 16.4617L-0.000118256 24.5387Z" fill="url(#paint9_linear_1_1667)"/>
</g>
<mask id="mask10_1_1667" style="mask-type:luminance" maskUnits="userSpaceOnUse" x="-1" y="8" width="18" height="9">
<path d="M-0.000118256 8.38483L8.04584 16.4618L16.0918 8.38483H-0.000118256Z" fill="white"/>
</mask>
<g mask="url(#mask10_1_1667)">
<path fill-rule="evenodd" clip-rule="evenodd" d="M-0.000118256 8.38483L8.04584 16.4618L16.0918 8.38483H-0.000118256Z" fill="url(#paint10_linear_1_1667)"/>
</g>
<defs>
<linearGradient id="paint0_linear_1_1667" x1="16.0918" y1="420.308" x2="1625.28" y2="420.308" gradientUnits="userSpaceOnUse">
<stop stop-color="#120812"/>
<stop offset="1" stop-color="#0D051A"/>
</linearGradient>
<linearGradient id="paint1_linear_1_1667" x1="-0.000118256" y1="816.077" x2="804.596" y2="816.077" gradientUnits="userSpaceOnUse">
<stop stop-color="#EF4B95"/>
<stop offset="1" stop-color="#F64B7E"/>
</linearGradient>
<linearGradient id="paint2_linear_1_1667" x1="16.0918" y1="412.231" x2="1625.28" y2="412.231" gradientUnits="userSpaceOnUse">
<stop stop-color="#120812"/>
<stop offset="1" stop-color="#0D051A"/>
</linearGradient>
<linearGradient id="paint3_linear_1_1667" x1="8.04591" y1="404.154" x2="1617.24" y2="404.154" gradientUnits="userSpaceOnUse">
<stop stop-color="#87002D"/>
<stop offset="1" stop-color="#3B016E"/>
</linearGradient>
<linearGradient id="paint4_linear_1_1667" x1="16.0918" y1="428.385" x2="1625.28" y2="428.385" gradientUnits="userSpaceOnUse">
<stop stop-color="#2B002D"/>
<stop offset="1" stop-color="#14004F"/>
</linearGradient>
<linearGradient id="paint5_linear_1_1667" x1="-0.000118256" y1="428.377" x2="1609.19" y2="428.377" gradientUnits="userSpaceOnUse">
<stop stop-color="#E60015"/>
<stop offset="1" stop-color="#8E0162"/>
</linearGradient>
<linearGradient id="paint6_linear_1_1667" x1="16.0918" y1="404.162" x2="1625.28" y2="404.162" gradientUnits="userSpaceOnUse">
<stop stop-color="#2B002D"/>
<stop offset="1" stop-color="#14004F"/>
</linearGradient>
<linearGradient id="paint7_linear_1_1667" x1="0" y1="404.154" x2="1609.19" y2="404.154" gradientUnits="userSpaceOnUse">
<stop stop-color="#E60015"/>
<stop offset="1" stop-color="#8E0162"/>
</linearGradient>
<linearGradient id="paint8_linear_1_1667" x1="8.04591" y1="428.385" x2="1617.24" y2="428.385" gradientUnits="userSpaceOnUse">
<stop stop-color="#87002D"/>
<stop offset="1" stop-color="#3B016E"/>
</linearGradient>
<linearGradient id="paint9_linear_1_1667" x1="-0.000118256" y1="420.308" x2="1609.19" y2="420.308" gradientUnits="userSpaceOnUse">
<stop stop-color="#F61749"/>
<stop offset="1" stop-color="#B81789"/>
</linearGradient>
<linearGradient id="paint10_linear_1_1667" x1="-0.000118256" y1="412.231" x2="1609.19" y2="412.231" gradientUnits="userSpaceOnUse">
<stop stop-color="#F61749"/>
<stop offset="1" stop-color="#B81789"/>
</linearGradient>
</defs>
</svg>
