<svg width="140" height="33" viewBox="0 0 140 33" fill="none" xmlns="http://www.w3.org/2000/svg">
<path fill-rule="evenodd" clip-rule="evenodd" d="M41.4925 19.1223C41.934 19.1223 42.2625 19.0011 42.4792 18.7588C42.6933 18.5165 42.7996 18.1611 42.7996 17.6913H45.815L45.8352 17.7505C45.8621 18.9055 45.4623 19.8492 44.6411 20.5775C43.8159 21.3044 42.7673 21.6692 41.4911 21.6692C39.8919 21.6692 38.6561 21.1698 37.7892 20.1696C36.9196 19.1707 36.4848 17.8744 36.4848 16.2792V16.0544C36.4848 14.4673 36.9183 13.1736 37.7838 12.1707C38.6481 11.1679 39.8758 10.6657 41.4629 10.6657C42.8036 10.6657 43.8725 11.0427 44.6748 11.7925C45.4744 12.5436 45.8621 13.5667 45.8352 14.859L45.8163 14.9182H42.7996C42.7996 14.4148 42.6892 14.0055 42.4684 13.6892C42.2463 13.3715 41.9125 13.214 41.4629 13.214C40.8383 13.214 40.4008 13.4725 40.1504 13.988C39.9 14.5036 39.7734 15.1929 39.7734 16.0544V16.2805C39.7734 17.169 39.9 17.8636 40.1504 18.3671C40.4008 18.8705 40.849 19.1223 41.4925 19.1223ZM53.1556 13.7821L51.9548 13.7727C51.5779 13.7727 51.2683 13.8359 51.0273 13.9638C50.7946 14.0829 50.6063 14.2735 50.4902 14.5077V21.4632H47.1921V10.8636H50.2963L50.4134 12.4211C50.6342 11.8665 50.9263 11.4357 51.2911 11.1288C51.6473 10.825 52.1019 10.6613 52.57 10.6684C52.8761 10.6704 53.1808 10.7097 53.4773 10.7855L53.1556 13.7834V13.7821ZM59.4192 16.7894L59.43 16.8688H59.4892L61.2352 10.8623H64.75L60.5432 23.0409C60.2175 23.8244 59.7975 24.4705 59.2846 24.9794C58.769 25.4909 57.9519 25.7453 56.8346 25.7453C56.5465 25.7453 56.3136 25.7265 56.1306 25.6915C55.8432 25.6313 55.5573 25.5644 55.2731 25.4909L55.6729 23.1392L55.8775 23.1823C55.9351 23.1937 55.9937 23.1991 56.0525 23.1984C56.5734 23.1984 56.9544 23.1203 57.1954 22.9655C57.435 22.8121 57.6154 22.5805 57.7311 22.2709L57.995 21.5817L54.3456 10.8623H57.8496L59.4192 16.7894ZM72.0986 16.1823C72.0986 15.2871 71.9681 14.5696 71.7083 14.0284C71.4484 13.4846 71.0311 13.214 70.459 13.214C70.0875 13.214 69.7738 13.2813 69.5167 13.42C69.2609 13.5573 69.0563 13.7565 68.9069 14.0177V18.4465C69.0644 18.6754 69.2704 18.8436 69.5261 18.9554C69.7832 19.0671 70.1023 19.1223 70.4779 19.1223C71.0567 19.1223 71.4727 18.8813 71.7231 18.4021C71.9734 17.9215 72.0986 17.2498 72.0986 16.3882V16.1823ZM75.3873 16.3882C75.3873 17.9821 75.0292 19.2609 74.3144 20.2248C73.5983 21.1873 72.59 21.6692 71.2882 21.6692C70.821 21.6784 70.3581 21.5779 69.9367 21.3757C69.5339 21.1725 69.1819 20.8813 68.9069 20.5236V25.5394H65.6088V10.8623H68.6929L68.81 12.028C69.1088 11.5905 69.4602 11.254 69.864 11.0184C70.2679 10.7842 70.7363 10.6657 71.2694 10.6657C72.5779 10.6657 73.5902 11.1719 74.3104 12.1855C75.0279 13.1979 75.3873 14.5305 75.3873 16.1836V16.3882ZM80.7463 8.2265V10.8636H82.5327V13.1561H80.7463V18.0157C80.7463 18.3954 80.8231 18.6673 80.9752 18.8342C81.0542 18.9182 81.1504 18.984 81.2573 19.0273C81.3642 19.0705 81.4792 19.09 81.5944 19.0846C81.8031 19.0846 81.9673 19.0779 82.0884 19.0644C82.2082 19.0509 82.3631 19.024 82.5515 18.9863L82.7857 21.4363C82.4607 21.514 82.1318 21.5742 81.8004 21.6167C81.5069 21.653 81.1623 21.6705 80.7652 21.6705C79.6788 21.6705 78.8563 21.3811 78.2963 20.7982C77.7363 20.218 77.4563 19.2973 77.4563 18.0359V13.1548H75.9729V10.8636H77.4563V8.22516L80.7463 8.2265ZM86.6519 16.2711C86.6519 17.1596 86.7892 17.8569 87.0665 18.363C87.3425 18.8679 87.8123 19.1223 88.4759 19.1223C89.1207 19.1223 89.5825 18.8665 89.8625 18.3577C90.1411 17.8488 90.2825 17.1529 90.2825 16.2711V16.0652C90.2825 15.2036 90.1411 14.5117 89.8625 13.9921C89.5825 13.4738 89.114 13.214 88.4571 13.214C87.8069 13.214 87.3425 13.4752 87.0665 13.9975C86.7892 14.5211 86.6506 15.209 86.6506 16.0652L86.6519 16.2711ZM83.3525 16.0652C83.3525 14.4713 83.8007 13.1736 84.6986 12.1707C85.5965 11.1679 86.8498 10.6657 88.4571 10.6657C90.0711 10.6657 91.3271 11.1679 92.225 12.1707C93.1215 13.1736 93.5711 14.4713 93.5711 16.0652V16.2711C93.5711 17.8704 93.1215 19.1707 92.225 20.1709C91.3271 21.1698 90.0765 21.6692 88.4759 21.6692C86.8565 21.6692 85.5965 21.1698 84.6986 20.1709C83.8007 19.1707 83.3525 17.8704 83.3525 16.2711V16.0652ZM98.0606 10.8623L98.1884 12.3511C98.5317 11.8221 98.9584 11.4088 99.4673 11.1127C99.9818 10.8128 100.568 10.6583 101.163 10.6657C102.199 10.6657 103.008 11.0023 103.589 11.6754C104.172 12.3484 104.464 13.42 104.464 14.89V21.4632H101.163V14.8805C101.163 14.2721 101.04 13.8427 100.789 13.5909C100.537 13.3392 100.169 13.214 99.6813 13.214C99.4119 13.2053 99.144 13.2572 98.8973 13.3657C98.6506 13.4743 98.4313 13.6368 98.2557 13.8413V21.4632H94.9671V10.8623H98.0606ZM110.846 13.214C110.371 13.214 110.016 13.3836 109.777 13.7229C109.539 14.0634 109.395 14.5171 109.343 15.0852L109.372 15.1336H112.213V14.8792C112.213 14.3434 112.102 13.9329 111.882 13.6448C111.659 13.358 111.316 13.214 110.846 13.214ZM111.081 21.6679C109.526 21.6679 108.285 21.1792 107.357 20.2005C106.43 19.2205 105.967 17.9929 105.967 16.5161V16.1432C105.967 14.5292 106.387 13.2127 107.231 12.1896C108.073 11.1679 109.278 10.6604 110.846 10.6671C112.277 10.6671 113.4 11.0979 114.213 11.9594C115.027 12.8223 115.434 13.9921 115.434 15.4675V17.2013H109.403L109.383 17.2605C109.454 17.803 109.675 18.2486 110.045 18.5986C110.417 18.9473 110.911 19.1209 111.529 19.1209C112.153 19.1209 112.653 19.0725 113.027 18.9742C113.401 18.8773 113.875 18.7077 114.447 18.4654L115.228 20.4832C114.768 20.8238 114.17 21.1065 113.438 21.3313C112.674 21.5607 111.878 21.6741 111.081 21.6679ZM125.896 17.0061H125.956L127.097 10.8623H130.142L127.664 21.4646H124.872L123.153 15.8404H123.095L121.368 21.4646H118.587L116.096 10.8623H119.143L120.303 17.0546H120.362L122.08 10.8623H124.16L125.896 17.0061ZM136.828 18.4855C136.828 18.2244 136.68 17.9902 136.384 17.7855C136.088 17.5782 135.55 17.3952 134.769 17.2309C133.538 16.9886 132.612 16.613 131.986 16.1042C131.362 15.594 131.051 14.8994 131.051 14.0177C131.051 13.0834 131.441 12.2919 132.222 11.6417C133.003 10.9915 134.059 10.6671 135.393 10.6671C136.799 10.6671 137.917 10.9821 138.751 11.6121C139.584 12.2421 139.98 13.0579 139.942 14.0567L139.922 14.1159H136.721C136.721 13.6986 136.614 13.3809 136.403 13.1642C136.192 12.9488 135.851 12.8411 135.384 12.8411C135.07 12.8308 134.762 12.9319 134.514 13.1265C134.403 13.211 134.313 13.3207 134.252 13.4465C134.191 13.5724 134.16 13.7109 134.163 13.8507C134.163 14.1321 134.298 14.3704 134.568 14.5655C134.837 14.7621 135.384 14.9384 136.204 15.0946C137.492 15.3504 138.447 15.73 139.068 16.2361C139.689 16.7423 140 17.4598 140 18.3873C140 19.3417 139.579 20.1265 138.736 20.743C137.893 21.3623 136.779 21.6692 135.393 21.6692C133.956 21.6692 132.818 21.3044 131.982 20.5721C131.146 19.8398 130.748 19.024 130.786 18.1221L130.806 18.0642H133.794C133.806 18.5677 133.957 18.9298 134.247 19.1519C134.536 19.374 134.947 19.4844 135.481 19.4844C135.922 19.4844 136.258 19.3982 136.487 19.2246C136.714 19.0523 136.828 18.8046 136.828 18.4842" fill="#9EB0CB"/>
<mask id="mask0_1_1608" style="mask-type:luminance" maskUnits="userSpaceOnUse" x="16" y="16" width="17" height="9">
<path d="M16.0918 24.231H32.1837L24.1378 16.1541L16.0918 24.231Z" fill="white"/>
</mask>
<g mask="url(#mask0_1_1608)">
<path fill-rule="evenodd" clip-rule="evenodd" d="M16.0918 24.231H32.1837L24.1378 16.1541L16.0918 24.231Z" fill="#FDFDFD"/>
</g>
<mask id="mask1_1_1608" style="mask-type:luminance" maskUnits="userSpaceOnUse" x="-1" y="8" width="10" height="17">
<path d="M-0.000118256 24.231L8.04584 16.1541L-0.000118256 8.07715V24.231Z" fill="white"/>
</mask>
<g mask="url(#mask1_1_1608)">
<path fill-rule="evenodd" clip-rule="evenodd" d="M-0.000118256 24.231L8.04584 16.1541L-0.000118256 8.07715V24.231Z" fill="#C3D1E5"/>
</g>
<mask id="mask2_1_1608" style="mask-type:luminance" maskUnits="userSpaceOnUse" x="16" y="8" width="17" height="9">
<path d="M16.0918 8.07715L24.1378 16.1541L32.1837 8.07715H16.0918Z" fill="white"/>
</mask>
<g mask="url(#mask2_1_1608)">
<path fill-rule="evenodd" clip-rule="evenodd" d="M16.0918 8.07715L24.1378 16.1541L32.1837 8.07715H16.0918Z" fill="#FDFDFD"/>
</g>
<mask id="mask3_1_1608" style="mask-type:luminance" maskUnits="userSpaceOnUse" x="8" y="0" width="17" height="9">
<path d="M8.04591 0.000244141L16.0919 8.07717L24.1378 0.000244141H8.04591Z" fill="white"/>
</mask>
<g mask="url(#mask3_1_1608)">
<path fill-rule="evenodd" clip-rule="evenodd" d="M8.04591 0.000244141L16.0919 8.07717L24.1378 0.000244141H8.04591Z" fill="#C3D1E5"/>
</g>
<mask id="mask4_1_1608" style="mask-type:luminance" maskUnits="userSpaceOnUse" x="16" y="24" width="17" height="9">
<path d="M16.0918 24.231L24.1378 32.3079L32.1837 24.231H16.0918Z" fill="white"/>
</mask>
<g mask="url(#mask4_1_1608)">
<path fill-rule="evenodd" clip-rule="evenodd" d="M16.0918 24.231L24.1378 32.3079L32.1837 24.231H16.0918Z" fill="#E3EAF3"/>
</g>
<mask id="mask5_1_1608" style="mask-type:luminance" maskUnits="userSpaceOnUse" x="-1" y="24" width="18" height="9">
<path d="M-0.000118256 24.231L8.04584 32.3079L16.0918 24.231H-0.000118256Z" fill="white"/>
</mask>
<g mask="url(#mask5_1_1608)">
<path fill-rule="evenodd" clip-rule="evenodd" d="M-0.000118256 24.231L8.04584 32.3079L16.0918 24.231H-0.000118256Z" fill="white"/>
</g>
<mask id="mask6_1_1608" style="mask-type:luminance" maskUnits="userSpaceOnUse" x="16" y="0" width="17" height="9">
<path d="M24.1378 0.000244141L16.0918 8.07717H32.1837L24.1378 0.000244141Z" fill="white"/>
</mask>
<g mask="url(#mask6_1_1608)">
<path fill-rule="evenodd" clip-rule="evenodd" d="M24.1378 0.000244141L16.0918 8.07717H32.1837L24.1378 0.000244141Z" fill="#E3EAF3"/>
</g>
<mask id="mask7_1_1608" style="mask-type:luminance" maskUnits="userSpaceOnUse" x="0" y="0" width="17" height="9">
<path d="M8.04596 0L0 8.07692H16.0919L8.04596 0Z" fill="white"/>
</mask>
<g mask="url(#mask7_1_1608)">
<path fill-rule="evenodd" clip-rule="evenodd" d="M8.04596 0L0 8.07692H16.0919L8.04596 0Z" fill="white"/>
</g>
<mask id="mask8_1_1608" style="mask-type:luminance" maskUnits="userSpaceOnUse" x="8" y="24" width="17" height="9">
<path d="M8.04591 32.3079H24.1378L16.0919 24.231L8.04591 32.3079Z" fill="white"/>
</mask>
<g mask="url(#mask8_1_1608)">
<path fill-rule="evenodd" clip-rule="evenodd" d="M8.04591 32.3079H24.1378L16.0919 24.231L8.04591 32.3079Z" fill="#C3D1E5"/>
</g>
<mask id="mask9_1_1608" style="mask-type:luminance" maskUnits="userSpaceOnUse" x="-1" y="16" width="18" height="9">
<path d="M-0.000118256 24.231H16.0918L8.04584 16.1541L-0.000118256 24.231Z" fill="white"/>
</mask>
<g mask="url(#mask9_1_1608)">
<path fill-rule="evenodd" clip-rule="evenodd" d="M-0.000118256 24.231H16.0918L8.04584 16.1541L-0.000118256 24.231Z" fill="#E3EAF3"/>
</g>
<mask id="mask10_1_1608" style="mask-type:luminance" maskUnits="userSpaceOnUse" x="-1" y="8" width="18" height="9">
<path d="M-0.000118256 8.07715L8.04584 16.1541L16.0918 8.07715H-0.000118256Z" fill="white"/>
</mask>
<g mask="url(#mask10_1_1608)">
<path fill-rule="evenodd" clip-rule="evenodd" d="M-0.000118256 8.07715L8.04584 16.1541L16.0918 8.07715H-0.000118256Z" fill="#E3EAF3"/>
</g>
</svg>
