<svg width="140" height="58" viewBox="0 0 140 58" fill="none" xmlns="http://www.w3.org/2000/svg">
<path d="M68.1672 20.417C67.2653 20.417 66.56 20.7264 66.0539 21.3477C65.5477 21.969 65.2934 22.8182 65.2934 23.8977C65.2934 24.9772 65.5285 25.812 66.0011 26.4285C66.4736 27.045 67.1909 27.352 68.1528 27.352C68.5414 27.352 68.9133 27.316 69.2731 27.2441C69.6305 27.1721 69.9951 27.0785 70.3669 26.9586V28.1364C70.0119 28.2708 69.6521 28.3715 69.2851 28.4339C68.9181 28.4962 68.4863 28.5298 67.9873 28.5298C67.059 28.5298 66.2913 28.3379 65.6844 27.9541C65.0775 27.5703 64.6218 27.0306 64.3171 26.3349C64.0125 25.6392 63.8613 24.8236 63.8613 23.8857C63.8613 22.9478 64.0268 22.1681 64.3603 21.4677C64.6937 20.7672 65.1807 20.2203 65.8212 19.8293C66.4617 19.4359 67.2461 19.2416 68.1744 19.2416C68.6302 19.2416 69.074 19.2896 69.5106 19.3879C69.9447 19.4839 70.3429 19.623 70.7076 19.7981L70.2014 20.9375C69.9064 20.8032 69.5873 20.6833 69.2467 20.5777C68.9061 20.4722 68.5438 20.4194 68.1648 20.4194L68.1672 20.417Z" fill="#9EB0CB"/>
<path d="M75.0014 19.3663C76.1576 19.3663 77.0116 19.5822 77.5634 20.0116C78.1151 20.4409 78.3934 21.0958 78.3934 21.9738C78.3934 22.4368 78.307 22.8278 78.1343 23.1444C77.9616 23.4611 77.7409 23.7177 77.4698 23.9168C77.1987 24.1159 76.9181 24.2743 76.623 24.3918L79.1538 28.4026H77.585L75.4092 24.7444H73.8404V28.4026H72.4731V19.3663H75.0038H75.0014ZM74.9127 20.5297H73.838V23.605H74.9774C75.6779 23.605 76.1888 23.4731 76.5079 23.2068C76.8293 22.9405 76.9876 22.5471 76.9876 22.0242C76.9876 21.5012 76.8197 21.1006 76.4815 20.8727C76.1433 20.6448 75.6203 20.5321 74.9127 20.5321V20.5297Z" fill="#9EB0CB"/>
<path d="M83.1262 23.593L85.3404 19.3663H86.8084L83.7979 24.8956V28.4002H82.445V24.9459L79.4344 19.3663H80.9145L83.1286 23.593H83.1262Z" fill="#9EB0CB"/>
<path d="M90.6922 19.3663C91.8724 19.3663 92.7336 19.6038 93.2734 20.0811C93.8131 20.5585 94.0842 21.223 94.0842 22.0745C94.0842 22.5807 93.9714 23.0533 93.7483 23.4923C93.5252 23.9312 93.151 24.2887 92.6281 24.5621C92.1051 24.8356 91.3975 24.9723 90.5027 24.9723H89.5288V28.4026H88.1615V19.3663H90.6922ZM90.5915 20.5177H89.5288V23.8209H90.3516C91.1192 23.8209 91.6997 23.6914 92.0907 23.4275C92.4842 23.166 92.6785 22.7318 92.6785 22.1249C92.6785 21.5852 92.5105 21.1822 92.1723 20.9159C91.8341 20.6496 91.3087 20.5177 90.5915 20.5177Z" fill="#9EB0CB"/>
<path d="M99.0952 28.4026H97.7279V20.5441H95.0196V19.3663H101.803V20.5441H99.0952V28.4026Z" fill="#9EB0CB"/>
<path d="M111.053 23.8713C111.053 24.8068 110.897 25.6248 110.586 26.3205C110.274 27.0162 109.806 27.5583 109.18 27.9469C108.556 28.3355 107.779 28.5298 106.851 28.5298C105.922 28.5298 105.109 28.3355 104.485 27.9469C103.862 27.5583 103.396 27.0138 103.094 26.3133C102.789 25.6128 102.638 24.7948 102.638 23.8593C102.638 22.9238 102.792 22.1226 103.101 21.4293C103.408 20.7384 103.876 20.1987 104.5 19.8101C105.123 19.4215 105.913 19.2272 106.865 19.2272C107.817 19.2272 108.566 19.4191 109.187 19.8029C109.806 20.1867 110.274 20.7264 110.586 21.4221C110.897 22.1178 111.053 22.9334 111.053 23.8713ZM104.08 23.8713C104.08 24.9508 104.303 25.8024 104.752 26.4284C105.198 27.0521 105.898 27.364 106.853 27.364C107.808 27.364 108.515 27.0521 108.954 26.4284C109.393 25.8048 109.612 24.9532 109.612 23.8713C109.612 22.7894 109.393 21.9426 108.959 21.3285C108.525 20.712 107.827 20.405 106.865 20.405C105.903 20.405 105.198 20.712 104.752 21.3285C104.305 21.945 104.08 22.7918 104.08 23.8713Z" fill="#9EB0CB"/>
<path d="M71.2761 43.1338H69.6185L65.0511 35.8318H65.0008C65.0176 36.1701 65.0391 36.5563 65.0631 36.9905C65.0895 37.4246 65.1015 37.8708 65.1015 38.3242V43.1338H63.8613V34.0975H65.5069L70.0623 41.3611H70.1007C70.0911 41.1836 70.0815 40.9605 70.0695 40.6894C70.0575 40.4208 70.0455 40.1305 70.0383 39.8235C70.0287 39.5164 70.0215 39.2262 70.0119 38.9575V34.0975H71.2785V43.1338H71.2761Z" fill="#9EB0CB"/>
<path d="M78.9188 43.1338H73.8309V34.0975H78.9188V35.2609H75.1982V37.842H78.6909V38.9935H75.1982V41.9536H78.9188V43.1314V43.1338Z" fill="#9EB0CB"/>
<path d="M91.6229 34.0975L89.2432 43.1338H87.7872L86.1919 37.5542C86.132 37.3527 86.072 37.1248 86.0096 36.8705C85.9473 36.6186 85.8897 36.3788 85.8393 36.1557C85.7889 35.9326 85.7553 35.7743 85.7386 35.6807C85.729 35.7743 85.705 35.9302 85.6618 36.1485C85.6186 36.3692 85.5658 36.609 85.5035 36.8705C85.4411 37.132 85.3787 37.3719 85.3212 37.5926L83.7523 43.1362H82.2962L79.931 34.0999H81.3367L82.6657 39.4397C82.7592 39.8019 82.8432 40.1833 82.9175 40.5839C82.9943 40.9845 83.0519 41.3419 83.0951 41.6538C83.1358 41.3323 83.2006 40.9653 83.2846 40.5527C83.3685 40.1401 83.4621 39.7683 83.5628 39.4397L85.0693 34.0999H86.4366L87.9934 39.466C88.0942 39.8043 88.1878 40.1809 88.2717 40.5983C88.3557 41.0157 88.4204 41.3683 88.4612 41.6538C88.5044 41.3491 88.5644 40.9965 88.6435 40.5911C88.7227 40.1857 88.809 39.8019 88.9026 39.4397L90.2316 34.0999H91.6229V34.0975Z" fill="#9EB0CB"/>
<path d="M98.2797 40.6917C98.2797 41.4929 97.9895 42.1214 97.4066 42.5772C96.8236 43.033 96.0272 43.2609 95.0149 43.2609C94.5256 43.2609 94.065 43.2201 93.6284 43.1409C93.1918 43.0618 92.8248 42.9442 92.5201 42.7931V41.5025C92.8584 41.6537 93.2542 41.7928 93.71 41.9127C94.1657 42.0351 94.6287 42.0951 95.1013 42.0951C95.7082 42.0951 96.164 41.9775 96.4686 41.74C96.7733 41.5049 96.9244 41.1883 96.9244 40.7901C96.9244 40.5118 96.8548 40.2767 96.7157 40.0872C96.5766 39.8977 96.3583 39.7226 96.0632 39.5619C95.7682 39.4012 95.3795 39.2237 94.8998 39.0294C94.4536 38.8614 94.0578 38.6623 93.7172 38.4344C93.3765 38.2066 93.1079 37.9235 92.9136 37.5877C92.7192 37.2494 92.6233 36.8368 92.6233 36.3475C92.6233 35.6062 92.892 35.0233 93.4341 34.6011C93.9738 34.1789 94.6815 33.9678 95.5595 33.9678C96.0488 33.9678 96.5022 34.0158 96.9196 34.1142C97.337 34.2101 97.7352 34.3445 98.1166 34.5124L97.6872 35.6374C97.3418 35.4935 96.9892 35.3759 96.6317 35.2824C96.2719 35.1888 95.9049 35.1433 95.5235 35.1433C95.0245 35.1433 94.6455 35.2536 94.384 35.4719C94.1226 35.6926 93.9906 35.978 93.9906 36.3331C93.9906 36.6113 94.053 36.8464 94.1801 37.0359C94.3073 37.2254 94.5088 37.3958 94.787 37.5493C95.0653 37.7004 95.4323 37.8707 95.8881 38.0554C96.3942 38.2569 96.826 38.4704 97.1859 38.6935C97.5457 38.9166 97.8167 39.1877 98.0015 39.5043C98.1862 39.821 98.2797 40.2144 98.2797 40.6869V40.6917Z" fill="#9EB0CB"/>
<path d="M104.999 43.1338H103.646V34.0975H108.734V35.2609H105.001V38.2091H108.494V39.3725H105.001V43.1314L104.999 43.1338Z" fill="#9EB0CB"/>
<path d="M110.478 43.1338V34.0975H111.845V41.956H115.705V43.1338H110.478Z" fill="#9EB0CB"/>
<path d="M123.045 43.1338L122.083 40.5263H118.59L117.629 43.1338H116.211L119.641 34.0615H121.059L124.475 43.1338H123.045ZM120.793 36.7937C120.766 36.7002 120.723 36.561 120.661 36.3763C120.598 36.1916 120.536 35.9973 120.478 35.7934C120.418 35.5919 120.373 35.4264 120.339 35.2993C120.272 35.5607 120.195 35.839 120.111 36.134C120.027 36.4291 119.96 36.6498 119.91 36.7913L118.998 39.3341H121.707L120.795 36.7913L120.793 36.7937Z" fill="#9EB0CB"/>
<path d="M131.028 40.6917C131.028 41.4929 130.738 42.1214 130.155 42.5772C129.572 43.033 128.776 43.2609 127.764 43.2609C127.274 43.2609 126.814 43.2201 126.377 43.1409C125.941 43.0618 125.574 42.9442 125.269 42.7931V41.5025C125.607 41.6537 126.003 41.7928 126.459 41.9127C126.914 42.0351 127.377 42.0951 127.85 42.0951C128.457 42.0951 128.913 41.9775 129.217 41.74C129.522 41.5049 129.673 41.1883 129.673 40.7901C129.673 40.5118 129.604 40.2767 129.464 40.0872C129.325 39.8977 129.107 39.7226 128.812 39.5619C128.517 39.4012 128.128 39.2237 127.649 39.0294C127.202 38.8614 126.807 38.6623 126.466 38.4344C126.125 38.2066 125.857 37.9235 125.662 37.5877C125.468 37.2494 125.372 36.8368 125.372 36.3475C125.372 35.6062 125.641 35.0233 126.183 34.6011C126.723 34.1789 127.43 33.9678 128.308 33.9678C128.798 33.9678 129.251 34.0158 129.668 34.1142C130.086 34.2101 130.484 34.3445 130.865 34.5124L130.436 35.6374C130.091 35.4935 129.738 35.3759 129.38 35.2824C129.021 35.1888 128.654 35.1433 128.272 35.1433C127.773 35.1433 127.394 35.2536 127.133 35.4719C126.871 35.6926 126.739 35.978 126.739 36.3331C126.739 36.6113 126.802 36.8464 126.929 37.0359C127.056 37.2254 127.258 37.3958 127.536 37.5493C127.814 37.7004 128.181 37.8707 128.637 38.0554C129.143 38.2569 129.575 38.4704 129.935 38.6935C130.294 38.9166 130.565 39.1877 130.75 39.5043C130.935 39.821 131.028 40.2144 131.028 40.6869V40.6917Z" fill="#9EB0CB"/>
<path d="M140 43.1338H138.633V39.0079H134.317V43.1338H132.95V34.0975H134.317V37.842H138.633V34.0975H140V43.1338Z" fill="#9EB0CB"/>
<path d="M57.1452 29.0701H56.602C56.602 36.3758 53.6415 42.9854 48.8564 47.7705C44.0676 52.5593 37.458 55.5161 30.1561 55.5161C22.8504 55.5161 16.2408 52.5555 11.4557 47.7705C6.66685 42.9816 3.71014 36.372 3.71014 29.0701C3.71014 21.7644 6.67067 15.1548 11.4557 10.3698C16.2446 5.58087 22.8542 2.62416 30.1561 2.62416C37.4618 2.62416 44.0714 5.5847 48.8564 10.3698C53.6453 15.1586 56.602 21.7682 56.602 29.0701H57.6921C57.6921 13.862 45.3642 1.53021 30.1523 1.53021C14.9441 1.53021 2.61237 13.8581 2.61237 29.0701C2.61237 44.2782 14.9403 56.61 30.1523 56.61C45.3604 56.61 57.6921 44.2821 57.6921 29.0701H57.149H57.1452Z" fill="#9EB0CB"/>
<path d="M33.0287 1.93544L33.1282 1.77097C31.078 0.546973 28.9016 0 26.6907 0C20.3221 0.00382498 13.6667 4.49436 8.59092 10.2969C6.05113 13.2 3.90914 16.436 2.39444 19.6183C0.883572 22.8046 0 25.9334 0 28.6377C0 29.024 0.0191249 29.3988 0.0535498 29.766V29.7737C0.470473 32.5659 0.971546 35.7368 2.45947 39.2137C3.94738 42.6907 6.41833 46.4736 10.7559 50.4936C16.1376 55.4852 21.0642 57.6808 25.7345 57.6808C28.5879 57.6808 31.3343 56.8622 34.0194 55.382C37.5346 53.4427 40.2082 51.7215 43.1573 48.9981C46.1064 46.2747 49.3308 42.553 53.9667 36.6128V36.6089C55.6 34.3598 56.3038 31.996 56.3038 29.613C56.3038 26.4459 55.0683 23.2559 53.1749 20.2227C47.4872 11.1192 35.8478 3.34686 33.1167 1.77097L33.0211 1.93544L32.9255 2.09992C34.7156 3.13266 40.4875 6.93087 45.7889 12.0181C48.4434 14.5617 50.9794 17.4266 52.8498 20.4254C54.7202 23.4242 55.9213 26.5492 55.9213 29.613C55.9213 31.9195 55.2481 34.1954 53.6569 36.3833L53.8099 36.4942L53.6607 36.3756C49.0287 42.312 45.8157 46.0184 42.8934 48.715C39.9711 51.4154 37.3357 53.1137 33.8282 55.0454C31.1889 56.5027 28.5076 57.2983 25.7307 57.2983C21.1866 57.2983 16.3556 55.1678 11.0121 50.2144C6.70902 46.2249 4.27633 42.4918 2.80754 39.0646C1.34257 35.6336 0.845322 32.5085 0.428398 29.7163L0.240974 29.7431L0.432223 29.724C0.397798 29.3721 0.378674 29.0087 0.378674 28.6338C0.378674 26.0137 1.2393 22.9308 2.73486 19.7828C4.97631 15.0628 8.64064 10.2012 12.9093 6.52925C17.1818 2.85726 22.051 0.378674 26.6907 0.382499C28.8404 0.382499 30.9441 0.910346 32.9293 2.09992L33.0249 1.93544H33.0287Z" fill="#E4EAF3"/>
<path d="M36.5401 11.9417V26.752C36.5936 28.1634 36.6434 29.5672 36.6969 30.9709C36.739 32.0725 36.7696 33.1856 36.7925 34.3025L24.9657 11.9417H17.0327V43.188H22.8734V28.4618C22.8199 26.993 22.7625 25.5318 22.6975 24.0669C22.6439 22.9002 22.6018 21.7336 22.5559 20.5632L35.1746 43.1841H42.4191V11.9417H36.5363H36.5401Z" fill="#9EB0CB"/>
<path d="M47.843 20.345H39.3056L35.079 43.184L42.5071 35.4155V29.2687H47.843V26.3656H42.423V22.9919H47.843V20.345Z" fill="#E4EAF3"/>
<path d="M21.4008 23.7993C22.3264 23.7993 23.2674 23.9523 24.2275 24.2621C25.1875 24.5719 26.1399 24.9353 27.0885 25.3522L27.1077 25.3101V20.6322C26.4804 20.4218 25.8416 20.242 25.1875 20.0852C24.522 19.9284 23.8603 19.8174 23.2024 19.7448V17.7902H21.0259V19.6491C20.4101 19.6606 19.8172 19.7065 19.2473 19.7792V17.7864H16.9906V20.2726C16.2485 20.5098 15.5562 20.8158 14.9174 21.1906C13.1503 22.2272 11.8077 23.6577 10.8821 25.4822C9.95644 27.3106 9.49744 29.4105 9.49744 31.7896C9.49744 34.1688 9.89906 36.3299 10.7061 38.1468C11.5132 39.9636 12.7601 41.3712 14.4546 42.3734C15.2081 42.8171 16.0573 43.1575 16.9906 43.4061V45.7432H19.2473V43.7963C19.779 43.846 20.3298 43.8728 20.9074 43.8728C20.9494 43.8728 20.9839 43.8728 21.0259 43.8728V45.7432H23.2024V43.7619C23.6767 43.716 24.1357 43.6547 24.5679 43.5782C25.4094 43.4252 26.2547 43.2072 27.1115 42.9242V38.7052C26.1935 38.9883 25.3252 39.2178 24.5182 39.3899C23.4854 39.6117 22.4488 39.7188 21.4084 39.7188C19.1823 39.7188 17.5643 39.0303 16.5584 37.6572C15.5524 36.2802 15.0475 34.3371 15.0475 31.8279C15.0475 29.3187 15.5906 27.3833 16.6808 25.9489C17.7709 24.5183 19.3468 23.8031 21.4084 23.8031L21.4008 23.7993Z" fill="#E4EAF3"/>
</svg>
