<svg width="70" height="70" viewBox="0 0 70 70" fill="none" xmlns="http://www.w3.org/2000/svg">
<path d="M35 68.9621C25.9288 68.9621 17.3996 65.4298 10.9855 59.0144C4.57013 52.6003 1.03784 44.0711 1.03784 35C1.03784 25.9288 4.57013 17.3996 10.9855 10.9855C17.3996 4.57013 25.9288 1.03784 35 1.03784C44.0711 1.03784 52.6003 4.57013 59.0144 10.9855C65.4286 17.3996 68.9621 25.9288 68.9621 35C68.9621 44.0711 65.4298 52.6003 59.0144 59.0144C52.6003 65.4286 44.0711 68.9621 35 68.9621Z" fill="#E4EAF3"/>
<path d="M35 2.07578C39.4456 2.07578 43.7575 2.94646 47.8145 4.66244C51.7343 6.32076 55.2562 8.69522 58.2799 11.7189C61.3048 14.7438 63.6781 18.2646 65.3364 22.1855C67.0524 26.2437 67.9231 30.5544 67.9231 35C67.9231 39.4456 67.0524 43.7575 65.3364 47.8145C63.6781 51.7343 61.3036 55.2562 58.2799 58.2811C55.255 61.3059 51.7343 63.6792 47.8145 65.3376C43.7563 67.0535 39.4456 67.9242 35 67.9242C30.5544 67.9242 26.2425 67.0535 22.1855 65.3376C18.2657 63.6792 14.7438 61.3048 11.7201 58.2811C8.69522 55.2562 6.32191 51.7354 4.66359 47.8145C2.94761 43.7563 2.07694 39.4456 2.07694 35C2.07694 30.5544 2.94761 26.2425 4.66359 22.1855C6.32191 18.2657 8.69637 14.7438 11.7201 11.7189C14.745 8.69407 18.2657 6.32076 22.1855 4.66244C26.2437 2.94646 30.5544 2.07578 35 2.07578ZM35 0C15.6699 0 0 15.6699 0 35C0 54.3301 15.6699 70 35 70C54.3301 70 70 54.3301 70 35C70 15.6699 54.3301 0 35 0Z" fill="#9EB0CB"/>
<path d="M0.0357496 33.443C0.0138386 33.9596 0 34.4774 0 34.9998C0 54.33 15.6699 69.9998 35 69.9998C54.3301 69.9998 70 54.33 70 34.9998C70 34.4774 69.9862 33.9596 69.9642 33.443H0.0357496Z" fill="#9EB0CB"/>
<path d="M20.0383 24.8136C18.3362 24.8136 16.9638 26.1986 16.9638 27.9123C16.9638 29.626 18.3373 30.9994 20.0383 30.9994C21.7393 30.9994 23.16 29.6029 23.16 27.9123C23.16 26.2217 21.7393 24.8136 20.0383 24.8136ZM20.0383 29.3434C19.276 29.3434 18.6533 28.7564 18.6533 27.9111C18.6533 27.0658 19.2749 26.4788 20.0383 26.4788C20.8479 26.4788 21.4579 27.0774 21.4579 27.9111C21.4579 28.7449 20.8479 29.3434 20.0383 29.3434Z" fill="#7E93B3"/>
<path d="M25.2725 25.0718H23.6061V30.9993H25.2725V25.0718Z" fill="#7E93B3"/>
<path d="M24.4285 22.161C23.9118 22.161 23.4667 22.6073 23.4667 23.0767C23.4667 23.5933 23.913 24.0269 24.4285 24.0269C24.9924 24.0269 25.426 23.5921 25.426 23.0767C25.426 22.5958 24.9913 22.161 24.4285 22.161Z" fill="#7E93B3"/>
<path d="M29.1937 24.9429C28.654 24.9429 27.9609 25.1066 27.6323 25.4826V25.072H25.9659V30.9995H27.6323V28.0416C27.6323 27.0913 28.3127 26.6093 29.0519 26.6093C29.7323 26.6093 30.2847 27.0902 30.2847 28.0416V30.9995H31.9395V28.0416C31.9395 26.3279 30.8128 24.9429 29.1937 24.9429Z" fill="#7E93B3"/>
<path d="M35.8361 22.2559H32.7963V30.9995H34.6149V29.4853H35.6597C37.9719 29.4853 39.4618 27.9366 39.4618 25.6947C39.4618 23.7931 37.8888 22.2559 35.835 22.2559H35.8361ZM35.6136 27.842H34.616V23.898H35.7197C36.987 23.898 37.6328 24.7664 37.6328 25.8343C37.6328 27.0544 36.9052 27.8409 35.6147 27.8409L35.6136 27.842Z" fill="#7E93B3"/>
<path d="M42.6079 24.8136C40.9057 24.8136 39.5334 26.1986 39.5334 27.9123C39.5334 29.626 40.9657 30.9994 42.7497 30.9994C43.8061 30.9994 44.8509 30.5185 45.3548 29.7666L44.0286 28.7461C43.7588 29.1681 43.2537 29.3446 42.7497 29.3446C42.5733 29.3446 42.4095 29.333 42.2573 29.2742L45.567 26.9032C45.2038 25.7996 44.0771 24.8136 42.609 24.8136H42.6079ZM41.2702 28.2998C41.2344 28.1821 41.2229 28.053 41.2229 27.9123C41.2229 27.0785 41.8445 26.48 42.6079 26.48C42.925 26.48 43.1949 26.5861 43.429 26.7614L41.269 28.2986L41.2702 28.2998Z" fill="#7E93B3"/>
<path d="M50.0251 25.3533C49.7667 25.072 49.1094 24.8136 48.5812 24.8136C46.9967 24.8136 45.6705 26.1986 45.6705 27.9123C45.6705 29.626 46.961 30.9995 48.5812 30.9995C49.1209 30.9995 49.7667 30.7884 50.0251 30.4482V30.8703H51.6915V22.1266H50.0251V25.3545V25.3533ZM48.7462 29.3435C47.9839 29.3435 47.3611 28.7565 47.3611 27.9112C47.3611 27.0659 47.9827 26.4789 48.7462 26.4789C49.5096 26.4789 50.0954 27.0774 50.0954 27.9112C50.0954 28.7449 49.52 29.3435 48.7462 29.3435Z" fill="#7E93B3"/>
<path d="M53.2056 22.161C52.689 22.161 52.2427 22.6073 52.2427 23.0767C52.2427 23.5933 52.689 24.0269 53.2056 24.0269C53.7684 24.0269 54.2032 23.5921 54.2032 23.0767C54.2032 22.5958 53.7684 22.161 53.2056 22.161Z" fill="#7E93B3"/>
<path d="M54.051 25.0718H52.3846V30.9993H54.051V25.0718Z" fill="#7E93B3"/>
<path d="M58.8519 24.9428V25.3533C58.5936 25.0719 57.9363 24.8136 57.4081 24.8136C55.8236 24.8136 54.4974 26.1986 54.4974 27.9123C54.4974 29.626 55.7878 30.9994 57.4081 30.9994C57.9478 30.9994 58.5936 30.7884 58.8519 30.4482V30.8703H60.5183V24.9428H58.8519ZM57.573 29.3434C56.8107 29.3434 56.188 28.7564 56.188 27.9111C56.188 27.0658 56.8096 26.4788 57.573 26.4788C58.3364 26.4788 58.9223 27.0774 58.9223 27.9111C58.9223 28.7449 58.3468 29.3434 57.573 29.3434Z" fill="#7E93B3"/>
<path d="M12.4212 29.2223C11.5528 29.2223 10.6729 28.7645 10.0744 27.8258L10.0652 27.8315C9.85642 27.4314 9.73764 26.9701 9.73764 26.48C9.73764 24.9312 10.9001 23.6869 12.367 23.6869C13.1581 23.6869 13.9572 24.0675 14.5465 24.8447L16.1195 23.8518C15.3111 22.6778 13.963 21.9109 12.4223 21.9109C11.1988 21.9109 10.0951 22.3941 9.27981 23.1818C8.4126 24.0086 7.87289 25.1815 7.87289 26.4811C7.87289 28.9813 9.86795 30.9994 12.3681 30.9994C13.5917 30.9994 14.6953 30.5162 15.5106 29.7286C16.1853 29.0862 16.6592 28.234 16.838 27.2768H14.9306C14.5973 28.4081 13.6101 29.2235 12.4235 29.2235L12.4212 29.2223Z" fill="#7E93B3"/>
<path d="M63.5121 29.8669C63.5121 29.2166 62.985 28.6895 62.3347 28.6895C61.6844 28.6895 61.1573 29.2166 61.1573 29.8669C61.1573 30.5172 61.6844 31.0443 62.3347 31.0443C62.985 31.0443 63.5121 30.5172 63.5121 29.8669Z" fill="#9EB0CB"/>
<path d="M11.3395 38.0296H14.2974V36.3113H9.43781V45.4552H11.3395V41.4547H14.7772V39.7364H11.3395V38.0296Z" fill="#FAFBFC"/>
<path d="M17.7145 36.3113H15.8117V45.4552H17.7145V36.3113Z" fill="#FAFBFC"/>
<path d="M21.128 40.043L27.6333 45.455V36.1521H25.7305V41.4418L19.2263 35.9802V45.2959H21.128V40.043Z" fill="#FAFBFC"/>
<path d="M30.5356 45.4552H32.4373V38.0296H34.8429V36.3113H28.2765V38.0296H30.5356V45.4552Z" fill="#FAFBFC"/>
<path d="M41.3874 43.7495H37.6199V41.4661H41.0565V39.7479H37.6199V38.0423H40.5779V36.324H35.7171V45.4678H41.3874V43.7495Z" fill="#FAFBFC"/>
<path d="M58.6604 36.3113V39.7364H54.4627V36.3113H52.5599V45.4552H54.4627V41.4547H58.6604V45.4552H60.562V36.3113H58.6604Z" fill="#FAFBFC"/>
<path d="M23.2393 52.1241L16.508 46.4722V56.1119H18.4765V50.6756L25.2078 56.2768V46.6498H23.2393V52.1241Z" fill="#FAFBFC"/>
<path d="M28.8684 52.0328H32.3592V50.288H28.8684V48.5547H31.8737V46.8088H26.9356V56.0979H32.6959V54.3519H28.8684V52.0328Z" fill="#FAFBFC"/>
<path d="M42.272 52.1749L39.3832 46.5899H37.1091L39.1284 50.4497L38.2335 52.1749L35.3447 46.5899H33.0705L38.1562 56.2769L40.112 52.3537L42.1947 56.2769L47.0382 46.5899H44.9809L42.272 52.1749Z" fill="#FAFBFC"/>
<path d="M50.4356 50.0924C49.4323 50.0289 49.1152 49.6357 49.1152 49.2032C49.1152 48.682 49.4703 48.3648 49.9916 48.3648C50.3214 48.3648 50.7412 48.5678 50.9949 48.8342L52.5448 47.7041C51.8206 46.8403 50.9315 46.4851 49.9916 46.4851C48.6839 46.4851 47.21 47.6153 47.21 49.2159C47.21 50.7024 48.2768 51.7311 49.9155 51.9214C50.83 52.0228 51.3374 52.4933 51.3374 53.2545C51.3374 53.8645 50.8288 54.3846 50.1819 54.3846C49.6226 54.3846 49.1786 54.2451 48.7473 53.6985L47.1212 54.892C48.0231 55.8826 49.1025 56.2759 50.1819 56.2759C51.846 56.2759 53.382 54.9555 53.382 53.1138C53.382 51.2721 52.0489 50.1927 50.4356 50.0912V50.0924Z" fill="#FAFBFC"/>
<path d="M46.826 45.5117C48.1026 45.5117 49.2524 45.0089 50.1023 44.1866C50.8046 43.5166 51.3005 42.6286 51.4861 41.6311H49.4968C49.1486 42.8108 48.1199 43.6596 46.8825 43.6596C45.9772 43.6596 45.0593 43.1822 44.4354 42.2031L44.4262 42.21C44.2082 41.7925 44.0848 41.3128 44.0848 40.8008C44.0848 39.1851 45.2957 37.8889 46.826 37.8889C47.6505 37.8889 48.4843 38.2856 49.0978 39.0963L50.7377 38.0608C49.8947 36.8372 48.4889 36.0369 46.8837 36.0369C45.6071 36.0369 44.4573 36.5397 43.6074 37.3619C42.7033 38.2234 42.1405 39.4458 42.1405 40.8008C42.1405 43.407 44.2209 45.5117 46.8272 45.5117H46.826Z" fill="#FAFBFC"/>
</svg>
