<svg width="200" height="53" viewBox="0 0 200 53" fill="none" xmlns="http://www.w3.org/2000/svg">
<path d="M72.903 40.8808C71.1254 40.8808 69.5153 40.5978 68.0726 40.0319C66.6557 39.4402 65.432 38.5656 64.4015 37.4079C63.3968 36.2503 62.6239 34.8226 62.0829 33.1248C61.5419 31.4012 61.2714 29.4076 61.2714 27.1438C61.2714 24.88 61.5419 22.8735 62.0829 21.1242C62.6239 19.3492 63.3968 17.87 64.4015 16.6867C65.432 15.4776 66.6557 14.5644 68.0726 13.947C69.5153 13.3296 71.1254 13.0209 72.903 13.0209C75.3246 13.0209 77.3341 13.5354 78.9313 14.5644C80.5286 15.5934 81.8038 17.1497 82.757 19.2334L78.3903 21.5487C78.0039 20.3396 77.3727 19.3749 76.4968 18.6546C75.6209 17.9086 74.423 17.5356 72.903 17.5356C70.9966 17.5356 69.4766 18.1787 68.3431 19.465C67.2353 20.7512 66.6815 22.5519 66.6815 24.8672V29.1117C66.6815 31.4527 67.2353 33.2534 68.3431 34.5139C69.4766 35.7487 70.9966 36.3661 72.903 36.3661C74.423 36.3661 75.6595 35.9545 76.6127 35.1313C77.5917 34.3081 78.3002 33.292 78.7381 32.0829L82.8729 34.5139C81.894 36.5204 80.593 38.0896 78.97 39.2215C77.347 40.3277 75.3246 40.8808 72.903 40.8808Z" fill="#0A1324"/>
<path d="M94.1567 40.8808C92.714 40.8808 91.413 40.6364 90.2537 40.1476C89.1202 39.6588 88.1412 38.9514 87.3168 38.0253C86.5182 37.0992 85.8999 35.9931 85.462 34.7068C85.024 33.3949 84.805 31.9286 84.805 30.3079C84.805 28.6873 85.024 27.2338 85.462 25.9476C85.8999 24.6613 86.5182 23.568 87.3168 22.6677C88.1412 21.7416 89.1202 21.0342 90.2537 20.5454C91.413 20.0566 92.714 19.8122 94.1567 19.8122C95.5993 19.8122 96.9003 20.0566 98.0596 20.5454C99.2189 21.0342 100.198 21.7416 100.996 22.6677C101.821 23.568 102.452 24.6613 102.89 25.9476C103.328 27.2338 103.547 28.6873 103.547 30.3079C103.547 31.9286 103.328 33.3949 102.89 34.7068C102.452 35.9931 101.821 37.0992 100.996 38.0253C100.198 38.9514 99.2189 39.6588 98.0596 40.1476C96.9003 40.6364 95.5993 40.8808 94.1567 40.8808ZM94.1567 36.9063C95.4705 36.9063 96.501 36.5076 97.2481 35.7101C97.9952 34.9126 98.3688 33.7422 98.3688 32.1987V28.4557C98.3688 26.938 97.9952 25.7804 97.2481 24.9829C96.501 24.1854 95.4705 23.7867 94.1567 23.7867C92.8686 23.7867 91.851 24.1854 91.1039 24.9829C90.3568 25.7804 89.9832 26.938 89.9832 28.4557V32.1987C89.9832 33.7422 90.3568 34.9126 91.1039 35.7101C91.851 36.5076 92.8686 36.9063 94.1567 36.9063Z" fill="#0A1324"/>
<path d="M109.614 17.3427C108.583 17.3427 107.836 17.1112 107.373 16.6481C106.935 16.1851 106.716 15.5934 106.716 14.8731V14.1014C106.716 13.3811 106.935 12.7894 107.373 12.3264C107.836 11.8633 108.583 11.6318 109.614 11.6318C110.619 11.6318 111.353 11.8633 111.817 12.3264C112.28 12.7894 112.512 13.3811 112.512 14.1014V14.8731C112.512 15.5934 112.28 16.1851 111.817 16.6481C111.353 17.1112 110.619 17.3427 109.614 17.3427ZM107.141 20.2753H112.087V40.4177H107.141V20.2753Z" fill="#0A1324"/>
<path d="M117.033 40.4177V20.2753H121.98V23.6324H122.173C122.585 22.5519 123.229 21.6516 124.105 20.9313C125.007 20.1852 126.243 19.8122 127.815 19.8122C129.902 19.8122 131.499 20.4939 132.607 21.8574C133.714 23.2208 134.268 25.163 134.268 27.684V40.4177H129.322V28.1856C129.322 26.745 129.064 25.6646 128.549 24.9443C128.034 24.224 127.184 23.8639 125.999 23.8639C125.483 23.8639 124.981 23.9411 124.492 24.0954C124.028 24.224 123.603 24.4298 123.216 24.7128C122.856 24.97 122.559 25.3045 122.328 25.7161C122.096 26.1019 121.98 26.565 121.98 27.1052V40.4177H117.033Z" fill="#0A1324"/>
<path d="M145.591 40.8808C143.658 40.8808 142.035 40.5592 140.722 39.9161C139.408 39.2473 138.248 38.334 137.244 37.1764L140.258 34.2438C141.005 35.0927 141.816 35.7616 142.692 36.2503C143.594 36.7391 144.625 36.9835 145.784 36.9835C146.969 36.9835 147.819 36.7777 148.334 36.3661C148.875 35.9545 149.146 35.3885 149.146 34.6683C149.146 34.0766 148.953 33.6135 148.566 33.2791C148.205 32.919 147.574 32.6746 146.673 32.546L144.663 32.2759C142.473 31.9929 140.799 31.3755 139.64 30.4237C138.506 29.4461 137.939 28.0313 137.939 26.1791C137.939 25.2016 138.12 24.3269 138.48 23.5552C138.841 22.7577 139.356 22.0889 140.026 21.5487C140.696 20.9827 141.494 20.5583 142.422 20.2753C143.375 19.9666 144.431 19.8122 145.591 19.8122C146.57 19.8122 147.433 19.8894 148.18 20.0438C148.953 20.1724 149.648 20.3782 150.266 20.6612C150.885 20.9184 151.452 21.2528 151.967 21.6644C152.482 22.0503 152.984 22.4876 153.474 22.9764L150.576 25.8704C149.983 25.253 149.275 24.7385 148.45 24.3269C147.626 23.9153 146.724 23.7095 145.745 23.7095C144.663 23.7095 143.877 23.9025 143.388 24.2883C142.924 24.6742 142.692 25.1758 142.692 25.7932C142.692 26.4621 142.886 26.9766 143.272 27.3367C143.684 27.6711 144.367 27.9155 145.32 28.0699L147.368 28.34C151.722 28.9574 153.899 30.9382 153.899 34.2824C153.899 35.2599 153.693 36.1603 153.281 36.9835C152.894 37.7809 152.34 38.4755 151.619 39.0672C150.898 39.6331 150.022 40.0833 148.991 40.4177C147.987 40.7264 146.853 40.8808 145.591 40.8808Z" fill="#0A1324"/>
<path d="M169.549 37.0607H169.356C169.176 37.5752 168.931 38.0639 168.622 38.527C168.339 38.9643 167.965 39.363 167.501 39.7232C167.063 40.0833 166.522 40.3663 165.878 40.5721C165.26 40.7779 164.539 40.8808 163.714 40.8808C161.627 40.8808 160.03 40.1991 158.922 38.8357C157.815 37.4723 157.261 35.53 157.261 33.009V20.2753H162.207V32.5074C162.207 33.8965 162.478 34.9641 163.019 35.7101C163.56 36.4304 164.423 36.7905 165.608 36.7905C166.097 36.7905 166.574 36.7262 167.038 36.5976C167.527 36.469 167.952 36.2761 168.313 36.0188C168.673 35.7358 168.97 35.4014 169.202 35.0155C169.433 34.6039 169.549 34.128 169.549 33.5878V20.2753H174.496V40.4177H169.549V37.0607Z" fill="#0A1324"/>
<path d="M184.388 40.4177C182.688 40.4177 181.439 39.9933 180.64 39.1444C179.841 38.2954 179.442 37.0992 179.442 35.5558V11.8633H184.388V36.4819H187.055V40.4177H184.388Z" fill="#0A1324"/>
<path d="M196.136 40.4177C194.435 40.4177 193.134 39.9804 192.233 39.1058C191.357 38.2054 190.919 36.932 190.919 35.2857V24.2112H187.943V20.2753H189.489C190.236 20.2753 190.739 20.1081 190.996 19.7737C191.28 19.4135 191.421 18.8862 191.421 18.1916V14.7573H195.865V20.2753H200V24.2112H195.865V36.4818H199.691V40.4177H196.136Z" fill="#0A1324"/>
<path d="M17.005 0.132278H52.2081V35.2842C52.2081 39.7877 50.4165 44.1067 47.2274 47.2911C44.0383 50.4756 39.713 52.2646 35.203 52.2646H0V17.1126C0 12.6092 1.7916 8.29014 4.98066 5.10571C8.16972 1.92127 12.495 0.132278 17.005 0.132278Z" fill="url(#paint0_linear_1_1231)"/>
<path d="M41.2475 20.647L37.7571 22.244L35.3067 23.3654L35.1975 23.4145L31.8284 24.934C31.8284 24.9209 31.8229 24.9079 31.8185 24.8948C31.6197 24.067 31.2362 23.2947 30.6966 22.6356L30.3853 21.956L33.7467 20.4179L36.2331 19.2801L39.7541 17.6689C39.9493 17.9729 40.1313 18.2838 40.3003 18.6016L41.2201 20.6055L41.2475 20.647Z" fill="white"/>
<path d="M41.8166 29.8549C41.5579 30.9541 41.1825 32.0227 40.6969 33.0424L29.78 31.1814L29.8827 30.5803C30.6791 29.9344 31.2835 29.0834 31.6306 28.1193L41.8166 29.8549Z" fill="white"/>
<path d="M22.1396 31.5883L17.7293 34.707L14.5765 36.9368C13.8238 36.1156 13.1592 35.2181 12.5938 34.2587L15.7302 32.0399L17.9336 30.481L20.2125 28.8698L22.1396 31.5883Z" fill="white"/>
<path d="M22.5603 17.8903L21.1969 20.9295L19.1999 20.036L16.6709 18.9048L13.1106 17.3111C13.7595 16.3501 14.512 15.463 15.3545 14.6657L19.2392 16.4035L22.2096 17.7343L22.5603 17.8903Z" fill="white"/>
<path d="M38.0379 29.2104C37.5047 31.278 36.4325 33.1676 34.9303 34.687C33.4281 36.2063 31.5496 37.3011 29.4861 37.86C27.4225 38.4189 25.2474 38.4219 23.1823 37.8687C21.1172 37.3154 19.2357 36.2258 17.7293 34.7105C16.9434 33.9178 16.2707 33.0207 15.7302 32.0445L12.5938 34.2633C14.2034 37.0025 16.598 39.1973 19.4687 40.5647C22.3393 41.9321 25.5544 42.4094 28.6993 41.935C31.8442 41.4606 34.7746 40.0563 37.1127 37.9032C39.4507 35.75 41.0892 32.9468 41.8167 29.8551L38.0379 29.2104Z" fill="white"/>
<path d="M19.239 16.4036C20.7693 15.3023 22.5361 14.5732 24.3986 14.2745C26.2611 13.9758 28.1677 14.1157 29.9664 14.6832C31.7651 15.2506 33.4062 16.2298 34.7588 17.5427C36.1114 18.8556 37.1381 20.4659 37.7571 22.2452L41.2475 20.6482C41.2409 20.6318 41.2354 20.6154 41.2289 20.6002L40.309 18.5963C40.1364 18.2792 39.9544 17.9683 39.7628 17.6636C38.3426 15.4371 36.3899 13.5986 34.0807 12.3135C31.7716 11.0285 29.1785 10.3373 26.5352 10.3024C23.8918 10.2674 21.2813 10.8898 18.9389 12.1133C16.5965 13.3368 14.5957 15.1231 13.1169 17.3112L16.6772 18.905C17.4021 17.9488 18.2655 17.1058 19.239 16.4036Z" fill="white"/>
<path d="M14.4422 23.8892C14.5757 23.2038 14.768 22.5312 15.0169 21.8787L11.521 20.3144C10.1451 23.7757 10.0253 27.6086 11.1824 31.1488L14.4991 28.8035C14.1424 27.1867 14.1231 25.5138 14.4422 23.8892Z" fill="white"/>
<path d="M37.5824 21.7783L35.1758 22.9859L35.0709 23.0393L31.7695 24.6941" fill="white"/>
<path d="M20.0528 28.955L17.9214 30.4626C17.3819 29.4078 17.0483 28.2602 16.9382 27.0809L18.1268 26.2409L20.0528 28.955Z" fill="white"/>
<path d="M21.6555 21.199L20.2921 24.2381L17.467 22.9706C17.8513 21.9122 18.4242 20.9321 19.1581 20.0776L21.6555 21.199Z" fill="white"/>
<path d="M35.3854 28.7588C34.8707 30.5776 33.8192 32.1993 32.368 33.4128C30.9169 34.6262 29.1333 35.3749 27.2498 35.5614C25.3662 35.7479 23.4701 35.3635 21.8085 34.4583C20.147 33.5531 18.797 32.1691 17.9346 30.4867C17.9296 30.4797 17.9255 30.4719 17.9226 30.4638C17.078 28.8052 16.7447 26.9337 16.965 25.086C17.1853 23.2383 17.9493 21.4973 19.1604 20.0831L19.2008 20.0373C20.2989 18.7737 21.7144 17.8252 23.3017 17.2895C24.8889 16.7537 26.5905 16.6502 28.2312 16.9894C29.8718 17.3287 31.3923 18.0985 32.6359 19.2196C33.8796 20.3407 34.8015 21.7726 35.3067 23.3677L35.1975 23.4157L31.8284 24.9342C31.8284 24.9211 31.8229 24.908 31.8185 24.8949C31.5044 23.5755 30.7253 22.413 29.6236 21.6199C28.5219 20.8268 27.1711 20.4561 25.8182 20.5755C24.4653 20.6949 23.2007 21.2965 22.2554 22.2703C21.3101 23.2441 20.7473 24.5251 20.6699 25.8791C20.5924 27.2331 21.0056 28.5696 21.8337 29.6445C22.6619 30.7194 23.8498 31.4609 25.1803 31.7333C26.5108 32.0057 27.895 31.7909 29.0799 31.1282C30.2649 30.4654 31.1715 29.399 31.6339 28.1239L35.3854 28.7588Z" fill="white"/>
<defs>
<linearGradient id="paint0_linear_1_1231" x1="0.834629" y1="1.43259" x2="77.1446" y2="76.4387" gradientUnits="userSpaceOnUse">
<stop stop-color="#3B916F"/>
<stop offset="1" stop-color="#096AA5"/>
</linearGradient>
</defs>
</svg>
