<svg width="140" height="37" viewBox="0 0 140 37" fill="none" xmlns="http://www.w3.org/2000/svg">
<path d="M36.1572 18.0762C36.1575 20.4503 35.6902 22.8013 34.7819 24.9948C33.8737 27.1883 32.5423 29.1814 30.8637 30.8604C29.1852 32.5394 27.1924 33.8713 24.9991 34.7801C22.8059 35.6889 20.4551 36.1569 18.0809 36.1572C15.7068 36.1575 13.3559 35.6902 11.1624 34.7819C8.96888 33.8737 6.97573 32.5423 5.29676 30.8637C3.61779 29.1852 2.28587 27.1924 1.37705 24.9991C0.468232 22.8059 0.00030927 20.4551 0 18.0809C-1.62703e-07 13.2864 1.9043 8.68815 5.29412 5.29745C8.68394 1.90675 13.2817 0.00124907 18.0762 0H18.0951C22.886 0.00623832 27.4787 1.91315 30.865 5.30215C34.2514 8.69116 36.1547 13.2853 36.1572 18.0762ZM18.1257 1.38486C13.6912 1.38049 9.43647 3.13775 6.29746 6.27013C3.15846 9.40251 1.39221 13.6535 1.38722 18.088C1.34011 27.2733 8.8391 34.81 18.0857 34.81C20.2818 34.8128 22.457 34.3829 24.487 33.545C26.5171 32.7071 28.3622 31.4775 29.9169 29.9264C31.4717 28.3753 32.7057 26.5332 33.5485 24.5052C34.3913 22.4772 34.8264 20.303 34.8288 18.1069C34.8313 15.9109 34.4012 13.7359 33.5632 11.7062C32.7251 9.67644 31.4954 7.83163 29.9444 6.2771C28.3934 4.72257 26.5513 3.48876 24.5235 2.64611C22.4956 1.80347 20.3217 1.3685 18.1257 1.36602V1.38486Z" fill="#9EB0CB"/>
<path d="M96.8486 16.2227H99.9551C100.169 16.2227 100.224 16.2792 100.221 16.4912V22.5653C100.221 22.6438 100.205 22.7215 100.174 22.7936C100.143 22.8657 100.097 22.9306 100.04 22.9845C98.3441 24.8168 96.2433 25.6553 93.7562 25.5752C92.5876 25.5659 91.4304 25.344 90.3411 24.9205C89.3398 24.5321 88.4457 23.9101 87.7333 23.1064C87.0209 22.3026 86.5108 21.3403 86.2454 20.2996C85.5816 18.0826 85.7741 15.6973 86.7848 13.6155C87.9318 11.2226 89.8748 9.84713 92.4797 9.44674C95.0845 9.04636 97.4421 9.65636 99.4699 11.3898C99.8821 11.7431 99.8821 11.7454 99.5218 12.1317C99.0389 12.6475 98.5467 13.1538 98.0757 13.6791C97.9273 13.8439 97.8401 13.8298 97.6847 13.6932C96.215 12.4543 94.5452 11.9833 92.6822 12.4543C90.6355 12.9631 89.4933 14.3786 89.0505 16.3875C88.8175 17.3933 88.8525 18.4425 89.1518 19.4305C89.6487 21.0297 90.7015 22.0777 92.3242 22.4923C94.02 22.9303 95.6451 22.7984 97.1124 21.7268C97.1949 21.6773 97.2619 21.6055 97.3056 21.5197C97.3494 21.4339 97.3681 21.3376 97.3597 21.2416C97.3455 20.5751 97.3479 19.9062 97.3597 19.2374C97.3597 19.0489 97.3055 19.0018 97.1241 19.0018H93.735C93.5207 19.0018 93.4453 18.9571 93.45 18.7263C93.4665 17.9632 93.4618 17.2001 93.45 16.437C93.45 16.2509 93.5018 16.2015 93.6855 16.2015C94.7407 16.2227 95.7958 16.2227 96.8486 16.2227Z" fill="#9EB0CB"/>
<path d="M118.269 15.5773C118.486 15.3842 118.667 15.1958 118.877 15.0427C120.29 14.004 121.849 13.9004 123.47 14.3809C124.487 14.6948 125.389 15.3041 126.06 16.1315C126.731 16.9588 127.141 17.9669 127.238 19.0277C127.403 20.302 127.185 21.5966 126.611 22.7466C125.716 24.4706 124.256 25.3373 122.344 25.5257C121.34 25.6445 120.322 25.4983 119.393 25.1018C118.984 24.9151 118.613 24.6539 118.3 24.3316V29.2069C118.3 29.4424 118.234 29.4895 118.017 29.4848C117.245 29.4848 116.472 29.4707 115.7 29.4848C115.45 29.4848 115.368 29.4307 115.37 29.1622C115.379 25.1222 115.379 21.083 115.37 17.0446V14.5858C115.37 14.4021 115.417 14.3503 115.606 14.3503H117.895C118.057 14.3503 118.13 14.3903 118.13 14.5669C118.173 14.8896 118.227 15.2217 118.269 15.5773ZM124.357 19.8355C124.383 18.1186 123.222 16.9198 121.456 16.9151C119.652 16.9151 118.54 18.161 118.533 19.8285C118.51 20.5844 118.788 21.3186 119.306 21.8697C119.824 22.4208 120.54 22.7438 121.296 22.7678H121.463C123.137 22.7654 124.357 21.5384 124.357 19.8355Z" fill="#9EB0CB"/>
<path d="M49.1108 25.6718C48.016 25.6963 46.9252 25.5313 45.8866 25.1842C44.9066 24.8689 44.0096 24.3383 43.2613 23.6312C42.5131 22.9241 41.9326 22.0586 41.5624 21.0979C40.5473 18.552 40.6203 16.013 41.8851 13.5613C43.0627 11.3144 44.968 10.0685 47.441 9.66105C49.2211 9.32138 51.0635 9.57453 52.686 10.3817C53.4321 10.7651 54.1197 11.2528 54.728 11.8302C54.8434 11.9385 54.8576 11.9974 54.728 12.1128C54.1157 12.6969 53.5033 13.2904 52.9074 13.8863C52.7426 14.0512 52.6719 13.9358 52.573 13.8439C50.7194 12.1953 47.6271 12.1058 45.7429 13.6366C45.0391 14.213 44.5206 14.9838 44.252 15.8529C43.8689 17.0051 43.8532 18.2478 44.2073 19.4093C44.7561 21.251 46.2681 22.4498 48.2111 22.6547C49.0344 22.7644 49.8716 22.6949 50.6655 22.451C51.4594 22.2071 52.1912 21.7945 52.8109 21.2416C52.931 21.138 52.9899 21.1662 53.0841 21.2628C53.6886 21.8909 54.2986 22.5189 54.9141 23.147C55.0342 23.2694 55.0059 23.333 54.8976 23.4343C53.6379 24.6281 52.0278 25.3852 50.3049 25.594C49.9086 25.6412 49.51 25.6671 49.1108 25.6718Z" fill="#9EB0CB"/>
<path d="M110.617 24.0586C110.283 24.4811 109.868 24.8328 109.397 25.0928C108.925 25.3529 108.406 25.5161 107.871 25.573C105.137 25.9003 102.185 24.6309 101.641 21.0557C101.443 19.9296 101.517 18.7726 101.856 17.6807C102.539 15.601 104.023 14.4682 106.147 14.1478C107.2 13.949 108.288 14.0815 109.263 14.527C109.766 14.7645 110.209 15.1132 110.558 15.5468C110.587 15.1771 110.617 14.8733 110.631 14.5671C110.631 14.414 110.685 14.3575 110.848 14.3575C111.646 14.3575 112.447 14.3716 113.246 14.3575C113.507 14.3575 113.446 14.5176 113.446 14.6542V25.1867C113.446 25.3351 113.373 25.3516 113.253 25.3516H110.89C110.737 25.3516 110.7 25.2833 110.693 25.149C110.674 24.7957 110.655 24.466 110.617 24.0586ZM104.458 19.5201C104.458 22.0425 106.253 23.4509 108.361 22.8927C109.538 22.5819 110.311 21.6445 110.481 20.2785C110.615 19.1009 110.294 18.0528 109.303 17.3297C108.846 16.9889 108.305 16.7809 107.737 16.7285C107.17 16.6761 106.599 16.7815 106.088 17.033C105.602 17.2409 105.187 17.5878 104.897 18.0303C104.607 18.4728 104.455 18.9911 104.458 19.5201Z" fill="#9EB0CB"/>
<path d="M135.783 20.9332H131.852C131.59 20.9332 131.548 21.0015 131.633 21.2394C131.762 21.6157 131.985 21.9531 132.28 22.22C132.576 22.4869 132.934 22.6746 133.321 22.7656C134.012 22.9803 134.745 23.022 135.455 22.8868C136.166 22.7517 136.832 22.444 137.396 21.9907C137.49 21.9177 137.542 21.9083 137.631 21.9907C138.181 22.5465 138.73 23.0961 139.28 23.6393C139.414 23.7712 139.304 23.8325 139.228 23.9055C138.504 24.6003 137.611 25.0939 136.637 25.3375C135.19 25.7616 133.649 25.7353 132.217 25.2621C130.132 24.5555 128.981 23.0553 128.644 20.9097C128.451 19.8384 128.532 18.7359 128.879 17.7042C129.635 15.5845 131.192 14.454 133.373 14.1361C134.429 13.9673 135.51 14.048 136.529 14.3716C138.373 14.9722 139.421 16.2864 139.826 18.1399C139.998 18.9707 140.043 19.8229 139.958 20.6671C139.942 20.8626 139.885 20.9026 139.695 20.9026C138.394 20.9191 137.085 20.9332 135.783 20.9332ZM131.644 18.4814H136.798C136.835 18.4791 136.873 18.4791 136.911 18.4814C137.087 18.5003 137.085 18.4131 137.047 18.2789C136.971 17.9468 136.81 17.6402 136.579 17.3892C136.349 17.1382 136.057 16.9513 135.733 16.8469C134.929 16.5572 134.048 16.5572 133.244 16.8469C132.868 16.9727 132.527 17.1855 132.248 17.4678C131.97 17.7502 131.762 18.0943 131.642 18.472L131.644 18.4814Z" fill="#9EB0CB"/>
<path d="M60.8468 25.573C60.0268 25.5821 59.216 25.3986 58.4797 25.0375C57.7435 24.6763 57.1022 24.1474 56.6074 23.4933C54.695 20.9921 55.2155 17.0377 57.6744 15.2101C60.5359 13.0904 65.8799 13.9453 66.7419 18.7711C67.1305 20.9426 66.5818 22.8927 64.8248 24.36C63.7673 25.2409 62.4955 25.573 60.8468 25.573ZM58.3173 19.8027C58.3104 20.1324 58.3501 20.4615 58.4351 20.7801C58.7107 21.84 59.3489 22.5866 60.4347 22.8174C61.5204 23.0482 62.5072 22.8339 63.2397 21.9389C63.561 21.5454 63.7833 21.0807 63.8882 20.5837C63.9931 20.0867 63.9775 19.5718 63.8427 19.082C63.4705 17.4711 62.048 16.5172 60.4064 16.9011C59.2382 17.1649 58.3527 18.2954 58.3173 19.7933V19.8027Z" fill="#9EB0CB"/>
<path d="M76.1557 15.6503C76.3653 15.4784 76.5373 15.3347 76.7139 15.1958C78.982 13.3964 83.0942 13.9711 84.0151 17.8642C84.1593 18.5167 84.2265 19.1839 84.2152 19.852V25.0782C84.2152 25.3137 84.1729 25.4056 83.9114 25.3985C83.1389 25.3797 82.3664 25.3844 81.5963 25.3985C81.3937 25.3985 81.3466 25.3397 81.3466 25.1465V19.5812C81.3537 19.176 81.2899 18.7727 81.1582 18.3894C81.0379 17.9844 80.8029 17.6229 80.4814 17.3487C80.16 17.0745 79.766 16.8993 79.347 16.8444C78.8778 16.7459 78.3899 16.7881 77.9445 16.9658C77.4991 17.1434 77.1161 17.4486 76.8434 17.843C76.4496 18.4123 76.252 19.0944 76.2805 19.7861V25.0405C76.2805 25.2761 76.2358 25.3491 75.9909 25.342C75.1995 25.3279 74.4082 25.342 73.6192 25.342C73.419 25.342 73.3695 25.2855 73.3695 25.09V14.5834C73.3695 14.4044 73.4095 14.3479 73.605 14.3479H75.7506C75.9508 14.3479 76.0073 14.4185 76.0238 14.5975C76.0686 14.932 76.1133 15.2806 76.1557 15.6503Z" fill="#9EB0CB"/>
<path d="M68.4236 19.8072V14.5528C68.4236 14.3526 68.4589 14.2796 68.6803 14.2819C69.4905 14.2984 70.2983 14.2819 71.1085 14.2819C71.2804 14.2819 71.344 14.3267 71.344 14.5033V25.0358C71.344 25.2431 71.271 25.2713 71.085 25.2713H68.6732C68.473 25.2713 68.4212 25.2148 68.4236 25.0193V19.8072Z" fill="#9EB0CB"/>
<path d="M71.5442 11.4652C71.543 11.6855 71.4983 11.9034 71.4127 12.1064C71.3271 12.3094 71.2023 12.4935 71.0454 12.6482C70.8886 12.8029 70.7027 12.9251 70.4985 13.0078C70.2943 13.0906 70.0758 13.1322 69.8555 13.1303C69.411 13.1266 68.986 12.9467 68.6739 12.6302C68.3618 12.3136 68.1879 11.8862 68.1904 11.4417C68.1941 11.0004 68.3714 10.5783 68.6839 10.2667C68.9963 9.95506 69.4189 9.77898 69.8602 9.77652C70.072 9.76703 70.2835 9.79935 70.4827 9.87163C70.6819 9.94391 70.865 10.0547 71.0213 10.1978C71.1777 10.3408 71.3044 10.5133 71.3941 10.7053C71.4838 10.8973 71.5348 11.1051 71.5442 11.3168C71.5536 11.3671 71.5536 11.4165 71.5442 11.4652Z" fill="#9EB0CB"/>
<path d="M18.1257 1.38489C20.3219 1.38736 22.496 1.82241 24.524 2.66521C26.5521 3.508 28.3942 4.74202 29.9452 6.2968C31.4963 7.85157 32.7259 9.69666 33.5639 11.7267C34.4018 13.7567 34.8316 15.9319 34.8288 18.1281C34.8232 22.5614 33.0574 26.811 29.9194 29.9428C26.7815 33.0745 22.5284 34.832 18.0951 34.8289C8.84853 34.8077 1.34954 27.2922 1.39664 18.1069C1.39664 13.6719 3.15842 9.41862 6.2944 6.28264C9.43038 3.14666 13.6837 1.38489 18.1186 1.38489H18.1257ZM2.34579 18.1069C2.34579 22.2843 4.00494 26.2907 6.95837 29.245C9.9118 32.1993 13.9177 33.8596 18.0951 33.8609C20.1637 33.8615 22.2122 33.4546 24.1235 32.6634C26.0349 31.8722 27.7716 30.7122 29.2346 29.2497C30.6975 27.7872 31.858 26.0508 32.6498 24.1397C33.4416 22.2286 33.8491 20.1802 33.8491 18.1116C33.8497 13.9385 32.1943 9.93565 29.2464 6.98195C26.2984 4.02825 22.2988 2.36507 18.1257 2.35759C16.0579 2.35294 14.0094 2.75567 12.0973 3.54277C10.1851 4.32987 8.44674 5.48592 6.98141 6.94491C5.51608 8.4039 4.3525 10.1372 3.55711 12.046C2.76173 13.9547 2.35012 16.0014 2.34579 18.0692V18.1069Z" fill="#E4EAF3"/>
<path d="M2.35285 18.1068C2.35597 13.9294 4.01811 9.92431 6.97375 6.9722C9.92939 4.0201 13.9365 2.36275 18.1139 2.36463C20.1825 2.36555 22.2307 2.77399 24.1415 3.56662C26.0522 4.35925 27.7881 5.52053 29.2499 6.98414C30.7118 8.44776 31.871 10.185 32.6613 12.0967C33.4517 14.0084 33.8577 16.0571 33.8561 18.1257C33.8549 20.1942 33.4462 22.2423 32.6535 24.1529C31.8608 26.0635 30.6995 27.7992 29.2359 29.261C27.7724 30.7228 26.0352 31.882 24.1237 32.6725C22.2121 33.4629 20.1636 33.8691 18.0951 33.8679C16.0264 33.867 13.9783 33.4585 12.0675 32.6659C10.1568 31.8733 8.42091 30.712 6.95905 29.2484C5.49718 27.7848 4.33798 26.0475 3.54763 24.1358C2.75729 22.2241 2.3513 20.1755 2.35285 18.1068ZM23.0551 24.4188C21.289 25.4346 19.2419 25.8526 17.2189 25.6105C14.7413 25.3421 12.9796 24.0161 11.9974 21.7551C11.1378 19.7979 11.1284 17.7512 11.5947 15.6904C12.3366 12.4308 15.0192 10.2875 18.3541 10.231C19.9007 10.1848 21.4333 10.5359 22.8055 11.2508C22.9751 11.3403 23.041 11.3238 23.0269 11.1213V9.23713C23.0402 9.15957 23.0232 9.07985 22.9794 9.01451C22.9355 8.94917 22.8682 8.90322 22.7914 8.8862C22.0371 8.58992 21.2437 8.40506 20.4361 8.33744C20.1441 8.31389 20.0876 8.21732 20.0923 7.94883C20.1088 6.93138 20.0923 5.91392 20.0923 4.88705C20.0923 4.70806 20.0522 4.65153 19.8568 4.65153C19.4352 4.66566 19.0112 4.66802 18.5873 4.65153C18.3895 4.65153 18.3329 4.70099 18.3353 4.90118V7.72744C18.3353 8.19848 18.3353 8.19848 17.8807 8.22674C17.7581 8.2295 17.636 8.2429 17.5157 8.26678C17.2943 8.31624 17.2519 8.22674 17.2543 8.01948V4.93887C17.2543 4.7269 17.2142 4.64211 16.9811 4.65389C16.5901 4.67273 16.1968 4.67273 15.8035 4.65389C15.5679 4.64211 15.502 4.70099 15.5043 4.94358C15.5185 6.0835 15.5043 7.22107 15.5043 8.36099C15.5195 8.44498 15.5007 8.53154 15.4521 8.60172C15.4036 8.67191 15.3292 8.72 15.2453 8.73547C13.9686 9.16538 12.8052 9.87727 11.8414 10.8183C10.8775 11.7593 10.1379 12.9053 9.67755 14.1713C8.9053 16.2102 8.73526 18.4281 9.18767 20.561C9.86361 24.009 11.8279 26.3571 15.2759 27.3369C15.3436 27.3435 15.406 27.3762 15.45 27.4281C15.494 27.48 15.516 27.547 15.5114 27.6148C15.5114 27.6148 15.5114 27.6313 15.5114 27.6407V31.004C15.5114 31.2207 15.5726 31.2748 15.7799 31.2654C16.1638 31.2489 16.5524 31.2466 16.9363 31.2654C17.1718 31.2654 17.2755 31.2207 17.2684 30.9474C17.2495 30.0548 17.2684 29.1598 17.2684 28.2649C17.2684 27.6502 17.2684 27.6502 17.8925 27.6502C17.9584 27.6549 18.0245 27.6549 18.0904 27.6502C18.307 27.6125 18.3541 27.7043 18.3518 27.9116C18.34 28.9479 18.3518 29.9842 18.34 31.0205C18.34 31.2371 18.4012 31.289 18.6085 31.2795C19.023 31.263 19.4375 31.2654 19.8497 31.2795C20.0546 31.2795 20.0994 31.2183 20.0852 31.0252V27.8056C20.0852 27.5512 20.17 27.4735 20.4008 27.4358C21.2472 27.302 22.0688 27.0424 22.8385 26.6657C22.9327 26.6209 23.0434 26.595 23.041 26.4302C23.041 25.7589 23.041 25.1018 23.041 24.407L23.0551 24.4188ZM22.2685 15.1322C22.2685 14.4045 22.2685 13.7356 22.2685 13.0691C22.2807 13.0188 22.2827 12.9666 22.2744 12.9155C22.2662 12.8644 22.2478 12.8155 22.2204 12.7716C22.1929 12.7278 22.157 12.6898 22.1147 12.66C22.0725 12.6302 22.0246 12.6091 21.9741 12.598H21.9317C20.527 12.1854 19.0475 12.0944 17.6028 12.3319C15.5091 12.6993 13.9805 13.8369 13.1279 15.8082C12.6569 16.9151 12.598 18.0856 12.7087 19.2727C12.7878 20.3123 13.1821 21.3031 13.8391 22.1127C14.496 22.9224 15.3842 23.5124 16.3852 23.8041C17.4859 24.1055 18.6354 24.1855 19.7673 24.0396C20.7417 23.9557 21.6921 23.6914 22.57 23.26C22.6419 23.2379 22.7043 23.1922 22.7471 23.1302C22.7898 23.0682 22.8104 22.9937 22.8055 22.9185V17.551C22.8055 17.3697 22.7584 17.3155 22.57 17.3155H18.1328C17.9373 17.3155 17.8972 17.3814 17.8972 17.551C17.9114 18.0786 17.9114 18.6061 17.8972 19.1337C17.8972 19.3245 17.9349 19.3928 18.1328 19.3881C18.7239 19.3739 19.3104 19.3881 19.9109 19.3881C20.1158 19.3881 20.1912 19.4281 20.1841 19.6495C20.1677 20.2312 20.17 20.8271 20.1841 21.3994C20.1965 21.4749 20.1788 21.5522 20.1347 21.6148C20.0907 21.6773 20.0239 21.7201 19.9486 21.7339C19.4203 21.8768 18.8702 21.9207 18.3259 21.8634C17.6956 21.8311 17.0916 21.6002 16.6005 21.2038C16.1093 20.8075 15.7561 20.2659 15.5915 19.6566C15.3993 18.9674 15.3433 18.2474 15.4266 17.5369C15.4812 16.8369 15.7494 16.1705 16.1951 15.628C16.6408 15.0854 17.2423 14.6928 17.9184 14.5034C18.6739 14.3348 19.4554 14.3188 20.2171 14.4563C20.9349 14.55 21.6285 14.7786 22.2614 15.1299L22.2685 15.1322Z" fill="#9EB0CB"/>
<path d="M23.0552 24.407V26.416C23.0552 26.5738 22.9468 26.5997 22.8526 26.6516C22.083 27.0283 21.2614 27.2879 20.415 27.4217C20.1795 27.4594 20.097 27.5371 20.0994 27.7915C20.1182 28.8631 20.0994 29.9371 20.0994 31.0111C20.0994 31.2042 20.057 31.2748 19.8639 31.2654C19.4517 31.2513 19.0372 31.2489 18.6227 31.2654C18.4154 31.2654 18.3518 31.223 18.3542 31.0063C18.3683 29.9701 18.3542 28.9338 18.3659 27.8975C18.3659 27.6902 18.3212 27.5984 18.1045 27.636C18.0387 27.6407 17.9725 27.6407 17.9067 27.636C17.2825 27.636 17.2825 27.636 17.2825 28.2507C17.2825 29.1457 17.2825 30.0407 17.2825 30.9333C17.2825 31.2065 17.1978 31.2631 16.9505 31.2513C16.5666 31.2324 16.178 31.2348 15.7941 31.2513C15.5868 31.2513 15.5232 31.2065 15.5256 30.9899C15.5256 29.8688 15.5256 28.7477 15.5256 27.6266C15.5317 27.5931 15.5311 27.5586 15.5238 27.5253C15.5166 27.4919 15.5029 27.4604 15.4834 27.4323C15.4639 27.4043 15.4391 27.3804 15.4104 27.362C15.3816 27.3437 15.3495 27.3311 15.3159 27.3252H15.29C11.842 26.3454 9.87305 23.9972 9.20182 20.5492C8.74941 18.4164 8.91945 16.1985 9.6917 14.1595C10.1528 12.8922 10.8936 11.745 11.8592 10.8035C12.8248 9.862 13.9902 9.1503 15.2688 8.72135C15.3105 8.71398 15.3504 8.69841 15.386 8.67555C15.4217 8.65269 15.4524 8.62299 15.4765 8.58816C15.5006 8.55334 15.5176 8.51409 15.5264 8.47267C15.5352 8.43125 15.5357 8.38849 15.5279 8.34687V4.92946C15.5279 4.69394 15.5962 4.62799 15.827 4.63977C16.2203 4.65861 16.6137 4.65861 17.0046 4.63977C17.2402 4.62799 17.2802 4.71278 17.2778 4.92475V8.00537C17.2778 8.21263 17.3179 8.30212 17.5393 8.25266C17.6596 8.22878 17.7817 8.21538 17.9043 8.21262C18.3589 8.18201 18.3589 8.18201 18.3589 7.71332V4.88707C18.3589 4.68688 18.413 4.63035 18.6109 4.63742C19.0348 4.6539 19.4588 4.65155 19.8803 4.63742C20.0735 4.63742 20.1159 4.70101 20.1159 4.87294V7.93471C20.1159 8.2032 20.1677 8.29977 20.4597 8.32332C21.2673 8.39094 22.0607 8.5758 22.8149 8.87208C22.8918 8.8891 22.9591 8.93505 23.003 9.00039C23.0468 9.06574 23.0638 9.14546 23.0505 9.22301C23.0505 9.85421 23.0505 10.4854 23.0505 11.1072C23.0505 11.3097 22.9986 11.3262 22.8291 11.2367C21.4548 10.5206 19.9196 10.1695 18.3707 10.2169C15.0333 10.264 12.3437 12.4167 11.6018 15.681C11.1307 17.7347 11.1449 19.7885 12.0045 21.7457C12.9984 24.0019 14.7483 25.3374 17.226 25.5964C19.2464 25.8369 21.2905 25.4198 23.0552 24.407Z" fill="#E4EAF3"/>
<path d="M22.2614 15.1204C21.6337 14.7665 20.945 14.534 20.2312 14.435C19.4695 14.2975 18.688 14.3135 17.9326 14.4821C17.2516 14.6694 16.6452 15.0625 16.1962 15.6076C15.7472 16.1527 15.4776 16.8232 15.4243 17.5274C15.3409 18.2379 15.3969 18.9579 15.5891 19.6471C15.7542 20.2575 16.1084 20.7999 16.601 21.1964C17.0935 21.5928 17.699 21.8231 18.3306 21.8539C18.8749 21.9112 19.425 21.8673 19.9533 21.7244C20.0301 21.7149 20.1001 21.6754 20.1478 21.6145C20.1954 21.5535 20.217 21.4762 20.2077 21.3994C20.1936 20.8176 20.1912 20.2217 20.2077 19.6494C20.2077 19.428 20.1394 19.3833 19.9345 19.388C19.341 19.388 18.7569 19.388 18.1563 19.388C17.949 19.388 17.9067 19.3244 17.9208 19.1336C17.9349 18.6061 17.9349 18.0785 17.9208 17.5509C17.9208 17.3743 17.9561 17.3154 18.1563 17.3154H22.57C22.7607 17.3154 22.8055 17.3767 22.8055 17.5509V22.9185C22.8104 22.9936 22.7898 23.0682 22.7471 23.1301C22.7043 23.1921 22.6419 23.2379 22.57 23.26C21.69 23.6921 20.7371 23.9565 19.7602 24.0395C18.6284 24.1854 17.4788 24.1054 16.3781 23.804C15.3793 23.508 14.4944 22.9146 13.8414 22.103C13.1883 21.2913 12.7981 20.2999 12.7228 19.2608C12.6121 18.0832 12.6663 16.9056 13.1421 15.7963C13.9923 13.825 15.5208 12.6874 17.617 12.32C19.0616 12.0825 20.5412 12.1735 21.9458 12.5862C21.9967 12.5914 22.046 12.6067 22.0909 12.6312C22.1357 12.6557 22.1753 12.6888 22.2073 12.7287C22.2393 12.7685 22.263 12.8144 22.2772 12.8635C22.2913 12.9126 22.2956 12.964 22.2897 13.0148C22.2919 13.0288 22.2919 13.0432 22.2897 13.0572C22.2614 13.7237 22.2614 14.3926 22.2614 15.1204Z" fill="#E4EAF3"/>
</svg>
