<svg width="200" height="53" viewBox="0 0 200 53" fill="none" xmlns="http://www.w3.org/2000/svg">
<path d="M72.9031 40.7485C71.1255 40.7485 69.5154 40.4655 68.0727 39.8996C66.6558 39.3079 65.4321 38.4333 64.4016 37.2757C63.3969 36.1181 62.624 34.6904 62.083 32.9925C61.542 31.269 61.2715 29.2753 61.2715 27.0115C61.2715 24.7478 61.542 22.7412 62.083 20.992C62.624 19.2169 63.3969 17.7378 64.4016 16.5544C65.4321 15.3454 66.6558 14.4322 68.0727 13.8148C69.5154 13.1974 71.1255 12.8887 72.9031 12.8887C75.3247 12.8887 77.3341 13.4032 78.9314 14.4322C80.5286 15.4611 81.8039 17.0175 82.7571 19.1012L78.3904 21.4164C78.004 20.2073 77.3728 19.2427 76.4969 18.5224C75.621 17.7764 74.423 17.4034 72.9031 17.4034C70.9967 17.4034 69.4767 18.0465 68.3432 19.3327C67.2354 20.6189 66.6815 22.4197 66.6815 24.7349V28.9795C66.6815 31.3204 67.2354 33.1211 68.3432 34.3817C69.4767 35.6164 70.9967 36.2338 72.9031 36.2338C74.423 36.2338 75.6596 35.8222 76.6128 34.9991C77.5918 34.1759 78.3002 33.1597 78.7382 31.9507L82.873 34.3817C81.894 36.3882 80.593 37.9574 78.97 39.0893C77.347 40.1954 75.3247 40.7485 72.9031 40.7485Z" fill="#9EB0CB"/>
<path d="M94.1567 40.7485C92.714 40.7485 91.413 40.5041 90.2537 40.0153C89.1202 39.5265 88.1412 38.8191 87.3169 37.893C86.5182 36.9669 85.8999 35.8608 85.462 34.5745C85.024 33.2626 84.8051 31.7963 84.8051 30.1756C84.8051 28.555 85.024 27.1015 85.462 25.8153C85.8999 24.529 86.5182 23.4357 87.3169 22.5354C88.1412 21.6093 89.1202 20.9019 90.2537 20.4131C91.413 19.9243 92.714 19.6799 94.1567 19.6799C95.5994 19.6799 96.9004 19.9243 98.0597 20.4131C99.2189 20.9019 100.198 21.6093 100.997 22.5354C101.821 23.4357 102.452 24.529 102.89 25.8153C103.328 27.1015 103.547 28.555 103.547 30.1756C103.547 31.7963 103.328 33.2626 102.89 34.5745C102.452 35.8608 101.821 36.9669 100.997 37.893C100.198 38.8191 99.2189 39.5265 98.0597 40.0153C96.9004 40.5041 95.5994 40.7485 94.1567 40.7485ZM94.1567 36.774C95.4706 36.774 96.501 36.3753 97.2481 35.5778C97.9952 34.7803 98.3688 33.6099 98.3688 32.0664V28.3234C98.3688 26.8057 97.9952 25.6481 97.2481 24.8506C96.501 24.0531 95.4706 23.6544 94.1567 23.6544C92.8686 23.6544 91.851 24.0531 91.1039 24.8506C90.3568 25.6481 89.9832 26.8057 89.9832 28.3234V32.0664C89.9832 33.6099 90.3568 34.7803 91.1039 35.5778C91.851 36.3753 92.8686 36.774 94.1567 36.774Z" fill="#9EB0CB"/>
<path d="M109.614 17.2104C108.583 17.2104 107.836 16.9789 107.373 16.5158C106.935 16.0528 106.716 15.4611 106.716 14.7408V13.9691C106.716 13.2488 106.935 12.6571 107.373 12.1941C107.836 11.731 108.583 11.4995 109.614 11.4995C110.619 11.4995 111.353 11.731 111.817 12.1941C112.28 12.6571 112.512 13.2488 112.512 13.9691V14.7408C112.512 15.4611 112.28 16.0528 111.817 16.5158C111.353 16.9789 110.619 17.2104 109.614 17.2104ZM107.141 20.143H112.087V40.2855H107.141V20.143Z" fill="#9EB0CB"/>
<path d="M117.033 40.2854V20.143H121.98V23.5H122.173C122.585 22.4196 123.229 21.5192 124.105 20.799C125.007 20.0529 126.243 19.6799 127.815 19.6799C129.902 19.6799 131.499 20.3616 132.607 21.725C133.714 23.0885 134.268 25.0307 134.268 27.5517V40.2854H129.322V28.0533C129.322 26.6127 129.064 25.5323 128.549 24.812C128.034 24.0917 127.184 23.7316 125.999 23.7316C125.483 23.7316 124.981 23.8087 124.492 23.9631C124.028 24.0917 123.603 24.2975 123.216 24.5805C122.856 24.8377 122.559 25.1722 122.328 25.5838C122.096 25.9696 121.98 26.4327 121.98 26.9729V40.2854H117.033Z" fill="#9EB0CB"/>
<path d="M145.591 40.7485C143.659 40.7485 142.036 40.4269 140.722 39.7838C139.408 39.1149 138.248 38.2017 137.244 37.0441L140.258 34.1115C141.005 34.9604 141.817 35.6292 142.692 36.118C143.594 36.6068 144.625 36.8512 145.784 36.8512C146.969 36.8512 147.819 36.6454 148.334 36.2338C148.875 35.8222 149.146 35.2562 149.146 34.5359C149.146 33.9443 148.953 33.4812 148.566 33.1468C148.206 32.7867 147.574 32.5423 146.673 32.4137L144.663 32.1435C142.473 31.8606 140.799 31.2432 139.64 30.2914C138.506 29.3138 137.939 27.899 137.939 26.0468C137.939 25.0693 138.12 24.1946 138.48 23.4229C138.841 22.6254 139.356 21.9566 140.026 21.4163C140.696 20.8504 141.495 20.4259 142.422 20.143C143.375 19.8343 144.431 19.6799 145.591 19.6799C146.57 19.6799 147.433 19.7571 148.18 19.9115C148.953 20.0401 149.648 20.2459 150.267 20.5288C150.885 20.7861 151.452 21.1205 151.967 21.5321C152.482 21.918 152.984 22.3553 153.474 22.8441L150.576 25.7381C149.983 25.1207 149.275 24.6062 148.45 24.1946C147.626 23.783 146.724 23.5772 145.745 23.5772C144.663 23.5772 143.878 23.7702 143.388 24.156C142.924 24.5419 142.692 25.0435 142.692 25.6609C142.692 26.3298 142.886 26.8443 143.272 27.2044C143.684 27.5388 144.367 27.7832 145.32 27.9376L147.368 28.2077C151.722 28.8251 153.899 30.8059 153.899 34.1501C153.899 35.1276 153.693 36.028 153.281 36.8512C152.894 37.6486 152.34 38.3432 151.619 38.9349C150.898 39.5008 150.022 39.951 148.991 40.2854C147.987 40.5941 146.853 40.7485 145.591 40.7485Z" fill="#9EB0CB"/>
<path d="M169.549 36.9284H169.356C169.176 37.4429 168.931 37.9317 168.622 38.3947C168.339 38.8321 167.965 39.2308 167.501 39.5909C167.063 39.9511 166.522 40.2341 165.878 40.4399C165.26 40.6457 164.539 40.7485 163.714 40.7485C161.628 40.7485 160.03 40.0668 158.923 38.7034C157.815 37.34 157.261 35.3978 157.261 32.8768V20.1431H162.207V32.3752C162.207 33.7643 162.478 34.8319 163.019 35.5779C163.56 36.2982 164.423 36.6583 165.608 36.6583C166.097 36.6583 166.574 36.594 167.038 36.4654C167.527 36.3368 167.952 36.1438 168.313 35.8866C168.673 35.6036 168.97 35.2692 169.202 34.8833C169.433 34.4717 169.549 33.9958 169.549 33.4556V20.1431H174.496V40.2855H169.549V36.9284Z" fill="#9EB0CB"/>
<path d="M184.388 40.2855C182.688 40.2855 181.438 39.861 180.64 39.0121C179.841 38.1632 179.442 36.967 179.442 35.4235V11.7311H184.388V36.3496H187.055V40.2855H184.388Z" fill="#9EB0CB"/>
<path d="M196.136 40.2855C194.435 40.2855 193.134 39.8482 192.233 38.9735C191.357 38.0732 190.919 36.7998 190.919 35.1534V24.0789H187.943V20.1431H189.489C190.236 20.1431 190.739 19.9759 190.996 19.6414C191.28 19.2813 191.421 18.7539 191.421 18.0594V14.6251H195.865V20.1431H200V24.0789H195.865V36.3496H199.691V40.2855H196.136Z" fill="#9EB0CB"/>
<path d="M17.005 0H52.2081V35.1519C52.2081 39.6554 50.4165 43.9744 47.2274 47.1588C44.0383 50.3433 39.713 52.1323 35.203 52.1323H0V16.9804C0 12.4769 1.7916 8.15786 4.98066 4.97343C8.16972 1.789 12.495 0 17.005 0Z" fill="#9EB0CB"/>
<path d="M41.2475 20.5147L37.7571 22.1117L35.3067 23.2331L35.1975 23.2822L31.8284 24.8018C31.8284 24.7887 31.8229 24.7756 31.8185 24.7625C31.6197 23.9347 31.2362 23.1624 30.6966 22.5033L30.3853 21.8237L33.7467 20.2856L36.2331 19.1478L39.7541 17.5366C39.9493 17.8406 40.1313 18.1515 40.3003 18.4693L41.2201 20.4732L41.2475 20.5147Z" fill="white"/>
<path d="M41.8166 29.7226C41.5579 30.8218 41.1825 31.8904 40.6969 32.9101L29.78 31.0491L29.8827 30.448C30.6791 29.8021 31.2835 28.9511 31.6306 27.9871L41.8166 29.7226Z" fill="white"/>
<path d="M22.1396 31.456L17.7293 34.5748L14.5765 36.8045C13.8238 35.9834 13.1592 35.0858 12.5938 34.1264L15.7302 31.9076L17.9336 30.3488L20.2125 28.7375L22.1396 31.456Z" fill="white"/>
<path d="M22.5603 17.758L21.1969 20.7972L19.1999 19.9038L16.6709 18.7725L13.1106 17.1788C13.7595 16.2178 14.512 15.3307 15.3545 14.5334L19.2392 16.2712L22.2096 17.602L22.5603 17.758Z" fill="white"/>
<path d="M38.0379 29.0781C37.5047 31.1457 36.4325 33.0353 34.9303 34.5547C33.4281 36.074 31.5496 37.1689 29.4861 37.7277C27.4225 38.2866 25.2474 38.2896 23.1823 37.7364C21.1172 37.1832 19.2357 36.0935 17.7293 34.5783C16.9434 33.7855 16.2707 32.8884 15.7302 31.9122L12.5938 34.131C14.2034 36.8702 16.598 39.065 19.4687 40.4324C22.3393 41.7998 25.5544 42.2771 28.6993 41.8027C31.8442 41.3283 34.7746 39.924 37.1127 37.7709C39.4507 35.6178 41.0892 32.8146 41.8167 29.7228L38.0379 29.0781Z" fill="white"/>
<path d="M19.239 16.2713C20.7693 15.17 22.5361 14.4409 24.3986 14.1422C26.2611 13.8435 28.1677 13.9835 29.9664 14.5509C31.7651 15.1183 33.4062 16.0975 34.7588 17.4104C36.1114 18.7233 37.1381 20.3336 37.7571 22.1129L41.2475 20.5159C41.2409 20.4995 41.2354 20.4832 41.2289 20.4679L40.309 18.464C40.1364 18.1469 39.9544 17.836 39.7628 17.5313C38.3426 15.3049 36.3899 13.4663 34.0807 12.1812C31.7716 10.8962 29.1785 10.2051 26.5352 10.1701C23.8918 10.1351 21.2813 10.7575 18.9389 11.981C16.5965 13.2046 14.5957 14.9909 13.1169 17.1789L16.6772 18.7727C17.4021 17.8166 18.2655 16.9735 19.239 16.2713Z" fill="white"/>
<path d="M14.4422 23.7569C14.5757 23.0715 14.768 22.3989 15.0169 21.7464L11.521 20.1821C10.1451 23.6434 10.0253 27.4763 11.1824 31.0166L14.4991 28.6712C14.1424 27.0544 14.1231 25.3815 14.4422 23.7569Z" fill="white"/>
<path d="M37.5824 21.646L35.1758 22.8536L35.0709 22.907L31.7695 24.5619" fill="white"/>
<path d="M20.0528 28.8227L17.9214 30.3303C17.3819 29.2755 17.0483 28.1279 16.9382 26.9486L18.1268 26.1086L20.0528 28.8227Z" fill="white"/>
<path d="M21.6555 21.0667L20.2921 24.1059L17.467 22.8383C17.8513 21.7799 18.4242 20.7998 19.1581 19.9453L21.6555 21.0667Z" fill="white"/>
<path d="M35.3854 28.6265C34.8707 30.4453 33.8192 32.0671 32.368 33.2805C30.9169 34.4939 29.1333 35.2426 27.2498 35.4291C25.3662 35.6156 23.4701 35.2312 21.8085 34.3261C20.147 33.4209 18.797 32.0368 17.9346 30.3544C17.9296 30.3474 17.9255 30.3397 17.9226 30.3315C17.078 28.6729 16.7447 26.8014 16.965 24.9538C17.1853 23.1061 17.9493 21.3651 19.1604 19.9509L19.2008 19.905C20.2989 18.6414 21.7144 17.6929 23.3017 17.1572C24.8889 16.6215 26.5905 16.5179 28.2312 16.8572C29.8718 17.1964 31.3923 17.9662 32.6359 19.0873C33.8796 20.2084 34.8015 21.6403 35.3067 23.2354L35.1975 23.2834L31.8284 24.8019C31.8284 24.7888 31.8229 24.7757 31.8185 24.7626C31.5044 23.4432 30.7253 22.2807 29.6236 21.4876C28.5219 20.6945 27.1711 20.3238 25.8182 20.4432C24.4653 20.5627 23.2007 21.1642 22.2554 22.138C21.3101 23.1118 20.7473 24.3928 20.6699 25.7468C20.5924 27.1008 21.0056 28.4374 21.8337 29.5123C22.6619 30.5872 23.8498 31.3286 25.1803 31.601C26.5108 31.8734 27.895 31.6586 29.0799 30.9959C30.2649 30.3332 31.1715 29.2668 31.6339 27.9916L35.3854 28.6265Z" fill="white"/>
</svg>
