<svg width="140" height="37" viewBox="0 0 140 37" fill="none" xmlns="http://www.w3.org/2000/svg">
<path d="M36.1572 18.2335C36.1575 20.6076 35.6902 22.9585 34.7819 25.152C33.8737 27.3455 32.5423 29.3387 30.8637 31.0176C29.1852 32.6966 27.1924 34.0285 24.9991 34.9374C22.8059 35.8462 20.4551 36.3141 18.0809 36.3144C15.7068 36.3147 13.3559 35.8474 11.1624 34.9392C8.96888 34.0309 6.97573 32.6995 5.29676 31.021C3.61779 29.3424 2.28587 27.3496 1.37705 25.1564C0.468232 22.9631 0.00030927 20.6123 0 18.2382C-1.62703e-07 13.4436 1.9043 8.84538 5.29412 5.45468C8.68394 2.06398 13.2817 0.158476 18.0762 0.157227H18.0951C22.886 0.163465 27.4787 2.07038 30.865 5.45938C34.2514 8.84839 36.1547 13.4426 36.1572 18.2335ZM18.1257 1.54209C13.6912 1.53772 9.43647 3.29497 6.29746 6.42735C3.15846 9.55974 1.39221 13.8107 1.38722 18.2452C1.34011 27.4306 8.8391 34.9672 18.0857 34.9672C20.2818 34.97 22.457 34.5402 24.487 33.7022C26.5171 32.8643 28.3622 31.6347 29.9169 30.0836C31.4717 28.5326 32.7057 26.6904 33.5485 24.6624C34.3913 22.6344 34.8264 20.4602 34.8288 18.2641C34.8313 16.0681 34.4012 13.8932 33.5632 11.8634C32.7251 9.83366 31.4954 7.98886 29.9444 6.43433C28.3934 4.8798 26.5513 3.64598 24.5235 2.80334C22.4956 1.9607 20.3217 1.52572 18.1257 1.52325V1.54209Z" fill="#095587"/>
<path d="M96.8486 16.3799H99.9551C100.169 16.3799 100.224 16.4364 100.221 16.6484V22.7225C100.221 22.801 100.205 22.8787 100.174 22.9508C100.143 23.0229 100.097 23.0879 100.04 23.1417C98.3441 24.9741 96.2433 25.8125 93.7562 25.7324C92.5876 25.7231 91.4304 25.5013 90.3411 25.0777C89.3398 24.6893 88.4457 24.0674 87.7333 23.2636C87.0209 22.4598 86.5108 21.4975 86.2454 20.4568C85.5816 18.2399 85.7741 15.8545 86.7848 13.7727C87.9318 11.3798 89.8748 10.0044 92.4797 9.60397C95.0845 9.20358 97.4421 9.81358 99.4699 11.547C99.8821 11.9003 99.8821 11.9027 99.5218 12.2889C99.0389 12.8047 98.5467 13.3111 98.0757 13.8363C97.9273 14.0011 97.8401 13.987 97.6847 13.8504C96.215 12.6116 94.5452 12.1405 92.6822 12.6116C90.6355 13.1203 89.4933 14.5358 89.0505 16.5448C88.8175 17.5505 88.8525 18.5997 89.1518 19.5877C89.6487 21.1869 90.7015 22.235 92.3242 22.6495C94.02 23.0875 95.6451 22.9557 97.1124 21.884C97.1949 21.8345 97.2619 21.7627 97.3056 21.6769C97.3494 21.5911 97.3681 21.4948 97.3597 21.3989C97.3455 20.7323 97.3479 20.0635 97.3597 19.3946C97.3597 19.2062 97.3055 19.1591 97.1241 19.1591H93.735C93.5207 19.1591 93.4453 19.1143 93.45 18.8835C93.4665 18.1204 93.4618 17.3573 93.45 16.5942C93.45 16.4082 93.5018 16.3587 93.6855 16.3587C94.7407 16.3799 95.7958 16.3799 96.8486 16.3799Z" fill="#1174B6"/>
<path d="M118.269 15.7345C118.486 15.5414 118.667 15.353 118.877 15.1999C120.29 14.1613 121.849 14.0576 123.47 14.5381C124.487 14.852 125.389 15.4614 126.06 16.2887C126.731 17.1161 127.141 18.1241 127.238 19.1849C127.403 20.4593 127.185 21.7538 126.611 22.9038C125.716 24.6278 124.256 25.4945 122.344 25.683C121.34 25.8017 120.322 25.6555 119.393 25.259C118.984 25.0723 118.613 24.8112 118.3 24.4889V29.3641C118.3 29.5997 118.234 29.6468 118.017 29.6421C117.245 29.6421 116.472 29.6279 115.7 29.6421C115.45 29.6421 115.368 29.5879 115.37 29.3194C115.379 25.2794 115.379 21.2402 115.37 17.2018V14.743C115.37 14.5593 115.417 14.5075 115.606 14.5075H117.895C118.057 14.5075 118.13 14.5475 118.13 14.7242C118.173 15.0468 118.227 15.3789 118.269 15.7345ZM124.357 19.9928C124.383 18.2758 123.222 17.077 121.456 17.0723C119.652 17.0723 118.54 18.3182 118.533 19.9857C118.51 20.7417 118.788 21.4758 119.306 22.0269C119.824 22.578 120.54 22.901 121.296 22.925H121.463C123.137 22.9226 124.357 21.6956 124.357 19.9928Z" fill="#1174B6"/>
<path d="M49.1108 25.829C48.016 25.8535 46.9252 25.6886 45.8866 25.3415C44.9066 25.0262 44.0096 24.4955 43.2613 23.7884C42.5131 23.0814 41.9326 22.2158 41.5624 21.2552C40.5473 18.7092 40.6203 16.1703 41.8851 13.7185C43.0627 11.4716 44.968 10.2257 47.441 9.81828C49.2211 9.47861 51.0635 9.73176 52.686 10.539C53.4321 10.9223 54.1197 11.41 54.728 11.9874C54.8434 12.0958 54.8576 12.1546 54.728 12.27C54.1157 12.8541 53.5033 13.4477 52.9074 14.0435C52.7426 14.2084 52.6719 14.093 52.573 14.0011C50.7194 12.3525 47.6271 12.263 45.7429 13.7939C45.0391 14.3702 44.5206 15.141 44.252 16.0101C43.8689 17.1623 43.8532 18.405 44.2073 19.5665C44.7561 21.4083 46.2681 22.6071 48.2111 22.812C49.0344 22.9216 49.8716 22.8521 50.6655 22.6082C51.4594 22.3643 52.1912 21.9518 52.8109 21.3988C52.931 21.2952 52.9899 21.3235 53.0841 21.42C53.6886 22.0481 54.2986 22.6761 54.9141 23.3042C55.0342 23.4267 55.0059 23.4903 54.8976 23.5915C53.6379 24.7853 52.0278 25.5424 50.3049 25.7513C49.9086 25.7984 49.51 25.8244 49.1108 25.829Z" fill="#1174B6"/>
<path d="M110.617 24.2158C110.283 24.6384 109.868 24.99 109.397 25.25C108.925 25.5101 108.406 25.6733 107.871 25.7302C105.137 26.0576 102.185 24.7881 101.641 21.2129C101.443 20.0869 101.517 18.9298 101.856 17.8379C102.539 15.7582 104.023 14.6254 106.147 14.3051C107.2 14.1063 108.288 14.2387 109.263 14.6843C109.766 14.9217 110.209 15.2704 110.558 15.7041C110.587 15.3343 110.617 15.0305 110.631 14.7243C110.631 14.5712 110.685 14.5147 110.848 14.5147C111.646 14.5147 112.447 14.5288 113.246 14.5147C113.507 14.5147 113.446 14.6748 113.446 14.8114V25.3439C113.446 25.4923 113.373 25.5088 113.253 25.5088H110.89C110.737 25.5088 110.7 25.4405 110.693 25.3063C110.674 24.953 110.655 24.6232 110.617 24.2158ZM104.458 19.6773C104.458 22.1997 106.253 23.6082 108.361 23.05C109.538 22.7391 110.311 21.8017 110.481 20.4357C110.615 19.2581 110.294 18.21 109.303 17.487C108.846 17.1462 108.305 16.9381 107.737 16.8857C107.17 16.8334 106.599 16.9387 106.088 17.1902C105.602 17.3981 105.187 17.7451 104.897 18.1875C104.607 18.63 104.455 19.1483 104.458 19.6773Z" fill="#1174B6"/>
<path d="M135.783 21.0904H131.852C131.59 21.0904 131.548 21.1587 131.633 21.3966C131.762 21.773 131.985 22.1104 132.28 22.3772C132.576 22.6441 132.934 22.8318 133.321 22.9228C134.012 23.1375 134.745 23.1792 135.455 23.0441C136.166 22.909 136.832 22.6012 137.396 22.1479C137.49 22.0749 137.542 22.0655 137.631 22.1479C138.181 22.7038 138.73 23.2533 139.28 23.7966C139.414 23.9285 139.304 23.9897 139.228 24.0627C138.504 24.7575 137.611 25.2512 136.637 25.4947C135.19 25.9188 133.649 25.8926 132.217 25.4193C130.132 24.7127 128.981 23.2125 128.644 21.0669C128.451 19.9956 128.532 18.8931 128.879 17.8614C129.635 15.7418 131.192 14.6113 133.373 14.2933C134.429 14.1245 135.51 14.2052 136.529 14.5288C138.373 15.1294 139.421 16.4436 139.826 18.2972C139.998 19.128 140.043 19.9801 139.958 20.8243C139.942 21.0198 139.885 21.0598 139.695 21.0598C138.394 21.0763 137.085 21.0904 135.783 21.0904ZM131.644 18.6387H136.798C136.835 18.6363 136.873 18.6363 136.911 18.6387C137.087 18.6575 137.085 18.5704 137.047 18.4361C136.971 18.104 136.81 17.7975 136.579 17.5464C136.349 17.2954 136.057 17.1085 135.733 17.0041C134.929 16.7145 134.048 16.7145 133.244 17.0041C132.868 17.13 132.527 17.3427 132.248 17.6251C131.97 17.9074 131.762 18.2515 131.642 18.6292L131.644 18.6387Z" fill="#1174B6"/>
<path d="M60.8468 25.7302C60.0268 25.7393 59.216 25.5559 58.4797 25.1947C57.7435 24.8335 57.1022 24.3046 56.6074 23.6505C54.695 21.1493 55.2155 17.1949 57.6744 15.3673C60.5359 13.2476 65.8799 14.1025 66.7419 18.9284C67.1305 21.0999 66.5818 23.05 64.8248 24.5173C63.7673 25.3981 62.4955 25.7302 60.8468 25.7302ZM58.3173 19.9599C58.3104 20.2897 58.3501 20.6187 58.4351 20.9373C58.7107 21.9972 59.3489 22.7438 60.4347 22.9746C61.5204 23.2054 62.5072 22.9911 63.2397 22.0961C63.561 21.7026 63.7833 21.2379 63.8882 20.7409C63.9931 20.2439 63.9775 19.729 63.8427 19.2392C63.4705 17.6283 62.048 16.6744 60.4064 17.0583C59.2382 17.3221 58.3527 18.4526 58.3173 19.9505V19.9599Z" fill="#1174B6"/>
<path d="M76.1557 15.8075C76.3653 15.6356 76.5373 15.4919 76.7139 15.353C78.982 13.5536 83.0942 14.1283 84.0151 18.0214C84.1593 18.6739 84.2265 19.3411 84.2152 20.0092V25.2355C84.2152 25.471 84.1729 25.5628 83.9114 25.5558C83.1389 25.5369 82.3664 25.5416 81.5963 25.5558C81.3937 25.5558 81.3466 25.4969 81.3466 25.3038V19.7384C81.3537 19.3332 81.2899 18.9299 81.1582 18.5467C81.0379 18.1416 80.8029 17.7801 80.4814 17.5059C80.16 17.2317 79.766 17.0566 79.347 17.0016C78.8778 16.9031 78.3899 16.9453 77.9445 17.123C77.4991 17.3006 77.1161 17.6058 76.8434 18.0002C76.4496 18.5695 76.252 19.2516 76.2805 19.9433V25.1978C76.2805 25.4333 76.2358 25.5063 75.9909 25.4992C75.1995 25.4851 74.4082 25.4992 73.6192 25.4992C73.419 25.4992 73.3695 25.4427 73.3695 25.2472V14.7406C73.3695 14.5616 73.4095 14.5051 73.605 14.5051H75.7506C75.9508 14.5051 76.0073 14.5758 76.0238 14.7548C76.0686 15.0892 76.1133 15.4378 76.1557 15.8075Z" fill="#1174B6"/>
<path d="M68.4236 19.9645V14.71C68.4236 14.5098 68.4589 14.4368 68.6803 14.4391C69.4905 14.4556 70.2983 14.4391 71.1085 14.4391C71.2804 14.4391 71.344 14.4839 71.344 14.6605V25.193C71.344 25.4003 71.271 25.4286 71.085 25.4286H68.6732C68.473 25.4286 68.4212 25.372 68.4236 25.1765V19.9645Z" fill="#1174B6"/>
<path d="M71.5442 11.6224C71.543 11.8427 71.4983 12.0606 71.4127 12.2636C71.3271 12.4666 71.2023 12.6508 71.0454 12.8054C70.8886 12.9601 70.7027 13.0823 70.4985 13.1651C70.2943 13.2478 70.0758 13.2894 69.8555 13.2876C69.411 13.2838 68.986 13.104 68.6739 12.7874C68.3618 12.4709 68.1879 12.0434 68.1904 11.5989C68.1941 11.1576 68.3714 10.7355 68.6839 10.4239C68.9963 10.1123 69.4189 9.93621 69.8602 9.93375C70.072 9.92426 70.2835 9.95658 70.4827 10.0289C70.6819 10.1011 70.865 10.212 71.0213 10.355C71.1777 10.4981 71.3044 10.6705 71.3941 10.8625C71.4838 11.0545 71.5348 11.2623 71.5442 11.4741C71.5536 11.5243 71.5536 11.5738 71.5442 11.6224Z" fill="#1174B6"/>
<path d="M18.1257 1.54211C20.3219 1.54459 22.496 1.97964 24.524 2.82243C26.5521 3.66522 28.3942 4.89924 29.9452 6.45402C31.4963 8.0088 32.7259 9.85389 33.5639 11.8839C34.4018 13.9139 34.8316 16.0891 34.8288 18.2853C34.8232 22.7186 33.0574 26.9683 29.9194 30.1C26.7815 33.2317 22.5284 34.9892 18.0951 34.9861C8.84853 34.9649 1.34954 27.4494 1.39664 18.2641C1.39664 13.8292 3.15842 9.57585 6.2944 6.43987C9.43038 3.30389 13.6837 1.54211 18.1186 1.54211H18.1257ZM2.34579 18.2641C2.34579 22.4415 4.00494 26.4479 6.95837 29.4022C9.9118 32.3565 13.9177 34.0169 18.0951 34.0181C20.1637 34.0187 22.2122 33.6118 24.1235 32.8206C26.0349 32.0294 27.7716 30.8694 29.2346 29.4069C30.6975 27.9444 31.858 26.208 32.6498 24.2969C33.4416 22.3858 33.8491 20.3374 33.8491 18.2688C33.8497 14.0957 32.1943 10.0929 29.2464 7.13918C26.2984 4.18547 22.2988 2.5223 18.1257 2.51481C16.0579 2.51017 14.0094 2.9129 12.0973 3.69999C10.1851 4.48709 8.44674 5.64315 6.98141 7.10214C5.51608 8.56112 4.3525 10.2945 3.55711 12.2032C2.76173 14.1119 2.35012 16.1586 2.34579 18.2264V18.2641Z" fill="white"/>
<path d="M2.35285 18.2641C2.35597 14.0867 4.01811 10.0815 6.97375 7.12943C9.92939 4.17732 13.9365 2.51998 18.1139 2.52185C20.1825 2.52278 22.2307 2.93122 24.1415 3.72385C26.0522 4.51648 27.7881 5.67776 29.2499 7.14137C30.7118 8.60498 31.871 10.3422 32.6613 12.2539C33.4517 14.1656 33.8577 16.2143 33.8561 18.2829C33.8549 20.3514 33.4462 22.3995 32.6535 24.3101C31.8608 26.2207 30.6995 27.9564 29.2359 29.4182C27.7724 30.88 26.0352 32.0393 24.1237 32.8297C22.2121 33.6202 20.1636 34.0264 18.0951 34.0251C16.0264 34.0242 13.9783 33.6158 12.0675 32.8231C10.1568 32.0305 8.42091 30.8692 6.95905 29.4056C5.49718 27.942 4.33798 26.2047 3.54763 24.293C2.75729 22.3814 2.3513 20.3327 2.35285 18.2641ZM23.0551 24.576C21.289 25.5918 19.2419 26.0098 17.2189 25.7678C14.7413 25.4993 12.9796 24.1733 11.9974 21.9123C11.1378 19.9551 11.1284 17.9084 11.5947 15.8476C12.3366 12.588 15.0192 10.4448 18.3541 10.3883C19.9007 10.342 21.4333 10.6931 22.8055 11.4081C22.9751 11.4976 23.041 11.4811 23.0269 11.2785V9.39435C23.0402 9.3168 23.0232 9.23708 22.9794 9.17174C22.9355 9.10639 22.8682 9.06044 22.7914 9.04342C22.0371 8.74714 21.2437 8.56229 20.4361 8.49466C20.1441 8.47111 20.0876 8.37455 20.0923 8.10605C20.1088 7.0886 20.0923 6.07115 20.0923 5.04428C20.0923 4.86528 20.0522 4.80876 19.8568 4.80876C19.4352 4.82289 19.0112 4.82525 18.5873 4.80876C18.3895 4.80876 18.3329 4.85822 18.3353 5.05841V7.88466C18.3353 8.3557 18.3353 8.35571 17.8807 8.38397C17.7581 8.38673 17.636 8.40013 17.5157 8.42401C17.2943 8.47347 17.2519 8.38397 17.2543 8.17671V5.09609C17.2543 4.88413 17.2142 4.79934 16.9811 4.81111C16.5901 4.82995 16.1968 4.82995 15.8035 4.81111C15.5679 4.79934 15.502 4.85822 15.5043 5.10081C15.5185 6.24073 15.5043 7.37829 15.5043 8.51821C15.5195 8.60221 15.5007 8.68877 15.4521 8.75895C15.4036 8.82913 15.3292 8.87722 15.2453 8.89269C13.9686 9.3226 12.8052 10.0345 11.8414 10.9755C10.8775 11.9166 10.1379 13.0626 9.67755 14.3285C8.9053 16.3675 8.73526 18.5854 9.18767 20.7182C9.86361 24.1662 11.8279 26.5144 15.2759 27.4941C15.3436 27.5007 15.406 27.5334 15.45 27.5853C15.494 27.6372 15.516 27.7042 15.5114 27.7721C15.5114 27.7721 15.5114 27.7885 15.5114 27.798V31.1612C15.5114 31.3779 15.5726 31.432 15.7799 31.4226C16.1638 31.4061 16.5524 31.4038 16.9363 31.4226C17.1718 31.4226 17.2755 31.3779 17.2684 31.1047C17.2495 30.212 17.2684 29.3171 17.2684 28.4221C17.2684 27.8074 17.2684 27.8074 17.8925 27.8074C17.9584 27.8121 18.0245 27.8121 18.0904 27.8074C18.307 27.7697 18.3541 27.8616 18.3518 28.0688C18.34 29.1051 18.3518 30.1414 18.34 31.1777C18.34 31.3944 18.4012 31.4462 18.6085 31.4368C19.023 31.4203 19.4375 31.4226 19.8497 31.4368C20.0546 31.4368 20.0994 31.3755 20.0852 31.1824V27.9628C20.0852 27.7085 20.17 27.6307 20.4008 27.5931C21.2472 27.4592 22.0688 27.1996 22.8385 26.8229C22.9327 26.7782 23.0434 26.7522 23.041 26.5874C23.041 25.9161 23.041 25.259 23.041 24.5643L23.0551 24.576ZM22.2685 15.2894C22.2685 14.5617 22.2685 13.8928 22.2685 13.2263C22.2807 13.176 22.2827 13.1238 22.2744 13.0727C22.2662 13.0216 22.2478 12.9727 22.2204 12.9289C22.1929 12.885 22.157 12.847 22.1147 12.8172C22.0725 12.7874 22.0246 12.7663 21.9741 12.7552H21.9317C20.527 12.3426 19.0475 12.2516 17.6028 12.4891C15.5091 12.8565 13.9805 13.9941 13.1279 15.9654C12.6569 17.0723 12.598 18.2429 12.7087 19.4299C12.7878 20.4695 13.1821 21.4603 13.8391 22.2699C14.496 23.0796 15.3842 23.6697 16.3852 23.9613C17.4859 24.2627 18.6354 24.3427 19.7673 24.1968C20.7417 24.113 21.6921 23.8486 22.57 23.4173C22.6419 23.3952 22.7043 23.3494 22.7471 23.2874C22.7898 23.2255 22.8104 23.1509 22.8055 23.0758V17.7082C22.8055 17.5269 22.7584 17.4727 22.57 17.4727H18.1328C17.9373 17.4727 17.8972 17.5387 17.8972 17.7082C17.9114 18.2358 17.9114 18.7634 17.8972 19.2909C17.8972 19.4817 17.9349 19.55 18.1328 19.5453C18.7239 19.5312 19.3104 19.5453 19.9109 19.5453C20.1158 19.5453 20.1912 19.5853 20.1841 19.8067C20.1677 20.3885 20.17 20.9843 20.1841 21.5567C20.1965 21.6321 20.1788 21.7095 20.1347 21.772C20.0907 21.8345 20.0239 21.8773 19.9486 21.8911C19.4203 22.034 18.8702 22.0779 18.3259 22.0206C17.6956 21.9883 17.0916 21.7575 16.6005 21.3611C16.1093 20.9647 15.7561 20.4231 15.5915 19.8138C15.3993 19.1247 15.3433 18.4047 15.4266 17.6941C15.4812 16.9941 15.7494 16.3277 16.1951 15.7852C16.6408 15.2426 17.2423 14.8501 17.9184 14.6606C18.6739 14.492 19.4554 14.476 20.2171 14.6135C20.9349 14.7073 21.6285 14.9358 22.2614 15.2871L22.2685 15.2894Z" fill="#1174B6"/>
<path d="M23.0552 24.5643V26.5733C23.0552 26.7311 22.9468 26.757 22.8526 26.8088C22.083 27.1855 21.2614 27.4451 20.415 27.5789C20.1795 27.6166 20.097 27.6943 20.0994 27.9487C20.1182 29.0203 20.0994 30.0943 20.0994 31.1683C20.0994 31.3614 20.057 31.4321 19.8639 31.4226C19.4517 31.4085 19.0372 31.4062 18.6227 31.4226C18.4154 31.4226 18.3518 31.3802 18.3542 31.1636C18.3683 30.1273 18.3542 29.091 18.3659 28.0547C18.3659 27.8474 18.3212 27.7556 18.1045 27.7933C18.0387 27.798 17.9725 27.798 17.9067 27.7933C17.2825 27.7933 17.2825 27.7933 17.2825 28.408C17.2825 29.303 17.2825 30.1979 17.2825 31.0906C17.2825 31.3638 17.1978 31.4203 16.9505 31.4085C16.5666 31.3897 16.178 31.392 15.7941 31.4085C15.5868 31.4085 15.5232 31.3638 15.5256 31.1471C15.5256 30.026 15.5256 28.9049 15.5256 27.7838C15.5317 27.7503 15.5311 27.7158 15.5238 27.6825C15.5166 27.6492 15.5029 27.6176 15.4834 27.5896C15.4639 27.5616 15.4391 27.5377 15.4104 27.5193C15.3816 27.5009 15.3495 27.4883 15.3159 27.4824H15.29C11.842 26.5026 9.87305 24.1545 9.20182 20.7064C8.74941 18.5736 8.91945 16.3557 9.6917 14.3168C10.1528 13.0494 10.8936 11.9023 11.8592 10.9607C12.8248 10.0192 13.9902 9.30752 15.2688 8.87858C15.3105 8.87121 15.3504 8.85564 15.386 8.83278C15.4217 8.80992 15.4524 8.78022 15.4765 8.74539C15.5006 8.71057 15.5176 8.67131 15.5264 8.62989C15.5352 8.58848 15.5357 8.54572 15.5279 8.5041V5.08669C15.5279 4.85117 15.5962 4.78522 15.827 4.797C16.2203 4.81584 16.6137 4.81584 17.0046 4.797C17.2402 4.78522 17.2802 4.87001 17.2778 5.08198V8.16259C17.2778 8.36985 17.3179 8.45935 17.5393 8.40989C17.6596 8.38601 17.7817 8.37261 17.9043 8.36985C18.3589 8.33923 18.3589 8.33923 18.3589 7.87055V5.04429C18.3589 4.8441 18.413 4.78758 18.6109 4.79464C19.0348 4.81113 19.4588 4.80877 19.8803 4.79464C20.0735 4.79464 20.1159 4.85823 20.1159 5.03016V8.09194C20.1159 8.36043 20.1677 8.45699 20.4597 8.48054C21.2673 8.54817 22.0607 8.73303 22.8149 9.02931C22.8918 9.04633 22.9591 9.09228 23.003 9.15762C23.0468 9.22296 23.0638 9.30268 23.0505 9.38024C23.0505 10.0114 23.0505 10.6426 23.0505 11.2644C23.0505 11.467 22.9986 11.4834 22.8291 11.3939C21.4548 10.6778 19.9196 10.3267 18.3707 10.3741C15.0333 10.4212 12.3437 12.5739 11.6018 15.8382C11.1307 17.892 11.1449 19.9457 12.0045 21.9029C12.9984 24.1592 14.7483 25.4946 17.226 25.7537C19.2464 25.9942 21.2905 25.5771 23.0552 24.5643Z" fill="white"/>
<path d="M22.2614 15.2776C21.6337 14.9238 20.945 14.6913 20.2312 14.5922C19.4695 14.4547 18.688 14.4707 17.9326 14.6393C17.2516 14.8266 16.6452 15.2197 16.1962 15.7648C15.7472 16.3099 15.4776 16.9804 15.4243 17.6846C15.3409 18.3952 15.3969 19.1152 15.5891 19.8043C15.7542 20.4147 16.1084 20.9571 16.601 21.3536C17.0935 21.7501 17.699 21.9803 18.3306 22.0111C18.8749 22.0685 19.425 22.0245 19.9533 21.8816C20.0301 21.8722 20.1001 21.8327 20.1478 21.7717C20.1954 21.7108 20.217 21.6334 20.2077 21.5566C20.1936 20.9748 20.1912 20.379 20.2077 19.8067C20.2077 19.5853 20.1394 19.5405 19.9345 19.5452C19.341 19.5452 18.7569 19.5452 18.1563 19.5452C17.949 19.5452 17.9067 19.4816 17.9208 19.2909C17.9349 18.7633 17.9349 18.2357 17.9208 17.7082C17.9208 17.5315 17.9561 17.4726 18.1563 17.4726H22.57C22.7607 17.4726 22.8055 17.5339 22.8055 17.7082V23.0757C22.8104 23.1508 22.7898 23.2254 22.7471 23.2874C22.7043 23.3493 22.6419 23.3951 22.57 23.4172C21.69 23.8494 20.7371 24.1137 19.7602 24.1968C18.6284 24.3427 17.4788 24.2626 16.3781 23.9612C15.3793 23.6652 14.4944 23.0718 13.8414 22.2602C13.1883 21.4485 12.7981 20.4571 12.7228 19.418C12.6121 18.2404 12.6663 17.0628 13.1421 15.9535C13.9923 13.9822 15.5208 12.8447 17.617 12.4772C19.0616 12.2398 20.5412 12.3307 21.9458 12.7434C21.9967 12.7487 22.046 12.764 22.0909 12.7884C22.1357 12.8129 22.1753 12.846 22.2073 12.8859C22.2393 12.9258 22.263 12.9716 22.2772 13.0207C22.2913 13.0698 22.2956 13.1213 22.2897 13.172C22.2919 13.1861 22.2919 13.2004 22.2897 13.2144C22.2614 13.881 22.2614 14.5498 22.2614 15.2776Z" fill="white"/>
</svg>
