<svg width="140" height="21" viewBox="0 0 140 21" fill="none" xmlns="http://www.w3.org/2000/svg">
<path d="M8.48502 10.1801C9.75297 9.20085 10.4131 8.0796 9.82817 6.53658C9.21822 4.92674 7.87716 4.47156 6.34184 4.41101C5.05509 4.36089 3.76625 4.39848 2.47741 4.39848C1.65857 4.39848 0.839729 4.39848 0 4.39848V16.4566C2.44608 16.4566 4.77727 16.5151 7.10428 16.4378C8.85684 16.3793 10.177 15.0242 10.3149 13.3079C10.4298 11.8944 9.79684 10.8608 8.48502 10.1801ZM2.9683 7.09825C3.96678 7.09825 4.93811 7.00638 5.8781 7.14418C6.24366 7.19847 6.71366 7.71629 6.8181 8.10883C6.99357 8.76237 6.50895 9.13821 5.85722 9.15909C4.92766 9.18832 3.99811 9.16744 2.9683 9.16744V7.10033V7.09825ZM7.19828 12.6565C7.07085 13.0866 6.60921 13.665 6.21859 13.7213C5.17833 13.8696 4.10256 13.7715 2.98501 13.7715V11.7023C4.08585 11.7023 5.21802 11.6271 6.33139 11.7461C6.67188 11.7837 7.26303 12.4414 7.20036 12.6565H7.19828Z" fill="#9EB0CB"/>
<path d="M92.2804 10.2614C93.3666 9.23622 93.5943 7.95003 93.0888 6.5824C92.5916 5.23564 91.4511 4.5654 90.0913 4.5132C87.7392 4.42342 85.3808 4.48814 82.9327 4.48814V16.4272H85.8738V12.6563C87.3548 12.6563 88.7356 12.6292 90.1121 12.6898C90.296 12.6981 90.5947 13.1387 90.6093 13.3934C90.6678 14.3894 90.6323 15.3895 90.6323 16.4043H93.7802C93.1724 14.3121 94.6492 11.8963 92.2825 10.2635L92.2804 10.2614ZM89.051 9.88976C88.0254 9.9357 86.9955 9.90229 85.9198 9.90229V7.41133C87.0269 7.41133 88.0901 7.37165 89.1471 7.42594C89.8489 7.46144 90.3419 7.91244 90.3148 8.62862C90.2876 9.3615 89.8093 9.85844 89.051 9.89185V9.88976Z" fill="#9EB0CB"/>
<path d="M133.711 4.13106C130.076 4.10392 127.24 6.79116 127.196 10.4159C127.152 13.9697 129.83 16.6339 133.529 16.7174C137.204 16.8135 139.731 14.2891 139.98 11.0026C140.258 7.33195 137.626 4.16029 133.709 4.13315L133.711 4.13106ZM133.665 13.7692C131.683 13.7964 130.384 12.5018 130.35 10.4702C130.319 8.52628 131.603 7.1482 133.513 7.08556C135.439 7.02084 136.943 8.49287 136.963 10.4618C136.982 12.2784 135.518 13.7462 133.665 13.7713V13.7692Z" fill="#9EB0CB"/>
<path d="M11.7103 16.4272H21.0476V13.5166H14.8415V11.7773H20.1911V8.96684H14.8332V7.31732H21.0497V4.46722H11.7103V16.4293V16.4272Z" fill="#9EB0CB"/>
<path d="M75.8096 13.7586C74.4999 13.7586 73.468 13.2679 72.8893 11.9922C72.152 10.3719 72.6282 8.4238 74.0152 7.57399C75.3939 6.72835 77.3574 6.90374 78.1178 8.24006C78.757 9.36548 79.5612 9.40933 80.5743 9.35295C80.9545 9.33207 81.3368 9.34878 81.7921 9.34878C81.5039 5.89525 78.3058 3.86572 75.0952 4.17266C71.5733 4.51091 69.4615 7.10837 69.5304 11.1528C69.5805 14.0467 72.1415 16.5335 75.231 16.688C78.9178 16.8718 81.4329 14.9007 81.8339 11.4702H78.8405C78.3434 12.9526 77.3574 13.7565 75.8117 13.7565L75.8096 13.7586Z" fill="#9EB0CB"/>
<path d="M113.042 4.56327C110.715 4.32524 108.346 4.51107 105.969 4.51107V16.4418H108.895V12.9298C110.08 12.9298 111.147 12.9382 112.217 12.9298C114.349 12.9069 116.184 11.3054 116.372 9.31135C116.599 6.89973 115.296 4.79712 113.042 4.56536V4.56327ZM111.941 10.0881C111.734 10.109 111.527 10.1194 111.319 10.1236C109.539 10.1598 108.762 9.24175 108.989 7.36952C110.017 7.36952 110.986 7.33194 111.951 7.38205C112.731 7.42172 113.322 7.86855 113.315 8.67034C113.309 9.48048 112.797 10.0025 111.941 10.0881Z" fill="#9EB0CB"/>
<path d="M103.222 4.38367C102.238 4.25004 101.716 4.68225 101.279 5.52371C100.642 6.74936 99.8756 7.90819 99.0985 9.20066C98.2692 7.79127 97.5047 6.45496 96.6942 5.1437C96.5125 4.8493 96.1908 4.46719 95.9046 4.44005C94.9583 4.35026 93.9975 4.40664 92.8548 4.40664C94.2523 6.68255 95.4973 8.78515 96.8258 10.8335C97.3397 11.6269 97.5903 12.4099 97.5381 13.3516C97.4796 14.3747 97.5256 15.4041 97.5256 16.4376H100.475C100.525 16.304 100.588 16.21 100.594 16.114C100.615 15.8384 100.653 15.5544 100.617 15.283C100.316 13.0363 100.96 11.0986 102.292 9.27374C103.362 7.81006 104.212 6.18561 105.302 4.39829C104.44 4.39829 103.821 4.46511 103.222 4.38367Z" fill="#9EB0CB"/>
<path d="M127.367 4.4776H116.77V7.32979H120.532V16.4251H123.538V7.24836H127.365V4.47969L127.367 4.4776Z" fill="#9EB0CB"/>
<path d="M54.2753 8.17968C52.4121 8.53046 51.5327 7.56373 51.0856 5.93718C51.0585 5.83905 50.9875 5.75135 50.9561 5.65322C50.7681 5.02056 50.3336 4.80759 49.6924 4.81385C47.8124 4.83682 45.9324 4.83891 44.0524 4.81385C43.1855 4.80132 42.7803 5.10199 42.8137 6.03532C42.868 7.60131 42.8283 9.16939 42.8283 10.7375C42.8283 12.3744 42.845 14.0114 42.8199 15.6484C42.8074 16.4293 43.0936 16.8239 43.9187 16.778C44.5433 16.7446 45.1741 16.7383 45.7987 16.778C46.6447 16.8323 47.004 16.4982 46.9768 15.6275C46.935 14.2703 46.9538 12.9111 46.9685 11.5539C47.0061 8.2298 46.4253 8.60145 50.0997 8.5764C50.8788 8.57014 51.2214 8.85202 51.2005 9.68721C51.1525 11.6708 51.1984 13.6565 51.1796 15.6421C51.1734 16.4126 51.4512 16.8198 52.2784 16.7759C52.9385 16.7404 53.6027 16.7321 54.2628 16.778C55.1067 16.8365 55.3469 16.4481 55.3344 15.6589C55.301 13.5354 55.2947 11.4098 55.3365 9.28632C55.3511 8.48662 55.0879 8.02517 54.2753 8.1776V8.17968Z" fill="#E3EAF3"/>
<path d="M65.3527 10.3949C65.3527 9.07323 65.3527 7.75153 65.3527 6.42984C65.3527 4.85689 64.5749 4.06902 63.0194 4.06624C61.4381 4.06415 61.3253 3.98063 61.3483 2.43134C61.3901 -0.439639 61.1206 0.0405973 58.8688 0.0197175C56.7507 0.000925578 56.7486 0.0155435 56.7486 2.10979C56.7486 4.70725 56.5523 4.52559 59.0714 4.52142C59.1759 4.52142 59.2803 4.52768 59.3848 4.52142C60.2976 4.48592 60.7237 4.91396 60.7196 5.83685C60.707 8.89784 60.7112 11.9588 60.7175 15.0219C60.7175 15.878 60.3248 16.3165 59.4537 16.3102C58.8981 16.306 58.3403 16.3373 57.7847 16.3102C57.0807 16.2768 56.7528 16.5879 56.757 17.2874C56.7632 18.0537 56.7779 18.8199 56.7465 19.5821C56.7068 20.53 57.1351 20.9017 58.0688 20.8265C58.6913 20.7764 59.32 20.8223 59.9467 20.8161C61.152 20.8014 61.3295 20.6323 61.3421 19.4192C61.3692 16.7382 60.9514 16.7048 63.9845 16.7779C64.9872 16.803 65.3652 16.3373 65.359 15.4019C65.3485 13.7315 65.3569 12.0611 65.3569 10.3928L65.3527 10.3949Z" fill="#E3EAF3"/>
<path d="M31.7823 4.51723C34.8196 4.31678 34.8196 4.30217 34.6399 1.237C34.6399 1.20151 34.6399 1.1681 34.6399 1.1326C34.5982 0.387192 34.2472 -0.0137012 33.4555 0.0134426C32.762 0.0384985 32.0623 0.0531146 31.3708 0.00717893C30.3912 -0.0575486 30.0047 0.309938 30.0444 1.33305C30.1676 4.59449 29.7937 4.0704 27.3351 4.04743C26.3763 4.03908 26.0191 4.40866 26.0338 5.32946C26.0609 6.99776 26.0421 8.66815 26.04 10.3364C26.04 11.5537 26.0358 12.771 26.04 13.9883C26.0463 17.0702 25.7956 16.7946 28.7514 16.757C29.6642 16.7445 29.9901 17.185 30.059 17.9952C30.1342 18.8784 29.9128 20.1437 30.3974 20.5404C30.9802 21.0186 32.1688 20.7952 33.0963 20.8098C34.4937 20.8328 34.6378 20.6636 34.6441 19.2501C34.6441 19.0413 34.6441 18.8325 34.6441 18.6237C34.6441 17.0911 33.8956 16.3206 32.3986 16.3123C32.2252 16.3123 32.0518 16.3102 31.8763 16.3081C31.045 16.2977 30.6188 15.9427 30.6272 15.0428C30.6523 11.9484 30.6481 8.85189 30.6272 5.75749C30.6209 4.93065 30.9593 4.56943 31.7865 4.51514L31.7823 4.51723Z" fill="#E3EAF3"/>
<path d="M37.2323 4.85558C36.3362 4.85976 36.0876 5.21472 36.1064 6.03738C36.144 7.63678 36.1168 9.23827 36.1168 10.8377C36.1168 11.9172 36.1126 12.9946 36.1168 14.074C36.1294 17.2436 35.8432 16.7341 38.8595 16.7696C40.1149 16.7842 40.2319 16.6631 40.2361 15.4062C40.2444 12.8672 40.2382 10.3261 40.2403 7.78711C40.2403 4.81382 40.2403 4.84305 37.2323 4.85767V4.85558Z" fill="#E3EAF3"/>
</svg>
