<svg width="140" height="22" viewBox="0 0 140 22" fill="none" xmlns="http://www.w3.org/2000/svg">
<path d="M8.48502 11.0295C9.75297 10.0502 10.4131 8.92897 9.82817 7.38594C9.21822 5.77611 7.87716 5.32092 6.34184 5.26037C5.05509 5.21026 3.76625 5.24784 2.47741 5.24784C1.65857 5.24784 0.839729 5.24784 0 5.24784V17.306C2.44608 17.306 4.77727 17.3644 7.10428 17.2872C8.85684 17.2287 10.177 15.8736 10.3149 14.1573C10.4298 12.7437 9.79684 11.7102 8.48502 11.0295ZM2.9683 7.94761C3.96678 7.94761 4.93811 7.85574 5.8781 7.99355C6.24366 8.04784 6.71366 8.56566 6.8181 8.9582C6.99357 9.61174 6.50895 9.98758 5.85722 10.0085C4.92766 10.0377 3.99811 10.0168 2.9683 10.0168V7.9497V7.94761ZM7.19828 13.5058C7.07085 13.936 6.60921 14.5143 6.21859 14.5707C5.17833 14.719 4.10256 14.6208 2.98501 14.6208V12.5516C4.08585 12.5516 5.21802 12.4765 6.33139 12.5955C6.67188 12.6331 7.26303 13.2908 7.20036 13.5058H7.19828Z" fill="black"/>
<path d="M92.2804 11.1108C93.3666 10.0856 93.5943 8.79939 93.0888 7.43176C92.5916 6.08501 91.4511 5.41476 90.0913 5.36256C87.7392 5.27278 85.3808 5.33751 82.9327 5.33751V17.2766H85.8738V13.5057C87.3548 13.5057 88.7356 13.4786 90.1121 13.5391C90.296 13.5475 90.5947 13.988 90.6093 14.2428C90.6678 15.2387 90.6323 16.2389 90.6323 17.2536H93.7802C93.1724 15.1615 94.6492 12.7457 92.2825 11.1129L92.2804 11.1108ZM89.051 10.7391C88.0254 10.7851 86.9955 10.7517 85.9198 10.7517V8.26069C87.0269 8.26069 88.0901 8.22102 89.1471 8.27531C89.8489 8.3108 90.3419 8.7618 90.3148 9.47798C90.2876 10.2109 89.8093 10.7078 89.051 10.7412V10.7391Z" fill="black"/>
<path d="M133.711 4.98043C130.076 4.95328 127.24 7.64052 127.196 11.2653C127.152 14.819 129.83 17.4833 133.529 17.5668C137.204 17.6629 139.731 15.1385 139.98 11.852C140.258 8.18131 137.626 5.00966 133.709 4.98252L133.711 4.98043ZM133.665 14.6186C131.683 14.6457 130.384 13.3512 130.35 11.3196C130.319 9.37564 131.603 7.99757 133.513 7.93493C135.439 7.8702 136.943 9.34223 136.963 11.3112C136.982 13.1278 135.518 14.5956 133.665 14.6207V14.6186Z" fill="black"/>
<path d="M11.7103 17.2766H21.0476V14.3659H14.8415V12.6266H20.1911V9.8162H14.8332V8.16669H21.0497V5.31659H11.7103V17.2787V17.2766Z" fill="black"/>
<path d="M75.8096 14.608C74.4999 14.608 73.468 14.1173 72.8893 12.8415C72.152 11.2213 72.6282 9.27316 74.0152 8.42335C75.3939 7.57772 77.3574 7.75311 78.1178 9.08942C78.757 10.2148 79.5612 10.2587 80.5743 10.2023C80.9545 10.1814 81.3368 10.1981 81.7921 10.1981C81.5039 6.74461 78.3058 4.71509 75.0952 5.02202C71.5733 5.36027 69.4615 7.95773 69.5304 12.0022C69.5805 14.8961 72.1415 17.3829 75.231 17.5374C78.9178 17.7212 81.4329 15.7501 81.8339 12.3195H78.8405C78.3434 13.802 77.3574 14.6059 75.8117 14.6059L75.8096 14.608Z" fill="black"/>
<path d="M113.042 5.41264C110.715 5.17461 108.346 5.36044 105.969 5.36044V17.2912H108.895V13.7792C110.08 13.7792 111.147 13.7875 112.217 13.7792C114.349 13.7562 116.184 12.1547 116.372 10.1607C116.599 7.74909 115.296 5.64649 113.042 5.41472V5.41264ZM111.941 10.9374C111.734 10.9583 111.527 10.9688 111.319 10.9729C109.539 11.0091 108.762 10.0911 108.989 8.21889C110.017 8.21889 110.986 8.18131 111.951 8.23142C112.731 8.27109 113.322 8.71792 113.315 9.5197C113.309 10.3298 112.797 10.8518 111.941 10.9374Z" fill="black"/>
<path d="M103.222 5.23304C102.238 5.09941 101.716 5.53162 101.279 6.37308C100.642 7.59873 99.8756 8.75756 99.0985 10.05C98.2692 8.64063 97.5047 7.30432 96.6942 5.99307C96.5125 5.69866 96.1908 5.31656 95.9046 5.28941C94.9583 5.19963 93.9975 5.25601 92.8548 5.25601C94.2523 7.53191 95.4973 9.63452 96.8258 11.6828C97.3397 12.4763 97.5903 13.2593 97.5381 14.2009C97.4796 15.2241 97.5256 16.2534 97.5256 17.287H100.475C100.525 17.1534 100.588 17.0594 100.594 16.9633C100.615 16.6877 100.653 16.4038 100.617 16.1323C100.316 13.8857 100.96 11.948 102.292 10.1231C103.362 8.65943 104.212 7.03497 105.302 5.24765C104.44 5.24765 103.821 5.31447 103.222 5.23304Z" fill="black"/>
<path d="M127.367 5.32697H116.77V8.17916H120.532V17.2744H123.538V8.09772H127.365V5.32905L127.367 5.32697Z" fill="black"/>
<path d="M54.2753 9.02905C52.4121 9.37983 51.5327 8.41309 51.0856 6.78655C51.0585 6.68841 50.9875 6.60072 50.9561 6.50258C50.7681 5.86992 50.3336 5.65695 49.6924 5.66322C47.8124 5.68618 45.9324 5.68827 44.0524 5.66322C43.1855 5.65069 42.7803 5.95136 42.8137 6.88469C42.868 8.45068 42.8283 10.0188 42.8283 11.5868C42.8283 13.2238 42.845 14.8608 42.8199 16.4978C42.8074 17.2787 43.0936 17.6733 43.9187 17.6274C44.5433 17.594 45.1741 17.5877 45.7987 17.6274C46.6447 17.6817 47.004 17.3476 46.9768 16.4769C46.935 15.1197 46.9538 13.7604 46.9685 12.4032C47.0061 9.07916 46.4253 9.45082 50.0997 9.42576C50.8788 9.4195 51.2214 9.70138 51.2005 10.5366C51.1525 12.5202 51.1984 14.5058 51.1796 16.4915C51.1734 17.262 51.4512 17.6691 52.2784 17.6253C52.9385 17.5898 53.6027 17.5814 54.2628 17.6274C55.1067 17.6858 55.3469 17.2975 55.3344 16.5082C55.301 14.3847 55.2947 12.2592 55.3365 10.1357C55.3511 9.33598 55.0879 8.87454 54.2753 9.02696V9.02905Z" fill="#1760FA"/>
<path d="M65.3527 11.2443C65.3527 9.92259 65.3527 8.6009 65.3527 7.2792C65.3527 5.70625 64.5749 4.91839 63.0194 4.9156C61.4381 4.91351 61.3253 4.82999 61.3483 3.28071C61.3901 0.409726 61.1206 0.889963 58.8688 0.869083C56.7507 0.850291 56.7486 0.864909 56.7486 2.95916C56.7486 5.55661 56.5523 5.37496 59.0714 5.37078C59.1759 5.37078 59.2803 5.37705 59.3848 5.37078C60.2976 5.33529 60.7237 5.76332 60.7196 6.68621C60.707 9.7472 60.7112 12.8082 60.7175 15.8713C60.7175 16.7273 60.3248 17.1658 59.4537 17.1596C58.8981 17.1554 58.3403 17.1867 57.7847 17.1596C57.0807 17.1261 56.7528 17.4373 56.757 18.1367C56.7632 18.903 56.7779 19.6693 56.7465 20.4314C56.7068 21.3794 57.1351 21.751 58.0688 21.6759C58.6913 21.6258 59.32 21.6717 59.9467 21.6654C61.152 21.6508 61.3295 21.4817 61.3421 20.2686C61.3692 17.5876 60.9514 17.5542 63.9845 17.6273C64.9872 17.6523 65.3652 17.1867 65.359 16.2513C65.3485 14.5809 65.3569 12.9105 65.3569 11.2422L65.3527 11.2443Z" fill="#1760FA"/>
<path d="M31.7823 5.3666C34.8196 5.16615 34.8196 5.15153 34.6399 2.08637C34.6399 2.05087 34.6399 2.01746 34.6399 1.98197C34.5982 1.23656 34.2472 0.835664 33.4555 0.862808C32.762 0.887864 32.0623 0.90248 31.3708 0.856544C30.3912 0.791817 30.0047 1.1593 30.0444 2.18242C30.1676 5.44385 29.7937 4.91977 27.3351 4.8968C26.3763 4.88845 26.0191 5.25802 26.0338 6.17882C26.0609 7.84712 26.0421 9.51751 26.04 11.1858C26.04 12.4031 26.0358 13.6204 26.04 14.8377C26.0463 17.9196 25.7956 17.644 28.7514 17.6064C29.6642 17.5938 29.9901 18.0344 30.059 18.8445C30.1342 19.7278 29.9128 20.9931 30.3974 21.3898C30.9802 21.868 32.1688 21.6445 33.0963 21.6592C34.4937 21.6821 34.6378 21.513 34.6441 20.0994C34.6441 19.8906 34.6441 19.6818 34.6441 19.473C34.6441 17.9405 33.8956 17.17 32.3986 17.1616C32.2252 17.1616 32.0518 17.1595 31.8763 17.1575C31.045 17.147 30.6188 16.7921 30.6272 15.8921C30.6523 12.7977 30.6481 9.70125 30.6272 6.60686C30.6209 5.78001 30.9593 5.41879 31.7865 5.36451L31.7823 5.3666Z" fill="#1760FA"/>
<path d="M37.2323 5.70495C36.3362 5.70912 36.0876 6.06408 36.1064 6.88675C36.144 8.48615 36.1168 10.0876 36.1168 11.687C36.1168 12.7665 36.1126 13.8439 36.1168 14.9234C36.1294 18.093 35.8432 17.5835 38.8595 17.619C40.1149 17.6336 40.2319 17.5125 40.2361 16.2555C40.2444 13.7166 40.2382 11.1755 40.2403 8.63648C40.2403 5.66319 40.2403 5.69242 37.2323 5.70704V5.70495Z" fill="#1760FA"/>
</svg>
