<svg width="54" height="54" viewBox="0 0 54 54" fill="none" xmlns="http://www.w3.org/2000/svg">
<rect width="53.75" height="53.75" fill="url(#paint0_linear_3856_8250)"/>
<path fill-rule="evenodd" clip-rule="evenodd" d="M37.996 30.0492C37.4662 30.367 36.8305 30.473 36.4067 30.1551C35.771 29.8373 35.4531 28.9896 35.4531 27.9301V24.5395C35.4531 22.9502 34.8174 21.7847 33.7578 21.4668C31.9566 20.9371 30.5792 23.1621 30.0494 24.0097L26.8708 29.2015V22.8442C26.8708 21.3609 26.341 20.5132 25.4934 20.3013C24.8576 20.0894 24.01 20.1954 23.1624 21.4668L16.0634 32.91C15.1098 31.1087 14.58 29.0956 14.58 26.9765C14.58 20.0894 20.0897 14.4738 26.8708 14.4738C33.6519 14.4738 39.1615 20.1954 39.1615 27.0824C39.2675 28.4599 38.8437 29.5194 37.996 30.0492ZM41.9163 27.0824C41.9163 18.6061 35.1352 11.825 26.8708 11.825C18.6063 11.825 11.8252 18.712 11.8252 27.0824C11.8252 35.4529 18.6063 42.3399 26.8708 42.3399C30.6851 42.3399 34.2876 40.8566 37.1484 38.2077C37.6782 37.6779 37.7841 36.8303 37.2543 36.1945C36.7246 35.6648 35.8769 35.5588 35.3472 36.0886C33.1221 38.2077 30.0494 39.4791 26.9767 39.4791C23.3743 39.4791 20.0897 37.8898 17.7587 35.3469L24.2219 24.9633V29.7313C24.2219 32.0623 25.0695 32.804 25.8112 33.0159C26.5529 33.2278 27.7184 33.1219 28.8839 31.1087L32.3804 25.3872C32.4864 25.1753 32.5923 25.0693 32.6983 24.8574V27.7182C32.6983 29.8373 33.5459 31.5325 35.0293 32.3802C36.4067 33.1219 38.102 33.1219 39.4794 32.1683C41.1747 31.4266 42.0223 29.4134 41.9163 27.0824Z" fill="white"/>
<defs>
<linearGradient id="paint0_linear_3856_8250" x1="26.875" y1="0" x2="26.875" y2="53.75" gradientUnits="userSpaceOnUse">
<stop stop-color="#3861FB"/>
<stop offset="1" stop-color="#012AFF"/>
</linearGradient>
</defs>
</svg>
