<svg width="50" height="50" viewBox="0 0 50 50" fill="none" xmlns="http://www.w3.org/2000/svg">
<rect width="50" height="50" fill="#5865F2"/>
<path d="M33.317 17.5164C31.7873 16.8145 30.147 16.2974 28.4319 16.0012C28.4007 15.9955 28.3695 16.0098 28.3534 16.0384C28.1424 16.4136 27.9087 16.9031 27.7451 17.2878C25.9004 17.0117 24.0652 17.0117 22.2583 17.2878C22.0946 16.8945 21.8525 16.4136 21.6406 16.0384C21.6245 16.0108 21.5933 15.9965 21.562 16.0012C19.8479 16.2965 18.2076 16.8136 16.6769 17.5164C16.6637 17.5221 16.6523 17.5317 16.6448 17.544C13.5334 22.1924 12.681 26.7265 13.0992 31.2044C13.1011 31.2263 13.1134 31.2473 13.1304 31.2606C15.1832 32.7681 17.1717 33.6833 19.1233 34.2899C19.1545 34.2995 19.1876 34.2881 19.2075 34.2623C19.6691 33.6319 20.0806 32.9672 20.4335 32.2681C20.4543 32.2272 20.4344 32.1786 20.3919 32.1624C19.7391 31.9148 19.1176 31.6129 18.5197 31.2701C18.4724 31.2425 18.4687 31.1748 18.5122 31.1425C18.638 31.0482 18.7638 30.9501 18.884 30.851C18.9057 30.833 18.936 30.8291 18.9615 30.8406C22.8893 32.6338 27.1415 32.6338 31.023 30.8406C31.0485 30.8282 31.0788 30.832 31.1015 30.8501C31.2216 30.9491 31.3475 31.0482 31.4742 31.1425C31.5177 31.1748 31.5149 31.2425 31.4676 31.2701C30.8697 31.6196 30.2482 31.9148 29.5945 32.1615C29.552 32.1777 29.533 32.2272 29.5538 32.2681C29.9143 32.9662 30.3258 33.6309 30.7789 34.2614C30.7978 34.2881 30.8319 34.2995 30.8631 34.2899C32.8241 33.6833 34.8126 32.7681 36.8654 31.2606C36.8834 31.2473 36.8948 31.2272 36.8967 31.2053C37.3971 26.0284 36.0585 21.5315 33.3482 17.545C33.3416 17.5317 33.3303 17.5221 33.317 17.5164ZM21.02 28.4778C19.8375 28.4778 18.8631 27.3922 18.8631 26.0589C18.8631 24.7256 19.8186 23.64 21.02 23.64C22.2309 23.64 23.1958 24.7351 23.1769 26.0589C23.1769 27.3922 22.2214 28.4778 21.02 28.4778ZM28.9947 28.4778C27.8123 28.4778 26.8379 27.3922 26.8379 26.0589C26.8379 24.7256 27.7933 23.64 28.9947 23.64C30.2056 23.64 31.1705 24.7351 31.1516 26.0589C31.1516 27.3922 30.2056 28.4778 28.9947 28.4778Z" fill="white"/>
</svg>
