<svg width="416" height="52" viewBox="0 0 416 52" fill="none" xmlns="http://www.w3.org/2000/svg">
<path d="M409.555 40.9991C407.328 37.1819 405.097 33.3646 402.87 29.5428L401.434 27.0843L398.608 26.7617C389.496 25.7165 380.371 24.7485 371.246 23.8533H371.273C370.783 23.8079 370.106 23.6488 369.378 23.3716C368.392 22.999 367.329 22.4037 366.429 21.7311C373.873 22.0674 381.321 22.4218 388.76 22.8036L399.253 23.3443L393.954 14.2693C391.728 10.452 389.496 6.63475 387.27 2.8175L385.625 0H382.362C373.323 0 364.284 0 355.246 0H355.173C352.896 0.0318105 350.738 0.349915 348.724 0.990669C347.216 1.47237 345.793 2.13584 344.503 2.99927C342.753 4.15808 341.258 5.70316 340.176 7.50727C339.386 6.01218 338.6 4.51708 337.809 3.02654L336.214 0H332.787C328.561 0 324.335 0 320.109 0H194.23C192.04 0 189.854 0 187.664 0C187.618 0 187.586 0 187.573 0C184.628 0 181.751 0.390814 179.043 1.10428C177.007 1.64051 175.067 2.35397 173.244 3.24012C173.199 3.26284 173.153 3.29011 173.103 3.31283L173.853 0H166.728C152.908 0 139.08 0 125.256 0H121.452L120.003 3.51733C117.985 8.41614 115.972 13.3149 113.954 18.2183L113.282 18.2547C106.174 18.65 99.0669 19.0954 91.964 19.5771C93.8772 15.8007 95.7949 12.0244 97.7081 8.248L101.898 0H74.7046C60.8807 0 47.0568 0 33.2328 0H29.97L28.3249 2.8175C20.8949 15.5462 13.4695 28.2704 6.03944 40.9991L0 51.3466L11.8335 49.4744C27.257 47.0295 42.7124 44.88 58.195 43.0168L61.0943 42.6669L63.9981 42.3306C79.4852 40.5402 95.0042 39.0405 110.532 37.8317L112.704 37.6636L114.913 37.5C130.446 36.3457 145.996 35.4823 161.556 34.9052L165.914 34.7461L166.887 30.4971C166.959 30.1745 167.032 29.8518 167.109 29.5292C167.173 29.5746 167.237 29.6246 167.3 29.6701C169.541 31.2651 172.126 32.3785 174.971 33.1329C177.816 33.8827 180.929 34.2644 184.246 34.2644C184.537 34.2644 184.828 34.2644 185.123 34.2553H185.11C192.671 34.119 200.233 34.0508 207.795 34.0508C210.413 34.0508 213.03 34.0599 215.643 34.0735L221.596 34.1099L221.355 28.1659C221.264 25.8937 221.174 23.6215 221.083 21.3539L220.965 18.4546C224.014 18.4682 227.058 18.4864 230.108 18.5046C230.658 22.1901 231.203 25.871 231.753 29.5565L232.457 34.2871L237.238 34.4007C242.028 34.5143 246.813 34.6552 251.603 34.8188L258.905 35.0733L257.356 27.9341C256.692 24.8758 256.029 21.8174 255.361 18.7636C258.564 18.8091 261.764 18.8454 264.967 18.9C266.326 23.2171 267.69 27.5297 269.048 31.8468L270.234 35.6004L274.165 35.8095C278.95 36.064 283.736 36.3457 288.516 36.6547L297.246 37.2182L294.497 29.7928C295.337 29.8382 296.178 29.8746 297.019 29.92C301.345 32.4285 305.771 35.0097 310.297 37.6818L311.415 38.3407L312.71 38.4498C318.086 38.8996 323.458 39.3859 328.825 39.9085L331.429 40.163L334.005 40.422C338.777 40.9037 343.548 41.4172 348.315 41.9534L358.99 43.1577L356.927 39.245C357.563 39.5995 358.208 39.9494 358.858 40.2766C363.475 42.6124 368.433 44.3165 373.405 45.0391H373.441L373.464 45.0482C383.575 46.3978 393.673 47.8702 403.756 49.4653L415.59 51.3375L409.551 40.99L409.555 40.9991ZM175.444 15.2236H175.353C175.394 15.1918 175.43 15.16 175.471 15.1281C175.462 15.16 175.453 15.1918 175.444 15.2236Z" fill="url(#paint0_linear_6005_4328)"/>
<path d="M40.6947 15.0465C39.8903 16.4462 39.0814 17.8459 38.2771 19.2455C47.0341 18.732 55.791 18.2594 64.5525 17.8277C63.0483 20.5679 61.5487 23.3127 60.0445 26.053C51.0149 26.7846 41.9898 27.5799 32.9738 28.4478C32.1695 29.8475 31.3606 31.2472 30.5562 32.6468C40.9992 31.4744 51.4512 30.4065 61.9123 29.4431C60.449 32.1424 58.9857 34.8417 57.5224 37.5411C41.9671 39.4134 26.4436 41.5719 10.9519 44.0259C18.3819 31.2971 25.8074 18.573 33.2374 5.84424H74.7091C73.2459 8.54358 71.7826 11.2429 70.3193 13.9423C60.4444 14.274 50.5696 14.6421 40.6992 15.042L40.6947 15.0465Z" fill="white"/>
<path d="M113.6 24.0942C112.432 26.839 111.264 29.5883 110.096 32.3331C94.4954 33.5465 78.9082 35.0552 63.3484 36.8547C68.8607 26.5209 74.373 16.1825 79.8853 5.84863H92.6458C89.2194 12.6061 85.7884 19.3635 82.362 26.121C92.7685 25.3484 103.18 24.6713 113.6 24.0942Z" fill="white"/>
<path d="M135.69 12.279C135.336 13.2561 134.981 14.2377 134.627 15.2147C143.406 14.992 152.186 14.8102 160.966 14.6694C160.466 16.6871 159.97 18.7093 159.471 20.727C150.409 20.9678 141.352 21.2723 132.295 21.6449C131.941 22.622 131.586 23.6036 131.232 24.5806C141.725 24.0762 152.222 23.6717 162.724 23.3763C162.265 25.3804 161.806 27.389 161.352 29.3931C145.724 29.9702 130.1 30.8382 114.495 31.997C118.081 23.2809 121.671 14.5603 125.256 5.84424H166.728C166.269 7.8483 165.81 9.8569 165.355 11.861C155.467 11.9609 145.578 12.1018 135.69 12.2745V12.279Z" fill="white"/>
<path d="M180.806 17.3547C180.42 19.8996 183.633 21.8991 187.977 21.8446C197.12 21.7355 206.264 21.7037 215.407 21.7446C215.498 24.0168 215.589 26.2889 215.68 28.5566C205.455 28.4929 195.23 28.5566 185.005 28.7383C173.676 28.9701 165.705 24.0667 167.205 17.5547C168.705 11.0472 177.857 5.81208 187.645 5.84389H214.762C214.852 8.11607 214.943 10.3882 215.034 12.6559C206.332 12.6377 197.625 12.6559 188.922 12.6968C184.819 12.715 181.183 14.8008 180.797 17.3456L180.806 17.3547Z" fill="white"/>
<path d="M265.099 13.3833C259.496 13.2879 253.897 13.2106 248.294 13.1425C249.467 18.5275 250.635 23.9171 251.807 29.3022C246.999 29.134 242.187 28.9932 237.379 28.8796C236.593 23.5899 235.806 18.3003 235.016 13.0107C229.412 12.9652 223.809 12.9334 218.206 12.9198C218.07 10.5613 217.933 8.20276 217.797 5.84424H262.859C263.604 8.35726 264.354 10.8703 265.099 13.3833Z" fill="white"/>
<path d="M314.015 25.2211C319.009 28.1704 324.13 31.2333 329.379 34.4234C323.985 33.9008 318.591 33.41 313.192 32.9556C308.234 30.0245 303.394 27.207 298.687 24.4804C294.519 24.2486 290.352 24.035 286.18 23.8396C287.08 26.2754 287.985 28.7112 288.884 31.1515C284.081 30.8425 279.273 30.5607 274.47 30.3017C271.898 22.1491 269.33 13.9966 266.762 5.84855H302.654C309.643 5.79856 317.577 10.3475 320.381 16.0097C322.835 20.9858 320.059 24.7894 314.019 25.2257L314.015 25.2211ZM283.681 17.0913C290.779 17.3094 297.878 17.5548 304.971 17.8366C306.721 17.9093 307.675 16.9459 307.103 15.6916C306.53 14.4328 304.685 13.3785 302.976 13.3422C296.024 13.1695 289.071 13.015 282.118 12.8787C282.636 14.2829 283.158 15.6916 283.677 17.0958L283.681 17.0913Z" fill="white"/>
<path d="M334.582 34.9372C329.729 25.2395 324.876 15.5419 320.027 5.84424H332.787C338.177 16.0554 343.567 26.2666 348.956 36.4732C344.166 35.9324 339.377 35.4189 334.582 34.9326V34.9372Z" fill="white"/>
<path d="M359.226 22.3355C361.235 25.9574 366.366 29.2339 370.692 29.6747C379.79 30.5654 388.878 31.5333 397.962 32.5694C400.189 36.3867 402.42 40.2039 404.647 44.0257C394.518 42.4216 384.375 40.9401 374.218 39.5859C362.966 37.9681 350.174 29.9519 345.671 21.4539C341.167 12.956 345.452 5.97587 355.25 5.84863H382.366C384.593 9.66589 386.824 13.4831 389.051 17.3049C380.376 16.8596 371.692 16.4461 363.007 16.0643C358.913 15.9053 357.222 18.7182 359.231 22.3401L359.226 22.3355Z" fill="white"/>
<defs>
<linearGradient id="paint0_linear_6005_4328" x1="254.937" y1="-28.8257" x2="257.928" y2="66.1917" gradientUnits="userSpaceOnUse">
<stop stop-color="#F9A52E"/>
<stop offset="1" stop-color="#FF6400"/>
</linearGradient>
</defs>
</svg>
