<svg width="140" height="36" viewBox="0 0 140 36" fill="none" xmlns="http://www.w3.org/2000/svg">
<path d="M39.6926 20.1833C39.6906 20.3052 39.6403 20.4214 39.5529 20.5064C39.4655 20.5915 39.3479 20.6384 39.226 20.637H30.6315C30.8519 22.7629 32.4463 24.7074 34.7019 24.7074C36.2445 24.7074 37.3852 24.124 38.2408 22.8926C38.2806 22.8279 38.3357 22.7739 38.4013 22.7355C38.4668 22.6971 38.5408 22.6753 38.6167 22.6722C38.6733 22.6706 38.7297 22.6805 38.7823 22.7015C38.8349 22.7224 38.8827 22.7539 38.9228 22.7939C38.9628 22.834 38.9943 22.8818 39.0152 22.9344C39.0361 22.987 39.0461 23.0434 39.0445 23.1C39.0448 23.1782 39.0222 23.2548 38.9797 23.3203C38.1111 24.824 36.3871 25.5629 34.7019 25.5629C31.8111 25.5629 29.7371 22.9703 29.7371 20.2092C29.7371 17.4481 31.7982 14.8555 34.7019 14.8555C37.6056 14.8555 39.6797 17.4222 39.6926 20.1833ZM38.7723 19.7815C38.5908 17.6555 36.9574 15.7111 34.7019 15.7111C32.4463 15.7111 30.8519 17.6555 30.6315 19.7815H38.7723Z" fill="#9EB0CB"/>
<path d="M50.1407 15.063C50.2532 15.0663 50.3601 15.1124 50.4396 15.1919C50.5192 15.2714 50.5653 15.3784 50.5685 15.4908C50.5701 15.5474 50.5602 15.6037 50.5392 15.6564C50.5183 15.709 50.4869 15.7568 50.4468 15.7968C50.4068 15.8369 50.359 15.8683 50.3063 15.8893C50.2537 15.9102 50.1974 15.9202 50.1407 15.9186H47.8333V24.9797C47.8323 25.0928 47.7869 25.201 47.7069 25.281C47.6269 25.361 47.5187 25.4064 47.4056 25.4074C47.2931 25.4042 47.1862 25.3581 47.1067 25.2785C47.0272 25.199 46.981 25.0921 46.9778 24.9797V15.9186H44.7611C44.7045 15.9202 44.6482 15.9102 44.5955 15.8893C44.5429 15.8683 44.4951 15.8369 44.4551 15.7968C44.415 15.7568 44.3836 15.709 44.3626 15.6564C44.3417 15.6037 44.3317 15.5474 44.3333 15.4908C44.3344 15.3776 44.3798 15.2694 44.4598 15.1894C44.5398 15.1094 44.648 15.064 44.7611 15.063H46.9778V11.7574C46.978 11.6479 47.0173 11.542 47.0886 11.4589C47.1599 11.3757 47.2585 11.3207 47.3667 11.3037C47.4272 11.2957 47.4887 11.3008 47.547 11.3187C47.6053 11.3367 47.6591 11.367 47.7046 11.4076C47.7502 11.4482 47.7864 11.4982 47.8109 11.5541C47.8353 11.61 47.8474 11.6705 47.8463 11.7315V15.063H50.1407Z" fill="#9EB0CB"/>
<path d="M64.2055 19.4443V24.9277C64.2022 25.0401 64.1561 25.147 64.0766 25.2266C63.997 25.3061 63.8901 25.3522 63.7777 25.3555C63.7211 25.3571 63.6647 25.3471 63.6121 25.3262C63.5595 25.3053 63.5117 25.2738 63.4716 25.2338C63.4316 25.1937 63.4001 25.1459 63.3792 25.0933C63.3583 25.0406 63.3483 24.9843 63.3499 24.9277V19.4443C63.3499 17.5906 62.2999 15.7499 60.2388 15.7499C57.5943 15.7499 56.4536 18.0573 56.6092 20.4295C56.6092 20.4943 56.6351 20.7666 56.6351 20.8055V24.9147C56.6349 25.0243 56.5956 25.1301 56.5243 25.2133C56.453 25.2964 56.3544 25.3514 56.2462 25.3684C56.1857 25.3765 56.1242 25.3713 56.0659 25.3534C56.0075 25.3355 55.9538 25.3052 55.9082 25.2646C55.8627 25.224 55.8265 25.174 55.802 25.1181C55.7776 25.0622 55.7655 25.0016 55.7666 24.9406V6.90916C55.7676 6.79602 55.813 6.6878 55.893 6.6078C55.973 6.52779 56.0812 6.4824 56.1943 6.48138C56.3068 6.48464 56.4137 6.53076 56.4932 6.61029C56.5727 6.68982 56.6189 6.79674 56.6221 6.90916V17.0981C57.361 15.7758 58.6832 14.8814 60.2258 14.8814C62.7666 14.8814 64.2055 17.0981 64.2055 19.4443Z" fill="#9EB0CB"/>
<path d="M79.6444 20.1833C79.6423 20.3052 79.5921 20.4214 79.5047 20.5064C79.4172 20.5915 79.2997 20.6384 79.1777 20.637H70.5833C70.8036 22.7629 72.3981 24.7074 74.6536 24.7074C76.1962 24.7074 77.337 24.124 78.1925 22.8926C78.2324 22.8279 78.2875 22.7739 78.353 22.7355C78.4186 22.6971 78.4925 22.6753 78.5685 22.6722C78.6251 22.6706 78.6814 22.6805 78.734 22.7015C78.7867 22.7224 78.8345 22.7539 78.8745 22.7939C78.9146 22.834 78.946 22.8818 78.967 22.9344C78.9879 22.987 78.9979 23.0434 78.9962 23.1C78.9965 23.1782 78.974 23.2548 78.9314 23.3203C78.0629 24.824 76.3388 25.5629 74.6536 25.5629C71.7629 25.5629 69.6888 22.9703 69.6888 20.2092C69.6888 17.4481 71.7499 14.8555 74.6536 14.8555C77.5314 14.8555 79.6314 17.4222 79.6444 20.1833ZM78.7111 19.7815C78.5296 17.6555 76.8962 15.7111 74.6407 15.7111C72.3851 15.7111 70.7907 17.6555 70.5703 19.7815H78.7111Z" fill="#9EB0CB"/>
<path d="M90.2092 15.4648C90.2174 15.5799 90.1798 15.6935 90.1045 15.781C90.0292 15.8684 89.9224 15.9225 89.8073 15.9314C87.2795 16.3074 86.1388 18.3685 86.1388 20.7666V24.8759C86.1386 24.9854 86.0993 25.0913 86.028 25.1744C85.9567 25.2576 85.8581 25.3126 85.7499 25.3296C85.6894 25.3376 85.6279 25.3325 85.5696 25.3146C85.5113 25.2967 85.4575 25.2664 85.412 25.2257C85.3664 25.1851 85.3302 25.1352 85.3057 25.0793C85.2813 25.0233 85.2692 24.9628 85.2703 24.9018V15.5296C85.2705 15.4201 85.3098 15.3142 85.3811 15.231C85.4524 15.1479 85.551 15.0929 85.6592 15.0759C85.7197 15.0679 85.7812 15.073 85.8395 15.0909C85.8978 15.1088 85.9516 15.1391 85.9971 15.1797C86.0427 15.2204 86.0789 15.2703 86.1034 15.3262C86.1278 15.3821 86.1399 15.4427 86.1388 15.5037V17.4092C86.8518 16.2037 88.2647 15.0629 89.7425 15.0629C89.9629 15.0629 90.2092 15.2185 90.2092 15.4648Z" fill="#9EB0CB"/>
<path d="M104.339 20.1833C104.337 20.3052 104.286 20.4214 104.199 20.5064C104.112 20.5915 103.994 20.6384 103.872 20.637H95.2776C95.498 22.7629 97.0925 24.7074 99.348 24.7074C100.891 24.7074 102.031 24.124 102.887 22.8926C102.927 22.8279 102.982 22.7739 103.047 22.7355C103.113 22.6971 103.187 22.6753 103.263 22.6722C103.319 22.6706 103.376 22.6805 103.428 22.7015C103.481 22.7224 103.529 22.7539 103.569 22.7939C103.609 22.834 103.64 22.8818 103.661 22.9344C103.682 22.987 103.692 23.0434 103.691 23.1C103.691 23.1782 103.668 23.2548 103.626 23.3203C102.757 24.824 101.033 25.5629 99.348 25.5629C96.4573 25.5629 94.3832 22.9703 94.3832 20.2092C94.3832 17.4481 96.4443 14.8555 99.348 14.8555C102.252 14.8555 104.326 17.4222 104.339 20.1833ZM103.418 19.7815C103.237 17.6555 101.604 15.7111 99.348 15.7111C97.0925 15.7111 95.498 17.6555 95.2776 19.7815H103.418Z" fill="#9EB0CB"/>
<path d="M118.235 15.5685V24.9796C118.232 25.092 118.186 25.199 118.106 25.2785C118.027 25.358 117.92 25.4041 117.807 25.4074C117.751 25.409 117.694 25.399 117.642 25.3781C117.589 25.3572 117.541 25.3257 117.501 25.2857C117.461 25.2456 117.43 25.1978 117.409 25.1452C117.388 25.0926 117.378 25.0362 117.38 24.9796V23.1907C116.667 24.6037 115.409 25.6278 113.802 25.6278C111.248 25.6278 109.835 23.4111 109.835 21.0648V15.5555C109.836 15.4424 109.881 15.3342 109.961 15.2542C110.041 15.1742 110.15 15.1288 110.263 15.1278C110.375 15.131 110.482 15.1771 110.562 15.2567C110.641 15.3362 110.687 15.4431 110.691 15.5555V21.0648C110.691 22.9185 111.741 24.7592 113.802 24.7592C116.692 24.7592 117.38 22.05 117.38 19.0555V15.5426C117.38 15.4732 117.398 15.4051 117.431 15.3439C117.463 15.2828 117.51 15.2303 117.567 15.191C117.624 15.1516 117.69 15.1265 117.759 15.1178C117.828 15.109 117.898 15.1169 117.963 15.1407C118.044 15.1786 118.113 15.239 118.161 15.3148C118.21 15.3906 118.235 15.4786 118.235 15.5685Z" fill="#9EB0CB"/>
<path d="M140 19.4055V24.9148C139.997 25.0272 139.951 25.1341 139.871 25.2137C139.792 25.2932 139.685 25.3393 139.572 25.3426C139.516 25.3442 139.459 25.3342 139.407 25.3133C139.354 25.2924 139.306 25.2609 139.266 25.2209C139.226 25.1808 139.195 25.133 139.174 25.0804C139.153 25.0278 139.143 24.9714 139.144 24.9148V19.4055C139.144 17.5518 138.094 15.737 136.033 15.737C133.441 15.737 132.456 18.5111 132.456 20.663V24.9148C132.452 25.0272 132.406 25.1341 132.327 25.2137C132.247 25.2932 132.14 25.3393 132.028 25.3426C131.971 25.3442 131.915 25.3342 131.862 25.3133C131.81 25.2924 131.762 25.2609 131.722 25.2209C131.682 25.1808 131.65 25.133 131.629 25.0804C131.608 25.0278 131.598 24.9714 131.6 24.9148V19.4055C131.6 17.5518 130.55 15.737 128.489 15.737C125.87 15.737 124.794 17.7981 124.885 20.5463C124.885 20.6111 124.911 20.7278 124.885 20.7667V24.9018C124.885 25.0114 124.846 25.1172 124.774 25.2004C124.703 25.2836 124.604 25.3386 124.496 25.3555C124.436 25.3636 124.374 25.3585 124.316 25.3405C124.258 25.3226 124.204 25.2923 124.158 25.2517C124.113 25.2111 124.077 25.1611 124.052 25.1052C124.028 25.0493 124.016 24.9888 124.017 24.9278V15.5296C124.017 15.4201 124.056 15.3142 124.127 15.2311C124.199 15.1479 124.297 15.0929 124.406 15.0759C124.466 15.0679 124.528 15.073 124.586 15.0909C124.644 15.1088 124.698 15.1392 124.743 15.1798C124.789 15.2204 124.825 15.2703 124.85 15.3263C124.874 15.3822 124.886 15.4427 124.885 15.5037V17.0722C125.624 15.75 126.946 14.8815 128.489 14.8815C130.239 14.8815 131.6 15.9963 132.157 17.6167C132.87 16.0092 134.257 14.8815 136.033 14.8815C138.561 14.8815 140 17.0722 140 19.4055Z" fill="#9EB0CB"/>
<path opacity="0.6" d="M10.7591 12.976L-0.000118256 17.863L10.7591 24.2278L21.5314 17.863L10.7591 12.976Z" fill="#9EB0CB"/>
<path opacity="0.45" d="M0 17.863L10.7593 24.2278V0L0 17.863Z" fill="#9EB0CB"/>
<path opacity="0.8" d="M10.7592 0V24.2278L21.5314 17.863L10.7592 0Z" fill="#9EB0CB"/>
<path opacity="0.45" d="M-0.000118256 19.9108L10.7591 35.0775V26.2627L-0.000118256 19.9108Z" fill="#9EB0CB"/>
<path opacity="0.8" d="M10.7592 26.2627V35.0775L21.5314 19.9108L10.7592 26.2627Z" fill="#9EB0CB"/>
</svg>
