<svg width="140" height="36" viewBox="0 0 140 36" fill="none" xmlns="http://www.w3.org/2000/svg">
<path d="M39.6926 20.2608C39.6906 20.3828 39.6403 20.4989 39.5529 20.584C39.4655 20.669 39.3479 20.7159 39.226 20.7145H30.6315C30.8519 22.8405 32.4463 24.7849 34.7019 24.7849C36.2445 24.7849 37.3852 24.2016 38.2408 22.9701C38.2806 22.9054 38.3357 22.8515 38.4013 22.813C38.4668 22.7746 38.5408 22.7529 38.6167 22.7497C38.6733 22.7481 38.7297 22.7581 38.7823 22.779C38.8349 22.7999 38.8827 22.8314 38.9228 22.8714C38.9628 22.9115 38.9943 22.9593 39.0152 23.0119C39.0361 23.0645 39.0461 23.1209 39.0445 23.1775C39.0448 23.2557 39.0222 23.3323 38.9797 23.3979C38.1111 24.9016 36.3871 25.6405 34.7019 25.6405C31.8111 25.6405 29.7371 23.0479 29.7371 20.2867C29.7371 17.5256 31.7982 14.933 34.7019 14.933C37.6056 14.933 39.6797 17.4997 39.6926 20.2608ZM38.7723 19.859C38.5908 17.733 36.9574 15.7886 34.7019 15.7886C32.4463 15.7886 30.8519 17.733 30.6315 19.859H38.7723Z" fill="#3B3B3B"/>
<path d="M50.1407 15.1405C50.2532 15.1438 50.3601 15.1899 50.4396 15.2694C50.5192 15.3489 50.5653 15.4559 50.5685 15.5683C50.5701 15.6249 50.5602 15.6813 50.5392 15.7339C50.5183 15.7865 50.4869 15.8343 50.4468 15.8744C50.4068 15.9144 50.359 15.9459 50.3063 15.9668C50.2537 15.9877 50.1974 15.9977 50.1407 15.9961H47.8333V25.0572C47.8323 25.1703 47.7869 25.2785 47.7069 25.3585C47.6269 25.4385 47.5187 25.4839 47.4056 25.485C47.2931 25.4817 47.1862 25.4356 47.1067 25.3561C47.0272 25.2765 46.981 25.1696 46.9778 25.0572V15.9961H44.7611C44.7045 15.9977 44.6482 15.9877 44.5955 15.9668C44.5429 15.9459 44.4951 15.9144 44.4551 15.8744C44.415 15.8343 44.3836 15.7865 44.3626 15.7339C44.3417 15.6813 44.3317 15.6249 44.3333 15.5683C44.3344 15.4552 44.3798 15.3469 44.4598 15.2669C44.5398 15.1869 44.648 15.1415 44.7611 15.1405H46.9778V11.835C46.978 11.7254 47.0173 11.6196 47.0886 11.5364C47.1599 11.4532 47.2585 11.3982 47.3667 11.3813C47.4272 11.3732 47.4887 11.3783 47.547 11.3963C47.6053 11.4142 47.6591 11.4445 47.7046 11.4851C47.7502 11.5257 47.7864 11.5757 47.8109 11.6316C47.8353 11.6875 47.8474 11.748 47.8463 11.809V15.1405H50.1407Z" fill="#3B3B3B"/>
<path d="M64.2055 19.5219V25.0052C64.2022 25.1176 64.1561 25.2245 64.0766 25.3041C63.997 25.3836 63.8901 25.4297 63.7777 25.433C63.7211 25.4346 63.6647 25.4246 63.6121 25.4037C63.5595 25.3828 63.5117 25.3513 63.4716 25.3113C63.4316 25.2712 63.4001 25.2234 63.3792 25.1708C63.3583 25.1182 63.3483 25.0618 63.3499 25.0052V19.5219C63.3499 17.6682 62.2999 15.8274 60.2388 15.8274C57.5943 15.8274 56.4536 18.1348 56.6092 20.507C56.6092 20.5719 56.6351 20.8441 56.6351 20.883V24.9922C56.6349 25.1018 56.5956 25.2076 56.5243 25.2908C56.453 25.374 56.3544 25.429 56.2462 25.4459C56.1857 25.454 56.1242 25.4489 56.0659 25.4309C56.0075 25.413 55.9538 25.3827 55.9082 25.3421C55.8627 25.3015 55.8265 25.2515 55.802 25.1956C55.7776 25.1397 55.7655 25.0792 55.7666 25.0182V6.98668C55.7676 6.87354 55.813 6.76532 55.893 6.68531C55.973 6.60531 56.0812 6.55991 56.1943 6.5589C56.3068 6.56216 56.4137 6.60828 56.4932 6.6878C56.5727 6.76733 56.6189 6.87425 56.6221 6.98668V17.1756C57.361 15.8533 58.6832 14.9589 60.2258 14.9589C62.7666 14.9589 64.2055 17.1756 64.2055 19.5219Z" fill="#3B3B3B"/>
<path d="M79.6444 20.2608C79.6423 20.3828 79.5921 20.4989 79.5047 20.584C79.4172 20.669 79.2997 20.7159 79.1777 20.7145H70.5833C70.8036 22.8405 72.3981 24.7849 74.6536 24.7849C76.1962 24.7849 77.337 24.2016 78.1925 22.9701C78.2324 22.9054 78.2875 22.8515 78.353 22.813C78.4186 22.7746 78.4925 22.7529 78.5685 22.7497C78.6251 22.7481 78.6814 22.7581 78.734 22.779C78.7867 22.7999 78.8345 22.8314 78.8745 22.8714C78.9146 22.9115 78.946 22.9593 78.967 23.0119C78.9879 23.0645 78.9979 23.1209 78.9962 23.1775C78.9965 23.2557 78.974 23.3323 78.9314 23.3979C78.0629 24.9016 76.3388 25.6405 74.6536 25.6405C71.7629 25.6405 69.6888 23.0479 69.6888 20.2867C69.6888 17.5256 71.7499 14.933 74.6536 14.933C77.5314 14.933 79.6314 17.4997 79.6444 20.2608ZM78.7111 19.859C78.5296 17.733 76.8962 15.7886 74.6407 15.7886C72.3851 15.7886 70.7907 17.733 70.5703 19.859H78.7111Z" fill="#3B3B3B"/>
<path d="M90.2092 15.5423C90.2174 15.6574 90.1798 15.771 90.1045 15.8585C90.0292 15.9459 89.9224 16 89.8073 16.009C87.2795 16.3849 86.1388 18.446 86.1388 20.8441V24.9534C86.1386 25.0629 86.0993 25.1688 86.028 25.252C85.9567 25.3351 85.8581 25.3901 85.7499 25.4071C85.6894 25.4151 85.6279 25.41 85.5696 25.3921C85.5113 25.3742 85.4575 25.3439 85.412 25.3033C85.3664 25.2626 85.3302 25.2127 85.3057 25.1568C85.2813 25.1009 85.2692 25.0403 85.2703 24.9793V15.6071C85.2705 15.4976 85.3098 15.3917 85.3811 15.3085C85.4524 15.2254 85.551 15.1704 85.6592 15.1534C85.7197 15.1454 85.7812 15.1505 85.8395 15.1684C85.8978 15.1863 85.9516 15.2166 85.9971 15.2573C86.0427 15.2979 86.0789 15.3478 86.1034 15.4037C86.1278 15.4597 86.1399 15.5202 86.1388 15.5812V17.4867C86.8518 16.2812 88.2647 15.1404 89.7425 15.1404C89.9629 15.1404 90.2092 15.296 90.2092 15.5423Z" fill="#3B3B3B"/>
<path d="M104.339 20.2608C104.337 20.3828 104.286 20.4989 104.199 20.584C104.112 20.669 103.994 20.7159 103.872 20.7145H95.2776C95.498 22.8405 97.0925 24.7849 99.348 24.7849C100.891 24.7849 102.031 24.2016 102.887 22.9701C102.927 22.9054 102.982 22.8515 103.047 22.813C103.113 22.7746 103.187 22.7529 103.263 22.7497C103.319 22.7481 103.376 22.7581 103.428 22.779C103.481 22.7999 103.529 22.8314 103.569 22.8714C103.609 22.9115 103.64 22.9593 103.661 23.0119C103.682 23.0645 103.692 23.1209 103.691 23.1775C103.691 23.2557 103.668 23.3323 103.626 23.3979C102.757 24.9016 101.033 25.6405 99.348 25.6405C96.4573 25.6405 94.3832 23.0479 94.3832 20.2867C94.3832 17.5256 96.4443 14.933 99.348 14.933C102.252 14.933 104.326 17.4997 104.339 20.2608ZM103.418 19.859C103.237 17.733 101.604 15.7886 99.348 15.7886C97.0925 15.7886 95.498 17.733 95.2776 19.859H103.418Z" fill="#3B3B3B"/>
<path d="M118.235 15.646V25.0571C118.232 25.1695 118.186 25.2765 118.106 25.356C118.027 25.4355 117.92 25.4816 117.807 25.4849C117.751 25.4865 117.694 25.4766 117.642 25.4556C117.589 25.4347 117.541 25.4032 117.501 25.3632C117.461 25.3231 117.43 25.2753 117.409 25.2227C117.388 25.1701 117.378 25.1137 117.38 25.0571V23.2682C116.667 24.6812 115.409 25.7053 113.802 25.7053C111.248 25.7053 109.835 23.4886 109.835 21.1423V15.6331C109.836 15.5199 109.881 15.4117 109.961 15.3317C110.041 15.2517 110.15 15.2063 110.263 15.2053C110.375 15.2085 110.482 15.2547 110.562 15.3342C110.641 15.4137 110.687 15.5206 110.691 15.6331V21.1423C110.691 22.996 111.741 24.8368 113.802 24.8368C116.692 24.8368 117.38 22.1275 117.38 19.1331V15.6201C117.38 15.5507 117.398 15.4826 117.431 15.4215C117.463 15.3603 117.51 15.3078 117.567 15.2685C117.624 15.2291 117.69 15.204 117.759 15.1953C117.828 15.1866 117.898 15.1944 117.963 15.2182C118.044 15.2561 118.113 15.3165 118.161 15.3923C118.21 15.4681 118.235 15.5562 118.235 15.646Z" fill="#3B3B3B"/>
<path d="M140 19.4831V24.9923C139.997 25.1047 139.951 25.2117 139.871 25.2912C139.792 25.3707 139.685 25.4168 139.572 25.4201C139.516 25.4217 139.459 25.4117 139.407 25.3908C139.354 25.3699 139.306 25.3384 139.266 25.2984C139.226 25.2583 139.195 25.2105 139.174 25.1579C139.153 25.1053 139.143 25.0489 139.144 24.9923V19.4831C139.144 17.6294 138.094 15.8145 136.033 15.8145C133.441 15.8145 132.456 18.5886 132.456 20.7405V24.9923C132.452 25.1047 132.406 25.2117 132.327 25.2912C132.247 25.3707 132.14 25.4168 132.028 25.4201C131.971 25.4217 131.915 25.4117 131.862 25.3908C131.81 25.3699 131.762 25.3384 131.722 25.2984C131.682 25.2583 131.65 25.2105 131.629 25.1579C131.608 25.1053 131.598 25.0489 131.6 24.9923V19.4831C131.6 17.6294 130.55 15.8145 128.489 15.8145C125.87 15.8145 124.794 17.8757 124.885 20.6238C124.885 20.6886 124.911 20.8053 124.885 20.8442V24.9794C124.885 25.0889 124.846 25.1947 124.774 25.2779C124.703 25.3611 124.604 25.4161 124.496 25.4331C124.436 25.4411 124.374 25.436 124.316 25.418C124.258 25.4001 124.204 25.3698 124.158 25.3292C124.113 25.2886 124.077 25.2386 124.052 25.1827C124.028 25.1268 124.016 25.0663 124.017 25.0053V15.6071C124.017 15.4976 124.056 15.3917 124.127 15.3086C124.199 15.2254 124.297 15.1704 124.406 15.1534C124.466 15.1454 124.528 15.1505 124.586 15.1684C124.644 15.1864 124.698 15.2167 124.743 15.2573C124.789 15.2979 124.825 15.3479 124.85 15.4038C124.874 15.4597 124.886 15.5202 124.885 15.5812V17.1497C125.624 15.8275 126.946 14.959 128.489 14.959C130.239 14.959 131.6 16.0738 132.157 17.6942C132.87 16.0868 134.257 14.959 136.033 14.959C138.561 14.959 140 17.1497 140 19.4831Z" fill="#3B3B3B"/>
<path opacity="0.6" d="M10.7591 13.0535L-0.000118256 17.9405L10.7591 24.3053L21.5314 17.9405L10.7591 13.0535Z" fill="black"/>
<path opacity="0.45" d="M0 17.9405L10.7593 24.3053V0.0775146L0 17.9405Z" fill="black"/>
<path opacity="0.8" d="M10.7592 0.0775146V24.3053L21.5314 17.9405L10.7592 0.0775146Z" fill="black"/>
<path opacity="0.45" d="M-0.000118256 19.9883L10.7591 35.155V26.3402L-0.000118256 19.9883Z" fill="black"/>
<path opacity="0.8" d="M10.7592 26.3402V35.155L21.5314 19.9883L10.7592 26.3402Z" fill="black"/>
</svg>
