<svg width="205" height="54" viewBox="0 0 205 54" fill="none" xmlns="http://www.w3.org/2000/svg">
<path d="M68.7309 0L68.7256 0.0105728H68.7414L68.7309 0Z" fill="url(#paint0_linear_103_995)"/>
<path d="M201.923 44.0168L200.553 38.8726L199.215 33.8409L198.364 30.6292L195.142 29.8316C194.874 29.762 194.601 29.6978 194.333 29.6282L193.996 28.3703L192.246 21.7808L196.1 22.1181L194.034 14.3724L192.498 8.61273L191.32 4.20194L190.207 0.0373893H165.794V0.0266835H123.6L123.579 0.00527191H80.8657V0.0266835H68.7369V0.0159777L14.3715 0.0106248L13.2582 4.17518L7.47745 25.9133L2.6602 43.99L0 53.9624L9.81115 50.7721C14.5588 49.2251 19.4242 47.7852 24.2522 46.4844L27.4102 45.6333L28.2291 42.4805L29.8456 36.2283L30.338 34.328C38.4096 32.8935 46.6203 31.6783 54.7829 30.7362L56.1317 30.581L55.8159 32.3421L54.4671 39.9218L62.0891 38.8994C66.9973 38.2356 71.9912 37.7004 76.9316 37.2828L81.4919 36.9028L84.1093 36.7475C89.0497 36.4531 94.0596 36.2872 99.0107 36.2444L104.502 36.2015L104.583 30.7095L104.604 29.0233C106.579 29.034 108.554 29.0661 110.524 29.1143C114.024 31.3358 117.734 33.6964 121.518 36.1748L122.733 36.9617L124.173 37.0741C129.729 37.4916 135.343 38.0751 140.883 38.8138L150.711 40.1199C165.623 42.5501 180.428 46.1365 194.783 50.8096L204.594 53.9999L201.934 44.0275L201.923 44.0168Z" fill="url(#paint1_linear_103_995)"/>
<path d="M60.5318 12.8891C61.0028 10.475 61.4738 8.05011 61.9449 5.63595L61.9342 5.62524H18.6966C15.1586 18.8951 11.6313 32.1595 8.09863 45.4294C12.9694 43.8449 17.8777 42.3889 22.8073 41.0614C23.8082 37.1966 24.8199 33.3265 25.8154 29.451C35.2144 27.6899 44.6563 26.2607 54.157 25.1633C54.6976 22.5832 55.2221 19.9978 55.7627 17.4177C46.5671 18.0814 37.4036 18.9325 28.2776 19.9978C28.7379 18.2367 29.1982 16.4595 29.6585 14.6877C39.9193 13.9222 50.2175 13.3281 60.5372 12.8891H60.5318Z" fill="url(#paint2_linear_103_995)"/>
<path d="M61.3398 33.3163C66.3712 32.6418 71.4133 32.0905 76.466 31.6676C77.5098 23.0013 78.5428 14.3189 79.5865 5.64185H66.2802C64.6316 14.8702 62.9884 24.0879 61.3398 33.3217V33.3163Z" fill="url(#paint3_linear_103_995)"/>
<path d="M138.46 15.448C137.448 9.99341 130.8 5.63616 123.58 5.63616L123.569 5.61475H85.9996C85.261 14.1151 84.517 22.6262 83.7783 31.1266C88.8311 30.8322 93.8946 30.6556 98.958 30.6128C98.9901 28.2093 99.0276 25.7952 99.0597 23.3917H101.741C105.231 23.3917 108.716 23.4345 112.205 23.5255C116.193 26.0521 120.315 28.6804 124.58 31.4639C130.276 31.9028 135.944 32.4863 141.601 33.2357C137.052 29.9811 132.641 26.9728 128.375 24.1197C135.034 23.7825 139.348 20.2817 138.46 15.4534V15.448ZM121.637 17.0432H121.455C114.887 16.8291 108.32 16.7166 101.736 16.7166H99.14C99.1614 15.3249 99.1721 13.9438 99.1935 12.5521H101.731C108.154 12.5521 114.587 12.6217 121.01 12.7555C122.798 12.7983 124.356 13.7993 124.506 15.0037C124.65 16.1599 123.371 17.0485 121.631 17.0485L121.637 17.0432Z" fill="url(#paint4_linear_103_995)"/>
<path d="M193.794 35.2803C183.073 32.6306 172.244 30.452 161.341 28.7551C161.063 27.54 160.779 26.341 160.501 25.1259C169.911 26.3731 179.278 27.9308 188.57 29.8096C187.692 26.5283 186.83 23.2523 185.952 19.971C176.89 18.8683 167.786 17.9369 158.644 17.1982C158.365 15.9831 158.082 14.7841 157.803 13.569C168.102 14.1417 178.373 14.8965 188.602 15.8011L185.893 5.63062V5.64132H142.65C144.492 15.1052 146.322 24.5584 148.163 34.0277C164.478 36.4847 180.648 40.2906 196.491 45.4454C195.592 42.0571 194.682 38.6633 193.783 35.2749L193.794 35.2803Z" fill="url(#paint5_linear_103_995)"/>
<defs>
<linearGradient id="paint0_linear_103_995" x1="68.7256" y1="0" x2="68.7362" y2="0.0158581" gradientUnits="userSpaceOnUse">
<stop stop-color="#F9A52E"/>
<stop offset="1" stop-color="#FF6400"/>
</linearGradient>
<linearGradient id="paint1_linear_103_995" x1="125.505" y1="-30.307" x2="132.201" y2="69.2594" gradientUnits="userSpaceOnUse">
<stop stop-color="#F33C04"/>
<stop offset="1" stop-color="#A10100"/>
</linearGradient>
<linearGradient id="paint2_linear_103_995" x1="64.2371" y1="4.90709" x2="2.09032" y2="8.56215" gradientUnits="userSpaceOnUse">
<stop stop-color="white"/>
<stop offset="1" stop-color="#F4F4F4"/>
</linearGradient>
<linearGradient id="paint3_linear_103_995" x1="80.3633" y1="5.14244" x2="59.2483" y2="5.74759" gradientUnits="userSpaceOnUse">
<stop stop-color="white"/>
<stop offset="1" stop-color="#F4F4F4"/>
</linearGradient>
<linearGradient id="paint4_linear_103_995" x1="144.063" y1="5.1164" x2="77.6456" y2="11.1614" gradientUnits="userSpaceOnUse">
<stop stop-color="white"/>
<stop offset="1" stop-color="#F4F4F4"/>
</linearGradient>
<linearGradient id="paint5_linear_103_995" x1="198.783" y1="4.91227" x2="136.643" y2="8.56563" gradientUnits="userSpaceOnUse">
<stop stop-color="white"/>
<stop offset="1" stop-color="#F4F4F4"/>
</linearGradient>
</defs>
</svg>
