<svg width="117" height="117" viewBox="0 0 117 117" fill="none" xmlns="http://www.w3.org/2000/svg">
<g clip-path="url(#clip0_4174_5640)">
<path d="M109.202 0V23.4H101.398V0H93.6V23.4H85.8019V0H77.998V23.4H39.0019V0H31.198V23.4V31.198H109.202V39.0019H101.398H93.6H23.4V0H15.6019V39.0019H7.79805V0H0V39.0019V46.8V85.8019H7.79805V62.4019H15.6019V85.8019H23.4V62.4019H31.198V85.8019H39.0019V62.4019H77.998V85.8019H85.8019V62.4019V54.598H23.4H15.6019H7.79805V46.8H15.6019H23.4H93.6V85.8019H101.398V46.8H109.202V85.8019H117V46.8V39.0019V31.198V23.4V0H109.202Z" fill="#9EB0CB"/>
<path d="M13.3731 104.744V109.202H3.34035V104.744H0V117H3.34035V112.542H13.3731V117H16.7134V104.744H13.3731Z" fill="#9EB0CB"/>
<path d="M76.8807 112.542H73.5403V117H76.8807V112.542Z" fill="#9EB0CB"/>
<path d="M76.8865 104.744H73.5403V109.202H63.5134V104.744H60.1731V117H63.5134V112.542H73.5403L76.8865 109.202V104.744Z" fill="#9EB0CB"/>
<path d="M34.5443 104.744H20.0597V117H23.4V112.542H33.4269V117H36.7673V104.744H34.5384H34.5443ZM23.4 109.202V108.09H33.4269V109.202H23.4Z" fill="#9EB0CB"/>
<path d="M56.8269 108.085V104.744H43.4597H42.3423H40.1135V117H42.3423H43.4597H56.8269V113.66H43.4597V108.085H56.8269Z" fill="#9EB0CB"/>
<path d="M96.9404 108.085V104.744H83.5731H82.4557H80.2269V117H82.4557H83.5731H96.9404V113.66H83.5731V112.542H96.9404V109.202H83.5731V108.085H96.9404Z" fill="#9EB0CB"/>
<path d="M113.66 104.744V112.542L103.627 104.744H100.287V117H103.627V109.202L113.66 117H117V104.744H113.66Z" fill="#9EB0CB"/>
</g>
<defs>
<clipPath id="clip0_4174_5640">
<rect width="117" height="117" fill="white"/>
</clipPath>
</defs>
</svg>
