<svg width="50" height="50" viewBox="0 0 50 50" fill="none" xmlns="http://www.w3.org/2000/svg">
<rect width="50" height="50" fill="url(#paint0_radial_1_80)"/>
<rect width="50" height="50" fill="url(#paint1_radial_1_80)"/>
<path d="M25.0007 15C22.2849 15 21.944 15.0119 20.8774 15.0604C19.8128 15.1092 19.0861 15.2777 18.4502 15.525C17.7925 15.7804 17.2346 16.1221 16.6788 16.6781C16.1225 17.234 15.7808 17.7919 15.5246 18.4494C15.2767 19.0855 15.1079 19.8123 15.06 20.8765C15.0125 21.9432 15 22.2842 15 25.0001C15 27.716 15.0121 28.0558 15.0604 29.1224C15.1094 30.187 15.2779 30.9137 15.525 31.5495C15.7806 32.2073 16.1223 32.7652 16.6784 33.321C17.234 33.8773 17.7919 34.2198 18.4492 34.4752C19.0855 34.7225 19.8123 34.891 20.8767 34.9398C21.9434 34.9883 22.284 35.0002 24.9997 35.0002C27.7158 35.0002 28.0556 34.9883 29.1222 34.9398C30.1868 34.891 30.9143 34.7225 31.5506 34.4752C32.2081 34.2198 32.7652 33.8773 33.3208 33.321C33.8771 32.7652 34.2187 32.2073 34.475 31.5498C34.7208 30.9137 34.8896 30.1868 34.9396 29.1226C34.9875 28.056 35 27.716 35 25.0001C35 22.2842 34.9875 21.9434 34.9396 20.8767C34.8896 19.8121 34.7208 19.0855 34.475 18.4496C34.2187 17.7919 33.8771 17.234 33.3208 16.6781C32.7646 16.1219 32.2083 15.7802 31.55 15.525C30.9125 15.2777 30.1854 15.1092 29.1208 15.0604C28.0541 15.0119 27.7145 15 24.9978 15H25.0007ZM24.1036 16.8021C24.3699 16.8017 24.667 16.8021 25.0007 16.8021C27.6708 16.8021 27.9872 16.8117 29.0416 16.8596C30.0166 16.9042 30.5458 17.0671 30.8983 17.204C31.365 17.3852 31.6977 17.6019 32.0475 17.9519C32.3975 18.3019 32.6141 18.6352 32.7958 19.1019C32.9327 19.454 33.0958 19.9832 33.1402 20.9582C33.1881 22.0124 33.1985 22.329 33.1985 24.9978C33.1985 27.6666 33.1881 27.9833 33.1402 29.0374C33.0956 30.0124 32.9327 30.5416 32.7958 30.8937C32.6146 31.3604 32.3975 31.6927 32.0475 32.0425C31.6975 32.3925 31.3652 32.6091 30.8983 32.7904C30.5462 32.9279 30.0166 33.0904 29.0416 33.135C27.9874 33.1829 27.6708 33.1933 25.0007 33.1933C22.3305 33.1933 22.014 33.1829 20.9599 33.135C19.9848 33.09 19.4557 32.9271 19.103 32.7902C18.6363 32.6089 18.303 32.3923 17.9529 32.0423C17.6029 31.6923 17.3863 31.3598 17.2046 30.8929C17.0677 30.5408 16.9046 30.0116 16.8602 29.0366C16.8123 27.9824 16.8027 27.6658 16.8027 24.9953C16.8027 22.3249 16.8123 22.0099 16.8602 20.9557C16.9048 19.9807 17.0677 19.4515 17.2046 19.099C17.3859 18.6323 17.6029 18.299 17.9529 17.949C18.303 17.599 18.6363 17.3823 19.103 17.2006C19.4555 17.0631 19.9848 16.9006 20.9599 16.8559C21.8824 16.8142 22.2399 16.8017 24.1036 16.7996V16.8021ZM30.3387 18.4625C30.1013 18.4625 29.8693 18.5329 29.672 18.6648C29.4746 18.7967 29.3208 18.9841 29.23 19.2034C29.1392 19.4227 29.1154 19.664 29.1618 19.8968C29.2081 20.1296 29.3224 20.3434 29.4903 20.5112C29.6582 20.679 29.872 20.7933 30.1048 20.8396C30.3377 20.8858 30.5789 20.862 30.7982 20.7711C31.0175 20.6802 31.2049 20.5263 31.3367 20.3289C31.4685 20.1315 31.5388 19.8995 31.5387 19.6621C31.5387 18.9996 31.0012 18.4621 30.3387 18.4621V18.4625ZM25.0007 19.8646C22.1647 19.8646 19.8653 22.164 19.8653 25.0001C19.8653 27.8362 22.1647 30.1345 25.0007 30.1345C27.8368 30.1345 30.1356 27.8362 30.1356 25.0001C30.1356 22.164 27.8366 19.8646 25.0005 19.8646H25.0007ZM25.0007 21.6667C26.8416 21.6667 28.3341 23.159 28.3341 25.0001C28.3341 26.841 26.8416 28.3335 25.0007 28.3335C23.1597 28.3335 21.6674 26.841 21.6674 25.0001C21.6674 23.159 23.1597 21.6667 25.0007 21.6667Z" fill="white"/>
<defs>
<radialGradient id="paint0_radial_1_80" cx="0" cy="0" r="1" gradientUnits="userSpaceOnUse" gradientTransform="translate(13.2813 53.851) rotate(-90) scale(49.5537 46.0888)">
<stop stop-color="#FFDD55"/>
<stop offset="0.1" stop-color="#FFDD55"/>
<stop offset="0.5" stop-color="#FF543E"/>
<stop offset="1" stop-color="#C837AB"/>
</radialGradient>
<radialGradient id="paint1_radial_1_80" cx="0" cy="0" r="1" gradientUnits="userSpaceOnUse" gradientTransform="translate(-8.37526 3.60192) rotate(78.6806) scale(22.1507 91.3062)">
<stop stop-color="#3771C8"/>
<stop offset="0.128" stop-color="#3771C8"/>
<stop offset="1" stop-color="#6600FF" stop-opacity="0"/>
</radialGradient>
</defs>
</svg>
