
<svg width="140" height="21" viewBox="0 0 140 21" fill="none" xmlns="http://www.w3.org/2000/svg">
<path d="M33.1682 14.6125L25.8878 1.97213C24.2988 -0.660276 20.3857 -0.683991 18.8442 2.09072L11.2078 15.2291C9.78487 17.6481 11.5398 20.6599 14.4094 20.6599H29.7532C32.6229 20.6836 34.781 17.5532 33.1682 14.6125Z" fill="#9EB0CB"/>
<path d="M22.6621 15.6085L22.2116 14.8259C21.7847 14.0907 20.8598 12.5255 20.8598 12.5255L14.6938 1.80613C13.1048 -0.565411 9.31037 -0.778853 7.72144 2.23301L0.535661 14.6599C-0.958412 17.2686 0.820249 20.6599 4.04556 20.6836H19.2946H25.7925H29.6583C25.7214 20.7073 24.4646 18.6441 22.6621 15.6085Z" fill="#9EB0CB"/>
<path d="M22.6622 15.5611L22.2116 14.7785C21.7847 14.0433 20.8598 12.4781 20.8598 12.4781L16.8757 5.45831L11.1602 15.2291C9.7373 17.648 11.4922 20.6599 14.3618 20.6599H19.2709H25.769H29.6583C25.6978 20.6362 24.4646 18.6204 22.6622 15.5611Z" fill="url(#paint0_linear_3485_4360)"/>
<path d="M127.953 5.42096C129.02 4.42492 130.893 3.9506 133.62 3.9506H140V0.322144H132.458C130.656 0.322144 129.138 0.511875 127.953 0.891319C126.79 1.27077 125.771 1.86365 124.893 2.69369C123.968 3.59488 123.233 4.70949 122.711 6.03755C122.19 7.38933 121.929 8.85969 121.929 10.4012C121.929 11.8716 122.19 13.2945 122.711 14.5988C123.233 15.9032 123.968 17.0415 124.893 17.9427C125.747 18.7727 126.767 19.3656 127.905 19.7451C129.067 20.1245 130.608 20.3143 132.458 20.3143H140V16.7332H133.62C132.174 16.7332 131.178 16.6858 130.608 16.5672C130.016 16.4486 129.47 16.2589 129.02 15.9743C128.118 15.4051 127.431 14.67 126.98 13.7451C126.553 12.8439 126.34 11.7056 126.34 10.3775C126.34 8.1008 126.885 6.41701 127.953 5.42096Z" fill="#9EB0CB"/>
<path d="M72.4343 20.3617H90.221V16.8518H76.7742V11.8479H88.5134V8.5277H76.7742V3.87948H90.221V0.345886H72.4343V20.3617Z" fill="#9EB0CB"/>
<path d="M94.6557 0.345886L102.98 10.3538L94.6557 20.3617H100.039L106.608 12.4408V8.29054L100.039 0.345886H94.6557Z" fill="#9EB0CB"/>
<path d="M114.861 0.345886L108.292 8.29054V12.4408L114.861 20.3617H120.245L111.897 10.3538L120.245 0.345886H114.861Z" fill="#9EB0CB"/>
<path d="M55.0036 10.2115L47.0115 0.345886H42.885V20.3617H47.2249V7.00992L54.1498 15.3103H55.8336L62.7585 6.93879V20.3617H67.0984V0.345886H63.0194L55.0036 10.2115Z" fill="#9EB0CB"/>
<defs>
<linearGradient id="paint0_linear_3485_4360" x1="9.12039" y1="10.8008" x2="26.8374" y2="17.3479" gradientUnits="userSpaceOnUse">
<stop stop-color="#9EB0CB"/>
<stop offset="1" stop-color="#617696"/>
</linearGradient>
</defs>
</svg>
