
<svg width="140" height="22" viewBox="0 0 140 22" fill="none" xmlns="http://www.w3.org/2000/svg">
<path d="M33.1682 15.2962L25.8878 2.65591C24.2988 0.0235012 20.3857 -0.000214219 18.8442 2.7745L11.2078 15.9128C9.78487 18.3318 11.5398 21.3437 14.4094 21.3437H29.7532C32.6229 21.3674 34.781 18.237 33.1682 15.2962Z" fill="#003087"/>
<path d="M22.6621 16.2923L22.2116 15.5097C21.7847 14.7745 20.8598 13.2093 20.8598 13.2093L14.6938 2.48991C13.1048 0.118366 9.31037 -0.0950764 7.72144 2.91679L0.535661 15.3436C-0.958412 17.9524 0.820249 21.3437 4.04556 21.3674H19.2946H25.7925H29.6583C25.7214 21.3911 24.4646 19.3278 22.6621 16.2923Z" fill="#1877F2"/>
<path d="M22.6622 16.2449L22.2116 15.4622C21.7847 14.7271 20.8598 13.1619 20.8598 13.1619L16.8757 6.14209L11.1602 15.9128C9.7373 18.3318 11.4922 21.3437 14.3618 21.3437H19.2709H25.769H29.6583C25.6978 21.32 24.4646 19.3042 22.6622 16.2449Z" fill="url(#paint0_linear_3485_4362)"/>
<path d="M127.953 6.10474C129.02 5.10869 130.893 4.63438 133.62 4.63438H140V1.00592H132.458C130.656 1.00592 129.138 1.19565 127.953 1.5751C126.79 1.95454 125.771 2.54742 124.893 3.37747C123.968 4.27865 123.233 5.39327 122.711 6.72133C122.19 8.0731 121.929 9.54347 121.929 11.085C121.929 12.5553 122.19 13.9783 122.711 15.2826C123.233 16.587 123.968 17.7253 124.893 18.6265C125.747 19.4565 126.767 20.0494 127.905 20.4289C129.067 20.8083 130.608 20.998 132.458 20.998H140V17.417H133.62C132.174 17.417 131.178 17.3696 130.608 17.251C130.016 17.1324 129.47 16.9427 129.02 16.6581C128.118 16.0889 127.431 15.3537 126.98 14.4288C126.553 13.5277 126.34 12.3893 126.34 11.0613C126.34 8.78458 126.885 7.10079 127.953 6.10474Z" fill="#151618"/>
<path d="M72.4343 21.0455H90.221V17.5356H76.7742V12.5316H88.5134V9.21148H76.7742V4.56326H90.221V1.02966H72.4343V21.0455Z" fill="#151618"/>
<path d="M94.6557 1.02966L102.98 11.0376L94.6557 21.0455H100.039L106.608 13.1245V8.97432L100.039 1.02966H94.6557Z" fill="#151618"/>
<path d="M114.861 1.02966L108.292 8.97432V13.1245L114.861 21.0455H120.245L111.897 11.0376L120.245 1.02966H114.861Z" fill="#151618"/>
<path d="M55.0036 10.8953L47.0115 1.02966H42.885V21.0455H47.2249V7.6937L54.1498 15.9941H55.8336L62.7585 7.62257V21.0455H67.0984V1.02966H63.0194L55.0036 10.8953Z" fill="#151618"/>
<defs>
<linearGradient id="paint0_linear_3485_4362" x1="9.12039" y1="11.4846" x2="26.8374" y2="18.0316" gradientUnits="userSpaceOnUse">
<stop stop-color="#003087" stop-opacity="0"/>
<stop offset="1" stop-color="#003087"/>
</linearGradient>
</defs>
</svg>
