<svg width="29" height="29" viewBox="0 0 29 29" fill="none" xmlns="http://www.w3.org/2000/svg">
<path fill-rule="evenodd" clip-rule="evenodd" d="M5.48289 0.941094C5.19647 0.654674 4.84868 0.4194 4.45997 0.255732C4.07125 0.0920635 3.65185 0 3.21199 0C2.77213 0 2.3425 0.0920635 1.96402 0.255732C0.808113 0.736508 0 1.88219 0 3.21199C0 4.5418 0.808113 5.68748 1.96402 6.16825C2.35273 6.33192 2.77213 6.42399 3.21199 6.42399C4.76684 6.42399 6.05573 5.31922 6.36261 3.85644C6.40353 3.65185 6.42399 3.42681 6.42399 3.21199C6.42399 2.54709 6.2194 1.93333 5.8716 1.41164C5.75908 1.23774 5.6261 1.0843 5.48289 0.941094Z" fill="black"/>
<path fill-rule="evenodd" clip-rule="evenodd" d="M3.21199 22.576C1.44233 22.576 0 24.0081 0 25.788C0 27.5679 1.44233 29 3.21199 29C4.98166 29 6.42399 27.5577 6.42399 25.788C6.42399 24.0183 4.98166 22.576 3.21199 22.576Z" fill="black"/>
<path fill-rule="evenodd" clip-rule="evenodd" d="M14.4948 22.576C12.7252 22.576 11.2828 24.0183 11.2828 25.788C11.2828 27.5577 12.7252 29 14.4948 29C16.2645 29 17.7068 27.5577 17.7068 25.788C17.7068 24.0183 16.2645 22.576 14.4948 22.576Z" fill="black"/>
<path fill-rule="evenodd" clip-rule="evenodd" d="M25.788 22.576C24.0184 22.576 22.576 24.0183 22.576 25.788C22.576 27.5577 24.0184 29 25.788 29C27.5577 29 29 27.5577 29 25.788C29 24.0183 27.5577 22.576 25.788 22.576Z" fill="black"/>
<path fill-rule="evenodd" clip-rule="evenodd" d="M25.1333 6.36261C25.3379 6.40353 25.563 6.42399 25.7778 6.42399C26.4427 6.42399 27.0564 6.2194 27.5781 5.8716C27.752 5.75908 27.9055 5.6261 28.0487 5.48289C28.3351 5.19647 28.5704 4.84868 28.7341 4.45997C28.8977 4.07125 28.9898 3.65185 28.9898 3.21199C28.9898 2.77213 28.8977 2.3425 28.7341 1.96402C28.243 0.808113 27.1076 0 25.7778 0C24.448 0 23.3023 0.808113 22.8215 1.96402C22.6579 2.35273 22.5658 2.77213 22.5658 3.21199C22.5658 4.76684 23.6706 6.05573 25.1333 6.36261Z" fill="black"/>
<path fill-rule="evenodd" clip-rule="evenodd" d="M14.4948 11.2829C12.7252 11.2829 11.2828 12.7252 11.2828 14.4949C11.2828 16.2645 12.7252 17.7069 14.4948 17.7069C16.2645 17.7069 17.7068 16.2645 17.7068 14.4949C17.7068 12.7252 16.2645 11.2829 14.4948 11.2829Z" fill="black"/>
<path fill-rule="evenodd" clip-rule="evenodd" d="M25.788 11.2829C24.0184 11.2829 22.576 12.7252 22.576 14.4949C22.576 16.2645 24.0184 17.7069 25.788 17.7069C27.5577 17.7069 29 16.2645 29 14.4949C29 12.7252 27.5577 11.2829 25.788 11.2829Z" fill="black"/>
<path fill-rule="evenodd" clip-rule="evenodd" d="M14.4948 0C12.7252 0 11.2828 1.44233 11.2828 3.21199C11.2828 4.98166 12.7252 6.42399 14.4948 6.42399C16.2645 6.42399 17.7068 4.98166 17.7068 3.21199C17.7068 1.44233 16.2645 0 14.4948 0Z" fill="black"/>
<path fill-rule="evenodd" clip-rule="evenodd" d="M3.21199 11.2829C2.13792 11.2829 1.19683 11.8148 0.613757 12.6127C0.542152 12.715 0.470547 12.8275 0.409171 12.9503C0.153439 13.4106 0 13.9323 0 14.4949C0 15.0575 0.153439 15.5792 0.409171 16.0395C0.460317 16.1418 0.521693 16.2441 0.583069 16.3362C1.16614 17.1647 2.11746 17.7069 3.21199 17.7069C4.98166 17.7069 6.42399 16.2645 6.42399 14.4949C6.42399 12.7252 4.98166 11.2829 3.21199 11.2829Z" fill="black"/>
</svg>
