<?xml version="1.0" encoding="UTF-8"?>
<svg xmlns="http://www.w3.org/2000/svg" xmlns:xlink="http://www.w3.org/1999/xlink" width="53px" height="53px" viewBox="0 0 53 53" version="1.1">
<g id="surface1">
<path style=" stroke:none;fill-rule:nonzero;fill:rgb(100%,100%,100%);fill-opacity:1;" d="M 0 0 L 52.753906 0 L 52.753906 52.753906 L 0 52.753906 Z M 0 0 "/>
<path style=" stroke:none;fill-rule:nonzero;fill:rgb(55.294118%,77.647059%,24.705882%);fill-opacity:1;" d="M 44 26.621094 C 44.015625 29.960938 43.039062 33.230469 41.199219 36.011719 C 39.355469 38.796875 36.726562 40.972656 33.648438 42.265625 C 30.570312 43.554688 27.175781 43.90625 23.898438 43.269531 C 20.621094 42.632812 17.605469 41.035156 15.234375 38.6875 C 12.863281 36.335938 11.242188 33.335938 10.578125 30.0625 C 9.910156 26.792969 10.230469 23.398438 11.492188 20.304688 C 12.757812 17.214844 14.910156 14.570312 17.675781 12.703125 C 20.445312 10.835938 23.703125 9.832031 27.042969 9.816406 C 31.519531 9.796875 35.820312 11.554688 39.003906 14.707031 C 42.183594 17.859375 43.980469 22.144531 44 26.621094 Z M 44 26.621094 "/>
<path style=" stroke:none;fill-rule:nonzero;fill:rgb(97.647059%,91.372549%,53.333333%);fill-opacity:1;" d="M 42.730469 26.625 C 42.746094 29.710938 41.84375 32.734375 40.140625 35.308594 C 38.433594 37.882812 36.007812 39.894531 33.160156 41.089844 C 30.3125 42.285156 27.175781 42.609375 24.144531 42.019531 C 21.113281 41.429688 18.328125 39.957031 16.132812 37.785156 C 13.941406 35.609375 12.441406 32.835938 11.824219 29.8125 C 11.207031 26.785156 11.503906 23.644531 12.671875 20.789062 C 13.839844 17.929688 15.828125 15.484375 18.390625 13.757812 C 20.949219 12.03125 23.960938 11.101562 27.050781 11.085938 C 29.097656 11.078125 31.128906 11.472656 33.027344 12.246094 C 34.925781 13.023438 36.652344 14.164062 38.109375 15.609375 C 39.5625 17.050781 40.722656 18.765625 41.515625 20.65625 C 42.308594 22.546875 42.722656 24.574219 42.730469 26.625 Z M 42.730469 26.625 "/>
<path style=" stroke:none;fill-rule:nonzero;fill:rgb(100%,100%,100%);fill-opacity:1;" d="M 27.402344 12.097656 C 28.394531 11.921875 29.414062 11.921875 30.40625 12.097656 C 31.40625 12.257812 32.375 12.582031 33.269531 13.058594 C 34.160156 13.546875 34.929688 14.210938 35.695312 14.839844 C 36.460938 15.464844 37.222656 16.097656 37.949219 16.792969 C 38.6875 17.480469 39.332031 18.261719 39.867188 19.117188 C 40.421875 19.964844 40.871094 20.875 41.214844 21.828125 C 41.882812 23.730469 42.074219 25.769531 41.769531 27.761719 L 41.667969 27.761719 C 41.375 25.859375 40.886719 23.988281 40.207031 22.1875 C 39.882812 21.292969 39.5 20.425781 39.058594 19.582031 C 38.597656 18.742188 38.089844 17.929688 37.539062 17.144531 C 36.976562 16.351562 36.289062 15.65625 35.503906 15.085938 C 34.710938 14.523438 33.800781 14.15625 32.917969 13.808594 C 32.035156 13.464844 31.152344 13.117188 30.238281 12.851562 C 29.320312 12.589844 28.382812 12.390625 27.40625 12.199219 Z M 27.402344 12.097656 "/>
<path style=" stroke:none;fill-rule:nonzero;fill:rgb(54.509804%,77.254902%,24.705882%);fill-opacity:1;" d="M 35.035156 21.109375 C 33.902344 20.78125 32.722656 20.316406 31.539062 19.847656 C 31.46875 19.550781 31.207031 19.179688 30.671875 18.722656 C 29.894531 18.050781 28.4375 18.066406 27.175781 18.367188 C 25.785156 18.042969 24.410156 17.925781 23.082031 18.242188 C 12.296875 21.210938 18.414062 28.476562 14.453125 35.769531 C 15.015625 36.960938 21.09375 43.949219 29.886719 42.070312 C 29.886719 42.070312 26.882812 34.84375 33.667969 31.375 C 39.171875 28.550781 43.152344 23.324219 35.035156 21.109375 Z M 35.035156 21.109375 "/>
<path style=" stroke:none;fill-rule:nonzero;fill:rgb(100%,100%,100%);fill-opacity:1;" d="M 36.367188 25.863281 C 36.367188 25.992188 36.328125 26.117188 36.257812 26.226562 C 36.1875 26.335938 36.085938 26.417969 35.964844 26.46875 C 35.847656 26.519531 35.714844 26.535156 35.585938 26.511719 C 35.460938 26.484375 35.34375 26.425781 35.25 26.332031 C 35.160156 26.242188 35.097656 26.125 35.070312 26 C 35.042969 25.871094 35.054688 25.738281 35.105469 25.621094 C 35.15625 25.5 35.238281 25.398438 35.347656 25.324219 C 35.453125 25.25 35.578125 25.214844 35.710938 25.210938 C 35.796875 25.210938 35.878906 25.230469 35.960938 25.261719 C 36.039062 25.292969 36.109375 25.339844 36.171875 25.402344 C 36.234375 25.460938 36.28125 25.535156 36.316406 25.613281 C 36.347656 25.691406 36.367188 25.777344 36.367188 25.863281 Z M 36.367188 25.863281 "/>
<path style=" stroke:none;fill-rule:nonzero;fill:rgb(0%,57.647059%,27.058824%);fill-opacity:1;" d="M 27.175781 18.363281 C 27.960938 18.421875 30.804688 19.351562 31.539062 19.847656 C 30.929688 18.070312 28.871094 17.839844 27.175781 18.363281 Z M 27.175781 18.363281 "/>
<path style=" stroke:none;fill-rule:nonzero;fill:rgb(100%,100%,100%);fill-opacity:1;" d="M 27.921875 22.851562 C 27.921875 23.449219 27.746094 24.035156 27.414062 24.53125 C 27.082031 25.027344 26.609375 25.414062 26.058594 25.644531 C 25.503906 25.875 24.894531 25.933594 24.308594 25.816406 C 23.722656 25.699219 23.183594 25.414062 22.761719 24.988281 C 22.339844 24.566406 22.050781 24.027344 21.933594 23.441406 C 21.816406 22.855469 21.878906 22.246094 22.105469 21.695312 C 22.335938 21.140625 22.722656 20.667969 23.21875 20.335938 C 23.71875 20.003906 24.300781 19.828125 24.898438 19.828125 C 25.703125 19.828125 26.46875 20.144531 27.039062 20.714844 C 27.605469 21.28125 27.921875 22.050781 27.921875 22.851562 Z M 27.921875 22.851562 "/>
<path style=" stroke:none;fill-rule:nonzero;fill:rgb(34.509804%,34.901961%,35.686275%);fill-opacity:1;" d="M 27.027344 22.878906 C 27.027344 23.296875 26.902344 23.707031 26.671875 24.058594 C 26.4375 24.40625 26.105469 24.679688 25.71875 24.839844 C 25.332031 25.003906 24.902344 25.042969 24.492188 24.960938 C 24.078125 24.878906 23.699219 24.679688 23.402344 24.382812 C 23.105469 24.085938 22.902344 23.707031 22.820312 23.292969 C 22.738281 22.882812 22.78125 22.457031 22.941406 22.066406 C 23.101562 21.679688 23.375 21.347656 23.722656 21.113281 C 24.074219 20.878906 24.484375 20.753906 24.90625 20.753906 C 25.46875 20.757812 26.007812 20.980469 26.40625 21.378906 C 26.804688 21.773438 27.027344 22.316406 27.027344 22.878906 Z M 27.027344 22.878906 "/>
<path style=" stroke:none;fill-rule:nonzero;fill:rgb(54.509804%,77.254902%,24.705882%);fill-opacity:1;" d="M 38.8125 27.191406 C 36.367188 28.917969 33.585938 30.214844 29.640625 30.214844 C 27.792969 30.214844 27.421875 28.261719 26.199219 29.214844 C 25.570312 29.714844 23.355469 30.816406 21.585938 30.738281 C 19.816406 30.660156 16.960938 29.621094 16.167969 25.859375 C 15.855469 29.621094 15.691406 32.390625 14.28125 35.570312 C 17.09375 40.074219 23.800781 43.546875 29.886719 42.054688 C 29.234375 37.484375 33.226562 33.011719 35.476562 30.722656 C 36.328125 29.855469 37.96875 28.4375 38.8125 27.183594 Z M 38.8125 27.191406 "/>
<path style=" stroke:none;fill-rule:nonzero;fill:rgb(34.509804%,34.901961%,35.686275%);fill-opacity:1;" d="M 38.714844 27.304688 C 37.9375 27.976562 37.066406 28.535156 36.132812 28.960938 C 35.203125 29.40625 34.230469 29.757812 33.234375 30.019531 C 32.238281 30.277344 31.195312 30.472656 30.140625 30.375 C 29.085938 30.277344 28.007812 29.917969 27.3125 29.128906 L 27.34375 29.089844 C 28.207031 29.648438 29.191406 29.84375 30.171875 29.871094 C 31.167969 29.898438 32.164062 29.816406 33.144531 29.625 C 34.132812 29.417969 35.097656 29.121094 36.03125 28.734375 C 36.980469 28.371094 37.875 27.878906 38.683594 27.269531 Z M 38.714844 27.304688 "/>
</g>
</svg>
