<svg width="140" height="42" viewBox="0 0 140 42" fill="none" xmlns="http://www.w3.org/2000/svg">
<path d="M53.3157 14.0309H56.0776V28.0409H53.9739L47.9696 19.4748V28.0409H45.2076V14.0309H47.3069L53.3112 22.5659V14.0309H53.3157Z" fill="#011627"/>
<path d="M62.3043 25.399H68.2108V28.0409H59.5424V14.0309H68.1085V16.6728H62.3043V19.6571H67.6104V22.259H62.3043V25.399Z" fill="#011627"/>
<path d="M73.7214 28.0409L70.0121 14.0309H72.903L75.5983 24.4161L78.5204 14.0309H80.9132L83.8486 24.3939L86.5083 14.0309H89.168L85.4854 28.0409H82.3454L79.6901 18.7454L77.0527 28.0409H73.7214Z" fill="#011627"/>
<path d="M96.2487 28.3213C94.861 28.3213 93.6913 28.0099 92.7439 27.3917C91.7966 26.7691 91.1294 25.9285 90.7425 24.861L93.1042 23.4823C93.6512 24.9099 94.7231 25.6216 96.3243 25.6216C97.0982 25.6216 97.6674 25.4837 98.0277 25.199C98.388 24.9188 98.5659 24.5675 98.5659 24.1405C98.5659 23.6468 98.3435 23.2643 97.9076 22.9886C97.4673 22.7173 96.6801 22.4193 95.5459 22.099C94.9188 21.9122 94.3895 21.7254 93.9537 21.5386C93.5178 21.3518 93.0864 21.1028 92.655 20.787C92.2191 20.4757 91.89 20.0754 91.6632 19.595C91.4363 19.1147 91.3207 18.5543 91.3207 17.9138C91.3207 16.6463 91.7699 15.6366 92.6728 14.8806C93.5712 14.1289 94.6564 13.7509 95.924 13.7509C97.0581 13.7509 98.0544 14.0266 98.9172 14.5826C99.7801 15.1385 100.447 15.908 100.928 16.8953L98.6059 18.2385C98.0455 17.0376 97.1515 16.4372 95.924 16.4372C95.3502 16.4372 94.901 16.5662 94.5719 16.8286C94.2428 17.0866 94.0827 17.4246 94.0827 17.8382C94.0827 18.2785 94.265 18.6343 94.6342 18.9101C94.9989 19.1859 95.706 19.4794 96.7468 19.7996C97.1738 19.9331 97.4984 20.0353 97.7164 20.111C97.9388 20.1866 98.2367 20.2978 98.6192 20.449C98.9973 20.6046 99.2908 20.747 99.4999 20.8804C99.7045 21.0138 99.9446 21.1962 100.211 21.4186C100.478 21.6454 100.683 21.8811 100.821 22.1213C100.959 22.3615 101.079 22.6506 101.181 22.993C101.283 23.331 101.332 23.7046 101.332 24.1049C101.332 25.3992 100.861 26.4266 99.9224 27.1871C98.9839 27.9477 97.7564 28.3257 96.2487 28.3257V28.3213Z" fill="#011627"/>
<path d="M112.358 20.7734C113.586 21.4806 114.199 22.548 114.199 23.9757C114.199 25.1632 113.777 26.1373 112.941 26.8978C112.1 27.6583 111.064 28.0364 109.836 28.0364H103.89V14.0264H109.414C110.615 14.0264 111.624 14.3955 112.447 15.1383C113.265 15.881 113.679 16.8239 113.679 17.9714C113.679 19.1189 113.239 20.0662 112.358 20.7734ZM109.418 16.6104H106.656V19.6926H109.418C109.845 19.6926 110.201 19.5459 110.49 19.2523C110.779 18.9588 110.921 18.5896 110.921 18.1493C110.921 17.709 110.779 17.3443 110.499 17.0463C110.219 16.7528 109.858 16.606 109.418 16.606V16.6104ZM109.836 25.4568C110.303 25.4568 110.69 25.3011 110.997 24.9853C111.304 24.674 111.46 24.2737 111.46 23.7934C111.46 23.313 111.304 22.935 110.997 22.6236C110.69 22.3123 110.303 22.1522 109.836 22.1522H106.652V25.4523H109.836V25.4568Z" fill="#011627"/>
<path d="M125.728 14.0309V16.6728H121.947V28.0409H119.185V16.6728H115.422V14.0309H125.728Z" fill="#011627"/>
<path d="M133.973 28.3213C131.865 28.3213 130.122 27.623 128.747 26.2176C127.373 24.8165 126.684 23.0909 126.684 21.0361C126.684 18.9813 127.369 17.2378 128.747 15.8412C130.122 14.4491 131.861 13.7509 133.973 13.7509C135.241 13.7509 136.411 14.0488 137.487 14.6404C138.559 15.2319 139.399 16.0369 140 17.051L137.62 18.4298C137.273 17.8026 136.78 17.3134 136.139 16.9576C135.499 16.6062 134.778 16.4283 133.978 16.4283C132.617 16.4283 131.518 16.8553 130.686 17.7092C129.85 18.5632 129.437 19.6706 129.437 21.0316C129.437 22.3926 129.855 23.4823 130.686 24.3318C131.518 25.1857 132.617 25.6127 133.978 25.6127C134.778 25.6127 135.503 25.4348 136.148 25.0834C136.793 24.732 137.287 24.2473 137.62 23.6335L140 25.0122C139.399 26.0263 138.563 26.8313 137.5 27.4229C136.433 28.0188 135.259 28.3124 133.978 28.3124L133.973 28.3213Z" fill="#011627"/>
<path d="M35.3108 30.6516C35.4442 24.2382 35.4442 17.8247 35.3108 11.4156C35.3064 11.1977 35.1818 10.9887 34.9861 10.8775C29.2576 7.50619 23.5691 4.06372 18.014 0.77248C17.8227 0.661289 17.5915 0.661289 17.4002 0.77248C11.8407 4.06372 6.15218 7.50619 0.428084 10.8775C0.232388 10.9931 0.107855 11.1977 0.103407 11.4156C-0.0344691 17.8291 -0.0344691 24.2426 0.103407 30.6516C0.107855 30.8696 0.232388 31.0786 0.428084 31.1898C6.15218 34.5611 11.8451 38.0036 17.4002 41.2948C17.5915 41.406 17.8227 41.406 18.014 41.2948C23.5691 38.0036 29.262 34.5611 34.9861 31.1898C35.1818 31.0742 35.3064 30.8696 35.3108 30.6516Z" fill="url(#paint0_linear_1_1495)"/>
<path d="M20.5625 12.9456H14.8517V29.1216H20.5625V12.9456Z" fill="#9FD6DD"/>
<path d="M21.9101 29.1216L34.7015 10.7084C33.0292 9.72547 31.3658 8.73365 29.7024 7.74628L14.8517 29.126H21.9101V29.1216Z" fill="white"/>
<path d="M20.5625 12.9456H13.5041L0.712769 31.3632C2.38508 32.3462 4.04849 33.338 5.7119 34.3254L20.5625 12.9456Z" fill="white"/>
<defs>
<linearGradient id="paint0_linear_1_1495" x1="4.06706" y1="5.15583" x2="31.9895" y2="33.0782" gradientUnits="userSpaceOnUse">
<stop stop-color="#19B3B4"/>
<stop offset="1" stop-color="#158CB3"/>
</linearGradient>
</defs>
</svg>
