<svg width="140" height="41" viewBox="0 0 140 41" fill="none" xmlns="http://www.w3.org/2000/svg">
<path d="M53.3157 13.3418H56.0776V27.3518H53.9739L47.9696 18.7857V27.3518H45.2076V13.3418H47.3069L53.3112 21.8768V13.3418H53.3157Z" fill="#9EB0CB"/>
<path d="M62.3043 24.7099H68.2108V27.3518H59.5424V13.3418H68.1085V15.9837H62.3043V18.968H67.6104V21.5699H62.3043V24.7099Z" fill="#9EB0CB"/>
<path d="M73.7214 27.3518L70.0121 13.3418H72.903L75.5983 23.727L78.5204 13.3418H80.9132L83.8486 23.7048L86.5083 13.3418H89.168L85.4854 27.3518H82.3454L79.6901 18.0563L77.0527 27.3518H73.7214Z" fill="#9EB0CB"/>
<path d="M96.2487 27.6322C94.861 27.6322 93.6913 27.3209 92.7439 26.7026C91.7966 26.08 91.1294 25.2394 90.7425 24.1719L93.1042 22.7932C93.6512 24.2209 94.7231 24.9325 96.3243 24.9325C97.0982 24.9325 97.6674 24.7946 98.0277 24.51C98.388 24.2298 98.5659 23.8784 98.5659 23.4514C98.5659 22.9577 98.3435 22.5752 97.9076 22.2995C97.4673 22.0282 96.6801 21.7302 95.5459 21.41C94.9188 21.2232 94.3895 21.0364 93.9537 20.8496C93.5178 20.6628 93.0864 20.4137 92.655 20.0979C92.2191 19.7866 91.89 19.3863 91.6632 18.9059C91.4363 18.4256 91.3207 17.8652 91.3207 17.2247C91.3207 15.9572 91.7699 14.9476 92.6728 14.1915C93.5712 13.4398 94.6564 13.0618 95.924 13.0618C97.0581 13.0618 98.0544 13.3375 98.9172 13.8935C99.7801 14.4494 100.447 15.2189 100.928 16.2062L98.6059 17.5494C98.0455 16.3486 97.1515 15.7481 95.924 15.7481C95.3502 15.7481 94.901 15.8771 94.5719 16.1395C94.2428 16.3975 94.0827 16.7355 94.0827 17.1491C94.0827 17.5895 94.265 17.9453 94.6342 18.221C94.9989 18.4968 95.706 18.7903 96.7468 19.1105C97.1738 19.244 97.4984 19.3463 97.7164 19.4219C97.9388 19.4975 98.2367 19.6087 98.6192 19.7599C98.9973 19.9156 99.2908 20.0579 99.4999 20.1913C99.7045 20.3247 99.9446 20.5071 100.211 20.7295C100.478 20.9563 100.683 21.192 100.821 21.4322C100.959 21.6724 101.079 21.9615 101.181 22.3039C101.283 22.642 101.332 23.0156 101.332 23.4158C101.332 24.7101 100.861 25.7375 99.9224 26.498C98.9839 27.2586 97.7564 27.6366 96.2487 27.6366V27.6322Z" fill="#9EB0CB"/>
<path d="M112.358 20.0843C113.586 20.7915 114.199 21.8589 114.199 23.2866C114.199 24.4741 113.777 25.4482 112.941 26.2087C112.1 26.9693 111.064 27.3473 109.836 27.3473H103.89V13.3373H109.414C110.615 13.3373 111.624 13.7064 112.447 14.4492C113.265 15.1919 113.679 16.1348 113.679 17.2823C113.679 18.4298 113.239 19.3772 112.358 20.0843ZM109.418 15.9214H106.656V19.0036H109.418C109.845 19.0036 110.201 18.8568 110.49 18.5632C110.779 18.2697 110.921 17.9005 110.921 17.4602C110.921 17.0199 110.779 16.6552 110.499 16.3572C110.219 16.0637 109.858 15.9169 109.418 15.9169V15.9214ZM109.836 24.7677C110.303 24.7677 110.69 24.612 110.997 24.2962C111.304 23.9849 111.46 23.5846 111.46 23.1043C111.46 22.6239 111.304 22.2459 110.997 21.9345C110.69 21.6232 110.303 21.4631 109.836 21.4631H106.652V24.7632H109.836V24.7677Z" fill="#9EB0CB"/>
<path d="M125.728 13.3418V15.9837H121.947V27.3518H119.185V15.9837H115.422V13.3418H125.728Z" fill="#9EB0CB"/>
<path d="M133.973 27.6322C131.865 27.6322 130.122 26.9339 128.747 25.5285C127.373 24.1275 126.684 22.4018 126.684 20.347C126.684 18.2922 127.369 16.5487 128.747 15.1522C130.122 13.76 131.861 13.0618 133.973 13.0618C135.241 13.0618 136.411 13.3598 137.487 13.9513C138.559 14.5428 139.399 15.3478 140 16.3619L137.62 17.7407C137.273 17.1136 136.78 16.6243 136.139 16.2685C135.499 15.9171 134.778 15.7392 133.978 15.7392C132.617 15.7392 131.518 16.1662 130.686 17.0202C129.85 17.8741 129.437 18.9816 129.437 20.3425C129.437 21.7035 129.855 22.7932 130.686 23.6427C131.518 24.4966 132.617 24.9236 133.978 24.9236C134.778 24.9236 135.503 24.7457 136.148 24.3943C136.793 24.043 137.287 23.5582 137.62 22.9444L140 24.3232C139.399 25.3372 138.563 26.1422 137.5 26.7338C136.433 27.3298 135.259 27.6233 133.978 27.6233L133.973 27.6322Z" fill="#9EB0CB"/>
<path d="M35.3108 29.9625C35.4442 23.5491 35.4442 17.1356 35.3108 10.7266C35.3064 10.5086 35.1818 10.2996 34.9861 10.1884C29.2576 6.8171 23.5691 3.37464 18.014 0.083393C17.8227 -0.0277977 17.5915 -0.0277977 17.4002 0.083393C11.8407 3.37464 6.15218 6.8171 0.428084 10.1884C0.232388 10.304 0.107855 10.5086 0.103407 10.7266C-0.0344691 17.14 -0.0344691 23.5535 0.103407 29.9625C0.107855 30.1805 0.232388 30.3895 0.428084 30.5007C6.15218 33.872 11.8451 37.3145 17.4002 40.6057C17.5915 40.7169 17.8227 40.7169 18.014 40.6057C23.5691 37.3145 29.262 33.872 34.9861 30.5007C35.1818 30.3851 35.3064 30.1805 35.3108 29.9625Z" fill="#9EB0CB"/>
<path d="M20.5625 12.2565H14.8517V28.4325H20.5625V12.2565Z" fill="#C3D1E6"/>
<path d="M21.9101 28.4325L34.7015 10.0193C33.0292 9.03638 31.3658 8.04456 29.7024 7.05719L14.8517 28.4369H21.9101V28.4325Z" fill="white"/>
<path d="M20.5625 12.2565H13.5041L0.712769 30.6742C2.38508 31.6571 4.04849 32.6489 5.7119 33.6363L20.5625 12.2565Z" fill="white"/>
</svg>
