<svg width="150" height="39" viewBox="0 0 150 39" fill="none" xmlns="http://www.w3.org/2000/svg">
<path d="M45.4215 9.89409C45.0252 8.99238 44.345 8.24573 43.4089 7.66565C43.4097 8.04143 43.3851 8.41886 43.3358 8.793V8.79628L43.3227 8.88818C43.2948 9.08427 43.2595 9.27955 43.2169 9.47318C43.5574 9.78333 43.8166 10.1345 43.9873 10.5234C44.6412 12.0109 44.0144 14.0761 42.2602 16.3776C41.9287 16.8116 41.5586 17.2539 41.1484 17.7027C40.9146 17.9587 40.6676 18.2163 40.4083 18.4764C39.8988 18.9867 39.3532 19.4913 38.7756 19.9894C38.344 20.361 37.8952 20.7294 37.43 21.0921C31.1401 26.0044 21.9104 30.0592 14.0395 31.3695C13.4578 31.4663 12.8835 31.5484 12.3181 31.6148C11.5608 31.7035 10.8199 31.7634 10.1004 31.7937C9.75247 31.8077 9.41443 31.815 9.08377 31.815C9.06654 31.815 9.0485 31.815 9.03045 31.815C8.4036 31.8134 7.81038 31.7863 7.25163 31.7322C4.39798 31.4614 2.47066 30.5285 1.82083 29.05C1.1669 27.5625 1.79375 25.4965 3.54795 23.1958C3.47821 22.8012 3.4216 22.4057 3.37811 22.0143C3.34201 21.6952 3.31329 21.3719 3.29278 21.0478C0.391538 24.31 -0.639817 27.3426 0.387433 29.6801C1.41468 32.0185 4.34629 33.31 8.7121 33.3789C8.83435 33.3805 8.95825 33.3813 9.08296 33.3813C9.43495 33.3813 9.79678 33.3731 10.166 33.3584C10.2833 33.3535 10.4007 33.3477 10.5196 33.3411C10.9791 33.7621 11.4566 34.1567 11.9514 34.5259C13.1952 35.4539 14.5482 36.2161 15.9964 36.8036C18.1961 37.6955 20.5205 38.1484 22.9049 38.1484C25.2892 38.1484 27.6137 37.6963 29.8134 36.8036C32.0919 35.8797 34.1357 34.5226 35.8883 32.7701C36.7637 31.8946 37.5415 30.9453 38.2152 29.9304C38.8896 28.9154 39.459 27.8357 39.921 26.696C40.5741 25.0846 40.9917 23.4075 41.1681 21.6886C41.2313 21.074 41.2641 20.4546 41.2649 19.831C41.3494 19.749 41.4339 19.6661 41.5168 19.5832C41.8713 19.2288 42.2044 18.8751 42.5153 18.5248C45.4166 15.2634 46.4479 12.23 45.4215 9.89327V9.89409ZM38.1873 24.1016C37.462 26.6886 36.0811 29.0598 34.1283 31.0118C31.1303 34.0098 27.1443 35.6607 22.9041 35.6607C20.3745 35.6607 17.936 35.0732 15.7437 33.9623C15.1554 33.6644 14.586 33.3288 14.0362 32.958C14.6606 32.8587 15.2957 32.7414 15.9389 32.6076C19.4473 31.8799 23.2134 30.6582 26.9573 29.0123C29.9118 27.7142 32.6826 26.2275 35.1482 24.6309C35.8062 24.2042 36.4437 23.7702 37.0566 23.3296C37.59 22.9456 38.1052 22.5567 38.6008 22.1645C38.5032 22.8209 38.3645 23.4682 38.1865 24.1016H38.1873Z" fill="black"/>
<path d="M4.92557 23.5322C5.14956 24.6095 5.47037 25.6671 5.888 26.6969C6.43608 28.0498 7.1376 29.3191 7.98352 30.4949C8.33715 30.5162 8.70473 30.5269 9.08461 30.5269C9.39558 30.5269 9.71968 30.5203 10.0471 30.5064C10.4048 30.4916 10.7666 30.4694 11.1342 30.4383C8.8114 27.8775 7.41 24.6809 7.09822 21.2562C7.05391 20.7713 7.03176 20.2815 7.03176 19.7884C7.03176 19.7203 7.03175 19.653 7.03339 19.5857C7.04242 18.8514 7.10149 18.1252 7.20816 17.4114C7.3058 16.755 7.44446 16.1076 7.62251 15.4742C8.34782 12.8872 9.7287 10.516 11.6815 8.56409C14.7755 5.47003 18.8402 3.9226 22.9057 3.9226C24.7879 3.9226 26.6709 4.25489 28.4571 4.91867C28.3021 5.28625 28.1798 5.66285 28.0896 6.04684C27.9829 6.4981 27.9214 6.9584 27.9041 7.42033C27.8844 7.95119 27.9238 8.48368 28.0223 9.00715C28.101 9.4256 28.2176 9.83913 28.3726 10.2412C28.7189 11.1421 29.2546 11.9863 29.9808 12.7125C32.0902 14.8219 35.195 15.3282 37.7828 14.2337C38.2685 15.5391 38.5828 16.9109 38.7116 18.3213C38.9823 18.0711 39.2441 17.8192 39.496 17.5665C40.0285 17.0332 40.4888 16.5253 40.8842 16.0437C40.6602 14.9664 40.3394 13.9087 39.9218 12.8799C39.9161 12.8667 39.9111 12.8536 39.9054 12.8405C39.9497 12.7986 39.9932 12.756 40.0375 12.7125C40.8293 11.9207 41.3946 10.9895 41.7351 9.99748C41.8803 9.57575 41.9837 9.14253 42.0469 8.70521C42.1273 8.14646 42.142 7.58033 42.0887 7.01993C42.0428 6.526 41.9451 6.03617 41.7958 5.55865C41.4643 4.49694 40.8777 3.49758 40.0375 2.65658C37.2601 -0.119944 32.7581 -0.119944 29.9808 2.65658C29.9373 2.70007 29.8954 2.74356 29.8528 2.78786C29.8396 2.78294 29.8273 2.7772 29.8142 2.77145C27.6145 1.87876 25.2901 1.42667 22.9057 1.42667C20.5214 1.42667 18.1969 1.87876 15.9972 2.77145C13.7187 3.69532 11.6749 5.05241 9.92234 6.80497C8.16978 8.55753 6.81269 10.6014 5.88882 12.8799C5.23571 14.4905 4.81891 16.1675 4.64168 17.8865C4.57851 18.501 4.54568 19.1197 4.54486 19.744C4.54486 19.7596 4.54486 19.7736 4.54486 19.7892C4.54486 20.4899 4.58425 21.1848 4.66219 21.8732C4.72455 22.4311 4.81398 22.985 4.92721 23.5339L4.92557 23.5322Z" fill="black"/>
<path d="M58.1306 25.4556C58.5148 25.076 58.97 24.7833 59.4937 24.5752C60.0174 24.3694 60.5936 24.2642 61.2271 24.2642C61.8606 24.2642 62.446 24.3831 62.9857 24.6186C63.5254 24.8542 64.0148 25.2087 64.4516 25.6798L65.8993 24.3168C65.3367 23.6513 64.646 23.1482 63.8296 22.8074C63.0132 22.469 62.1122 22.2997 61.1219 22.2997C60.1912 22.2997 59.3335 22.453 58.5537 22.7571C57.7716 23.0613 57.0878 23.4935 56.5024 24.0492C55.9169 24.6072 55.4618 25.2658 55.1394 26.0228C54.8169 26.7821 54.6569 27.6099 54.6569 28.5064C54.6569 29.4028 54.8169 30.2307 55.1394 30.9899C55.4618 31.7492 55.9124 32.4055 56.4932 32.9635C57.0741 33.5215 57.7579 33.9515 58.5446 34.2556C59.3313 34.5598 60.1843 34.713 61.1059 34.713C62.1053 34.713 63.0132 34.5415 63.8296 34.1962C64.646 33.8509 65.3344 33.3523 65.8993 32.696L64.4516 31.317C64.0148 31.7995 63.5254 32.1586 62.9857 32.3941C62.446 32.6297 61.8583 32.7486 61.2271 32.7486C60.5959 32.7486 60.0174 32.6457 59.4937 32.4376C58.97 32.2317 58.5171 31.9367 58.1306 31.5594C57.7464 31.1798 57.4469 30.7315 57.2342 30.2147C57.0215 29.6979 56.9163 29.1284 56.9163 28.5087C56.9163 27.8889 57.0215 27.3195 57.2342 26.8026C57.4469 26.2858 57.7464 25.8376 58.1306 25.4579V25.4556Z" fill="black"/>
<path d="M81.5348 24.0675C80.9494 23.5095 80.261 23.0773 79.4743 22.7663C78.6876 22.4552 77.8209 22.2997 76.8787 22.2997C75.9365 22.2997 75.0857 22.4552 74.2922 22.7663C73.4986 23.0773 72.8103 23.5095 72.2225 24.0675C71.6371 24.6255 71.182 25.2796 70.8595 26.0319C70.5371 26.7843 70.377 27.6099 70.377 28.5064C70.377 29.4028 70.5371 30.2284 70.8595 30.9808C71.182 31.7332 71.6348 32.3895 72.2225 32.9452C72.808 33.5032 73.4986 33.9355 74.2922 34.2465C75.0857 34.5575 75.9525 34.713 76.8947 34.713C77.8369 34.713 78.6853 34.5575 79.472 34.2465C80.2587 33.9355 80.9471 33.5055 81.5325 32.9544C82.118 32.4033 82.573 31.7469 82.8955 30.9899C83.2179 30.2307 83.378 29.4028 83.378 28.5064C83.378 27.6099 83.2179 26.7843 82.8955 26.0319C82.573 25.2796 82.1202 24.6232 81.5325 24.0675H81.5348ZM80.803 30.2055C80.5903 30.7178 80.2953 31.166 79.9157 31.5502C79.536 31.9344 79.0878 32.2317 78.571 32.4376C78.0541 32.6434 77.4915 32.7486 76.8809 32.7486C76.2703 32.7486 75.7078 32.6457 75.1909 32.4376C74.6741 32.2317 74.2259 31.9344 73.8463 31.5502C73.4666 31.166 73.1716 30.7132 72.9589 30.1964C72.7463 29.6796 72.641 29.117 72.641 28.5064C72.641 27.8958 72.7463 27.3195 72.9589 26.8072C73.1716 26.2949 73.4712 25.8467 73.8554 25.4625C74.2396 25.0783 74.6878 24.781 75.2001 24.5752C75.7123 24.3694 76.2726 24.2642 76.8809 24.2642C77.4893 24.2642 78.0541 24.3671 78.571 24.5752C79.0878 24.7833 79.536 25.0783 79.9157 25.4625C80.2953 25.8467 80.5903 26.2949 80.803 26.8072C81.0157 27.3195 81.1209 27.8843 81.1209 28.5064C81.1209 29.1284 81.0134 29.6933 80.803 30.2055Z" fill="black"/>
<path d="M96.4225 28.5773C96.0017 28.3349 95.5375 28.1405 95.0252 27.9918C94.5129 27.8432 93.9984 27.7082 93.4816 27.587C92.9647 27.4658 92.4959 27.3423 92.0774 27.2166C91.6566 27.0908 91.3181 26.9147 91.0597 26.6906C90.8013 26.4665 90.6709 26.1714 90.6709 25.8033C90.6709 25.4922 90.7601 25.2178 90.9385 24.9754C91.1169 24.733 91.3982 24.5386 91.7824 24.39C92.1666 24.2413 92.6697 24.1658 93.2917 24.1658C93.82 24.1658 94.3711 24.2436 94.9474 24.3991C95.5214 24.5546 96.0795 24.7924 96.6192 25.1149L97.3258 23.3746C96.7975 23.0293 96.1755 22.7663 95.4643 22.581C94.7508 22.3981 94.0327 22.3043 93.31 22.3043C92.2078 22.3043 91.2953 22.469 90.5772 22.796C89.8591 23.123 89.324 23.5598 88.9741 24.1064C88.6242 24.653 88.4481 25.2521 88.4481 25.9085C88.4481 26.5648 88.5807 27.0816 88.8437 27.4956C89.109 27.9095 89.4497 28.2388 89.8705 28.4858C90.289 28.7328 90.7556 28.934 91.2678 29.0895C91.7801 29.245 92.2901 29.38 92.8023 29.4943C93.3146 29.6087 93.7789 29.7322 94.1996 29.8648C94.6181 29.9974 94.9612 30.1758 95.2265 30.3999C95.4917 30.6241 95.6221 30.919 95.6221 31.2872C95.6221 31.5868 95.5306 31.8544 95.3454 32.0899C95.1624 32.3255 94.8743 32.513 94.4832 32.6502C94.0922 32.7874 93.5799 32.8561 92.9487 32.8561C92.2009 32.8561 91.4714 32.7303 90.7601 32.4764C90.0466 32.2249 89.4498 31.907 88.9672 31.5274L88.192 33.2677C88.6974 33.6931 89.3811 34.0407 90.2433 34.3105C91.1055 34.5804 92.0065 34.7153 92.951 34.7153C94.0533 34.7153 94.968 34.5506 95.693 34.2236C96.4179 33.8966 96.9553 33.4598 97.3052 32.9132C97.6551 32.3667 97.8312 31.7721 97.8312 31.1295C97.8312 30.4868 97.7009 29.9746 97.4425 29.5606C97.184 29.1467 96.8456 28.8197 96.4248 28.5773H96.4225Z" fill="black"/>
<path d="M114.843 22.4735L110.132 30.4708L105.344 22.4735H103.498V34.5415H105.636V26.6494L109.602 33.1625H110.601L114.569 26.5465L114.585 34.5415H116.705L116.689 22.4735H114.843Z" fill="black"/>
<path d="M133.704 24.0675C133.118 23.5095 132.43 23.0773 131.643 22.7663C130.856 22.4552 129.99 22.2997 129.047 22.2997C128.105 22.2997 127.255 22.4552 126.461 22.7663C125.667 23.0773 124.979 23.5095 124.391 24.0675C123.806 24.6255 123.351 25.2796 123.028 26.0319C122.706 26.7843 122.546 27.6099 122.546 28.5064C122.546 29.4028 122.706 30.2284 123.028 30.9808C123.351 31.7332 123.804 32.3895 124.391 32.9452C124.977 33.5032 125.667 33.9355 126.461 34.2465C127.255 34.5575 128.121 34.713 129.063 34.713C130.006 34.713 130.854 34.5575 131.641 34.2465C132.427 33.9355 133.116 33.5055 133.701 32.9544C134.287 32.4033 134.742 31.7469 135.064 30.9899C135.387 30.2307 135.547 29.4028 135.547 28.5064C135.547 27.6099 135.387 26.7843 135.064 26.0319C134.742 25.2796 134.289 24.6232 133.701 24.0675H133.704ZM132.972 30.2055C132.759 30.7178 132.464 31.166 132.084 31.5502C131.705 31.9344 131.257 32.2317 130.74 32.4376C130.223 32.6434 129.66 32.7486 129.05 32.7486C128.439 32.7486 127.877 32.6457 127.36 32.4376C126.843 32.2317 126.395 31.9344 126.015 31.5502C125.635 31.166 125.34 30.7132 125.128 30.1964C124.915 29.6796 124.81 29.117 124.81 28.5064C124.81 27.8958 124.915 27.3195 125.128 26.8072C125.34 26.2949 125.64 25.8467 126.024 25.4625C126.408 25.0783 126.857 24.781 127.369 24.5752C127.881 24.3694 128.441 24.2642 129.05 24.2642C129.658 24.2642 130.223 24.3671 130.74 24.5752C131.257 24.7833 131.705 25.0783 132.084 25.4625C132.464 25.8467 132.759 26.2949 132.972 26.8072C133.184 27.3195 133.29 27.8843 133.29 28.5064C133.29 29.1284 133.182 29.6933 132.972 30.2055Z" fill="black"/>
<path d="M149.609 29.5583C149.351 29.1444 149.012 28.8174 148.591 28.575C148.173 28.3326 147.706 28.1382 147.194 27.9895C146.682 27.8409 146.167 27.706 145.65 27.5848C145.133 27.4636 144.665 27.3401 144.246 27.2143C143.828 27.0885 143.487 26.9124 143.228 26.6883C142.97 26.4642 142.84 26.1692 142.84 25.801C142.84 25.49 142.929 25.2155 143.107 24.9731C143.286 24.7307 143.567 24.5363 143.951 24.3877C144.335 24.239 144.838 24.1636 145.46 24.1636C145.989 24.1636 146.54 24.2413 147.116 24.3968C147.69 24.5523 148.248 24.7902 148.788 25.1126L149.495 23.3723C148.966 23.027 148.344 22.764 147.633 22.5787C146.92 22.3958 146.201 22.302 145.479 22.302C144.377 22.302 143.464 22.4667 142.746 22.7937C142.028 23.1207 141.493 23.5575 141.143 24.1041C140.793 24.6507 140.617 25.2498 140.617 25.9062C140.617 26.5625 140.749 27.0794 141.012 27.4933C141.278 27.9072 141.619 28.2365 142.039 28.4835C142.458 28.7305 142.924 28.9317 143.437 29.0872C143.949 29.2428 144.459 29.3777 144.971 29.492C145.483 29.6064 145.948 29.7299 146.368 29.8625C146.787 29.9951 147.13 30.1735 147.395 30.3976C147.661 30.6218 147.791 30.9168 147.791 31.285C147.791 31.5845 147.699 31.8521 147.514 32.0877C147.331 32.3232 147.043 32.5107 146.652 32.6479C146.261 32.7852 145.749 32.8538 145.117 32.8538C144.37 32.8538 143.64 32.728 142.929 32.4741C142.215 32.2226 141.619 31.9047 141.136 31.5251L140.361 33.2654C140.866 33.6908 141.55 34.0384 142.412 34.3082C143.274 34.5781 144.175 34.713 145.12 34.713C146.222 34.713 147.137 34.5484 147.862 34.2213C148.587 33.8943 149.124 33.4575 149.474 32.9109C149.824 32.3644 150 31.7698 150 31.1272C150 30.4845 149.87 29.9723 149.611 29.5583H149.609Z" fill="black"/>
<path d="M65.8146 6.22968C65.2292 5.67168 64.5408 5.23945 63.7542 4.92844C62.9675 4.61742 62.1007 4.4619 61.1585 4.4619C60.2163 4.4619 59.3656 4.61742 58.572 4.92844C57.7785 5.23945 57.0901 5.67168 56.5024 6.22968C55.9169 6.78768 55.4618 7.44173 55.1394 8.19412C54.8169 8.94651 54.6569 9.77208 54.6569 10.6685C54.6569 11.565 54.8169 12.3906 55.1394 13.143C55.4618 13.8954 55.9146 14.5517 56.5024 15.1074C57.0878 15.6654 57.7785 16.0976 58.572 16.4087C59.3656 16.7197 60.2323 16.8752 61.1745 16.8752C62.1167 16.8752 62.9652 16.7197 63.7519 16.4087C64.5386 16.0976 65.2269 15.6677 65.8124 15.1166C66.3978 14.5654 66.8529 13.9091 67.1753 13.1521C67.4978 12.3929 67.6579 11.565 67.6579 10.6685C67.6579 9.77208 67.4978 8.94651 67.1753 8.19412C66.8529 7.44173 66.4001 6.7854 65.8124 6.22968H65.8146ZM65.0828 12.3677C64.8701 12.88 64.5751 13.3282 64.1955 13.7124C63.8159 14.0966 63.3676 14.3939 62.8508 14.5997C62.334 14.8055 61.7714 14.9107 61.1608 14.9107C60.5502 14.9107 59.9876 14.8078 59.4708 14.5997C58.9539 14.3939 58.5057 14.0966 58.1261 13.7124C57.7465 13.3282 57.4515 12.8754 57.2388 12.3586C57.0261 11.8417 56.9209 11.2791 56.9209 10.6685C56.9209 10.0579 57.0261 9.48165 57.2388 8.96938C57.4515 8.45712 57.751 8.00888 58.1352 7.62468C58.5194 7.24049 58.9677 6.94319 59.4799 6.73737C59.9922 6.53155 60.5525 6.42635 61.1608 6.42635C61.7691 6.42635 62.334 6.52926 62.8508 6.73737C63.3676 6.94547 63.8159 7.24049 64.1955 7.62468C64.5751 8.00888 64.8701 8.45712 65.0828 8.96938C65.2955 9.48165 65.4007 10.0465 65.4007 10.6685C65.4007 11.2906 65.2932 11.8554 65.0828 12.3677Z" fill="black"/>
<path d="M81.2009 12.5049C81.9647 12.1665 82.5548 11.6771 82.9687 11.039C83.3826 10.401 83.5884 9.63944 83.5884 8.75441C83.5884 7.86938 83.3826 7.10555 82.9687 6.46065C82.5548 5.81803 81.9647 5.32178 81.2009 4.97874C80.4371 4.63342 79.52 4.4619 78.4521 4.4619H73.4872V16.5299H75.7284V13.0126H78.4521C78.6144 13.0126 78.7653 13.0012 78.9186 12.9943L81.3839 16.5299H83.7965L81.0225 12.5712C81.082 12.5484 81.146 12.5301 81.2032 12.5049H81.2009ZM80.5811 6.97978C81.082 7.39371 81.3313 7.98602 81.3313 8.7567C81.3313 9.52739 81.082 10.1082 80.5811 10.5336C80.0803 10.959 79.3371 11.1717 78.3491 11.1717H75.7284V6.36231H78.3491C79.3371 6.36231 80.0826 6.56814 80.5811 6.98207V6.97978Z" fill="black"/>
<path d="M98.5013 10.3644C98.3618 10.3003 98.2177 10.2455 98.0714 10.1997C98.5333 9.95503 98.9084 9.62114 99.192 9.19349C99.4915 8.74068 99.6402 8.19183 99.6402 7.54692C99.6402 6.59328 99.2606 5.83175 98.5013 5.26231C97.7421 4.69287 96.6398 4.4093 95.1922 4.4093H89.5367V16.4773H95.5375C97.0995 16.4773 98.2795 16.1891 99.0708 15.6151C99.8643 15.0411 100.26 14.2361 100.26 13.2024C100.26 12.5026 100.102 11.9149 99.7866 11.4438C99.471 10.9727 99.0433 10.6137 98.5013 10.3667V10.3644ZM94.9498 6.16564C95.7319 6.16564 96.3311 6.30285 96.7519 6.57957C97.1704 6.85628 97.3808 7.27478 97.3808 7.83736C97.3808 8.39994 97.1704 8.80243 96.7519 9.07915C96.3311 9.35586 95.7319 9.49307 94.9498 9.49307H91.7779V6.16564H94.9498ZM97.3281 14.3024C96.8799 14.5791 96.235 14.7164 95.398 14.7164H91.7779V11.2334H95.398C96.2373 11.2334 96.8799 11.3752 97.3281 11.6565C97.7764 11.9378 98.0005 12.3769 98.0005 12.976C98.0005 13.5752 97.7764 14.028 97.3281 14.3024Z" fill="black"/>
<path d="M108.346 4.40701H106.105V16.475H108.346V4.40701Z" fill="black"/>
<path d="M113.501 6.30285H117.501V16.475H119.742V6.30285H123.742V4.40701H113.501V6.30285Z" fill="black"/>
</svg>
