<svg width="150" height="38" viewBox="0 0 150 38" fill="none" xmlns="http://www.w3.org/2000/svg">
<path d="M45.4215 9.3199C45.0252 8.41819 44.345 7.67155 43.4089 7.09146C43.4097 7.46724 43.3851 7.84467 43.3358 8.21881V8.22209L43.3227 8.31399C43.2948 8.51009 43.2595 8.70536 43.2169 8.89899C43.5574 9.20914 43.8166 9.56031 43.9873 9.94922C44.6412 11.4368 44.0144 13.5019 42.2602 15.8034C41.9287 16.2374 41.5586 16.6797 41.1484 17.1285C40.9146 17.3845 40.6676 17.6421 40.4083 17.9022C39.8988 18.4125 39.3532 18.9171 38.7756 19.4152C38.344 19.7869 37.8952 20.1553 37.43 20.5179C31.1401 25.4302 21.9104 29.485 14.0395 30.7953C13.4578 30.8921 12.8835 30.9742 12.3181 31.0407C11.5608 31.1293 10.8199 31.1892 10.1004 31.2195C9.75247 31.2335 9.41443 31.2409 9.08377 31.2409C9.06654 31.2409 9.0485 31.2409 9.03045 31.2409C8.4036 31.2392 7.81038 31.2121 7.25163 31.158C4.39798 30.8872 2.47066 29.9543 1.82083 28.4758C1.1669 26.9883 1.79375 24.9223 3.54795 22.6216C3.47821 22.227 3.4216 21.8315 3.37811 21.4401C3.34201 21.121 3.31329 20.7977 3.29278 20.4736C0.391538 23.7359 -0.639817 26.7684 0.387433 29.1059C1.41468 31.4443 4.34629 32.7358 8.7121 32.8047C8.83435 32.8063 8.95825 32.8072 9.08296 32.8072C9.43495 32.8072 9.79678 32.799 10.166 32.7842C10.2833 32.7793 10.4007 32.7735 10.5196 32.767C10.9791 33.1879 11.4566 33.5825 11.9514 33.9517C13.1952 34.8797 14.5482 35.6419 15.9964 36.2294C18.1961 37.1213 20.5205 37.5742 22.9049 37.5742C25.2892 37.5742 27.6137 37.1221 29.8134 36.2294C32.0919 35.3055 34.1357 33.9485 35.8883 32.1959C36.7637 31.3204 37.5415 30.3711 38.2152 29.3562C38.8896 28.3413 39.459 27.2615 39.921 26.1218C40.5741 24.5104 40.9917 22.8333 41.1681 21.1144C41.2313 20.4999 41.2641 19.8804 41.2649 19.2568C41.3494 19.1748 41.4339 19.0919 41.5168 19.009C41.8713 18.6546 42.2044 18.301 42.5153 17.9506C45.4166 14.6892 46.4479 11.6558 45.4215 9.31909V9.3199ZM38.1873 23.5275C37.462 26.1145 36.0811 28.4857 34.1283 30.4376C31.1303 33.4357 27.1443 35.0865 22.9041 35.0865C20.3745 35.0865 17.936 34.499 15.7437 33.3881C15.1554 33.0902 14.586 32.7547 14.0362 32.3838C14.6606 32.2845 15.2957 32.1672 15.9389 32.0334C19.4473 31.3057 23.2134 30.084 26.9573 28.4381C29.9118 27.1401 32.6826 25.6533 35.1482 24.0567C35.8062 23.63 36.4437 23.196 37.0566 22.7554C37.59 22.3714 38.1052 21.9825 38.6008 21.5903C38.5032 22.2467 38.3645 22.894 38.1865 23.5275H38.1873Z" fill="#9EB0CB"/>
<path d="M4.92557 22.958C5.14956 24.0353 5.47037 25.093 5.888 26.1227C6.43608 27.4756 7.1376 28.7449 7.98352 29.9207C8.33715 29.942 8.70473 29.9527 9.08461 29.9527C9.39558 29.9527 9.71968 29.9461 10.0471 29.9322C10.4048 29.9174 10.7666 29.8953 11.1342 29.8641C8.8114 27.3033 7.41 24.1067 7.09822 20.682C7.05391 20.1971 7.03176 19.7073 7.03176 19.2142C7.03176 19.1461 7.03175 19.0788 7.03339 19.0115C7.04242 18.2772 7.10149 17.551 7.20816 16.8372C7.3058 16.1808 7.44446 15.5335 7.62251 14.9C8.34782 12.313 9.7287 9.94184 11.6815 7.9899C14.7755 4.89585 18.8402 3.34841 22.9057 3.34841C24.7879 3.34841 26.6709 3.68071 28.4571 4.34448C28.3021 4.71206 28.1798 5.08866 28.0896 5.47265C27.9829 5.92392 27.9214 6.38421 27.9041 6.84614C27.8844 7.377 27.9238 7.90949 28.0223 8.43296C28.101 8.85141 28.2176 9.26494 28.3726 9.66698C28.7189 10.5679 29.2546 11.4122 29.9808 12.1383C32.0902 14.2478 35.195 14.754 37.7828 13.6595C38.2685 14.9649 38.5828 16.3367 38.7116 17.7471C38.9823 17.4969 39.2441 17.245 39.496 16.9923C40.0285 16.459 40.4888 15.9511 40.8842 15.4695C40.6602 14.3922 40.3394 13.3346 39.9218 12.3057C39.9161 12.2925 39.9111 12.2794 39.9054 12.2663C39.9497 12.2244 39.9932 12.1818 40.0375 12.1383C40.8293 11.3465 41.3946 10.4153 41.7351 9.42329C41.8803 9.00156 41.9837 8.56835 42.0469 8.13103C42.1273 7.57227 42.142 7.00614 42.0887 6.44574C42.0428 5.95181 41.9451 5.46198 41.7958 4.98446C41.4643 3.92275 40.8777 2.9234 40.0375 2.0824C37.2601 -0.694132 32.7581 -0.694132 29.9808 2.0824C29.9373 2.12588 29.8954 2.16937 29.8528 2.21367C29.8396 2.20875 29.8273 2.20301 29.8142 2.19726C27.6145 1.30457 25.2901 0.852486 22.9057 0.852486C20.5214 0.852486 18.1969 1.30457 15.9972 2.19726C13.7187 3.12113 11.6749 4.47822 9.92234 6.23078C8.16978 7.98334 6.81269 10.0272 5.88882 12.3057C5.23571 13.9163 4.81891 15.5934 4.64168 17.3123C4.57851 17.9268 4.54568 18.5455 4.54486 19.1699C4.54486 19.1854 4.54486 19.1994 4.54486 19.215C4.54486 19.9157 4.58425 20.6106 4.66219 21.299C4.72455 21.857 4.81398 22.4108 4.92721 22.9597L4.92557 22.958Z" fill="#9EB0CB"/>
<path d="M58.1306 24.8815C58.5148 24.5018 58.97 24.2091 59.4937 24.001C60.0174 23.7952 60.5936 23.69 61.2271 23.69C61.8606 23.69 62.446 23.8089 62.9857 24.0445C63.5254 24.28 64.0148 24.6345 64.4516 25.1056L65.8993 23.7426C65.3367 23.0771 64.646 22.574 63.8296 22.2333C63.0132 21.8948 62.1122 21.7256 61.1219 21.7256C60.1912 21.7256 59.3335 21.8788 58.5537 22.1829C57.7716 22.4871 57.0878 22.9193 56.5024 23.475C55.9169 24.033 55.4618 24.6917 55.1394 25.4486C54.8169 26.2079 54.6569 27.0357 54.6569 27.9322C54.6569 28.8287 54.8169 29.6565 55.1394 30.4158C55.4618 31.175 55.9124 31.8314 56.4932 32.3894C57.0741 32.9474 57.7579 33.3773 58.5446 33.6815C59.3313 33.9856 60.1843 34.1389 61.1059 34.1389C62.1053 34.1389 63.0132 33.9673 63.8296 33.622C64.646 33.2767 65.3344 32.7781 65.8993 32.1218L64.4516 30.7428C64.0148 31.2253 63.5254 31.5844 62.9857 31.8199C62.446 32.0555 61.8583 32.1744 61.2271 32.1744C60.5959 32.1744 60.0174 32.0715 59.4937 31.8634C58.97 31.6576 58.5171 31.3625 58.1306 30.9852C57.7464 30.6056 57.4469 30.1574 57.2342 29.6405C57.0215 29.1237 56.9163 28.5542 56.9163 27.9345C56.9163 27.3147 57.0215 26.7453 57.2342 26.2285C57.4469 25.7116 57.7464 25.2634 58.1306 24.8838V24.8815Z" fill="#9EB0CB"/>
<path d="M81.5348 23.4933C80.9494 22.9353 80.261 22.5031 79.4743 22.1921C78.6876 21.8811 77.8209 21.7256 76.8787 21.7256C75.9365 21.7256 75.0857 21.8811 74.2922 22.1921C73.4986 22.5031 72.8103 22.9353 72.2225 23.4933C71.6371 24.0513 71.182 24.7054 70.8595 25.4578C70.5371 26.2102 70.377 27.0357 70.377 27.9322C70.377 28.8287 70.5371 29.6542 70.8595 30.4066C71.182 31.159 71.6348 31.8154 72.2225 32.3711C72.808 32.9291 73.4986 33.3613 74.2922 33.6723C75.0857 33.9833 75.9525 34.1389 76.8947 34.1389C77.8369 34.1389 78.6853 33.9833 79.472 33.6723C80.2587 33.3613 80.9471 32.9314 81.5325 32.3802C82.118 31.8291 82.573 31.1727 82.8955 30.4158C83.2179 29.6565 83.378 28.8287 83.378 27.9322C83.378 27.0357 83.2179 26.2102 82.8955 25.4578C82.573 24.7054 82.1202 24.0491 81.5325 23.4933H81.5348ZM80.803 29.6314C80.5903 30.1436 80.2953 30.5919 79.9157 30.9761C79.536 31.3603 79.0878 31.6576 78.571 31.8634C78.0541 32.0692 77.4915 32.1744 76.8809 32.1744C76.2703 32.1744 75.7078 32.0715 75.1909 31.8634C74.6741 31.6576 74.2259 31.3603 73.8463 30.9761C73.4666 30.5919 73.1716 30.1391 72.9589 29.6222C72.7463 29.1054 72.641 28.5428 72.641 27.9322C72.641 27.3216 72.7463 26.7453 72.9589 26.233C73.1716 25.7208 73.4712 25.2725 73.8554 24.8883C74.2396 24.5041 74.6878 24.2068 75.2001 24.001C75.7123 23.7952 76.2726 23.69 76.8809 23.69C77.4893 23.69 78.0541 23.7929 78.571 24.001C79.0878 24.2091 79.536 24.5041 79.9157 24.8883C80.2953 25.2725 80.5903 25.7208 80.803 26.233C81.0157 26.7453 81.1209 27.3102 81.1209 27.9322C81.1209 28.5542 81.0134 29.1191 80.803 29.6314Z" fill="#9EB0CB"/>
<path d="M96.4225 28.0031C96.0017 27.7607 95.5375 27.5663 95.0252 27.4176C94.5129 27.269 93.9984 27.1341 93.4816 27.0129C92.9647 26.8917 92.4959 26.7682 92.0774 26.6424C91.6566 26.5166 91.3181 26.3405 91.0597 26.1164C90.8013 25.8923 90.6709 25.5973 90.6709 25.2291C90.6709 24.9181 90.7601 24.6436 90.9385 24.4012C91.1169 24.1588 91.3982 23.9644 91.7824 23.8158C92.1666 23.6671 92.6697 23.5917 93.2917 23.5917C93.82 23.5917 94.3711 23.6694 94.9474 23.8249C95.5214 23.9804 96.0795 24.2183 96.6192 24.5407L97.3258 22.8004C96.7975 22.4551 96.1755 22.1921 95.4643 22.0069C94.7508 21.8239 94.0327 21.7301 93.31 21.7301C92.2078 21.7301 91.2953 21.8948 90.5772 22.2218C89.8591 22.5488 89.324 22.9856 88.9741 23.5322C88.6242 24.0788 88.4481 24.6779 88.4481 25.3343C88.4481 25.9906 88.5807 26.5075 88.8437 26.9214C89.109 27.3353 89.4497 27.6646 89.8705 27.9116C90.289 28.1586 90.7556 28.3598 91.2678 28.5154C91.7801 28.6709 92.2901 28.8058 92.8023 28.9201C93.3146 29.0345 93.7789 29.158 94.1996 29.2906C94.6181 29.4233 94.9612 29.6016 95.2265 29.8258C95.4917 30.0499 95.6221 30.3449 95.6221 30.7131C95.6221 31.0126 95.5306 31.2802 95.3454 31.5158C95.1624 31.7513 94.8743 31.9388 94.4832 32.0761C94.0922 32.2133 93.5799 32.2819 92.9487 32.2819C92.2009 32.2819 91.4714 32.1561 90.7601 31.9023C90.0466 31.6507 89.4498 31.3328 88.9672 30.9532L88.192 32.6935C88.6974 33.1189 89.3811 33.4665 90.2433 33.7364C91.1055 34.0062 92.0065 34.1411 92.951 34.1411C94.0533 34.1411 94.968 33.9765 95.693 33.6495C96.4179 33.3224 96.9553 32.8856 97.3052 32.3391C97.6551 31.7925 97.8312 31.1979 97.8312 30.5553C97.8312 29.9127 97.7009 29.4004 97.4425 28.9865C97.184 28.5725 96.8456 28.2455 96.4248 28.0031H96.4225Z" fill="#9EB0CB"/>
<path d="M114.843 21.8994L110.132 29.8966L105.344 21.8994H103.498V33.9673H105.636V26.0752L109.602 32.5883H110.601L114.569 25.9723L114.585 33.9673H116.705L116.689 21.8994H114.843Z" fill="#9EB0CB"/>
<path d="M133.704 23.4933C133.118 22.9353 132.43 22.5031 131.643 22.1921C130.856 21.8811 129.99 21.7256 129.047 21.7256C128.105 21.7256 127.255 21.8811 126.461 22.1921C125.667 22.5031 124.979 22.9353 124.391 23.4933C123.806 24.0513 123.351 24.7054 123.028 25.4578C122.706 26.2102 122.546 27.0357 122.546 27.9322C122.546 28.8287 122.706 29.6542 123.028 30.4066C123.351 31.159 123.804 31.8154 124.391 32.3711C124.977 32.9291 125.667 33.3613 126.461 33.6723C127.255 33.9833 128.121 34.1389 129.063 34.1389C130.006 34.1389 130.854 33.9833 131.641 33.6723C132.427 33.3613 133.116 32.9314 133.701 32.3802C134.287 31.8291 134.742 31.1727 135.064 30.4158C135.387 29.6565 135.547 28.8287 135.547 27.9322C135.547 27.0357 135.387 26.2102 135.064 25.4578C134.742 24.7054 134.289 24.0491 133.701 23.4933H133.704ZM132.972 29.6314C132.759 30.1436 132.464 30.5919 132.084 30.9761C131.705 31.3603 131.257 31.6576 130.74 31.8634C130.223 32.0692 129.66 32.1744 129.05 32.1744C128.439 32.1744 127.877 32.0715 127.36 31.8634C126.843 31.6576 126.395 31.3603 126.015 30.9761C125.635 30.5919 125.34 30.1391 125.128 29.6222C124.915 29.1054 124.81 28.5428 124.81 27.9322C124.81 27.3216 124.915 26.7453 125.128 26.233C125.34 25.7208 125.64 25.2725 126.024 24.8883C126.408 24.5041 126.857 24.2068 127.369 24.001C127.881 23.7952 128.441 23.69 129.05 23.69C129.658 23.69 130.223 23.7929 130.74 24.001C131.257 24.2091 131.705 24.5041 132.084 24.8883C132.464 25.2725 132.759 25.7208 132.972 26.233C133.184 26.7453 133.29 27.3102 133.29 27.9322C133.29 28.5542 133.182 29.1191 132.972 29.6314Z" fill="#9EB0CB"/>
<path d="M149.609 28.9842C149.351 28.5702 149.012 28.2432 148.591 28.0008C148.173 27.7584 147.706 27.564 147.194 27.4154C146.682 27.2667 146.167 27.1318 145.65 27.0106C145.133 26.8894 144.665 26.7659 144.246 26.6401C143.828 26.5143 143.487 26.3382 143.228 26.1141C142.97 25.89 142.84 25.595 142.84 25.2268C142.84 24.9158 142.929 24.6414 143.107 24.3989C143.286 24.1565 143.567 23.9621 143.951 23.8135C144.335 23.6648 144.838 23.5894 145.46 23.5894C145.989 23.5894 146.54 23.6671 147.116 23.8227C147.69 23.9782 148.248 24.216 148.788 24.5384L149.495 22.7981C148.966 22.4528 148.344 22.1898 147.633 22.0046C146.92 21.8216 146.201 21.7278 145.479 21.7278C144.377 21.7278 143.464 21.8925 142.746 22.2195C142.028 22.5466 141.493 22.9834 141.143 23.5299C140.793 24.0765 140.617 24.6757 140.617 25.332C140.617 25.9883 140.749 26.5052 141.012 26.9191C141.278 27.333 141.619 27.6624 142.039 27.9093C142.458 28.1563 142.924 28.3576 143.437 28.5131C143.949 28.6686 144.459 28.8035 144.971 28.9179C145.483 29.0322 145.948 29.1557 146.368 29.2883C146.787 29.421 147.13 29.5994 147.395 29.8235C147.661 30.0476 147.791 30.3426 147.791 30.7108C147.791 31.0104 147.699 31.2779 147.514 31.5135C147.331 31.749 147.043 31.9366 146.652 32.0738C146.261 32.211 145.749 32.2796 145.117 32.2796C144.37 32.2796 143.64 32.1538 142.929 31.9C142.215 31.6484 141.619 31.3305 141.136 30.9509L140.361 32.6912C140.866 33.1166 141.55 33.4642 142.412 33.7341C143.274 34.0039 144.175 34.1389 145.12 34.1389C146.222 34.1389 147.137 33.9742 147.862 33.6472C148.587 33.3201 149.124 32.8833 149.474 32.3368C149.824 31.7902 150 31.1956 150 30.553C150 29.9104 149.87 29.3981 149.611 28.9842H149.609Z" fill="#9EB0CB"/>
<path d="M65.8146 5.65551C65.2292 5.0975 64.5408 4.66528 63.7542 4.35426C62.9675 4.04324 62.1007 3.88773 61.1585 3.88773C60.2163 3.88773 59.3656 4.04324 58.572 4.35426C57.7785 4.66528 57.0901 5.0975 56.5024 5.65551C55.9169 6.21351 55.4618 6.86756 55.1394 7.61995C54.8169 8.37234 54.6569 9.19791 54.6569 10.0944C54.6569 10.9908 54.8169 11.8164 55.1394 12.5688C55.4618 13.3212 55.9146 13.9775 56.5024 14.5332C57.0878 15.0912 57.7785 15.5235 58.572 15.8345C59.3656 16.1455 60.2323 16.301 61.1745 16.301C62.1167 16.301 62.9652 16.1455 63.7519 15.8345C64.5386 15.5235 65.2269 15.0935 65.8124 14.5424C66.3978 13.9913 66.8529 13.3349 67.1753 12.5779C67.4978 11.8187 67.6579 10.9908 67.6579 10.0944C67.6579 9.19791 67.4978 8.37234 67.1753 7.61995C66.8529 6.86756 66.4001 6.21122 65.8124 5.65551H65.8146ZM65.0828 11.7935C64.8701 12.3058 64.5751 12.754 64.1955 13.1382C63.8159 13.5224 63.3676 13.8197 62.8508 14.0256C62.334 14.2314 61.7714 14.3366 61.1608 14.3366C60.5502 14.3366 59.9876 14.2337 59.4708 14.0256C58.9539 13.8197 58.5057 13.5224 58.1261 13.1382C57.7465 12.754 57.4515 12.3012 57.2388 11.7844C57.0261 11.2676 56.9209 10.705 56.9209 10.0944C56.9209 9.48377 57.0261 8.90747 57.2388 8.39521C57.4515 7.88294 57.751 7.43471 58.1352 7.05051C58.5194 6.66631 58.9677 6.36901 59.4799 6.16319C59.9922 5.95737 60.5525 5.85218 61.1608 5.85218C61.7691 5.85218 62.334 5.95509 62.8508 6.16319C63.3676 6.3713 63.8159 6.66631 64.1955 7.05051C64.5751 7.43471 64.8701 7.88294 65.0828 8.39521C65.2955 8.90747 65.4007 9.47234 65.4007 10.0944C65.4007 10.7164 65.2932 11.2813 65.0828 11.7935Z" fill="#9EB0CB"/>
<path d="M81.2009 11.9307C81.9647 11.5923 82.5548 11.1029 82.9687 10.4648C83.3826 9.82681 83.5884 9.06527 83.5884 8.18024C83.5884 7.29521 83.3826 6.53138 82.9687 5.88647C82.5548 5.24385 81.9647 4.7476 81.2009 4.40457C80.4371 4.05925 79.52 3.88773 78.4521 3.88773H73.4872V15.9557H75.7284V12.4384H78.4521C78.6144 12.4384 78.7653 12.427 78.9186 12.4201L81.3839 15.9557H83.7965L81.0225 11.9971C81.082 11.9742 81.146 11.9559 81.2032 11.9307H81.2009ZM80.5811 6.4056C81.082 6.81953 81.3313 7.41184 81.3313 8.18253C81.3313 8.95321 81.082 9.53408 80.5811 9.95944C80.0803 10.3848 79.3371 10.5975 78.3491 10.5975H75.7284V5.78814H78.3491C79.3371 5.78814 80.0826 5.99396 80.5811 6.40789V6.4056Z" fill="#9EB0CB"/>
<path d="M98.5013 9.79022C98.3618 9.72619 98.2177 9.67131 98.0714 9.62557C98.5333 9.38088 98.9084 9.04698 99.192 8.61933C99.4915 8.16653 99.6402 7.61767 99.6402 6.97276C99.6402 6.01913 99.2606 5.25759 98.5013 4.68815C97.7421 4.11872 96.6398 3.83514 95.1922 3.83514H89.5367V15.9031H95.5375C97.0995 15.9031 98.2795 15.615 99.0708 15.0409C99.8643 14.4669 100.26 13.662 100.26 12.6283C100.26 11.9285 100.102 11.3407 99.7866 10.8696C99.471 10.3985 99.0433 10.0395 98.5013 9.79251V9.79022ZM94.9498 5.59148C95.7319 5.59148 96.3311 5.72869 96.7519 6.00541C97.1704 6.28212 97.3808 6.70063 97.3808 7.2632C97.3808 7.82578 97.1704 8.22827 96.7519 8.50499C96.3311 8.7817 95.7319 8.91892 94.9498 8.91892H91.7779V5.59148H94.9498ZM97.3281 13.7283C96.8799 14.005 96.235 14.1422 95.398 14.1422H91.7779V10.6593H95.398C96.2373 10.6593 96.8799 10.801 97.3281 11.0823C97.7764 11.3636 98.0005 11.8027 98.0005 12.4019C98.0005 13.001 97.7764 13.4538 97.3281 13.7283Z" fill="#9EB0CB"/>
<path d="M108.346 3.83286H106.105V15.9008H108.346V3.83286Z" fill="#9EB0CB"/>
<path d="M113.501 5.72869H117.501V15.9008H119.742V5.72869H123.742V3.83286H113.501V5.72869Z" fill="#9EB0CB"/>
</svg>
