<svg width="140" height="25" viewBox="0 0 140 25" fill="none" xmlns="http://www.w3.org/2000/svg">
<path d="M19.8295 2.79199C15.1626 -0.0219352 10.2346 -0.0258911 5.51281 2.68518C1.72444 4.8609 0.330235 8.50819 0.261047 12.7053C0.28324 13.213 0.28324 13.6732 0.32893 14.1295C0.742753 18.2739 2.62911 21.4623 6.39137 23.3664C8.80381 24.5874 11.3964 24.9052 14.0647 24.6692C16.2644 24.4753 18.3309 23.8503 20.1598 22.5765C23.2054 20.4562 24.6635 17.4326 24.8789 13.7932C25.1492 9.24003 23.8842 5.23671 19.8295 2.79199ZM15.0516 16.648C15.0268 17.1781 14.8636 17.7266 14.6482 18.2172C14.2527 19.1178 13.5308 19.5648 12.5243 19.5371C11.5387 19.5107 10.8925 19.0057 10.5126 18.1367C10.3573 17.782 10.2111 17.3864 10.2072 17.008C10.1824 14.1743 10.1824 11.3393 10.2072 8.50556C10.2111 8.12711 10.3586 7.73285 10.5087 7.3755C10.869 6.51972 11.5191 6.01865 12.4603 5.98436C13.3911 5.95008 14.1913 6.32852 14.5203 7.18958C14.8467 8.04536 15.0072 8.98685 15.096 9.90593L15.0686 12.8517C15.0686 14.1176 15.1078 15.3848 15.0503 16.648H15.0516Z" fill="#E0001B"/>
<path d="M19.8295 2.7921L19.964 2.5653C17.5711 1.12274 15.1 0.402771 12.6196 0.402771C10.1889 0.402771 7.75428 1.09504 5.38361 2.45586C3.44635 3.56745 2.10958 5.06804 1.25844 6.82048C0.40599 8.57424 0.0352467 10.5746 0 12.7015V12.7094V12.7173C0.0221924 13.2171 0.0208869 13.6812 0.0678826 14.1559C0.278058 16.2605 0.864198 18.1368 1.88374 19.731C2.90329 21.3253 4.35493 22.632 6.27261 23.6025C8.24251 24.6007 10.3312 25.0055 12.4695 25.0055C13.0047 25.0055 13.5439 24.9805 14.0856 24.933C16.3192 24.7365 18.434 24.0983 20.306 22.7942C21.8608 21.7129 23.0174 20.3917 23.8085 18.8779C24.6009 17.3641 25.0278 15.6592 25.1361 13.8091C25.1596 13.4175 25.1714 13.0285 25.1714 12.6448C25.1714 10.5785 24.8228 8.63357 23.9939 6.9141C23.1662 5.19462 21.8556 3.70722 19.9601 2.5653L19.8256 2.7921L19.6912 3.01891C21.5057 4.11468 22.7368 5.51637 23.5239 7.14617C24.3098 8.77598 24.6479 10.6379 24.6479 12.6461C24.6479 13.0193 24.6362 13.3964 24.614 13.7788C24.5082 15.5682 24.097 17.1953 23.3451 18.6326C22.5919 20.0713 21.4979 21.3226 20.0071 22.3604C18.2213 23.6038 16.2031 24.217 14.0373 24.4082C13.5099 24.4543 12.9865 24.4794 12.4669 24.4794C10.3926 24.4794 8.39264 24.0878 6.50367 23.1318C4.6591 22.1969 3.28708 20.9574 2.31845 19.4462C1.35112 17.9338 0.787177 16.1444 0.583529 14.1045C0.539144 13.6667 0.54045 13.2105 0.516952 12.6949L0.255865 12.7068L0.516952 12.7107C0.550893 10.6392 0.912499 8.71797 1.72187 7.05387C2.53254 5.38978 3.78576 3.97886 5.63687 2.91473C7.94096 1.59216 10.2829 0.930218 12.6144 0.930218C14.9942 0.930218 17.3688 1.61854 19.6899 3.01891L19.8243 2.7921H19.8295ZM15.0517 16.6481L14.7906 16.6363C14.7697 17.1202 14.6156 17.6424 14.4094 18.1105C14.2332 18.51 13.9982 18.7935 13.7045 18.9834C13.4107 19.1733 13.0517 19.2735 12.6092 19.2748C12.5831 19.2748 12.557 19.2748 12.5309 19.2748C12.0805 19.2616 11.7293 19.1443 11.4421 18.9386C11.1549 18.7329 10.9265 18.4322 10.7516 18.0314C10.6001 17.6872 10.4696 17.318 10.4683 17.0068C10.4552 15.6051 10.45 14.2021 10.45 12.8004C10.45 11.3987 10.4565 9.94032 10.4696 8.50962C10.4696 8.19843 10.6014 7.83054 10.7503 7.4811C10.916 7.08816 11.1406 6.79279 11.4199 6.5884C11.7006 6.38533 12.0426 6.26666 12.4708 6.25083C12.5061 6.24952 12.5413 6.2482 12.5766 6.2482C12.9799 6.2482 13.3415 6.33654 13.63 6.50665C13.9185 6.67807 14.1405 6.92728 14.2788 7.28595C14.5935 8.10745 14.7501 9.02784 14.8389 9.93241L15.0987 9.90604L14.8376 9.9034L14.8102 12.8492C14.8102 13.5823 14.8232 14.3115 14.8232 15.0368C14.8232 15.5721 14.8167 16.1049 14.7919 16.6349L15.053 16.6468L15.3141 16.6587C15.3389 16.1167 15.3454 15.5761 15.3454 15.0355C15.3454 14.3036 15.3323 13.5757 15.3323 12.8505V12.8531L15.3597 9.89417V9.87967C15.2671 8.94872 15.1052 7.9835 14.7658 7.09475C14.5895 6.62928 14.2788 6.27457 13.8937 6.04909C13.5086 5.82228 13.0543 5.71943 12.5766 5.71943C12.5348 5.71943 12.4943 5.71943 12.4525 5.72207C11.9382 5.74053 11.4852 5.88953 11.1158 6.15853C10.7463 6.42753 10.4644 6.80993 10.2699 7.27276C10.1184 7.63802 9.95263 8.05734 9.94741 8.50303C9.93436 9.93505 9.92783 11.3657 9.92783 12.7978C9.92783 14.2021 9.93436 15.6051 9.94611 17.0094C9.95133 17.4551 10.1158 17.8771 10.2738 18.241C10.4774 18.7078 10.762 19.0955 11.1406 19.3658C11.5178 19.6374 11.9826 19.7851 12.5178 19.7983C12.5491 19.7983 12.5792 19.7983 12.6105 19.7983C13.1301 19.7983 13.5974 19.6757 13.9864 19.4238C14.3754 19.172 14.6783 18.7962 14.8872 18.3201C15.1117 17.8085 15.2853 17.2336 15.3127 16.656L15.0517 16.6442V16.6481Z" fill="white"/>
<path d="M139.02 23.4745C137.14 20.8254 135.267 18.1711 133.37 15.5338C133.098 15.1567 133.07 14.9154 133.38 14.5317C135.127 12.3837 136.841 10.2093 138.565 8.04277C138.689 7.88717 138.796 7.71839 138.969 7.47181C136.321 7.47181 133.805 7.46126 131.288 7.49027C131.068 7.4929 130.782 7.71179 130.645 7.91222C129.443 9.67785 128.267 11.4633 127.082 13.2408C126.957 13.428 126.823 13.6073 126.692 13.7906C126.644 13.7722 126.596 13.7537 126.548 13.7339V1.43518H119.185V24.1312H126.585V17.1069C126.826 17.4511 126.952 17.6252 127.071 17.8058C128.37 19.7692 129.662 21.7392 130.977 23.6934C131.115 23.9004 131.384 24.1523 131.596 24.1549C134.178 24.1866 136.76 24.176 139.503 24.176C139.287 23.8622 139.157 23.667 139.021 23.4759L139.02 23.4745Z" fill="#E0001B"/>
<path d="M139.02 23.4745L139.232 23.3202C137.353 20.6711 135.478 18.0168 133.581 15.3782C133.519 15.2912 133.475 15.2187 133.451 15.1606C133.426 15.1026 133.418 15.0631 133.418 15.0261C133.418 14.9905 133.425 14.9549 133.449 14.9009C133.473 14.8481 133.516 14.7796 133.584 14.6965C135.332 12.5458 137.047 10.3714 138.77 8.20495C138.906 8.03353 139.013 7.86211 139.183 7.62212L139.475 7.20544H138.97C137.856 7.20544 136.766 7.20412 135.689 7.20412C134.205 7.20412 132.744 7.20807 131.285 7.22522C131.187 7.22653 131.1 7.25027 131.017 7.28323C130.895 7.33334 130.785 7.40455 130.684 7.48762C130.585 7.57069 130.499 7.663 130.43 7.76321C129.225 9.53148 128.05 11.3169 126.865 13.0944C126.746 13.2737 126.613 13.4517 126.48 13.6376L126.692 13.7906L126.786 13.544C126.738 13.5256 126.69 13.5071 126.641 13.4886L126.548 13.7352H126.809V1.17145H126.548C124.052 1.17145 121.631 1.17145 119.185 1.17145H118.924V1.43517C118.924 9.01853 118.924 16.5637 118.924 24.1312V24.3949H126.845V17.1069H126.584L126.37 17.2586C126.611 17.604 126.738 17.7794 126.852 17.9522C128.151 19.9156 129.443 21.8856 130.759 23.8411C130.845 23.9677 130.959 24.0969 131.094 24.2064C131.162 24.2604 131.235 24.3105 131.315 24.3488C131.396 24.387 131.486 24.416 131.59 24.4187C133.111 24.4371 134.631 24.4411 136.183 24.4411C137.269 24.4411 138.371 24.4397 139.5 24.4397H140L139.715 24.0257C139.5 23.7132 139.369 23.518 139.231 23.3229L139.018 23.4772L138.806 23.6314C138.939 23.8187 139.069 24.0138 139.286 24.3277L139.5 24.1773V23.9136C138.371 23.9136 137.269 23.9149 136.183 23.9149C134.632 23.9149 133.114 23.911 131.597 23.8925C131.596 23.8925 131.573 23.8899 131.539 23.8741C131.49 23.8503 131.419 23.8002 131.355 23.7382C131.291 23.6776 131.231 23.6051 131.191 23.5457C129.878 21.5942 128.587 19.6255 127.286 17.6607C127.162 17.4735 127.036 17.2994 126.797 16.9579L126.322 16.2762V17.1096C126.322 19.5582 126.322 21.8249 126.322 24.1338H126.583V23.8701C124.071 23.8701 121.65 23.8701 119.182 23.8701V24.1338H119.443V1.43517H119.182V1.69889H126.545V1.43517H126.284C126.284 5.55321 126.284 9.64488 126.284 13.7365V13.9185L126.451 13.9831C126.499 14.0016 126.548 14.02 126.596 14.0398L126.784 14.1123L126.901 13.9462C127.028 13.7669 127.165 13.5849 127.294 13.3897C128.48 11.6109 129.654 9.82685 130.855 8.06254C130.9 7.99529 130.989 7.90694 131.077 7.84496C131.122 7.81464 131.167 7.78958 131.205 7.77376C131.243 7.75794 131.273 7.75398 131.285 7.75398C132.742 7.73684 134.2 7.73288 135.683 7.73288C136.76 7.73288 137.85 7.7342 138.963 7.7342V7.47048L138.751 7.31752C138.574 7.56937 138.467 7.73684 138.356 7.87661C136.632 10.0444 134.918 12.2175 133.174 14.3629C133.088 14.4684 133.019 14.5725 132.969 14.682C132.919 14.7914 132.891 14.9088 132.891 15.0261C132.891 15.1475 132.921 15.2648 132.968 15.3729C133.015 15.4811 133.079 15.5826 133.154 15.6881C135.05 18.324 136.923 20.9784 138.804 23.6275L139.017 23.4732L139.02 23.4745Z" fill="white"/>
<path d="M38.6355 8.25257C38.6355 10.8107 38.6212 13.3688 38.6421 15.9269C38.6512 16.9845 38.2922 17.9048 37.6917 18.725C37.4463 19.06 37.0716 19.3514 36.6943 19.5267C35.8275 19.9302 35.1122 19.5795 34.9007 18.6485C34.7714 18.0802 34.7336 17.4803 34.7297 16.8948C34.7127 14.0083 34.7218 11.1232 34.7218 8.23675C34.7218 8.00467 34.7218 7.77128 34.7218 7.51283H26.8749C26.8579 7.73831 26.8331 7.92819 26.8318 8.11939C26.8292 11.7917 26.8279 15.4654 26.8344 19.1378C26.8344 19.507 26.8788 19.8801 26.9362 20.2454C27.3148 22.6637 29.1359 24.4412 31.4348 24.519C34.4242 24.6192 36.5534 23.1477 38.0611 20.6423C38.21 20.3944 38.3536 20.1439 38.4985 19.8933C38.552 19.9078 38.6055 19.9223 38.6577 19.9368V24.1511H46.4172V7.51019H38.6329V8.25126L38.6355 8.25257Z" fill="#E0001B"/>
<path d="M38.6357 8.25256H38.3746C38.3746 9.72282 38.3694 11.1931 38.3694 12.6647C38.3694 13.7525 38.372 14.8404 38.3812 15.9295C38.3812 15.9414 38.3812 15.9533 38.3812 15.9651C38.3812 16.9436 38.0483 17.7914 37.4817 18.5681C37.2702 18.8595 36.923 19.1311 36.5849 19.2867C36.3734 19.3856 36.1815 19.4278 36.0183 19.4278C35.8029 19.4265 35.6332 19.3593 35.4883 19.2274C35.3447 19.0942 35.2233 18.8859 35.1554 18.5879C35.0327 18.0472 34.9949 17.4671 34.991 16.8908C34.9831 15.4997 34.9805 14.1085 34.9805 12.7174C34.9805 11.2366 34.9831 9.75579 34.9831 8.27366C34.9831 8.26048 34.9831 8.24729 34.9831 8.23542C34.9831 8.15762 34.9831 8.07982 34.9831 8.00071C34.9831 7.84379 34.9831 7.68292 34.9831 7.51018V7.24646H34.722C32.0655 7.24646 29.4912 7.24646 26.8751 7.24646H26.6323L26.614 7.4904C26.5983 7.70666 26.5709 7.90049 26.5709 8.11675C26.5709 9.88369 26.5683 11.6506 26.5683 13.4176C26.5683 15.3243 26.5683 17.2297 26.5735 19.1364C26.5735 19.5267 26.6205 19.9118 26.678 20.2849C26.8751 21.5482 27.4521 22.6519 28.2849 23.4496C29.1178 24.2474 30.2118 24.7405 31.4258 24.7801C31.525 24.7841 31.6229 24.7854 31.7195 24.7854C33.1842 24.7854 34.4583 24.4069 35.5484 23.7133C36.6384 23.0197 37.5392 22.0163 38.2846 20.7768C38.436 20.5249 38.5796 20.2731 38.7245 20.0252L38.5 19.8907L38.4334 20.1452C38.4869 20.1597 38.5404 20.1742 38.5927 20.1887L38.6592 19.9342H38.3981C38.3981 21.3332 38.3981 22.7323 38.3981 24.1485V24.4122H46.6798V7.24646H46.4187C43.817 7.24646 41.2636 7.24646 38.6344 7.24646H38.3733V7.51018C38.3733 7.78182 38.3733 8.01653 38.3733 8.25125H38.8955V7.51018H38.6344V7.77391H46.4187V7.51018H46.1576C46.1576 13.0471 46.1576 18.5641 46.1576 24.1485H46.4187V23.8848C43.8248 23.8848 41.2884 23.8848 38.6592 23.8848V24.1485H38.9203V19.7311L38.7258 19.6797C38.6723 19.6652 38.6188 19.6507 38.5665 19.6362L38.3746 19.5848L38.2741 19.7575C38.1279 20.0093 37.9856 20.2599 37.8381 20.5038C37.124 21.6906 36.2755 22.6268 35.269 23.2676C34.2625 23.9085 33.0955 24.2579 31.7195 24.2579C31.6282 24.2579 31.5368 24.2566 31.4428 24.2527C30.358 24.2157 29.3906 23.7806 28.6439 23.0659C27.8972 22.3512 27.3738 21.3557 27.1936 20.2019C27.1375 19.8432 27.0957 19.4832 27.0957 19.1351C27.0918 17.2297 27.0905 15.323 27.0905 13.4176C27.0905 11.6506 27.0905 9.88369 27.0931 8.11806C27.0931 7.95192 27.1179 7.76599 27.1349 7.53128L26.8751 7.5115V7.77522H34.722V7.5115H34.461C34.461 7.68424 34.461 7.84511 34.461 8.00203C34.461 8.08114 34.461 8.15762 34.461 8.23542C34.461 8.24861 34.461 8.26179 34.461 8.27366C34.461 9.75447 34.4583 11.2353 34.4583 12.7174C34.4583 14.1099 34.461 15.5023 34.4688 16.8948C34.4727 17.4908 34.5106 18.1092 34.6463 18.7066C34.7325 19.0837 34.897 19.3962 35.1359 19.6164C35.3748 19.8379 35.6868 19.9553 36.0183 19.954C36.2716 19.954 36.5366 19.8894 36.8042 19.7654C37.2219 19.5702 37.624 19.2591 37.9034 18.8806C38.5222 18.0367 38.906 17.0675 38.9047 15.9638C38.9047 15.9506 38.9047 15.9375 38.9047 15.923C38.8955 14.8364 38.8929 13.7499 38.8929 12.6633C38.8929 11.1931 38.8981 9.72282 38.8981 8.25125H38.637L38.6357 8.25256Z" fill="white"/>
<path d="M112.455 8.2855C108.931 6.65701 105.309 6.63327 101.8 8.29341C96.3816 10.8568 95.3464 18.4204 99.8462 22.2127C101.931 23.9691 104.436 24.4952 107.103 24.6232C108.322 24.4359 109.564 24.3423 110.756 24.043C114.391 23.1305 116.836 20.4405 117.159 17.1215C117.547 13.1314 115.873 9.8652 112.455 8.2855ZM108.834 18.7777C108.791 19.677 108.33 20.2572 107.624 20.4642C106.482 20.8005 105.504 20.0647 105.422 18.7355C105.36 17.7545 105.394 16.7682 105.394 15.7845C105.394 14.8443 105.368 13.9015 105.423 12.9653C105.488 11.8379 106.15 11.1759 107.112 11.1772C108.081 11.1785 108.765 11.8299 108.833 12.9429C108.892 13.9015 108.845 14.8654 108.845 15.8267C108.845 16.8104 108.881 17.7954 108.834 18.7764V18.7777Z" fill="#E0001B"/>
<path d="M112.455 8.28534L112.564 8.04535C110.767 7.21462 108.937 6.79135 107.108 6.79267C105.289 6.79267 103.47 7.21199 101.688 8.05458C100.082 8.81411 98.8475 10.0009 98.0173 11.3973C97.187 12.7937 96.7575 14.3984 96.7575 16.0019C96.7575 17.1886 96.9925 18.3741 97.4755 19.4725C97.9585 20.5709 98.6895 21.5823 99.6778 22.4143C100.75 23.3176 101.932 23.9057 103.18 24.2802C104.428 24.656 105.743 24.8208 107.089 24.8841H107.115L107.141 24.8814C108.347 24.6955 109.596 24.6019 110.817 24.296C112.68 23.8279 114.246 22.9035 115.389 21.6614C116.532 20.4206 117.25 18.862 117.417 17.1451C117.455 16.7588 117.473 16.3777 117.473 16.0045C117.473 14.2231 117.047 12.5985 116.215 11.2377C115.385 9.87559 114.151 8.7785 112.562 8.04535L112.454 8.28534L112.346 8.52533C113.85 9.22024 114.996 10.2448 115.771 11.5159C116.547 12.7871 116.951 14.3088 116.951 16.0072C116.951 16.3632 116.933 16.7258 116.898 17.0963C116.741 18.6971 116.075 20.1437 115.007 21.3054C113.938 22.4671 112.464 23.3426 110.692 23.787C109.53 24.0797 108.295 24.1733 107.063 24.3632L107.102 24.6243L107.114 24.3606C105.792 24.2973 104.521 24.1364 103.329 23.7778C102.137 23.4191 101.025 22.8653 100.012 22.0121C99.0864 21.2315 98.4037 20.2887 97.952 19.2615C97.5003 18.2343 97.2784 17.1214 97.2784 16.0045C97.2784 14.496 97.6831 12.9836 98.4637 11.6715C99.2444 10.3595 100.4 9.24793 101.909 8.53456C103.628 7.72097 105.367 7.32275 107.107 7.32275C108.856 7.32275 110.608 7.72625 112.344 8.52797L112.453 8.28798L112.455 8.28534ZM108.834 18.7776L108.573 18.7644C108.553 19.1718 108.441 19.487 108.268 19.723C108.094 19.9577 107.855 20.1212 107.551 20.2109C107.388 20.2584 107.231 20.2808 107.082 20.2808C106.702 20.2808 106.379 20.1371 106.132 19.876C105.885 19.6136 105.714 19.2246 105.683 18.7196C105.654 18.2567 105.646 17.7899 105.646 17.3205C105.646 16.8115 105.655 16.2999 105.655 15.7856V15.7804C105.655 15.3175 105.649 14.8573 105.649 14.3998C105.649 13.9422 105.655 13.4504 105.683 12.9809C105.713 12.4654 105.876 12.0843 106.117 11.8324C106.239 11.7058 106.381 11.6096 106.546 11.5436C106.71 11.4777 106.898 11.4408 107.108 11.4408H107.11V11.2377L107.102 11.4408H107.11V11.2377L107.103 11.4408H107.107H107.111C107.538 11.4421 107.876 11.5819 108.125 11.8298C108.373 12.079 108.54 12.4522 108.572 12.9585C108.594 13.3211 108.602 13.6877 108.602 14.0569C108.602 14.6411 108.585 15.2318 108.583 15.8265C108.583 16.4278 108.596 17.0264 108.596 17.6198C108.596 18.0035 108.591 18.3846 108.573 18.7631L108.834 18.7762L109.095 18.7894C109.113 18.3991 109.12 18.0088 109.12 17.6198C109.12 17.0185 109.107 16.4199 109.107 15.8265C109.107 15.2424 109.124 14.6516 109.125 14.0569C109.125 13.6811 109.119 13.304 109.095 12.9269C109.059 12.3203 108.848 11.8126 108.496 11.4579C108.144 11.1019 107.655 10.9147 107.115 10.9147V11.1784L107.123 10.9147H107.112H107.111C106.841 10.9147 106.586 10.9608 106.355 11.0544C106.008 11.1929 105.717 11.4395 105.513 11.7652C105.309 12.0909 105.191 12.493 105.165 12.9519C105.137 13.4372 105.129 13.9198 105.129 14.4011C105.129 14.8824 105.136 15.3241 105.136 15.7817V15.7869C105.136 16.2959 105.127 16.8076 105.127 17.3218C105.127 17.7978 105.134 18.2752 105.165 18.7538C105.202 19.3617 105.414 19.876 105.756 20.2412C106.098 20.6065 106.57 20.8122 107.085 20.8109C107.285 20.8109 107.491 20.7805 107.7 20.7199C108.1 20.6025 108.446 20.3718 108.689 20.0395C108.933 19.7085 109.074 19.2839 109.098 18.7921L108.837 18.7789L108.834 18.7776Z" fill="white"/>
<path d="M90.2539 8.19585C86.6796 6.63197 83.0374 6.6478 79.548 8.43057C76.2844 10.0986 74.8746 12.9627 75.0965 16.5849C75.3106 20.0805 77.1878 22.4158 80.3926 23.6962C81.886 24.2935 83.4486 24.5164 85.0491 24.5203C85.6353 24.49 86.224 24.4926 86.8049 24.4201C87.4498 24.3384 88.0947 24.225 88.7226 24.0614C92.5423 23.0646 94.8764 20.4076 95.2145 16.7022C95.55 13.022 93.6806 9.6938 90.2539 8.19453V8.19585ZM86.8885 18.307C86.8702 19.7298 86.2136 20.5381 85.1353 20.5394C84.0518 20.5407 83.403 19.7245 83.3834 18.3096C83.3716 17.4815 83.3808 16.6521 83.3808 15.824C83.3808 15.0171 83.3494 14.2087 83.3925 13.4044C83.416 12.9561 83.5087 12.4932 83.6693 12.0765C83.8912 11.5016 84.3716 11.2115 84.9917 11.1812C85.6509 11.1482 86.2279 11.3553 86.5151 11.9658C86.7214 12.4062 86.8611 12.9178 86.8741 13.4017C86.9172 15.0355 86.9067 16.6719 86.8859 18.3083L86.8885 18.307Z" fill="#E0001B"/>
<path d="M90.2538 8.19559L90.3569 7.95296C88.6076 7.18816 86.8362 6.79126 85.0699 6.79126C83.1666 6.79126 81.2724 7.25146 79.4291 8.19427C77.8704 8.99071 76.7099 10.0641 75.9449 11.3629C75.1786 12.6617 74.8118 14.1821 74.8118 15.8607C74.8118 16.1046 74.8196 16.3512 74.8353 16.6004C74.9436 18.3911 75.4841 19.9062 76.4149 21.1312C77.3456 22.3562 78.6602 23.2871 80.2959 23.9412C81.8259 24.553 83.4237 24.7798 85.0477 24.7838H85.0621C85.6378 24.7534 86.233 24.7574 86.8362 24.6809C87.4889 24.5992 88.1455 24.4831 88.7878 24.3157C90.7394 23.8067 92.3268 22.8678 93.4691 21.5716C94.6113 20.2767 95.3019 18.6272 95.4742 16.7257C95.5003 16.4343 95.5134 16.1455 95.5134 15.8581C95.5134 14.1399 95.0408 12.518 94.157 11.148C93.2746 9.77792 91.9822 8.66238 90.3556 7.95032L90.2525 8.19295L90.148 8.43557C91.6845 9.10807 92.8921 10.155 93.7184 11.4367C94.5447 12.7184 94.9899 14.2375 94.9899 15.8581C94.9899 16.1284 94.9781 16.4013 94.952 16.6769C94.7862 18.4808 94.1414 20.0117 93.0774 21.2209C92.0122 22.4287 90.524 23.3162 88.6559 23.8054C88.0411 23.9662 87.4066 24.077 86.7709 24.1574C86.2135 24.2286 85.6299 24.226 85.0347 24.2563L85.0477 24.5201V24.2563C83.4707 24.2537 81.9421 24.0322 80.4865 23.4507C78.9174 22.823 77.6903 21.9461 76.8274 20.8095C75.9645 19.6728 75.4593 18.2724 75.3549 16.5675C75.3405 16.3275 75.3327 16.0915 75.3327 15.8594C75.3327 14.2573 75.6812 12.8384 76.3927 11.6319C77.1041 10.4254 78.1798 9.42322 79.6641 8.66369C81.4408 7.75517 83.2488 7.31739 85.0686 7.31739C86.7565 7.31739 88.4562 7.69451 90.148 8.43557L90.2525 8.19295L90.2538 8.19559ZM86.8884 18.3067L86.6273 18.3028C86.6181 18.9753 86.4576 19.4737 86.2056 19.7902C86.079 19.9497 85.9289 20.0671 85.754 20.1488C85.5777 20.2293 85.3728 20.2741 85.1352 20.2741H85.1326C84.895 20.2741 84.69 20.2293 84.5138 20.1488C84.2514 20.0262 84.0464 19.8218 83.8937 19.5172C83.7423 19.2126 83.6509 18.8052 83.6444 18.3054C83.6404 17.9929 83.6391 17.6791 83.6391 17.3652C83.6391 16.8523 83.6431 16.338 83.6431 15.8225V15.8159C83.6431 15.3385 83.6326 14.8651 83.6326 14.397C83.6326 14.0687 83.6378 13.7417 83.6548 13.4173C83.677 12.9953 83.7645 12.5576 83.9146 12.1712C84.0086 11.9299 84.147 11.7638 84.3258 11.6451C84.506 11.5264 84.7331 11.4578 85.0072 11.4433C85.0477 11.4407 85.0869 11.4407 85.126 11.4407C85.3976 11.4407 85.6352 11.4908 85.8271 11.591C86.019 11.6926 86.1691 11.8416 86.2813 12.0776C86.4745 12.4877 86.6051 12.9703 86.6155 13.4068C86.6377 14.2309 86.6456 15.0563 86.6456 15.8818C86.6456 16.7073 86.6377 17.4945 86.6273 18.3015L86.8884 18.3054L87.1495 18.3094C87.1599 17.5011 87.1677 16.6914 87.1677 15.8818C87.1677 15.0722 87.1599 14.223 87.1377 13.3923C87.1233 12.8622 86.9732 12.3202 86.7539 11.8508C86.5986 11.5172 86.3558 11.2719 86.0686 11.1216C85.7814 10.9713 85.4589 10.9119 85.126 10.9119C85.0777 10.9119 85.0294 10.9119 84.9811 10.9159C84.6352 10.933 84.3128 11.024 84.0412 11.202C83.7697 11.38 83.5569 11.6451 83.4277 11.9787C83.254 12.4257 83.1587 12.9149 83.1326 13.3883C83.1144 13.7259 83.1091 14.0621 83.1091 14.397C83.1091 14.8744 83.1196 15.3478 83.1196 15.8159V15.8225C83.1196 16.3354 83.1157 16.8497 83.1157 17.3652C83.1157 17.6804 83.117 17.9969 83.1209 18.312C83.1313 19.057 83.3063 19.6728 83.6535 20.1172C83.8271 20.3387 84.0438 20.5128 84.2945 20.6275C84.5451 20.7435 84.8271 20.8016 85.1299 20.8016H85.1326C85.4341 20.8016 85.7161 20.7435 85.9667 20.6288C86.344 20.4561 86.6429 20.1515 86.8401 19.7559C87.0372 19.359 87.139 18.8724 87.1468 18.3094L86.8858 18.3054L86.8884 18.3067Z" fill="white"/>
<path d="M61.3894 19.4107C59.8503 19.3513 58.9991 18.4375 58.99 16.9C58.9861 16.1998 58.99 15.501 58.99 14.8008C58.99 13.8237 58.99 12.8479 58.99 11.7759H62.9977V7.4574H58.9926V2.72225C58.8608 2.67874 58.8007 2.6405 58.7407 2.6405C57.0018 2.63522 55.263 2.6194 53.5241 2.64973C53.3427 2.65237 53.0764 2.88576 53.002 3.07432C52.5294 4.27163 52.0725 5.47816 51.6704 6.70052C51.4798 7.28071 51.2148 7.55102 50.5699 7.48773C49.8911 7.4218 49.2018 7.47323 48.5126 7.47323V11.7904C49.1914 11.7904 49.8376 11.8233 50.4799 11.7798C51.0268 11.7429 51.1809 11.9407 51.1744 12.4826C51.1469 14.6913 51.1274 16.9 51.1744 19.1087C51.2227 21.4361 52.3257 23.1476 54.4902 23.9836C57.2786 25.0609 59.9991 24.5348 62.6269 23.3085C62.8084 23.2241 63.0238 22.9696 63.0303 22.7876C63.0669 21.6114 63.0486 20.4352 63.0486 19.2762C62.4585 19.3276 61.922 19.4318 61.3907 19.4107H61.3894Z" fill="#E0001B"/>
<path d="M61.3894 19.4104L61.3999 19.1467C61.0396 19.1335 60.7276 19.0689 60.4626 18.9634C60.0657 18.8038 59.7746 18.5572 59.571 18.217C59.3686 17.8768 59.2551 17.4377 59.2511 16.8971C59.2498 16.6321 59.2498 16.367 59.2498 16.102C59.2498 15.6682 59.2498 15.2343 59.2498 14.7992C59.2498 14.3113 59.2498 13.8221 59.2498 13.3223C59.2498 12.8226 59.2498 12.3096 59.2498 11.7743H58.9888V12.038H63.2575V7.19209H62.9964C61.6505 7.19209 60.3568 7.19209 58.9914 7.19209V7.45581H59.2524V2.5321L59.0736 2.47276C59.0175 2.4543 58.977 2.43716 58.9313 2.4187C58.9078 2.40947 58.883 2.40024 58.8517 2.39233C58.8204 2.38441 58.7825 2.37782 58.7407 2.37782C57.8008 2.37518 56.8609 2.36859 55.921 2.36859C55.1207 2.36859 54.3205 2.37255 53.5203 2.38573C53.4211 2.38837 53.3388 2.41738 53.2631 2.45298C53.1508 2.50836 53.0529 2.58484 52.9668 2.67187C52.8819 2.76022 52.8075 2.85648 52.7605 2.97515C52.288 4.1751 51.8284 5.38559 51.4238 6.61585C51.3846 6.73717 51.3428 6.83738 51.2984 6.91782C51.2319 7.03781 51.1666 7.1077 51.0883 7.15517C51.0099 7.20132 50.9068 7.23165 50.7436 7.23165C50.6979 7.23165 50.6496 7.22901 50.5948 7.22374C50.3181 7.19605 50.0413 7.18813 49.7672 7.18813C49.3429 7.18813 48.9225 7.20659 48.5113 7.20659H48.2502V7.47032C48.2502 8.95772 48.2502 10.3278 48.2502 11.7875V12.0512H48.5113C48.9173 12.0512 49.3155 12.0631 49.7136 12.0631C49.9734 12.0631 50.2332 12.0578 50.4956 12.0406C50.5321 12.038 50.5674 12.0367 50.5974 12.0367C50.6888 12.0367 50.7515 12.0472 50.788 12.0604C50.8154 12.0697 50.8285 12.0789 50.8389 12.0881C50.8533 12.1013 50.8689 12.1211 50.8846 12.1791C50.9003 12.2358 50.9107 12.3268 50.9107 12.4468V12.4771C50.8951 13.7232 50.882 14.9706 50.882 16.218C50.882 17.1819 50.8898 18.1472 50.9094 19.1111C50.9342 20.315 51.2345 21.3791 51.8193 22.2507C52.4041 23.1223 53.2696 23.7935 54.3936 24.2273C55.4706 24.644 56.5424 24.8273 57.5998 24.8273C59.3569 24.8273 61.0709 24.3209 62.7327 23.5456C62.8045 23.5113 62.8685 23.4678 62.9286 23.4177C63.0186 23.3425 63.0983 23.2515 63.1635 23.1513C63.1962 23.1012 63.2236 23.0471 63.2458 22.9891C63.268 22.9311 63.2836 22.8678 63.2862 22.7953C63.3045 22.1953 63.3097 21.598 63.3097 21.002C63.3097 20.4059 63.3058 19.8455 63.3058 19.2746V18.9871L63.0225 19.0122C62.469 19.061 61.9808 19.1493 61.5278 19.148C61.4847 19.148 61.4404 19.148 61.3973 19.1453L61.3881 19.4091L61.379 19.6728C61.4286 19.6741 61.4782 19.6754 61.5291 19.6754C62.0474 19.6754 62.5461 19.5818 63.0695 19.537L63.0473 19.2746H62.7863C62.7863 19.8482 62.7902 20.4244 62.7902 21.002C62.7902 21.5795 62.7863 22.1874 62.768 22.7781C62.768 22.7781 62.7601 22.8071 62.7458 22.8348C62.7236 22.8783 62.6818 22.9324 62.6374 22.9759C62.5931 23.0208 62.5434 23.055 62.5173 23.0669C60.8999 23.8212 59.259 24.2998 57.6024 24.2998C56.605 24.2998 55.6011 24.1271 54.5829 23.7341C53.5425 23.332 52.7749 22.7293 52.254 21.9553C51.7345 21.18 51.4577 20.2253 51.4342 19.1005C51.4146 18.1406 51.4068 17.1793 51.4068 16.218C51.4068 14.9732 51.4198 13.7285 51.4355 12.4837C51.4355 12.4718 51.4355 12.4586 51.4355 12.4468C51.4355 12.3149 51.4264 12.1949 51.4003 12.0815C51.3807 11.9958 51.3507 11.9141 51.305 11.8376C51.2371 11.7215 51.1248 11.6292 51.0008 11.5791C50.8768 11.5277 50.7436 11.5106 50.5987 11.5106C50.5543 11.5106 50.5086 11.5119 50.4617 11.5158C50.2162 11.5317 49.9682 11.5369 49.7149 11.5369C49.3272 11.5369 48.9278 11.5251 48.5126 11.5251V11.7888H48.7737V7.47164H48.5126V7.73536C48.9395 7.73536 49.3599 7.7169 49.7685 7.7169C50.0322 7.7169 50.2906 7.72481 50.5452 7.74986C50.6131 7.75646 50.6797 7.76041 50.7436 7.76041C50.8964 7.76041 51.0373 7.74063 51.1679 7.6958C51.3637 7.62987 51.5282 7.50196 51.647 7.34241C51.7671 7.18286 51.8493 6.99562 51.9185 6.78332C52.318 5.56755 52.7736 4.36761 53.2448 3.17163C53.2501 3.15712 53.267 3.1268 53.2931 3.09383C53.3323 3.04372 53.3897 2.99098 53.442 2.95669C53.4681 2.93955 53.4916 2.92637 53.5085 2.91977L53.5268 2.91318H53.5294L53.5268 2.89076V2.91186H53.5294L53.5268 2.89076V2.91186C54.3244 2.89868 55.1221 2.89472 55.9197 2.89472C56.8583 2.89472 57.7982 2.89999 58.7381 2.90395V2.80373L58.7237 2.90263H58.7381V2.80373L58.7237 2.90263L58.7303 2.8578L58.7198 2.90131H58.7237L58.7303 2.8578L58.7198 2.90131C58.7198 2.90131 58.7394 2.90791 58.772 2.92109C58.8047 2.93428 58.8517 2.95274 58.9091 2.97252L58.9914 2.72198H58.7303C58.7303 4.2674 58.7303 5.82996 58.7303 7.45713V7.72085H62.9964V7.45713H62.7353C62.7353 8.90761 62.7353 10.2935 62.7353 11.7756H62.9964V11.5119C61.691 11.5119 60.3803 11.5119 58.9888 11.5119H58.7277V11.7756C58.7277 12.311 58.7277 12.8226 58.7277 13.3237C58.7277 13.8234 58.7277 14.3126 58.7277 14.8005C58.7277 15.2343 58.7277 15.6682 58.7277 16.1033C58.7277 16.3683 58.7277 16.6347 58.729 16.9011C58.7316 17.3098 58.789 17.6843 58.9052 18.0192C59.0788 18.5216 59.3882 18.9344 59.8112 19.2152C60.2354 19.4974 60.7654 19.6504 61.3777 19.6741L61.3881 19.4104H61.3894Z" fill="white"/>
<path d="M65.4271 24.1313H73.2035V1.45239H65.4271V24.1326V24.1313Z" fill="#E0001B"/>
<path d="M65.4271 24.1313V24.395H73.4647V1.18866H73.2036C70.5679 1.18866 67.9988 1.18866 65.4271 1.18866H65.166V1.45238C65.166 9.03574 65.166 16.565 65.166 24.1326V24.3963H65.4271V24.1326H65.6882V1.45238H65.4271V1.71611H73.2036V1.45238H72.9425C72.9425 9.02783 72.9425 16.5571 72.9425 24.1326H73.2036V23.8689C70.6018 23.8689 68.0314 23.8689 65.4271 23.8689V24.1326V24.1313Z" fill="white"/>
</svg>
