<svg width="140" height="26" viewBox="0 0 140 26" fill="none" xmlns="http://www.w3.org/2000/svg">
<path d="M19.8295 3.18927C15.1626 0.375343 10.2346 0.371387 5.51281 3.08246C1.72444 5.25818 0.330235 8.90547 0.261047 13.1026C0.28324 13.6103 0.28324 14.0705 0.32893 14.5267C0.742753 18.6711 2.62911 21.8596 6.39137 23.7636C8.80381 24.9847 11.3964 25.3025 14.0647 25.0664C16.2644 24.8726 18.3309 24.2476 20.1598 22.9738C23.2054 20.8535 24.6635 17.8299 24.8789 14.1905C25.1492 9.6373 23.8842 5.63398 19.8295 3.18927ZM15.0516 17.0453C15.0268 17.5754 14.8636 18.1239 14.6482 18.6144C14.2527 19.5151 13.5308 19.9621 12.5243 19.9344C11.5387 19.908 10.8925 19.403 10.5126 18.534C10.3573 18.1793 10.2111 17.7837 10.2072 17.4053C10.1824 14.5716 10.1824 11.7365 10.2072 8.90283C10.2111 8.52439 10.3586 8.13012 10.5087 7.77278C10.869 6.917 11.5191 6.41592 12.4603 6.38164C13.3911 6.34736 14.1913 6.7258 14.5203 7.58685C14.8467 8.44264 15.0072 9.38413 15.096 10.3032L15.0686 13.249C15.0686 14.5149 15.1078 15.7821 15.0503 17.0453H15.0516Z" fill="#9EB0CB"/>
<path d="M19.8295 3.18938L19.964 2.96258C17.5711 1.52001 15.1 0.800049 12.6196 0.800049C10.1889 0.800049 7.75428 1.49232 5.38361 2.85313C3.44635 3.96473 2.10958 5.46531 1.25844 7.21775C0.40599 8.97151 0.0352467 10.9719 0 13.0988V13.1067V13.1146C0.0221924 13.6144 0.0208869 14.0785 0.0678826 14.5532C0.278058 16.6577 0.864198 18.5341 1.88374 20.1283C2.90329 21.7225 4.35493 23.0293 6.27261 23.9998C8.24251 24.998 10.3312 25.4028 12.4695 25.4028C13.0047 25.4028 13.5439 25.3777 14.0856 25.3303C16.3192 25.1338 18.434 24.4956 20.306 23.1915C21.8608 22.1102 23.0174 20.789 23.8085 19.2752C24.6009 17.7614 25.0278 16.0564 25.1361 14.2064C25.1596 13.8148 25.1714 13.4258 25.1714 13.0421C25.1714 10.9758 24.8228 9.03085 23.9939 7.31138C23.1662 5.5919 21.8556 4.1045 19.9601 2.96258L19.8256 3.18938L19.6912 3.41618C21.5057 4.51195 22.7368 5.91364 23.5239 7.54345C24.3098 9.17326 24.6479 11.0351 24.6479 13.0434C24.6479 13.4166 24.6362 13.7937 24.614 14.1761C24.5082 15.9655 24.097 17.5926 23.3451 19.0299C22.5919 20.4685 21.4979 21.7199 20.0071 22.7576C18.2213 24.0011 16.2031 24.6143 14.0373 24.8055C13.5099 24.8516 12.9865 24.8767 12.4669 24.8767C10.3926 24.8767 8.39264 24.485 6.50367 23.529C4.6591 22.5941 3.28708 21.3546 2.31845 19.8435C1.35112 18.3311 0.787177 16.5417 0.583529 14.5018C0.539144 14.064 0.54045 13.6078 0.516952 13.0922L0.255865 13.1041L0.516952 13.108C0.550893 11.0365 0.912499 9.11524 1.72187 7.45115C2.53254 5.78706 3.78576 4.37614 5.63687 3.31201C7.94096 1.98944 10.2829 1.3275 12.6144 1.3275C14.9942 1.3275 17.3688 2.01581 19.6899 3.41618L19.8243 3.18938H19.8295ZM15.0517 17.0454L14.7906 17.0335C14.7697 17.5175 14.6156 18.0396 14.4094 18.5077C14.2332 18.9073 13.9982 19.1908 13.7045 19.3807C13.4107 19.5706 13.0517 19.6708 12.6092 19.6721C12.5831 19.6721 12.557 19.6721 12.5309 19.6721C12.0805 19.6589 11.7293 19.5415 11.4421 19.3358C11.1549 19.1301 10.9265 18.8295 10.7516 18.4286C10.6001 18.0845 10.4696 17.7153 10.4683 17.4041C10.4552 16.0024 10.45 14.5994 10.45 13.1977C10.45 11.796 10.4565 10.3376 10.4696 8.9069C10.4696 8.59571 10.6014 8.22781 10.7503 7.87838C10.916 7.48543 11.1406 7.19006 11.4199 6.98568C11.7006 6.78261 12.0426 6.66394 12.4708 6.64811C12.5061 6.64679 12.5413 6.64547 12.5766 6.64547C12.9799 6.64547 13.3415 6.73382 13.63 6.90392C13.9185 7.07534 14.1405 7.32456 14.2788 7.68323C14.5935 8.50472 14.7501 9.42512 14.8389 10.3297L15.0987 10.3033L14.8376 10.3007L14.8102 13.2465C14.8102 13.9796 14.8232 14.7088 14.8232 15.4341C14.8232 15.9694 14.8167 16.5021 14.7919 17.0322L15.053 17.0441L15.3141 17.056C15.3389 16.514 15.3454 15.9734 15.3454 15.4327C15.3454 14.7009 15.3323 13.973 15.3323 13.2478V13.2504L15.3597 10.2914V10.2769C15.2671 9.346 15.1052 8.38077 14.7658 7.49203C14.5895 7.02656 14.2788 6.67185 13.8937 6.44636C13.5086 6.21956 13.0543 6.11671 12.5766 6.11671C12.5348 6.11671 12.4943 6.11671 12.4525 6.11935C11.9382 6.13781 11.4852 6.28681 11.1158 6.55581C10.7463 6.82481 10.4644 7.20721 10.2699 7.67004C10.1184 8.0353 9.95263 8.45462 9.94741 8.90031C9.93436 10.3323 9.92783 11.763 9.92783 13.195C9.92783 14.5994 9.93436 16.0024 9.94611 17.4067C9.95133 17.8524 10.1158 18.2744 10.2738 18.6383C10.4774 19.1051 10.762 19.4928 11.1406 19.7631C11.5178 20.0347 11.9826 20.1824 12.5178 20.1956C12.5491 20.1956 12.5792 20.1956 12.6105 20.1956C13.1301 20.1956 13.5974 20.0729 13.9864 19.8211C14.3754 19.5692 14.6783 19.1934 14.8872 18.7174C15.1117 18.2058 15.2853 17.6309 15.3127 17.0533L15.0517 17.0414V17.0454Z" fill="#CFDDF1"/>
<path d="M139.02 23.8718C137.14 21.2227 135.267 18.5683 133.37 15.9311C133.098 15.554 133.07 15.3127 133.38 14.929C135.127 12.7809 136.841 10.6065 138.565 8.44004C138.689 8.28445 138.796 8.11566 138.969 7.86908C136.321 7.86908 133.805 7.85853 131.288 7.88754C131.068 7.89018 130.782 8.10907 130.645 8.3095C129.443 10.0751 128.267 11.8605 127.082 13.638C126.957 13.8253 126.823 14.0046 126.692 14.1879C126.644 14.1694 126.596 14.151 126.548 14.1312V1.83246H119.185V24.5285H126.585V17.5042C126.826 17.8484 126.952 18.0224 127.071 18.2031C128.37 20.1665 129.662 22.1365 130.977 24.0907C131.115 24.2977 131.384 24.5496 131.596 24.5522C134.178 24.5839 136.76 24.5733 139.503 24.5733C139.287 24.2595 139.157 24.0643 139.021 23.8731L139.02 23.8718Z" fill="#9EB0CB"/>
<path d="M139.02 23.8718L139.232 23.7175C137.353 21.0684 135.478 18.414 133.581 15.7755C133.519 15.6885 133.475 15.6159 133.451 15.5579C133.426 15.4999 133.418 15.4603 133.418 15.4234C133.418 15.3878 133.425 15.3522 133.449 15.2982C133.473 15.2454 133.516 15.1768 133.584 15.0938C135.332 12.9431 137.047 10.7687 138.77 8.60222C138.906 8.4308 139.013 8.25938 139.183 8.0194L139.475 7.60271H138.97C137.856 7.60271 136.766 7.6014 135.689 7.6014C134.205 7.6014 132.744 7.60535 131.285 7.62249C131.187 7.62381 131.1 7.64755 131.017 7.68051C130.895 7.73062 130.785 7.80183 130.684 7.8849C130.585 7.96797 130.499 8.06027 130.43 8.16049C129.225 9.92875 128.05 11.7142 126.865 13.4917C126.746 13.671 126.613 13.849 126.48 14.0349L126.692 14.1879L126.786 13.9413C126.738 13.9228 126.69 13.9044 126.641 13.8859L126.548 14.1325H126.809V1.56873H126.548C124.052 1.56873 121.631 1.56873 119.185 1.56873H118.924V1.83245C118.924 9.41581 118.924 16.9609 118.924 24.5285V24.7922H126.845V17.5042H126.584L126.37 17.6558C126.611 18.0013 126.738 18.1767 126.852 18.3494C128.151 20.3129 129.443 22.2829 130.759 24.2384C130.845 24.365 130.959 24.4942 131.094 24.6036C131.162 24.6577 131.235 24.7078 131.315 24.746C131.396 24.7843 131.486 24.8133 131.59 24.8159C133.111 24.8344 134.631 24.8383 136.183 24.8383C137.269 24.8383 138.371 24.837 139.5 24.837H140L139.715 24.423C139.5 24.1105 139.369 23.9153 139.231 23.7202L139.018 23.8744L138.806 24.0287C138.939 24.216 139.069 24.4111 139.286 24.7249L139.5 24.5746V24.3109C138.371 24.3109 137.269 24.3122 136.183 24.3122C134.632 24.3122 133.114 24.3083 131.597 24.2898C131.596 24.2898 131.573 24.2872 131.539 24.2713C131.49 24.2476 131.419 24.1975 131.355 24.1355C131.291 24.0749 131.231 24.0023 131.191 23.943C129.878 21.9915 128.587 20.0228 127.286 18.058C127.162 17.8708 127.036 17.6967 126.797 17.3552L126.322 16.6735V17.5068C126.322 19.9555 126.322 22.2222 126.322 24.5311H126.583V24.2674C124.071 24.2674 121.65 24.2674 119.182 24.2674V24.5311H119.443V1.83245H119.182V2.09617H126.545V1.83245H126.284C126.284 5.95049 126.284 10.0422 126.284 14.1338V14.3158L126.451 14.3804C126.499 14.3989 126.548 14.4173 126.596 14.4371L126.784 14.5096L126.901 14.3435C127.028 14.1641 127.165 13.9822 127.294 13.787C128.48 12.0082 129.654 10.2241 130.855 8.45981C130.9 8.39257 130.989 8.30422 131.077 8.24224C131.122 8.21191 131.167 8.18686 131.205 8.17104C131.243 8.15521 131.273 8.15126 131.285 8.15126C132.742 8.13412 134.2 8.13016 135.683 8.13016C136.76 8.13016 137.85 8.13148 138.963 8.13148V7.86775L138.751 7.7148C138.574 7.96665 138.467 8.13412 138.356 8.27389C136.632 10.4417 134.918 12.6148 133.174 14.7602C133.088 14.8657 133.019 14.9698 132.969 15.0793C132.919 15.1887 132.891 15.3061 132.891 15.4234C132.891 15.5447 132.921 15.6621 132.968 15.7702C133.015 15.8783 133.079 15.9799 133.154 16.0854C135.05 18.7213 136.923 21.3757 138.804 24.0248L139.017 23.8705L139.02 23.8718Z" fill="#CFDDF1"/>
<path d="M38.6355 8.64985C38.6355 11.208 38.6212 13.7661 38.6421 16.3242C38.6512 17.3817 38.2922 18.3021 37.6917 19.1223C37.4463 19.4572 37.0716 19.7486 36.6943 19.924C35.8275 20.3275 35.1122 19.9768 34.9007 19.0458C34.7714 18.4775 34.7336 17.8775 34.7297 17.2921C34.7127 14.4056 34.7218 11.5205 34.7218 8.63403C34.7218 8.40195 34.7218 8.16856 34.7218 7.91011H26.8749C26.8579 8.13559 26.8331 8.32547 26.8318 8.51667C26.8292 12.189 26.8279 15.8627 26.8344 19.535C26.8344 19.9042 26.8788 20.2774 26.9362 20.6427C27.3148 23.061 29.1359 24.8385 31.4348 24.9163C34.4242 25.0165 36.5534 23.5449 38.0611 21.0396C38.21 20.7917 38.3536 20.5411 38.4985 20.2906C38.552 20.3051 38.6055 20.3196 38.6577 20.3341V24.5484H46.4172V7.90747H38.6329V8.64853L38.6355 8.64985Z" fill="#9EB0CB"/>
<path d="M38.6357 8.64984H38.3746C38.3746 10.1201 38.3694 11.5904 38.3694 13.0619C38.3694 14.1498 38.372 15.2376 38.3812 16.3268C38.3812 16.3387 38.3812 16.3506 38.3812 16.3624C38.3812 17.3408 38.0483 18.1887 37.4817 18.9654C37.2702 19.2568 36.923 19.5284 36.5849 19.684C36.3734 19.7829 36.1815 19.8251 36.0183 19.8251C35.8029 19.8238 35.6332 19.7565 35.4883 19.6247C35.3447 19.4915 35.2233 19.2832 35.1554 18.9852C35.0327 18.4445 34.9949 17.8643 34.991 17.2881C34.9831 15.897 34.9805 14.5058 34.9805 13.1147C34.9805 11.6339 34.9831 10.1531 34.9831 8.67094C34.9831 8.65775 34.9831 8.64457 34.9831 8.6327C34.9831 8.5549 34.9831 8.4771 34.9831 8.39799C34.9831 8.24107 34.9831 8.0802 34.9831 7.90746V7.64374H34.722C32.0655 7.64374 29.4912 7.64374 26.8751 7.64374H26.6323L26.614 7.88768C26.5983 8.10393 26.5709 8.29777 26.5709 8.51402C26.5709 10.281 26.5683 12.0479 26.5683 13.8149C26.5683 15.7216 26.5683 17.627 26.5735 19.5337C26.5735 19.924 26.6205 20.309 26.678 20.6822C26.8751 21.9454 27.4521 23.0491 28.2849 23.8469C29.1178 24.6447 30.2118 25.1378 31.4258 25.1774C31.525 25.1813 31.6229 25.1827 31.7195 25.1827C33.1842 25.1827 34.4583 24.8042 35.5484 24.1106C36.6384 23.417 37.5392 22.4136 38.2846 21.1741C38.436 20.9222 38.5796 20.6703 38.7245 20.4224L38.5 20.2879L38.4334 20.5424C38.4869 20.5569 38.5404 20.5715 38.5927 20.586L38.6592 20.3315H38.3981C38.3981 21.7305 38.3981 23.1296 38.3981 24.5458V24.8095H46.6798V7.64374H46.4187C43.817 7.64374 41.2636 7.64374 38.6344 7.64374H38.3733V7.90746C38.3733 8.1791 38.3733 8.41381 38.3733 8.64852H38.8955V7.90746H38.6344V8.17118H46.4187V7.90746H46.1576C46.1576 13.4443 46.1576 18.9614 46.1576 24.5458H46.4187V24.282C43.8248 24.282 41.2884 24.282 38.6592 24.282V24.5458H38.9203V20.1284L38.7258 20.077C38.6723 20.0625 38.6188 20.048 38.5665 20.0335L38.3746 19.982L38.2741 20.1548C38.1279 20.4066 37.9856 20.6572 37.8381 20.9011C37.124 22.0879 36.2755 23.0241 35.269 23.6649C34.2625 24.3058 33.0955 24.6552 31.7195 24.6552C31.6282 24.6552 31.5368 24.6539 31.4428 24.6499C30.358 24.613 29.3906 24.1779 28.6439 23.4632C27.8972 22.7485 27.3738 21.7529 27.1936 20.5991C27.1375 20.2405 27.0957 19.8805 27.0957 19.5324C27.0918 17.627 27.0905 15.7203 27.0905 13.8149C27.0905 12.0479 27.0905 10.281 27.0931 8.51534C27.0931 8.3492 27.1179 8.16327 27.1349 7.92856L26.8751 7.90878V8.1725H34.722V7.90878H34.461C34.461 8.08152 34.461 8.24239 34.461 8.3993C34.461 8.47842 34.461 8.5549 34.461 8.6327C34.461 8.64589 34.461 8.65907 34.461 8.67094C34.461 10.1517 34.4583 11.6326 34.4583 13.1147C34.4583 14.5071 34.461 15.8996 34.4688 17.2921C34.4727 17.8881 34.5106 18.5065 34.6463 19.1038C34.7325 19.481 34.897 19.7935 35.1359 20.0137C35.3748 20.2352 35.6868 20.3526 36.0183 20.3512C36.2716 20.3512 36.5366 20.2866 36.8042 20.1627C37.2219 19.9675 37.624 19.6563 37.9034 19.2779C38.5222 18.434 38.906 17.4648 38.9047 16.3611C38.9047 16.3479 38.9047 16.3347 38.9047 16.3202C38.8955 15.2337 38.8929 14.1472 38.8929 13.0606C38.8929 11.5904 38.8981 10.1201 38.8981 8.64852H38.637L38.6357 8.64984Z" fill="#CFDDF1"/>
<path d="M112.455 8.68278C108.931 7.05429 105.309 7.03055 101.8 8.69069C96.3816 11.2541 95.3464 18.8177 99.8462 22.61C101.931 24.3664 104.436 24.8925 107.103 25.0204C108.322 24.8332 109.564 24.7396 110.756 24.4402C114.391 23.5278 116.836 20.8378 117.159 17.5188C117.547 13.5287 115.873 10.2625 112.455 8.68278ZM108.834 19.175C108.791 20.0743 108.33 20.6545 107.624 20.8615C106.482 21.1978 105.504 20.462 105.422 19.1328C105.36 18.1518 105.394 17.1654 105.394 16.1817C105.394 15.2416 105.368 14.2988 105.423 13.3625C105.488 12.2351 106.15 11.5732 107.112 11.5745C108.081 11.5758 108.765 12.2272 108.833 13.3401C108.892 14.2988 108.845 15.2627 108.845 16.2239C108.845 17.2076 108.881 18.1926 108.834 19.1737V19.175Z" fill="#9EB0CB"/>
<path d="M112.455 8.68262L112.564 8.44263C110.767 7.6119 108.937 7.18863 107.108 7.18994C105.289 7.18994 103.47 7.60926 101.688 8.45186C100.082 9.21138 98.8475 10.3981 98.0173 11.7946C97.187 13.191 96.7575 14.7957 96.7575 16.3992C96.7575 17.5859 96.9925 18.7713 97.4755 19.8698C97.9585 20.9682 98.6895 21.9795 99.6778 22.8116C100.75 23.7148 101.932 24.3029 103.18 24.6774C104.428 25.0532 105.743 25.2181 107.089 25.2814H107.115L107.141 25.2787C108.347 25.0928 109.596 24.9992 110.817 24.6933C112.68 24.2251 114.246 23.3008 115.389 22.0587C116.532 20.8178 117.25 19.2592 117.417 17.5424C117.455 17.156 117.473 16.775 117.473 16.4018C117.473 14.6203 117.047 12.9958 116.215 11.635C115.385 10.2729 114.151 9.17578 112.562 8.44263L112.454 8.68262L112.346 8.92261C113.85 9.61752 114.996 10.6421 115.771 11.9132C116.547 13.1844 116.951 14.7061 116.951 16.4044C116.951 16.7605 116.933 17.1231 116.898 17.4936C116.741 19.0944 116.075 20.5409 115.007 21.7026C113.938 22.8643 112.464 23.7399 110.692 24.1843C109.53 24.477 108.295 24.5706 107.063 24.7605L107.102 25.0216L107.114 24.7579C105.792 24.6946 104.521 24.5337 103.329 24.175C102.137 23.8164 101.025 23.2626 100.012 22.4094C99.0864 21.6288 98.4037 20.686 97.952 19.6588C97.5003 18.6316 97.2784 17.5187 97.2784 16.4018C97.2784 14.8933 97.6831 13.3808 98.4637 12.0688C99.2444 10.7568 100.4 9.64521 101.909 8.93184C103.628 8.11825 105.367 7.72003 107.107 7.72003C108.856 7.72003 110.608 8.12352 112.344 8.92524L112.453 8.68526L112.455 8.68262ZM108.834 19.1748L108.573 19.1617C108.553 19.5691 108.441 19.8843 108.268 20.1203C108.094 20.355 107.855 20.5185 107.551 20.6082C107.388 20.6557 107.231 20.6781 107.082 20.6781C106.702 20.6781 106.379 20.5343 106.132 20.2733C105.885 20.0108 105.714 19.6219 105.683 19.1168C105.654 18.654 105.646 18.1872 105.646 17.7178C105.646 17.2088 105.655 16.6972 105.655 16.1829V16.1776C105.655 15.7148 105.649 15.2546 105.649 14.797C105.649 14.3395 105.655 13.8476 105.683 13.3782C105.713 12.8626 105.876 12.4816 106.117 12.2297C106.239 12.1031 106.381 12.0068 106.546 11.9409C106.71 11.875 106.898 11.8381 107.108 11.8381H107.11V11.635L107.102 11.8381H107.11V11.635L107.103 11.8381H107.107H107.111C107.538 11.8394 107.876 11.9792 108.125 12.2271C108.373 12.4763 108.54 12.8494 108.572 13.3558C108.594 13.7184 108.602 14.085 108.602 14.4542C108.602 15.0383 108.585 15.6291 108.583 16.2238C108.583 16.8251 108.596 17.4237 108.596 18.0171C108.596 18.4008 108.591 18.7819 108.573 19.1603L108.834 19.1735L109.095 19.1867C109.113 18.7964 109.12 18.4061 109.12 18.0171C109.12 17.4158 109.107 16.8172 109.107 16.2238C109.107 15.6396 109.124 15.0489 109.125 14.4542C109.125 14.0784 109.119 13.7013 109.095 13.3241C109.059 12.7176 108.848 12.2099 108.496 11.8552C108.144 11.4992 107.655 11.3119 107.115 11.3119V11.5757L107.123 11.3119H107.112H107.111C106.841 11.3119 106.586 11.3581 106.355 11.4517C106.008 11.5902 105.717 11.8367 105.513 12.1624C105.309 12.4881 105.191 12.8903 105.165 13.3492C105.137 13.8345 105.129 14.3171 105.129 14.7984C105.129 15.2797 105.136 15.7214 105.136 16.179V16.1842C105.136 16.6932 105.127 17.2048 105.127 17.7191C105.127 18.1951 105.134 18.6725 105.165 19.1511C105.202 19.759 105.414 20.2733 105.756 20.6385C106.098 21.0038 106.57 21.2095 107.085 21.2082C107.285 21.2082 107.491 21.1778 107.7 21.1172C108.1 20.9998 108.446 20.7691 108.689 20.4368C108.933 20.1058 109.074 19.6812 109.098 19.1894L108.837 19.1762L108.834 19.1748Z" fill="#CFDDF1"/>
<path d="M90.2539 8.59313C86.6796 7.02925 83.0374 7.04508 79.548 8.82784C76.2844 10.4959 74.8746 13.3599 75.0965 16.9822C75.3106 20.4778 77.1878 22.8131 80.3926 24.0935C81.886 24.6908 83.4486 24.9136 85.0491 24.9176C85.6353 24.8873 86.224 24.8899 86.8049 24.8174C87.4498 24.7356 88.0947 24.6222 88.7226 24.4587C92.5423 23.4618 94.8764 20.8048 95.2145 17.0995C95.55 13.4193 93.6806 10.0911 90.2539 8.59181V8.59313ZM86.8885 18.7043C86.8702 20.1271 86.2136 20.9354 85.1353 20.9367C84.0518 20.938 83.403 20.1218 83.3834 18.7069C83.3716 17.8788 83.3808 17.0494 83.3808 16.2213C83.3808 15.4143 83.3494 14.606 83.3925 13.8017C83.416 13.3533 83.5087 12.8905 83.6693 12.4738C83.8912 11.8989 84.3716 11.6088 84.9917 11.5785C85.6509 11.5455 86.2279 11.7525 86.5151 12.3631C86.7214 12.8035 86.8611 13.3151 86.8741 13.799C86.9172 15.4328 86.9067 17.0692 86.8859 18.7056L86.8885 18.7043Z" fill="#9EB0CB"/>
<path d="M90.2538 8.59286L90.3569 8.35024C88.6076 7.58544 86.8362 7.18854 85.0699 7.18854C83.1666 7.18854 81.2724 7.64873 79.4291 8.59154C77.8704 9.38799 76.7099 10.4613 75.9449 11.7602C75.1786 13.059 74.8118 14.5794 74.8118 16.258C74.8118 16.5019 74.8196 16.7485 74.8353 16.9977C74.9436 18.7884 75.4841 20.3035 76.4149 21.5285C77.3456 22.7535 78.6602 23.6844 80.2959 24.3385C81.8259 24.9503 83.4237 25.1771 85.0477 25.1811H85.0621C85.6378 25.1507 86.233 25.1547 86.8362 25.0782C87.4889 24.9964 88.1455 24.8804 88.7878 24.7129C90.7394 24.204 92.3268 23.2651 93.4691 21.9689C94.6113 20.674 95.3019 19.0244 95.4742 17.123C95.5003 16.8316 95.5134 16.5428 95.5134 16.2553C95.5134 14.5372 95.0408 12.9153 94.157 11.5452C93.2746 10.1752 91.9822 9.05965 90.3556 8.3476L90.2525 8.59023L90.148 8.83285C91.6845 9.50535 92.8921 10.5523 93.7184 11.834C94.5447 13.1157 94.9899 14.6348 94.9899 16.2553C94.9899 16.5257 94.9781 16.7986 94.952 17.0742C94.7862 18.8781 94.1414 20.409 93.0774 21.6182C92.0122 22.826 90.524 23.7134 88.6559 24.2026C88.0411 24.3635 87.4066 24.4743 86.7709 24.5547C86.2135 24.6259 85.6299 24.6233 85.0347 24.6536L85.0477 24.9173V24.6536C83.4707 24.651 81.9421 24.4294 80.4865 23.8479C78.9174 23.2203 77.6903 22.3434 76.8274 21.2067C75.9645 20.0701 75.4593 18.6697 75.3549 16.9648C75.3405 16.7248 75.3327 16.4887 75.3327 16.2567C75.3327 14.6545 75.6812 13.2357 76.3927 12.0292C77.1041 10.8226 78.1798 9.8205 79.6641 9.06097C81.4408 8.15245 83.2488 7.71467 85.0686 7.71467C86.7565 7.71467 88.4562 8.09179 90.148 8.83285L90.2525 8.59023L90.2538 8.59286ZM86.8884 18.704L86.6273 18.7001C86.6181 19.3726 86.4576 19.871 86.2056 20.1875C86.079 20.347 85.9289 20.4644 85.754 20.5461C85.5777 20.6266 85.3728 20.6714 85.1352 20.6714H85.1326C84.895 20.6714 84.69 20.6266 84.5138 20.5461C84.2514 20.4235 84.0464 20.2191 83.8937 19.9145C83.7423 19.6099 83.6509 19.2024 83.6444 18.7027C83.6404 18.3902 83.6391 18.0764 83.6391 17.7625C83.6391 17.2496 83.6431 16.7353 83.6431 16.2197V16.2131C83.6431 15.7358 83.6326 15.2624 83.6326 14.7943C83.6326 14.466 83.6378 14.139 83.6548 13.8146C83.677 13.3926 83.7645 12.9548 83.9146 12.5685C84.0086 12.3272 84.147 12.161 84.3258 12.0424C84.506 11.9237 84.7331 11.8551 85.0072 11.8406C85.0477 11.838 85.0869 11.838 85.126 11.838C85.3976 11.838 85.6352 11.8881 85.8271 11.9883C86.019 12.0898 86.1691 12.2388 86.2813 12.4749C86.4745 12.885 86.6051 13.3676 86.6155 13.804C86.6377 14.6282 86.6456 15.4536 86.6456 16.2791C86.6456 17.1045 86.6377 17.8917 86.6273 18.6987L86.8884 18.7027L87.1495 18.7066C87.1599 17.8983 87.1677 17.0887 87.1677 16.2791C87.1677 15.4694 87.1599 14.6203 87.1377 13.7895C87.1233 13.2594 86.9732 12.7175 86.7539 12.2481C86.5986 11.9145 86.3558 11.6692 86.0686 11.5189C85.7814 11.3686 85.4589 11.3092 85.126 11.3092C85.0777 11.3092 85.0294 11.3092 84.9811 11.3132C84.6352 11.3303 84.3128 11.4213 84.0412 11.5993C83.7697 11.7773 83.5569 12.0424 83.4277 12.376C83.254 12.823 83.1587 13.3122 83.1326 13.7856C83.1144 14.1231 83.1091 14.4594 83.1091 14.7943C83.1091 15.2717 83.1196 15.745 83.1196 16.2131V16.2197C83.1196 16.7327 83.1157 17.2469 83.1157 17.7625C83.1157 18.0777 83.117 18.3941 83.1209 18.7093C83.1313 19.4543 83.3063 20.0701 83.6535 20.5145C83.8271 20.736 84.0438 20.9101 84.2945 21.0248C84.5451 21.1408 84.8271 21.1988 85.1299 21.1988H85.1326C85.4341 21.1988 85.7161 21.1408 85.9667 21.0261C86.344 20.8534 86.6429 20.5488 86.8401 20.1532C87.0372 19.7563 87.139 19.2697 87.1468 18.7066L86.8858 18.7027L86.8884 18.704Z" fill="#CFDDF1"/>
<path d="M61.3894 19.8079C59.8503 19.7486 58.9991 18.8348 58.99 17.2973C58.9861 16.5971 58.99 15.8982 58.99 15.1981C58.99 14.221 58.99 13.2452 58.99 12.1731H62.9977V7.85468H58.9926V3.11953C58.8608 3.07602 58.8007 3.03778 58.7407 3.03778C57.0018 3.0325 55.263 3.01668 53.5241 3.04701C53.3427 3.04964 53.0764 3.28304 53.002 3.4716C52.5294 4.6689 52.0725 5.87544 51.6704 7.0978C51.4798 7.67799 51.2148 7.9483 50.5699 7.88501C49.8911 7.81908 49.2018 7.8705 48.5126 7.8705V12.1877C49.1914 12.1877 49.8376 12.2206 50.4799 12.1771C51.0268 12.1402 51.1809 12.338 51.1744 12.8799C51.1469 15.0886 51.1274 17.2973 51.1744 19.506C51.2227 21.8333 52.3257 23.5449 54.4902 24.3809C57.2786 25.4582 59.9991 24.9321 62.6269 23.7058C62.8084 23.6214 63.0238 23.3669 63.0303 23.1849C63.0669 22.0087 63.0486 20.8325 63.0486 19.6734C62.4585 19.7249 61.922 19.829 61.3907 19.8079H61.3894Z" fill="#9EB0CB"/>
<path d="M61.3894 19.8077L61.3999 19.5439C61.0396 19.5308 60.7276 19.4661 60.4626 19.3607C60.0657 19.2011 59.7746 18.9545 59.571 18.6143C59.3686 18.2741 59.2551 17.835 59.2511 17.2944C59.2498 17.0293 59.2498 16.7643 59.2498 16.4993C59.2498 16.0654 59.2498 15.6316 59.2498 15.1965C59.2498 14.7086 59.2498 14.2194 59.2498 13.7196C59.2498 13.2199 59.2498 12.7069 59.2498 12.1716H58.9888V12.4353H63.2575V7.58937H62.9964C61.6505 7.58937 60.3568 7.58937 58.9914 7.58937V7.85309H59.2524V2.92938L59.0736 2.87004C59.0175 2.85158 58.977 2.83444 58.9313 2.81598C58.9078 2.80675 58.883 2.79752 58.8517 2.7896C58.8204 2.78169 58.7825 2.7751 58.7407 2.7751C57.8008 2.77246 56.8609 2.76587 55.921 2.76587C55.1207 2.76587 54.3205 2.76983 53.5203 2.78301C53.4211 2.78565 53.3388 2.81466 53.2631 2.85026C53.1508 2.90564 53.0529 2.98212 52.9668 3.06915C52.8819 3.1575 52.8075 3.25376 52.7605 3.37243C52.288 4.57237 51.8284 5.78286 51.4238 7.01313C51.3846 7.13444 51.3428 7.23466 51.2984 7.3151C51.2319 7.43509 51.1666 7.50498 51.0883 7.55245C51.0099 7.5986 50.9068 7.62893 50.7436 7.62893C50.6979 7.62893 50.6496 7.62629 50.5948 7.62101C50.3181 7.59332 50.0413 7.58541 49.7672 7.58541C49.3429 7.58541 48.9225 7.60387 48.5113 7.60387H48.2502V7.8676C48.2502 9.35499 48.2502 10.725 48.2502 12.1847V12.4485H48.5113C48.9173 12.4485 49.3155 12.4603 49.7136 12.4603C49.9734 12.4603 50.2332 12.4551 50.4956 12.4379C50.5321 12.4353 50.5674 12.434 50.5974 12.434C50.6888 12.434 50.7515 12.4445 50.788 12.4577C50.8154 12.4669 50.8285 12.4762 50.8389 12.4854C50.8533 12.4986 50.8689 12.5184 50.8846 12.5764C50.9003 12.6331 50.9107 12.7241 50.9107 12.8441V12.8744C50.8951 14.1205 50.882 15.3679 50.882 16.6153C50.882 17.5792 50.8898 18.5444 50.9094 19.5083C50.9342 20.7122 51.2345 21.7764 51.8193 22.648C52.4041 23.5196 53.2696 24.1907 54.3936 24.6246C55.4706 25.0413 56.5424 25.2245 57.5998 25.2245C59.3569 25.2245 61.0709 24.7182 62.7327 23.9428C62.8045 23.9086 62.8685 23.865 62.9286 23.8149C63.0186 23.7398 63.0983 23.6488 63.1635 23.5486C63.1962 23.4985 63.2236 23.4444 63.2458 23.3864C63.268 23.3284 63.2836 23.2651 63.2862 23.1926C63.3045 22.5926 63.3097 21.9953 63.3097 21.3992C63.3097 20.8032 63.3058 20.2428 63.3058 19.6718V19.3844L63.0225 19.4094C62.469 19.4582 61.9808 19.5466 61.5278 19.5453C61.4847 19.5453 61.4404 19.5453 61.3973 19.5426L61.3881 19.8063L61.379 20.0701C61.4286 20.0714 61.4782 20.0727 61.5291 20.0727C62.0474 20.0727 62.5461 19.9791 63.0695 19.9343L63.0473 19.6718H62.7863C62.7863 20.2454 62.7902 20.8217 62.7902 21.3992C62.7902 21.9768 62.7863 22.5847 62.768 23.1754C62.768 23.1754 62.7601 23.2044 62.7458 23.2321C62.7236 23.2756 62.6818 23.3297 62.6374 23.3732C62.5931 23.418 62.5434 23.4523 62.5173 23.4642C60.8999 24.2184 59.259 24.6971 57.6024 24.6971C56.605 24.6971 55.6011 24.5244 54.5829 24.1314C53.5425 23.7292 52.7749 23.1266 52.254 22.3526C51.7345 21.5772 51.4577 20.6226 51.4342 19.4978C51.4146 18.5378 51.4068 17.5766 51.4068 16.6153C51.4068 15.3705 51.4198 14.1257 51.4355 12.881C51.4355 12.8691 51.4355 12.8559 51.4355 12.8441C51.4355 12.7122 51.4264 12.5922 51.4003 12.4788C51.3807 12.3931 51.3507 12.3113 51.305 12.2349C51.2371 12.1188 51.1248 12.0265 51.0008 11.9764C50.8768 11.925 50.7436 11.9078 50.5987 11.9078C50.5543 11.9078 50.5086 11.9092 50.4617 11.9131C50.2162 11.9289 49.9682 11.9342 49.7149 11.9342C49.3272 11.9342 48.9278 11.9223 48.5126 11.9223V12.1861H48.7737V7.86891H48.5126V8.13264C48.9395 8.13264 49.3599 8.11418 49.7685 8.11418C50.0322 8.11418 50.2906 8.12209 50.5452 8.14714C50.6131 8.15374 50.6797 8.15769 50.7436 8.15769C50.8964 8.15769 51.0373 8.13791 51.1679 8.09308C51.3637 8.02715 51.5282 7.89924 51.647 7.73969C51.7671 7.58014 51.8493 7.39289 51.9185 7.1806C52.318 5.96483 52.7736 4.76489 53.2448 3.56891C53.2501 3.5544 53.267 3.52407 53.2931 3.49111C53.3323 3.441 53.3897 3.38826 53.442 3.35397C53.4681 3.33683 53.4916 3.32364 53.5085 3.31705L53.5268 3.31046H53.5294L53.5268 3.28804V3.30914H53.5294L53.5268 3.28804V3.30914C54.3244 3.29595 55.1221 3.292 55.9197 3.292C56.8583 3.292 57.7982 3.29727 58.7381 3.30123V3.20101L58.7237 3.29991H58.7381V3.20101L58.7237 3.29991L58.7303 3.25508L58.7198 3.29859H58.7237L58.7303 3.25508L58.7198 3.29859C58.7198 3.29859 58.7394 3.30518 58.772 3.31837C58.8047 3.33156 58.8517 3.35002 58.9091 3.3698L58.9914 3.11926H58.7303C58.7303 4.66468 58.7303 6.22724 58.7303 7.85441V8.11813H62.9964V7.85441H62.7353C62.7353 9.30489 62.7353 10.6908 62.7353 12.1729H62.9964V11.9092C61.691 11.9092 60.3803 11.9092 58.9888 11.9092H58.7277V12.1729C58.7277 12.7082 58.7277 13.2199 58.7277 13.7209C58.7277 14.2207 58.7277 14.7099 58.7277 15.1978C58.7277 15.6316 58.7277 16.0654 58.7277 16.5006C58.7277 16.7656 58.7277 17.032 58.729 17.2983C58.7316 17.7071 58.789 18.0816 58.9052 18.4165C59.0788 18.9189 59.3882 19.3316 59.8112 19.6125C60.2354 19.8947 60.7654 20.0477 61.3777 20.0714L61.3881 19.8077H61.3894Z" fill="#CFDDF1"/>
<path d="M65.4271 24.5286H73.2035V1.84967H65.4271V24.5299V24.5286Z" fill="#9EB0CB"/>
<path d="M65.4271 24.5285V24.7923H73.4647V1.58594H73.2036C70.5679 1.58594 67.9988 1.58594 65.4271 1.58594H65.166V1.84966C65.166 9.43302 65.166 16.9623 65.166 24.5299V24.7936H65.4271V24.5299H65.6882V1.84966H65.4271V2.11338H73.2036V1.84966H72.9425C72.9425 9.42511 72.9425 16.9544 72.9425 24.5299H73.2036V24.2661C70.6018 24.2661 68.0314 24.2661 65.4271 24.2661V24.5299V24.5285Z" fill="#CFDDF1"/>
</svg>
