<svg width="50" height="50" viewBox="0 0 50 50" fill="none" xmlns="http://www.w3.org/2000/svg">
<rect width="50" height="50" fill="#FC471E"/>
<path d="M36.9997 24.8233C36.9811 24.3161 36.8163 23.8252 36.525 23.4096C36.2338 22.994 35.8285 22.6716 35.3581 22.4811C34.8877 22.2907 34.3722 22.2404 33.8739 22.3362C33.3756 22.4321 32.9156 22.6701 32.5495 23.0215C30.4999 21.6283 28.0906 20.8586 25.6129 20.8054L26.784 15.1841L30.6396 15.9949C30.6855 16.4209 30.8817 16.8167 31.193 17.1112C31.5044 17.4056 31.9105 17.5795 32.3384 17.6015C32.7664 17.6235 33.1882 17.4923 33.5281 17.2313C33.8681 16.9704 34.1038 16.5968 34.1932 16.1777C34.2825 15.7586 34.2195 15.3213 34.0155 14.9445C33.8115 14.5676 33.4798 14.2758 33.0801 14.1214C32.6803 13.967 32.2386 13.9602 31.8343 14.1021C31.4299 14.244 31.0894 14.5254 30.8739 14.8958L26.4597 14.013C26.3875 13.9971 26.3128 13.9958 26.2401 14.009C26.1674 14.0222 26.098 14.0497 26.036 14.0899C25.974 14.1302 25.9206 14.1823 25.8789 14.2433C25.8372 14.3043 25.808 14.373 25.793 14.4454L24.4598 20.6973C21.9516 20.7351 19.5091 21.5054 17.4331 22.9134C17.1553 22.6521 16.8241 22.4543 16.4623 22.3337C16.1005 22.2131 15.7168 22.1726 15.3378 22.2151C14.9588 22.2575 14.5935 22.3819 14.2674 22.5795C13.9412 22.7771 13.6619 23.0433 13.4488 23.3596C13.2358 23.6759 13.094 24.0347 13.0334 24.4112C12.9728 24.7878 12.9948 25.173 13.0979 25.5401C13.2009 25.9073 13.3826 26.2477 13.6303 26.5377C13.878 26.8277 14.1858 27.0603 14.5323 27.2195C14.512 27.4834 14.512 27.7484 14.5323 28.0123C14.5323 32.0481 19.2348 35.3273 25.0363 35.3273C30.8378 35.3273 35.5403 32.0481 35.5403 28.0123C35.5606 27.7484 35.5606 27.4834 35.5403 27.2195C35.9849 26.9986 36.3579 26.6563 36.6161 26.2322C36.8744 25.8082 37.0074 25.3197 36.9997 24.8233ZM18.9825 26.625C18.9825 26.1471 19.1724 25.6889 19.5103 25.351C19.8481 25.0131 20.3064 24.8233 20.7843 24.8233C21.2621 24.8233 21.7204 25.0131 22.0583 25.351C22.3961 25.6889 22.586 26.1471 22.586 26.625C22.586 27.1028 22.3961 27.5611 22.0583 27.899C21.7204 28.2369 21.2621 28.4267 20.7843 28.4267C20.3064 28.4267 19.8481 28.2369 19.5103 27.899C19.1724 27.5611 18.9825 27.1028 18.9825 26.625ZM29.4505 31.5797C28.1722 32.543 26.5995 33.0333 25.0003 32.967C23.401 33.0333 21.8283 32.543 20.55 31.5797C20.4734 31.4863 20.4343 31.3678 20.4402 31.2472C20.4461 31.1266 20.4967 31.0125 20.5821 30.9271C20.6675 30.8417 20.7816 30.7911 20.9022 30.7852C21.0228 30.7793 21.1413 30.8184 21.2347 30.895C22.3179 31.6896 23.6402 32.0901 24.9823 32.0301C26.326 32.1032 27.6544 31.7155 28.7478 30.9311C28.7939 30.8795 28.8501 30.8379 28.913 30.8089C28.9758 30.7799 29.0439 30.7642 29.1131 30.7627C29.1823 30.7612 29.251 30.7739 29.315 30.8001C29.3791 30.8263 29.4371 30.8653 29.4854 30.9149C29.5337 30.9644 29.5713 31.0234 29.5958 31.088C29.6204 31.1527 29.6313 31.2218 29.6281 31.2909C29.6248 31.36 29.6073 31.4277 29.5768 31.4898C29.5463 31.5519 29.5033 31.607 29.4505 31.6518V31.5797ZM29.1262 28.4988C28.7698 28.4988 28.4215 28.3931 28.1252 28.1951C27.8289 27.9971 27.598 27.7157 27.4616 27.3865C27.3253 27.0573 27.2896 26.695 27.3591 26.3455C27.4286 25.996 27.6002 25.675 27.8522 25.423C28.1042 25.1711 28.4252 24.9995 28.7747 24.9299C29.1242 24.8604 29.4865 24.8961 29.8157 25.0325C30.1449 25.1688 30.4263 25.3998 30.6243 25.6961C30.8222 25.9924 30.9279 26.3407 30.9279 26.697C30.9377 26.9412 30.8977 27.1847 30.8104 27.4129C30.7232 27.6411 30.5904 27.8492 30.4202 28.0244C30.2499 28.1997 30.0459 28.3385 29.8203 28.4325C29.5948 28.5264 29.3525 28.5735 29.1082 28.5708L29.1262 28.4988Z" fill="white"/>
</svg>
