<svg width="272" height="58" viewBox="0 0 272 58" fill="none" xmlns="http://www.w3.org/2000/svg">
<path d="M254.518 41.448C247.587 34.528 240.393 27.96 233.063 21.872C236.308 17.808 239.282 13.344 242.088 8.368L246.788 0H18.1936L16.9066 3.824L3.54918 43.632L0 54.208L10.5996 50.76C15.3718 49.208 20.2399 47.736 25.0681 46.376L27.9138 45.576L28.8651 42.776L31.2312 35.8L31.2952 35.624C33.6293 35.16 35.9874 34.712 38.3296 34.28C40.6078 36.12 42.9819 37.856 45.5398 39.528L47.4903 40.808L49.7685 40.328C55.2521 39.176 60.8397 38.136 66.3793 37.232L81.9429 34.696L68.2738 26.824C68.026 26.68 67.7862 26.544 67.5464 26.4C68.5855 25.712 69.5608 24.96 70.48 24.152C70.8797 25.424 71.4792 26.632 72.3106 27.728C75.516 31.984 81.6072 34.32 89.465 34.32C90.9678 34.32 92.5425 34.232 94.1333 34.064C100.456 33.456 106.883 33 113.23 32.712C119.865 32.4 126.044 30.952 130.624 28.64C133.526 27.168 135.508 25.52 136.875 23.864C141.6 29.456 151.288 32.632 160.856 33.392C171.416 34.192 182.055 35.448 192.487 37.136L195.549 37.632L198.61 38.176C203.518 39.048 208.474 40.04 213.351 41.112L222.927 43.216L220.977 37.224C223.806 39.552 226.604 41.936 229.394 44.408L230.369 45.272L231.624 45.616C237.372 47.184 243.159 48.912 248.818 50.76L271.089 58L254.51 41.44L254.518 41.448Z" fill="url(#paint0_linear_103_1024)"/>
<path d="M115.109 5.61582H98.0742C97.9463 5.61582 97.8184 5.61582 97.6905 5.61582C87.6265 5.61582 77.8982 11.2478 75.8518 18.3758C74.0293 24.7358 79.9126 28.7118 89.441 28.7118C90.744 28.7118 92.1189 28.6398 93.5498 28.4878C100.009 27.8638 106.484 27.4078 112.958 27.1118C124.877 26.5598 134.325 22.0398 134.046 16.1838C133.774 10.3358 125.285 5.63182 115.101 5.62382L115.109 5.61582ZM111.328 20.7358C106.611 20.9118 101.903 21.1518 97.1869 21.4638C96.8352 21.4878 96.4994 21.4958 96.1717 21.4958C92.1749 21.4958 89.489 19.7838 90.0486 17.3598C90.6481 14.7438 94.6049 12.5038 98.8895 12.3998C103.358 12.2638 107.834 12.1598 112.311 12.0878H112.535C116.707 12.0878 119.961 13.9358 119.833 16.2398C119.705 18.5838 115.9 20.5518 111.344 20.7358H111.328Z" fill="white"/>
<path d="M162.511 21.272C157.955 20.992 154.03 18.896 153.742 16.496C153.462 14.168 156.524 12.32 160.633 12.32C160.745 12.32 160.856 12.32 160.968 12.32C170.057 12.56 179.138 12.928 188.203 13.4C187.467 10.8 186.724 8.19996 185.989 5.60796H157.739C147.555 5.65596 139.386 10.368 139.505 16.192C139.625 22.032 149.394 26.848 161.296 27.792C172.024 28.6 182.727 29.872 193.375 31.592C192.639 28.992 191.896 26.4 191.16 23.8C181.64 22.688 172.08 21.84 162.511 21.272Z" fill="white"/>
<path d="M250.553 45.4238C241.776 36.6638 233.263 29.1438 225.061 22.5998C229.442 17.8238 233.463 12.2478 237.196 5.61582H221.408C217.683 10.9758 213.67 15.5598 209.33 19.5758C207.819 14.9198 206.3 10.2718 204.79 5.61582H191.496C194.198 14.6318 196.892 23.6398 199.594 32.6558C204.598 33.5518 209.578 34.5438 214.55 35.6318C213.039 30.9758 211.52 26.3278 210.009 21.6718C217.42 27.0558 225.133 33.1598 233.103 40.2078C238.954 41.8078 244.766 43.5438 250.553 45.4238Z" fill="white"/>
<path d="M59.6247 5.61633H22.2304C17.7779 18.8883 13.3254 32.1523 8.86499 45.4243C13.7331 43.8403 18.6332 42.3603 23.5493 40.9763C24.7004 37.5683 25.8515 34.1683 27.0106 30.7603C31.2952 29.8803 35.5958 29.0563 39.9043 28.2883C42.6781 30.6803 45.5718 32.8483 48.6014 34.8323C54.205 33.6563 59.8245 32.6083 65.4601 31.6963C62.1427 29.7843 58.9772 27.7523 55.9476 25.5283C62.9341 23.6163 69.0092 19.3603 70.2642 14.8963C71.6631 9.86433 66.8989 5.72033 59.6167 5.62433L59.6247 5.61633ZM56.3233 16.0243C55.9076 17.3443 54.0931 18.5603 52.2705 18.7523C44.8924 19.4963 37.5382 20.3603 30.208 21.3283C30.8715 19.3603 31.535 17.4003 32.2065 15.4323C39.4167 14.8243 46.635 14.2883 53.8613 13.8243H54.1251C55.7478 13.8163 56.715 14.7683 56.3233 16.0243Z" fill="white"/>
<defs>
<linearGradient id="paint0_linear_103_1024" x1="145.156" y1="-6.97909" x2="146.425" y2="48.2645" gradientUnits="userSpaceOnUse">
<stop stop-color="#8C6239"/>
<stop offset="1" stop-color="#603813"/>
</linearGradient>
</defs>
</svg>
