<svg width="140" height="31" viewBox="0 0 140 31" fill="none" xmlns="http://www.w3.org/2000/svg">
<path d="M34.3082 20.0055L35.2337 17.9531C36.2269 18.6772 37.7074 19.1815 39.1202 19.1815C40.736 19.1815 41.3909 18.6434 41.3909 17.9193C41.3909 15.7147 34.5434 17.229 34.5434 12.8551C34.5434 10.8535 36.1592 9.18695 39.5061 9.18695C40.9866 9.18695 42.5009 9.54055 43.594 10.2293L42.7531 12.2986C41.66 11.676 40.5331 11.3731 39.4892 11.3731C37.8734 11.3731 37.2508 11.9788 37.2508 12.7199C37.2508 14.8906 44.0983 13.3932 44.0983 17.7163C44.0983 19.6842 42.4656 21.3676 39.1018 21.3676C37.2354 21.3676 35.3521 20.8126 34.3082 20.0055Z" fill="#328434"/>
<path d="M54.6186 16.6403C54.6186 19.4829 52.6507 21.3001 50.1094 21.3001C48.9825 21.3001 48.057 20.9465 47.3836 20.207V24.4302H44.7593V12.1142H47.2668V13.1566C47.9233 12.3664 48.898 11.9789 50.1094 11.9789C52.6492 11.9805 54.6186 13.7977 54.6186 16.6403ZM51.9604 16.6403C51.9604 15.0752 50.9673 14.1328 49.6559 14.1328C48.343 14.1328 47.3514 15.0752 47.3514 16.6403C47.3514 18.2053 48.3445 19.1477 49.6559 19.1477C50.9673 19.1477 51.9604 18.2053 51.9604 16.6403Z" fill="#328434"/>
<path d="M63.6691 16.0008V21.1664H61.2124V20.0395C60.725 20.8636 59.7826 21.3017 58.4528 21.3017C56.3327 21.3017 55.0706 20.1241 55.0706 18.559C55.0706 16.9602 56.1975 15.8502 58.9571 15.8502H61.0433C61.0433 14.7233 60.3699 14.0668 58.9571 14.0668C57.9977 14.0668 57.0061 14.3866 56.3497 14.9078L55.4072 13.0737C56.4004 12.3665 57.864 11.9806 59.3107 11.9806C62.0703 11.9806 63.6691 13.2582 63.6691 16.0008ZM61.0433 18.3054V17.3799H59.243C58.0146 17.3799 57.6272 17.8334 57.6272 18.4391C57.6272 19.0956 58.1822 19.5322 59.1077 19.5322C59.984 19.5337 60.7404 19.1309 61.0433 18.3054Z" fill="#328434"/>
<path d="M64.4454 16.6404C64.4454 13.9146 66.5486 11.9806 69.4927 11.9806C71.3944 11.9806 72.8918 12.8046 73.5467 14.2851L71.5112 15.3782C71.0239 14.5203 70.2998 14.1329 69.4757 14.1329C68.1474 14.1329 67.1036 15.0584 67.1036 16.6404C67.1036 18.2224 68.1459 19.1479 69.4757 19.1479C70.2998 19.1479 71.0239 18.7774 71.5112 17.9026L73.5467 19.0126C72.8903 20.4592 71.3929 21.3002 69.4927 21.3002C66.5486 21.3002 64.4454 19.3662 64.4454 16.6404Z" fill="#328434"/>
<path d="M83.4368 17.3799H76.5893C76.8414 18.5068 77.8007 19.1971 79.1798 19.1971C80.1391 19.1971 80.8278 18.9111 81.4505 18.3223L82.8464 19.8366C82.0055 20.7959 80.7433 21.3002 79.1121 21.3002C75.9835 21.3002 73.9465 19.3323 73.9465 16.6404C73.9465 13.9315 76.0158 11.9806 78.7754 11.9806C81.4336 11.9806 83.4859 13.764 83.4859 16.6742C83.4875 16.8756 83.4537 17.1616 83.4368 17.3799ZM76.5554 15.8502H81.0138C80.8294 14.7064 79.9715 13.9654 78.7923 13.9654C77.5993 13.9654 76.7415 14.6895 76.5554 15.8502Z" fill="#328434"/>
<path d="M96.2847 21.1662L96.2678 14.1004L92.8026 19.921H91.5742L88.1259 14.2511V21.1662H85.5692V9.38989H87.823L92.2307 16.7078L96.5707 9.38989H98.8091L98.843 21.1662H96.2847Z" fill="#328434"/>
<path d="M99.5177 16.6404C99.5177 13.9146 101.621 11.9806 104.497 11.9806C107.374 11.9806 109.46 13.9162 109.46 16.6404C109.46 19.3646 107.374 21.3002 104.497 21.3002C101.621 21.3002 99.5177 19.3662 99.5177 16.6404ZM106.803 16.6404C106.803 15.0753 105.81 14.1329 104.499 14.1329C103.186 14.1329 102.177 15.0753 102.177 16.6404C102.177 18.2054 103.187 19.1479 104.499 19.1479C105.81 19.1479 106.803 18.2054 106.803 16.6404Z" fill="#328434"/>
<path d="M119.676 15.9838V21.1663H117.052V16.3882C117.052 14.9246 116.378 14.2512 115.218 14.2512C113.955 14.2512 113.047 15.0245 113.047 16.691V21.1663H110.422V12.1142H112.93V13.1735C113.637 12.4002 114.696 11.9789 115.925 11.9789C118.06 11.9805 119.676 13.2242 119.676 15.9838Z" fill="#328434"/>
<path d="M129.941 17.3799H123.094C123.346 18.5068 124.305 19.1971 125.684 19.1971C126.643 19.1971 127.332 18.9111 127.955 18.3223L129.351 19.8366C128.51 20.7959 127.248 21.3002 125.616 21.3002C122.486 21.3002 120.451 19.3323 120.451 16.6404C120.451 13.9315 122.52 11.9806 125.28 11.9806C127.938 11.9806 129.99 13.764 129.99 16.6742C129.99 16.8756 129.958 17.1616 129.941 17.3799ZM123.06 15.8502H127.518C127.334 14.7064 126.474 13.9654 125.297 13.9654C124.102 13.9654 123.244 14.6895 123.06 15.8502Z" fill="#328434"/>
<path d="M140 12.1143L135.912 21.7214C135.037 23.909 133.792 24.5655 132.161 24.5655C131.235 24.5655 130.225 24.2626 129.638 23.7415L130.597 21.8735C131.002 22.2271 131.557 22.4455 132.078 22.4455C132.802 22.4455 133.205 22.1257 133.558 21.3186L133.592 21.234L129.672 12.1158H132.381L134.92 18.2561L137.477 12.1158H140V12.1143Z" fill="#328434"/>
<path d="M15.2693 0.024353C6.83673 0.024353 0 6.86109 0 15.2936C0 23.7262 6.83673 30.5629 15.2693 30.5629C23.7033 30.5629 30.5385 23.7262 30.5385 15.2936C30.5385 6.86109 23.7033 0.024353 15.2693 0.024353ZM8.10815 21.0634C6.33862 21.0634 4.55372 20.5376 3.56672 19.772L4.44303 17.8272C5.38391 18.5129 6.786 18.991 8.12506 18.991C9.65475 18.991 10.2759 18.4806 10.2759 17.7965C10.2759 15.7087 3.78964 17.1431 3.78964 12.9998C3.78964 11.1027 5.31934 9.52537 8.49095 9.52537C9.89305 9.52537 11.3274 9.86052 12.3636 10.5139L11.5673 12.4741C10.5311 11.8837 9.46412 11.5978 8.47558 11.5978C6.94589 11.5978 6.35553 12.1712 6.35553 12.8722C6.35553 14.9277 12.8417 13.5103 12.8417 17.6058C12.8402 19.4691 11.2951 21.0634 8.10815 21.0634ZM24.552 20.8728L24.5366 14.179L21.2528 19.6936H20.089L16.822 14.322V20.8728H14.4006V9.716H16.5361L20.7116 16.6481L24.8226 9.716H26.9426L26.9749 20.8712H24.552V20.8728Z" fill="#328434"/>
</svg>
