<svg width="140" height="32" viewBox="0 0 140 32" fill="none" xmlns="http://www.w3.org/2000/svg">
<path d="M34.3082 20.467L35.2337 18.4146C36.2269 19.1387 37.7074 19.6429 39.1202 19.6429C40.736 19.6429 41.3909 19.1049 41.3909 18.3808C41.3909 16.1762 34.5434 17.6905 34.5434 13.3166C34.5434 11.315 36.1592 9.64844 39.5061 9.64844C40.9866 9.64844 42.5009 10.002 43.594 10.6908L42.7531 12.7601C41.66 12.1375 40.5331 11.8346 39.4892 11.8346C37.8734 11.8346 37.2508 12.4403 37.2508 13.1813C37.2508 15.3521 44.0983 13.8547 44.0983 18.1778C44.0983 20.1457 42.4656 21.8291 39.1018 21.8291C37.2354 21.8291 35.3521 21.2741 34.3082 20.467Z" fill="#9EB0CB"/>
<path d="M54.6186 17.1018C54.6186 19.9444 52.6507 21.7616 50.1094 21.7616C48.9825 21.7616 48.057 21.408 47.3836 20.6685V24.8917H44.7593V12.5757H47.2668V13.6181C47.9233 12.8278 48.898 12.4404 50.1094 12.4404C52.6492 12.442 54.6186 14.2592 54.6186 17.1018ZM51.9604 17.1018C51.9604 15.5367 50.9673 14.5943 49.6559 14.5943C48.343 14.5943 47.3514 15.5367 47.3514 17.1018C47.3514 18.6668 48.3445 19.6092 49.6559 19.6092C50.9673 19.6092 51.9604 18.6668 51.9604 17.1018Z" fill="#9EB0CB"/>
<path d="M63.6691 16.4623V21.6279H61.2124V20.501C60.725 21.3251 59.7826 21.7632 58.4528 21.7632C56.3327 21.7632 55.0706 20.5856 55.0706 19.0205C55.0706 17.4217 56.1975 16.3117 58.9571 16.3117H61.0433C61.0433 15.1848 60.3699 14.5283 58.9571 14.5283C57.9977 14.5283 57.0061 14.8481 56.3497 15.3693L55.4072 13.5352C56.4004 12.828 57.864 12.4421 59.3107 12.4421C62.0703 12.4421 63.6691 13.7196 63.6691 16.4623ZM61.0433 18.7669V17.8414H59.243C58.0146 17.8414 57.6272 18.2949 57.6272 18.9006C57.6272 19.5571 58.1822 19.9937 59.1077 19.9937C59.984 19.9952 60.7404 19.5924 61.0433 18.7669Z" fill="#9EB0CB"/>
<path d="M64.4454 17.1019C64.4454 14.3761 66.5486 12.4421 69.4927 12.4421C71.3944 12.4421 72.8918 13.2661 73.5467 14.7466L71.5112 15.8397C71.0239 14.9818 70.2998 14.5944 69.4757 14.5944C68.1474 14.5944 67.1036 15.5199 67.1036 17.1019C67.1036 18.6838 68.1459 19.6093 69.4757 19.6093C70.2998 19.6093 71.0239 19.2388 71.5112 18.3641L73.5467 19.4741C72.8903 20.9207 71.3929 21.7617 69.4927 21.7617C66.5486 21.7617 64.4454 19.8277 64.4454 17.1019Z" fill="#9EB0CB"/>
<path d="M83.4368 17.8414H76.5893C76.8414 18.9683 77.8007 19.6585 79.1798 19.6585C80.1391 19.6585 80.8278 19.3726 81.4505 18.7838L82.8464 20.2981C82.0055 21.2574 80.7433 21.7617 79.1121 21.7617C75.9835 21.7617 73.9465 19.7938 73.9465 17.1019C73.9465 14.393 76.0158 12.4421 78.7754 12.4421C81.4336 12.4421 83.4859 14.2254 83.4859 17.1357C83.4875 17.3371 83.4537 17.6231 83.4368 17.8414ZM76.5554 16.3117H81.0138C80.8294 15.1679 79.9715 14.4268 78.7923 14.4268C77.5993 14.4268 76.7415 15.1509 76.5554 16.3117Z" fill="#9EB0CB"/>
<path d="M96.2847 21.6277L96.2678 14.5619L92.8026 20.3824H91.5742L88.1259 14.7126V21.6277H85.5692V9.85138H87.823L92.2307 17.1693L96.5707 9.85138H98.8091L98.843 21.6277H96.2847Z" fill="#9EB0CB"/>
<path d="M99.5177 17.1019C99.5177 14.3761 101.621 12.4421 104.497 12.4421C107.374 12.4421 109.46 14.3776 109.46 17.1019C109.46 19.8261 107.374 21.7617 104.497 21.7617C101.621 21.7617 99.5177 19.8277 99.5177 17.1019ZM106.803 17.1019C106.803 15.5368 105.81 14.5944 104.499 14.5944C103.186 14.5944 102.177 15.5368 102.177 17.1019C102.177 18.6669 103.187 19.6093 104.499 19.6093C105.81 19.6093 106.803 18.6669 106.803 17.1019Z" fill="#9EB0CB"/>
<path d="M119.676 16.4453V21.6278H117.052V16.8496C117.052 15.3861 116.378 14.7127 115.218 14.7127C113.955 14.7127 113.047 15.486 113.047 17.1525V21.6278H110.422V12.5757H112.93V13.635C113.637 12.8617 114.696 12.4404 115.925 12.4404C118.06 12.442 119.676 13.6857 119.676 16.4453Z" fill="#9EB0CB"/>
<path d="M129.941 17.8414H123.094C123.346 18.9683 124.305 19.6585 125.684 19.6585C126.643 19.6585 127.332 19.3726 127.955 18.7838L129.351 20.2981C128.51 21.2574 127.248 21.7617 125.616 21.7617C122.486 21.7617 120.451 19.7938 120.451 17.1019C120.451 14.393 122.52 12.4421 125.28 12.4421C127.938 12.4421 129.99 14.2254 129.99 17.1357C129.99 17.3371 129.958 17.6231 129.941 17.8414ZM123.06 16.3117H127.518C127.334 15.1679 126.474 14.4268 125.297 14.4268C124.102 14.4268 123.244 15.1509 123.06 16.3117Z" fill="#9EB0CB"/>
<path d="M140 12.5757L135.912 22.1828C135.037 24.3705 133.792 25.027 132.161 25.027C131.235 25.027 130.225 24.7241 129.638 24.203L130.597 22.335C131.002 22.6886 131.557 22.9069 132.078 22.9069C132.802 22.9069 133.205 22.5872 133.558 21.78L133.592 21.6955L129.672 12.5773H132.381L134.92 18.7176L137.477 12.5773H140V12.5757Z" fill="#9EB0CB"/>
<path d="M15.2693 0.48584C6.83673 0.48584 0 7.32257 0 15.7551C0 24.1876 6.83673 31.0244 15.2693 31.0244C23.7033 31.0244 30.5385 24.1876 30.5385 15.7551C30.5385 7.32257 23.7033 0.48584 15.2693 0.48584ZM8.10815 21.5249C6.33862 21.5249 4.55372 20.9991 3.56672 20.2335L4.44303 18.2887C5.38391 18.9744 6.786 19.4525 8.12506 19.4525C9.65475 19.4525 10.2759 18.9421 10.2759 18.258C10.2759 16.1702 3.78964 17.6046 3.78964 13.4613C3.78964 11.5642 5.31934 9.98685 8.49095 9.98685C9.89305 9.98685 11.3274 10.322 12.3636 10.9754L11.5673 12.9355C10.5311 12.3452 9.46412 12.0592 8.47558 12.0592C6.94589 12.0592 6.35553 12.6327 6.35553 13.3337C6.35553 15.3892 12.8417 13.9717 12.8417 18.0673C12.8402 19.9306 11.2951 21.5249 8.10815 21.5249ZM24.552 21.3343L24.5366 14.6405L21.2528 20.1551H20.089L16.822 14.7835V21.3343H14.4006V10.1775H16.5361L20.7116 17.1095L24.8226 10.1775H26.9426L26.9749 21.3327H24.552V21.3343Z" fill="#9EB0CB"/>
</svg>
