<svg width="20" height="20" viewBox="0 0 20 20" fill="none" xmlns="http://www.w3.org/2000/svg">
<path id="Vector" d="M8.34984 6.40336C8.36683 6.08052 8.38435 5.87642 8.38701 5.67232C8.40825 3.99448 8.4263 2.31717 8.44541 0.639331C8.44647 0.533306 8.44753 0.427281 8.44807 0.321257C8.44966 0.106027 8.55266 -0.000528155 8.77405 1.96826e-06C9.60389 0.00265259 10.4332 0.00106222 11.3305 0.00106222C11.4345 0.995044 11.3772 1.95987 11.4021 2.92045C11.4271 3.86672 11.4282 4.81352 11.4409 5.83666C13.0246 4.49121 14.5362 3.20672 16.1024 1.87558C16.7523 2.61351 17.3639 3.30797 18.0005 4.03106C16.4332 5.61401 14.6509 6.90115 13.1356 8.64419H19.8975C20.0191 9.07571 20.0361 10.92 19.9293 11.5122H12.9848C13.2455 11.9644 13.6219 12.1939 13.924 12.4902C14.2521 12.812 14.5983 13.1147 14.937 13.4254C15.263 13.7238 15.5901 14.0212 15.9161 14.3197C16.2553 14.6298 16.5946 14.9399 16.9328 15.2511C17.2561 15.5485 17.5779 15.8475 17.9554 16.1963C17.3108 16.9231 16.696 17.6165 16.0329 18.3645C14.5617 17.1028 13.1234 15.8687 11.6071 14.5683V19.9925C10.4592 19.9984 9.35807 20.009 8.24047 19.9851V13.9152C6.8452 15.4149 5.53169 16.8261 4.16986 18.2893C3.29915 17.5264 2.51975 16.7217 1.64 15.9095C3.03846 14.4342 4.4555 13.0458 5.83326 11.6203C5.82104 11.5821 5.80936 11.5445 5.79715 11.5063H0.128456C-0.0223273 11.0547 -0.0435644 9.3095 0.0817342 8.71152H5.80883C5.5216 8.19624 5.12288 7.90361 4.80644 7.54578C4.46718 7.16197 4.10828 6.79512 3.75627 6.42245C3.41648 6.06249 3.0735 5.70572 2.73424 5.34577C2.39657 4.9874 2.06209 4.62692 1.67982 4.21819C2.51231 3.39014 3.37135 2.64479 4.26649 1.83688C5.63734 3.32653 6.92749 4.83844 8.35038 6.40442L8.34984 6.40336Z" fill="#F24822"/>
</svg>
