<svg width="48" height="48" viewBox="0 0 48 48" fill="none" xmlns="http://www.w3.org/2000/svg">
<path d="M33.985 25.9689C34.4463 25.7241 34.8228 25.3758 35.0676 24.9333C35.3218 24.4815 35.4348 23.926 35.4442 23.2859C35.4442 22.6457 35.3312 22.0903 35.077 21.6384C34.8323 21.1959 34.4651 20.8476 34.0038 20.6217C33.5237 20.3863 32.8741 20.3016 32.008 20.2922H31.9233H31.5656V26.3266H31.9233C32.8082 26.3266 33.486 26.2231 33.985 25.9689ZM32.281 21.0171C32.94 21.0359 33.4201 21.13 33.6743 21.2618C34.0132 21.4313 34.258 21.6666 34.4369 21.9867C34.6157 22.2974 34.7099 22.721 34.7099 23.2764C34.7099 23.8319 34.6063 24.2555 34.4274 24.5756C34.2392 24.9051 33.9944 25.1404 33.6367 25.3287C33.3731 25.4699 32.9024 25.5641 32.2716 25.5923V21.0171H32.281Z" fill="black"/>
<path d="M30.2759 11.9984C29.7675 11.2735 29.0708 10.6993 28.2047 10.285C27.6399 10.0214 26.8115 9.92731 25.6441 9.92731H23.46V13.5423L23.7707 13.5894C24.9286 13.7494 26.1242 14.0695 27.3763 14.559C27.9412 14.7756 28.4024 14.945 28.7696 15.058C29.1367 15.171 29.4003 15.2369 29.6357 15.2369C30.1158 15.2369 30.5583 15.0486 30.8972 14.7003C31.0196 14.5779 31.1137 14.4367 31.189 14.3049L31.2643 14.1637L31.2173 14.013C30.9348 13.1658 30.6336 12.5068 30.2947 12.0172L30.2759 11.9984ZM30.37 14.1825C30.1441 14.4084 29.9181 14.5026 29.6169 14.5026C29.5416 14.5026 29.3062 14.4649 28.9673 14.3519C28.6284 14.2484 28.1765 14.0883 27.6305 13.8718C26.4443 13.4105 25.2958 13.0999 24.1755 12.9116V10.6428H25.6441C26.7644 10.6428 27.5363 10.7557 27.8941 10.9346C28.666 11.3112 29.2591 11.8007 29.6922 12.4126C29.9558 12.7798 30.21 13.3352 30.4641 14.0601C30.4359 14.0978 30.4077 14.1542 30.3794 14.1825H30.37Z" fill="black"/>
<path d="M34.145 26.7033C33.6178 26.4773 32.9212 26.3832 32.008 26.3832H31.9139H31.5562V31.5609C31.5562 31.9752 31.6503 32.3423 31.8951 32.6153C32.1398 32.8883 32.507 33.0107 32.9024 33.0107C33.439 33.0107 33.9567 32.8789 34.418 32.6059C34.8887 32.3329 35.2559 31.9281 35.5007 31.4291C35.7454 30.9302 35.8584 30.3748 35.8584 29.7723C35.8584 29.0944 35.7172 28.4637 35.4159 27.9083C35.1241 27.3434 34.6911 26.9292 34.145 26.6938V26.7033ZM34.8417 31.1279C34.6534 31.5139 34.3898 31.7963 34.0509 31.994C33.6931 32.2011 33.326 32.2952 32.9024 32.2952C32.6388 32.2952 32.5164 32.2293 32.4317 32.1446C32.3469 32.0505 32.281 31.881 32.281 31.5798V31.0902V27.1175C32.9871 27.1363 33.5237 27.2304 33.8532 27.3717C34.2392 27.5411 34.531 27.8141 34.7664 28.2566C35.0017 28.699 35.1241 29.2074 35.1241 29.7817C35.1241 30.29 35.03 30.7231 34.8323 31.1185L34.8417 31.1279Z" fill="black"/>
<path d="M36.348 26.2136C36.9411 25.9594 37.4118 25.6487 37.7413 25.2627C38.2214 24.6979 38.4662 24.0201 38.4662 23.2952C38.4662 22.608 38.2779 21.9584 37.9107 21.3559C37.5436 20.7534 37.0164 20.2827 36.3762 19.9814C35.689 19.6613 34.6723 19.539 33.2413 19.5295H32.2529V15.8674H32.2811V8.50562H9.5272V15.8674H10.8828L10.9299 15.5568C11.2029 13.8058 11.8337 12.4972 12.8127 11.5934C13.4529 10.9815 14.5638 10.6426 16.1642 10.6426H17.5763V13.4669C16.7667 13.7399 15.9665 14.0788 15.1945 14.5118C13.0481 15.7074 11.3441 17.3831 10.0826 19.5484C8.82114 21.7042 8.1904 24.0012 8.1904 26.4113C8.1904 28.6989 8.76466 30.8641 9.89435 32.8882C11.0335 34.9216 12.6621 36.4843 14.7614 37.567C16.8608 38.6496 19.252 39.1862 21.9256 39.1862C23.959 39.1862 25.7571 38.8567 27.301 38.1883C28.845 37.5199 30.323 36.4467 31.7257 34.9781L31.8292 34.8745V33.7731H32.62C33.9945 33.7731 35.0206 33.6695 35.8491 33.4624C36.6775 33.2553 37.2988 32.9164 37.7978 32.4833C38.6074 31.7585 39.031 30.7982 39.031 29.6968C39.031 28.6518 38.645 27.7481 37.9013 27.0797C37.5342 26.7502 37.007 26.4771 36.348 26.2418V26.2136ZM37.3176 31.9185C36.9034 32.2762 36.4139 32.5492 35.6702 32.7375C34.9359 32.9258 33.9568 33.0294 32.62 33.0294H28.8638C29.0332 32.8976 29.1839 32.7375 29.2686 32.5398C29.3439 32.3704 29.3627 32.1915 29.391 31.9467C29.4098 31.702 29.4192 31.3913 29.4192 31.0242V22.2596C29.4192 21.8831 29.4098 21.5818 29.391 21.337C29.3627 21.0923 29.3439 20.904 29.2686 20.744C29.1839 20.5463 29.0332 20.3862 28.8638 20.2544H31.1608L30.9631 19.7555C30.3795 18.3057 29.5322 17.1101 28.4307 16.2158C27.0751 15.1049 25.5312 14.493 23.8366 14.38L23.4507 14.3518V29.1978C23.4507 29.8286 23.4695 30.3463 23.5072 30.7606C23.5448 31.1748 23.5919 31.4666 23.6954 31.702C23.8743 32.1068 24.2132 32.4269 24.6557 32.6905C24.9663 32.8693 25.3429 32.9823 25.7571 33.0388H16.0983L16.3618 32.9729C16.6537 32.907 16.9267 32.8034 17.162 32.6622C17.5574 32.4457 17.8493 32.088 18.047 31.6361C18.1505 31.4101 18.1882 31.1277 18.2258 30.7323C18.2635 30.3369 18.2729 29.8286 18.2729 29.2072V16.1028L17.661 16.7147C16.8985 17.4678 16.2959 18.3622 15.8723 19.3789C15.0909 21.2523 14.705 23.3328 14.705 25.611C14.705 27.8422 14.9874 29.8851 15.5522 31.7302C15.6652 32.0974 15.7876 32.4363 15.9288 32.7564L16.0418 33.0294H16.0229L16.2959 33.5566C16.8137 34.5545 17.4821 35.3735 18.2823 36.0042C19.5438 36.9927 21.1725 37.4728 23.1118 37.4728C24.7122 37.4728 26.1902 37.1245 27.5364 36.4184C28.6567 35.8348 29.7958 34.9028 30.982 33.6413L31.0855 33.5377V34.5639C29.7675 35.9195 28.4025 36.908 26.9904 37.5199C25.55 38.1412 23.8555 38.4613 21.8973 38.4613C19.3179 38.4613 17.0491 37.9435 15.0721 36.9268C13.0952 35.9007 11.5795 34.4509 10.5063 32.5304C9.42365 30.6099 8.89646 28.5765 8.89646 26.4113C8.89646 24.1236 9.48955 21.9678 10.6851 19.9155C11.8807 17.8632 13.4905 16.2817 15.524 15.152C16.343 14.7001 17.1715 14.3424 18.0281 14.0694L18.2823 13.9846V9.92715H16.1453C14.4508 9.92715 13.1516 10.2849 12.295 11.0757C11.2406 12.0547 10.5722 13.4386 10.2615 15.152H10.2238V9.23992H31.528V15.152H31.4997V20.2638H33.2131C34.5876 20.2638 35.5572 20.405 36.0373 20.6404C36.5645 20.8852 36.9599 21.2429 37.2706 21.7419C37.5718 22.2408 37.7225 22.7492 37.7225 23.2952C37.7225 23.8694 37.5436 24.3496 37.167 24.8014C36.8187 25.2251 36.1315 25.6111 35.0865 25.8935L33.7779 26.2512L35.0865 26.5901C36.2256 26.882 36.9976 27.2397 37.3835 27.5974C37.9861 28.1434 38.2685 28.8024 38.2779 29.6779C38.2779 30.6005 37.9578 31.3254 37.2894 31.9279L37.3176 31.9185ZM26.2843 20.6686C26.8209 20.6781 27.3481 20.6969 27.7435 20.7251C27.9412 20.7345 28.1106 20.744 28.233 20.7628L28.3554 20.7816C28.4872 20.8569 28.5531 20.9417 28.6002 21.0452C28.6096 21.064 28.6473 21.2147 28.6661 21.4218C28.6849 21.6383 28.6943 21.9207 28.6943 22.2785V31.043C28.6943 31.4007 28.6849 31.6926 28.6661 31.8997C28.6473 32.1068 28.6096 32.2574 28.6002 32.2668C28.5531 32.3704 28.4778 32.4551 28.346 32.5304C28.2895 32.5398 28.1295 32.5587 27.9412 32.5775C27.8565 32.5775 27.7529 32.5869 27.6588 32.5963V32.3704H26.482C25.823 32.3704 25.3335 32.2574 25.0134 32.0691C24.6557 31.862 24.4486 31.6361 24.345 31.4101C24.3074 31.3348 24.2509 31.0712 24.2226 30.7041C24.185 30.3275 24.1756 29.8286 24.1756 29.2072V20.631C24.6651 20.631 25.4935 20.6498 26.2937 20.6686H26.2843ZM24.1661 19.539V15.1614C25.5594 15.3214 26.8209 15.8486 27.9694 16.7806C28.845 17.4961 29.5228 18.4187 30.0594 19.539H24.1756H24.1661ZM27.2916 33.7637H29.8617C28.9391 34.658 28.0542 35.3452 27.2163 35.7783C25.9831 36.4279 24.6274 36.7479 23.1306 36.7574C21.3043 36.7574 19.8545 36.3149 18.7436 35.4488C18.1694 35.0063 17.6798 34.4415 17.2562 33.7637H27.2916ZM16.2112 19.5201L16.5407 19.6613C16.8043 19.0212 17.1432 18.4563 17.5574 17.9291V29.2072C17.5574 29.8192 17.5386 30.3087 17.5104 30.6664C17.4821 31.0242 17.4256 31.2689 17.3974 31.3348C17.2374 31.6926 17.0397 31.9091 16.8137 32.0315C16.7196 32.088 16.616 32.135 16.5031 32.1727C16.4183 31.9562 16.3336 31.7396 16.2677 31.5137C15.7217 29.7438 15.4487 27.7763 15.4487 25.6016C15.4487 23.4081 15.8252 21.4218 16.5595 19.6425L16.23 19.5013L16.2112 19.5201Z" fill="black"/>
<path d="M3.37027 44.0816H43.8509V3.60089H3.37027V44.0816ZM4.31168 4.5423H42.9095V43.1401H4.31168V4.5423Z" fill="black"/>
<path d="M47.2306 46.9057V0.230591H0V47.4612H47.2306V46.9152V46.9057ZM1.10145 46.3597V1.33204H46.1291V46.3597H1.10145Z" fill="black"/>
</svg>
