<svg width="48" height="48" viewBox="0 0 48 48" fill="none" xmlns="http://www.w3.org/2000/svg">
<path d="M33.985 25.7383C34.4463 25.4935 34.8228 25.1452 35.0676 24.7027C35.3218 24.2509 35.4348 23.6954 35.4442 23.0553C35.4442 22.4151 35.3312 21.8597 35.077 21.4078C34.8323 20.9653 34.4651 20.617 34.0038 20.3911C33.5237 20.1557 32.8741 20.071 32.008 20.0616H31.9233H31.5656V26.096H31.9233C32.8082 26.096 33.486 25.9925 33.985 25.7383ZM32.281 20.7865C32.94 20.8053 33.4201 20.8994 33.6743 21.0312C34.0132 21.2007 34.258 21.436 34.4369 21.7561C34.6157 22.0668 34.7099 22.4904 34.7099 23.0459C34.7099 23.6013 34.6063 24.0249 34.4274 24.345C34.2392 24.6745 33.9944 24.9099 33.6367 25.0981C33.3731 25.2393 32.9024 25.3335 32.2716 25.3617V20.7865H32.281Z" fill="#8499B8"/>
<path d="M30.2759 11.7678C29.7675 11.0429 29.0708 10.4687 28.2047 10.0545C27.6399 9.79086 26.8115 9.69672 25.6441 9.69672H23.46V13.3117L23.7707 13.3588C24.9286 13.5188 26.1242 13.8389 27.3763 14.3285C27.9412 14.545 28.4024 14.7144 28.7696 14.8274C29.1367 14.9404 29.4003 15.0063 29.6357 15.0063C30.1158 15.0063 30.5583 14.818 30.8972 14.4697C31.0196 14.3473 31.1137 14.2061 31.189 14.0743L31.2643 13.9331L31.2173 13.7824C30.9348 12.9352 30.6336 12.2762 30.2947 11.7866L30.2759 11.7678ZM30.37 13.9519C30.1441 14.1778 29.9181 14.272 29.6169 14.272C29.5416 14.272 29.3062 14.2343 28.9673 14.1213C28.6284 14.0178 28.1765 13.8578 27.6305 13.6412C26.4443 13.1799 25.2958 12.8693 24.1755 12.681V10.4122H25.6441C26.7644 10.4122 27.5363 10.5252 27.8941 10.704C28.666 11.0806 29.2591 11.5701 29.6922 12.182C29.9558 12.5492 30.21 13.1046 30.4641 13.8295C30.4359 13.8672 30.4077 13.9237 30.3794 13.9519H30.37Z" fill="#8499B8"/>
<path d="M34.145 26.4727C33.6178 26.2467 32.9212 26.1526 32.008 26.1526H31.9139H31.5562V31.3303C31.5562 31.7446 31.6503 32.1117 31.8951 32.3847C32.1398 32.6577 32.507 32.7801 32.9024 32.7801C33.439 32.7801 33.9567 32.6483 34.418 32.3753C34.8887 32.1023 35.2559 31.6975 35.5007 31.1985C35.7454 30.6996 35.8584 30.1442 35.8584 29.5417C35.8584 28.8638 35.7172 28.2331 35.4159 27.6777C35.1241 27.1128 34.6911 26.6986 34.145 26.4633V26.4727ZM34.8417 30.8973C34.6534 31.2833 34.3898 31.5657 34.0509 31.7634C33.6931 31.9705 33.326 32.0646 32.9024 32.0646C32.6388 32.0646 32.5164 31.9988 32.4317 31.914C32.3469 31.8199 32.281 31.6504 32.281 31.3492V30.8596V26.8869C32.9871 26.9057 33.5237 26.9999 33.8532 27.1411C34.2392 27.3105 34.531 27.5835 34.7664 28.026C35.0017 28.4685 35.1241 28.9768 35.1241 29.5511C35.1241 30.0594 35.03 30.4925 34.8323 30.8879L34.8417 30.8973Z" fill="#8499B8"/>
<path d="M36.348 25.983C36.9411 25.7288 37.4118 25.4181 37.7413 25.0321C38.2214 24.4673 38.4662 23.7895 38.4662 23.0646C38.4662 22.3774 38.2779 21.7278 37.9107 21.1253C37.5436 20.5228 37.0164 20.0521 36.3762 19.7508C35.689 19.4307 34.6723 19.3084 33.2413 19.2989H32.2529V15.6369H32.2811V8.27502H9.5272V15.6369H10.8828L10.9299 15.3262C11.2029 13.5752 11.8337 12.2666 12.8127 11.3629C13.4529 10.7509 14.5638 10.412 16.1642 10.412H17.5763V13.2363C16.7667 13.5093 15.9665 13.8482 15.1945 14.2812C13.0481 15.4768 11.3441 17.1525 10.0826 19.3178C8.82114 21.4736 8.1904 23.7706 8.1904 26.1807C8.1904 28.4683 8.76466 30.6335 9.89435 32.6576C11.0335 34.691 12.6621 36.2538 14.7614 37.3364C16.8608 38.419 19.252 38.9556 21.9256 38.9556C23.959 38.9556 25.7571 38.6261 27.301 37.9577C28.845 37.2893 30.323 36.2161 31.7257 34.7475L31.8292 34.6439V33.5425H32.62C33.9945 33.5425 35.0206 33.4389 35.8491 33.2318C36.6775 33.0247 37.2988 32.6858 37.7978 32.2528C38.6074 31.5279 39.031 30.5676 39.031 29.4662C39.031 28.4212 38.645 27.5175 37.9013 26.8491C37.5342 26.5196 37.007 26.2466 36.348 26.0112V25.983ZM37.3176 31.6879C36.9034 32.0456 36.4139 32.3187 35.6702 32.5069C34.9359 32.6952 33.9568 32.7988 32.62 32.7988H28.8638C29.0332 32.667 29.1839 32.5069 29.2686 32.3092C29.3439 32.1398 29.3627 31.9609 29.391 31.7162C29.4098 31.4714 29.4192 31.1607 29.4192 30.7936V22.029C29.4192 21.6525 29.4098 21.3512 29.391 21.1065C29.3627 20.8617 29.3439 20.6734 29.2686 20.5134C29.1839 20.3157 29.0332 20.1556 28.8638 20.0238H31.1608L30.9631 19.5249C30.3795 18.0751 29.5322 16.8795 28.4307 15.9852C27.0751 14.8743 25.5312 14.2624 23.8366 14.1494L23.4507 14.1212V28.9672C23.4507 29.598 23.4695 30.1158 23.5072 30.53C23.5448 30.9442 23.5919 31.236 23.6954 31.4714C23.8743 31.8762 24.2132 32.1963 24.6557 32.4599C24.9663 32.6387 25.3429 32.7517 25.7571 32.8082H16.0983L16.3618 32.7423C16.6537 32.6764 16.9267 32.5728 17.162 32.4316C17.5574 32.2151 17.8493 31.8574 18.047 31.4055C18.1505 31.1796 18.1882 30.8971 18.2258 30.5017C18.2635 30.1063 18.2729 29.598 18.2729 28.9767V15.8722L17.661 16.4841C16.8985 17.2373 16.2959 18.1316 15.8723 19.1483C15.0909 21.0217 14.705 23.1022 14.705 25.3805C14.705 27.6116 14.9874 29.6545 15.5522 31.4996C15.6652 31.8668 15.7876 32.2057 15.9288 32.5258L16.0418 32.7988H16.0229L16.2959 33.326C16.8137 34.3239 17.4821 35.1429 18.2823 35.7736C19.5438 36.7621 21.1725 37.2422 23.1118 37.2422C24.7122 37.2422 26.1902 36.8939 27.5364 36.1879C28.6567 35.6042 29.7958 34.6722 30.982 33.4107L31.0855 33.3071V34.3333C29.7675 35.6889 28.4025 36.6774 26.9904 37.2893C25.55 37.9106 23.8555 38.2307 21.8973 38.2307C19.3179 38.2307 17.0491 37.7129 15.0721 36.6962C13.0952 35.6701 11.5795 34.2203 10.5063 32.2998C9.42365 30.3794 8.89646 28.3459 8.89646 26.1807C8.89646 23.893 9.48955 21.7372 10.6851 19.6849C11.8807 17.6326 13.4905 16.0511 15.524 14.9214C16.343 14.4695 17.1715 14.1118 18.0281 13.8388L18.2823 13.754V9.69656H16.1453C14.4508 9.69656 13.1516 10.0543 12.295 10.8451C11.2406 11.8241 10.5722 13.208 10.2615 14.9214H10.2238V9.00932H31.528V14.9214H31.4997V20.0332H33.2131C34.5876 20.0332 35.5572 20.1745 36.0373 20.4098C36.5645 20.6546 36.9599 21.0123 37.2706 21.5113C37.5718 22.0102 37.7225 22.5186 37.7225 23.0646C37.7225 23.6389 37.5436 24.119 37.167 24.5708C36.8187 24.9945 36.1315 25.3805 35.0865 25.6629L33.7779 26.0206L35.0865 26.3595C36.2256 26.6514 36.9976 27.0091 37.3835 27.3668C37.9861 27.9129 38.2685 28.5718 38.2779 29.4474C38.2779 30.3699 37.9578 31.0948 37.2894 31.6973L37.3176 31.6879ZM26.2843 20.4381C26.8209 20.4475 27.3481 20.4663 27.7435 20.4945C27.9412 20.504 28.1106 20.5134 28.233 20.5322L28.3554 20.551C28.4872 20.6263 28.5531 20.7111 28.6002 20.8146C28.6096 20.8334 28.6473 20.9841 28.6661 21.1912C28.6849 21.4077 28.6943 21.6901 28.6943 22.0479V30.8124C28.6943 31.1701 28.6849 31.462 28.6661 31.6691C28.6473 31.8762 28.6096 32.0268 28.6002 32.0362C28.5531 32.1398 28.4778 32.2245 28.346 32.2998C28.2895 32.3092 28.1295 32.3281 27.9412 32.3469C27.8565 32.3469 27.7529 32.3563 27.6588 32.3657V32.1398H26.482C25.823 32.1398 25.3335 32.0268 25.0134 31.8385C24.6557 31.6314 24.4486 31.4055 24.345 31.1796C24.3074 31.1042 24.2509 30.8406 24.2226 30.4735C24.185 30.0969 24.1756 29.598 24.1756 28.9767V20.4004C24.6651 20.4004 25.4935 20.4192 26.2937 20.4381H26.2843ZM24.1661 19.3084V14.9308C25.5594 15.0908 26.8209 15.618 27.9694 16.55C28.845 17.2655 29.5228 18.1881 30.0594 19.3084H24.1756H24.1661ZM27.2916 33.5331H29.8617C28.9391 34.4274 28.0542 35.1146 27.2163 35.5477C25.9831 36.1973 24.6274 36.5173 23.1306 36.5268C21.3043 36.5268 19.8545 36.0843 18.7436 35.2182C18.1694 34.7757 17.6798 34.2109 17.2562 33.5331H27.2916ZM16.2112 19.2895L16.5407 19.4307C16.8043 18.7906 17.1432 18.2257 17.5574 17.6985V28.9767C17.5574 29.5886 17.5386 30.0781 17.5104 30.4358C17.4821 30.7936 17.4256 31.0383 17.3974 31.1042C17.2374 31.462 17.0397 31.6785 16.8137 31.8009C16.7196 31.8574 16.616 31.9044 16.5031 31.9421C16.4183 31.7256 16.3336 31.509 16.2677 31.2831C15.7217 29.5133 15.4487 27.5457 15.4487 25.371C15.4487 23.1776 15.8252 21.1912 16.5595 19.4119L16.23 19.2707L16.2112 19.2895Z" fill="#8499B8"/>
<path d="M3.37027 43.851H43.8509V3.3703H3.37027V43.851ZM4.31168 4.31171H42.9095V42.9096H4.31168V4.31171Z" fill="#8499B8"/>
<path d="M47.2306 46.6752V0H0V47.2306H47.2306V46.6846V46.6752ZM1.10145 46.1291V1.10145H46.1291V46.1291H1.10145Z" fill="#8499B8"/>
</svg>
