<svg width="50" height="50" viewBox="0 0 50 50" fill="none" xmlns="http://www.w3.org/2000/svg">
<rect width="50" height="50" fill="#0088CC"/>
<path d="M19.682 32.8289C19.682 32.7318 19.6771 32.6457 19.6827 32.5597C19.7875 30.9535 19.8886 29.3473 20.009 27.7423C20.0196 27.5991 20.1295 27.4337 20.243 27.3323C23.3475 24.5674 26.4588 21.8092 29.5682 19.0498C29.6793 18.9515 29.7947 18.8556 29.8908 18.7443C29.9364 18.6914 29.9801 18.5814 29.9545 18.5378C29.9183 18.4769 29.8035 18.4062 29.7448 18.4222C29.5002 18.488 29.2394 18.5451 29.0278 18.6748C27.026 19.9067 25.0335 21.1527 23.0386 22.3944C21.1273 23.5838 19.2147 24.7708 17.3071 25.9652C17.1317 26.0746 16.9851 26.0967 16.7823 26.0322C15.1349 25.5085 13.4825 25.0001 11.8339 24.4807C11.6461 24.4217 11.457 24.3455 11.2941 24.2385C10.9478 24.0123 10.8929 23.6656 11.2068 23.4C11.4869 23.1628 11.822 22.963 12.1659 22.8271C13.6429 22.2432 15.1324 21.6887 16.6169 21.1244C21.8804 19.1248 27.1433 17.1252 32.4056 15.125C33.3965 14.7481 34.1141 15.2485 33.985 16.2898C33.8814 17.124 33.6705 17.9452 33.4926 18.7695C32.483 23.4578 31.4702 28.1455 30.4549 32.8332C30.1947 34.035 29.376 34.3362 28.3726 33.6071C26.7695 32.4417 25.1677 31.2743 23.5653 30.1083C23.4698 30.0388 23.3724 29.9724 23.2589 29.8919C22.8676 30.2638 22.4814 30.6301 22.097 30.9971C21.5959 31.4754 21.0973 31.9554 20.5962 32.4337C20.3479 32.6709 20.0702 32.8455 19.682 32.8283V32.8289Z" fill="white"/>
</svg>
