
<svg width="140" height="35" viewBox="0 0 140 35" fill="none" xmlns="http://www.w3.org/2000/svg">
<path d="M14.7514 17.0918C15.5381 18.3669 13.7679 18.7312 12.9812 18.8222C11.8011 18.9133 11.506 18.2758 11.7027 17.4561C11.8011 17.1829 11.9978 16.9096 12.1944 16.7275C12.3911 16.5453 12.7845 16.3632 13.0795 16.3632C13.3746 16.3632 13.7679 16.3632 13.9646 16.5453C14.358 16.6364 14.5547 16.8186 14.7514 17.0918Z" fill="#EB1A6B"/>
<path d="M19.4728 14.8148C18.5877 21.1901 30.5856 19.8239 30.3889 24.8331C31.5691 23.3759 32.0608 19.5507 28.6188 17.547C25.4718 15.7255 21.4397 16.7274 19.4728 14.8148Z" fill="#EB1A6B"/>
<path d="M26.4547 12.3561C26.3562 12.2648 26.2577 12.2648 26.2577 12.1736C26.2577 12.2648 26.3562 12.3561 26.4547 12.3561Z" fill="#EB1A6B"/>
<path d="M29.2073 17.0006C29.109 16.8185 29.0106 16.6363 28.8139 16.4542C28.4206 15.9077 27.8305 15.5434 27.1421 15.4523C26.7487 15.3613 26.257 15.2702 25.7653 15.2702C25.2736 15.2702 24.8802 15.1791 24.3885 15.1791C23.405 15.088 22.52 14.997 21.5365 14.8148C21.3398 14.7237 21.0448 14.7237 20.8481 14.6327C20.7498 14.6327 20.6514 14.5416 20.4547 14.5416C20.3564 14.4505 20.2581 14.4505 20.0614 14.3594C19.5697 14.1773 19.1763 13.813 18.8813 13.5397C18.1929 12.9022 17.6028 12.1736 17.0127 11.5361C16.4227 10.8075 15.931 10.1699 15.2426 9.5324C14.6525 8.89487 13.8658 8.34842 13.079 7.98411C12.2923 7.61981 11.3088 7.34658 10.4237 7.25551C11.4072 7.16443 12.3906 7.25551 13.2757 7.61981C14.1608 7.98411 15.0459 8.43949 15.7343 9.07702C16.226 9.44133 16.6194 9.89671 17.0127 10.3521C20.0614 9.80563 22.4216 10.261 24.2901 11.2628C24.8802 11.5361 25.4703 11.9004 25.962 12.3558C26.0603 12.4468 26.1587 12.4468 26.1587 12.5379C26.552 12.9022 26.9454 13.2665 27.2404 13.6308C28.6172 14.8148 29.2073 16.1809 29.2073 17.0006Z" fill="#EB1A6B"/>
<path d="M10.7198 7.98407C11.5065 8.07515 12.2933 8.34837 12.785 8.89483C13.2767 9.44128 13.4734 10.1699 13.6701 10.8074C13.7684 11.3539 13.8668 11.9003 14.0635 12.3557C14.1618 12.6289 14.3585 12.8111 14.4568 12.9932C14.5552 13.1754 14.7519 13.3575 14.8502 13.5397V13.6308V13.7218C14.5552 13.9951 13.8668 13.7219 13.5718 13.5397C13.08 13.3575 12.6867 12.9932 12.2933 12.6289C11.2115 11.536 10.6215 9.89666 10.6215 8.43945C10.6215 8.34837 10.7198 8.16622 10.7198 7.98407Z" fill="#EB1A6B"/>
<path d="M23.5045 20.7349C21.8326 25.0155 29.4051 27.9299 26.5531 32.3016C29.4051 31.2086 30.7819 27.8388 29.6017 25.1976C28.6183 22.8297 25.4713 21.9189 23.5045 20.7349Z" fill="#EB1A6B"/>
<path d="M13.5721 26.2903C14.0638 26.0171 14.5555 25.7439 15.0472 25.4707C15.5389 25.2885 16.129 25.1064 16.719 25.0153C17.8008 24.8331 18.9809 24.7421 19.866 24.3778C20.3577 24.1956 20.7511 24.0134 21.1445 23.6491C21.5379 23.3759 21.7345 23.0116 21.9312 22.5562C22.1279 22.1009 22.1279 21.6455 22.1279 21.1901C22.1279 20.6436 21.9312 20.1883 21.7345 19.7329C22.1279 20.0972 22.4229 20.6436 22.6196 21.1901C22.8163 21.7365 22.8163 22.283 22.718 22.8295C22.6196 23.3759 22.2263 23.9224 21.8329 24.3778C21.4395 24.7421 20.8495 25.1064 20.2594 25.2885C19.6693 25.4707 19.0793 25.5617 18.4892 25.6528C17.8992 25.6528 17.4074 25.7439 16.8174 25.7439C15.7356 25.7439 14.6538 25.926 13.5721 26.2903Z" fill="#EB1A6B"/>
<path d="M24.1927 33.8496C23.996 33.9407 23.8976 34.1229 23.701 34.2139C23.5043 34.305 23.3076 34.3961 23.1109 34.4872C22.7175 34.6693 22.2258 34.7604 21.7341 34.7604C20.4556 34.7604 19.5705 33.8496 19.0788 32.8478C18.6854 32.2103 18.4888 31.4817 18.0954 30.8441C17.5053 29.9334 16.4236 29.2048 15.2434 29.2958C14.7517 29.3869 14.26 29.5691 14.0633 29.9334C13.3749 30.9352 14.3583 32.3924 15.7351 32.2103C15.8335 32.2103 15.9318 32.2103 16.0302 32.1192C16.1285 32.1192 16.2269 32.0281 16.3252 31.937C16.5219 31.7549 16.6202 31.5727 16.7186 31.3906C16.8169 31.2084 16.8169 30.9352 16.8169 30.662C16.7186 30.3887 16.6202 30.2066 16.4236 30.1155C16.7186 30.2066 16.9153 30.3887 17.0136 30.662C16.9153 31.1174 16.9153 31.3906 16.9153 31.6638C16.8169 31.937 16.7186 32.2103 16.5219 32.3924C16.4236 32.4835 16.3252 32.5746 16.1285 32.6656C16.0302 32.7567 15.8335 32.8478 15.7351 32.8478C15.4401 32.9389 15.1451 32.9389 14.8501 32.9389C14.4567 32.8478 13.965 32.7567 13.6699 32.4835C13.2766 32.2103 12.9815 31.7549 12.5882 31.4817C12.1948 31.0263 11.7031 30.7531 11.113 30.4798C10.7196 30.2977 10.3263 30.2066 9.9329 30.1155C9.73621 30.1155 9.53952 30.0244 9.34284 30.0244C9.24449 30.0244 8.75278 29.9334 8.75278 29.9334C9.44118 29.3869 10.1296 28.9315 10.818 28.4762C11.6047 28.0208 12.3915 27.7475 13.2766 27.4743C14.1617 27.2011 15.0467 27.2011 16.0302 27.2922C16.5219 27.3832 16.9153 27.4743 17.407 27.6565C17.8987 27.8386 18.2921 28.1119 18.6854 28.3851C19.0788 28.7494 19.3739 29.1137 19.5705 29.478C19.7672 29.8423 19.8656 30.2977 19.9639 30.7531C20.2589 32.0281 20.1606 34.0318 21.9308 34.305C22.0291 34.305 22.1275 34.305 22.2258 34.305H22.5208C22.7175 34.305 22.9142 34.305 23.1109 34.2139C23.4059 34.2139 23.7993 34.0318 24.1927 33.8496Z" fill="#EB1A6B"/>
<path d="M12.0962 14.4505C11.9979 14.7237 11.8995 14.9059 11.8012 15.088C11.5062 15.4523 11.1128 15.7256 10.7194 15.9077C10.326 16.0899 9.93267 16.1809 9.44096 16.1809C9.34261 16.1809 9.24427 16.1809 9.14593 16.1809C8.8509 16.1809 8.65421 16.272 8.35918 16.4542C8.16249 16.6363 7.96581 16.8185 7.96581 17.0917C7.96581 17.1828 7.86746 17.3649 7.86746 17.456C7.86746 17.8203 7.76912 18.0935 7.76912 18.5489C7.67078 19.2775 7.47409 19.915 7.17906 20.5526C6.78569 21.3723 6.29397 22.1009 6.39231 23.0116C6.49066 23.6492 6.78569 24.1045 7.2774 24.4688C8.06415 25.2885 9.93267 25.6528 9.5393 27.5654C9.24427 28.7494 7.17906 29.9334 4.32711 30.3888C4.62214 30.3888 3.93373 29.2959 3.93373 29.2048C3.6387 28.7494 3.24533 28.294 3.04864 27.8386C2.55693 26.9279 2.36024 25.7439 2.55693 24.7421C2.75361 23.6492 3.6387 22.8295 4.32711 21.9187C5.2122 20.9169 6.09729 19.6418 6.29397 18.2757C6.29397 18.0025 6.39231 17.5471 6.49066 17.1828C6.589 16.7274 6.68734 16.3631 6.88403 15.9077C6.98237 15.6345 7.17906 15.4523 7.47409 15.1791C7.57243 15.088 7.67078 14.9059 7.67078 14.8148C7.67078 14.6326 7.67078 14.5416 7.57243 14.3594L2.9503 6.61797L9.63764 14.2683C9.73599 14.3594 9.83433 14.4505 9.93267 14.4505C10.031 14.5416 10.1294 14.5416 10.326 14.5416C10.4244 14.5416 10.5227 14.5416 10.7194 14.4505C10.8178 14.3594 10.9161 14.3594 11.0144 14.2683C11.1128 14.1773 11.1128 14.0862 11.1128 13.904C11.1128 13.813 11.1128 13.6308 11.0144 13.5397C10.6211 12.9933 10.1294 12.5379 9.63764 11.9914L7.96581 10.0789L4.62214 6.25367L0 0.880188L5.01551 5.88936L8.55587 9.5324L10.326 11.3539C10.9161 11.9914 11.5062 12.5379 12.0962 13.2665L12.1946 13.3576V13.5397C12.1946 13.904 12.1946 14.1773 12.0962 14.4505Z" fill="#EB1A6B"/>
<path d="M13.67 32.3924C13.3749 32.1191 13.0799 31.8459 12.7849 31.5727C13.0799 31.937 13.2766 32.2102 13.67 32.3924Z" fill="#EB1A6B"/>
<path fill-rule="evenodd" clip-rule="evenodd" d="M87.0459 11.4213C84.7339 11.9359 83.683 13.6081 84.3135 15.602C84.5938 16.4381 85.4345 17.3385 86.6956 17.9817C88.8676 19.1394 89.5682 19.5896 89.9185 20.2971C90.1988 20.876 90.2688 21.0689 90.1287 21.6478C89.7784 22.9341 88.7975 23.5773 87.3963 23.5773C85.995 23.5773 85.0141 22.8698 84.7339 21.6478C84.6638 21.1332 84.5237 21.0046 84.3135 21.0046C84.0333 21.0046 83.9632 21.1332 83.9632 22.3553V23.7059L84.874 23.9632C86.3453 24.4134 88.3771 24.3491 89.5682 23.8346C91.9503 22.8055 92.8611 20.8116 91.8102 18.9465C91.3898 18.239 90.4089 17.4672 88.7274 16.5024C86.9058 15.4733 86.1351 14.7658 85.995 14.0583C85.7848 12.9006 86.9058 12.0002 88.4472 12.0002C89.6382 12.0002 90.1287 12.2575 90.5491 13.0936C90.8293 13.6081 90.9694 13.8011 91.3197 13.8011C91.6701 13.8011 91.7401 13.7368 91.6 13.4152C91.5299 13.2222 91.4599 12.7077 91.4599 12.3218C91.4599 11.8072 91.3898 11.55 91.1796 11.4857C90.6892 11.2927 87.6765 11.2284 87.0459 11.4213ZM40.8048 11.8716C40.8048 12.1288 40.945 12.1932 41.2252 12.1932C42.066 12.1932 42.136 12.3861 42.2061 17.0813C42.2761 21.1332 42.3462 21.4548 42.6965 22.098C43.187 22.9341 43.8876 23.513 44.9385 23.9632C45.6391 24.2848 46.1296 24.3491 47.6009 24.3491C49.1423 24.3491 49.4926 24.2848 50.3333 23.8989C50.8938 23.6416 51.5944 23.1914 51.8747 22.8698C52.8556 21.7764 52.9957 21.1976 53.0657 16.6954C53.2059 12.3218 53.2059 12.2575 53.9765 12.2575C54.1867 12.2575 54.2568 12.1288 54.2568 11.9359C54.2568 11.6143 54.1167 11.6143 52.1549 11.6143C50.1932 11.6143 50.0531 11.6143 50.0531 11.9359C50.0531 12.1931 50.1932 12.2575 50.6136 12.3218C51.5244 12.3861 51.5944 12.7077 51.5944 16.6954C51.5944 20.7473 51.4543 21.5191 50.4734 22.3553C49.6327 23.1271 48.9321 23.3843 47.741 23.3843C46.0595 23.3843 44.7984 22.6768 44.4481 21.3905C44.308 20.9403 44.2379 19.3967 44.308 16.631L44.378 12.5147L45.0086 12.3218C45.3589 12.1932 45.6391 12.0002 45.7092 11.8716C45.7793 11.6143 45.499 11.6143 43.3271 11.6143C40.945 11.55 40.8048 11.55 40.8048 11.8716ZM57.1294 11.8716C57.1294 12.1288 57.2695 12.1932 57.6198 12.1932C58.5306 12.1932 59.021 12.5147 59.2312 13.2222C59.3713 13.6081 59.3713 15.4733 59.3713 18.1103C59.3013 22.8698 59.2312 23.1914 58.1803 23.3843C57.83 23.4487 57.6899 23.5773 57.6899 23.7702C57.6899 24.0275 57.83 24.0918 60.142 24.0918C62.384 24.0918 62.5942 24.0918 62.5942 23.8346C62.5942 23.6416 62.384 23.513 61.8235 23.3843C61.1229 23.1914 61.0528 23.1271 60.8427 22.6125C60.5624 21.8407 60.5624 14.5729 60.7726 14.6372C60.8427 14.6372 61.5433 15.2804 62.314 16.1165C63.0846 16.9526 65.1165 19.0751 66.9381 20.8117C69.7406 23.5773 70.231 24.0918 70.6514 24.0918H71.1418L71.2119 18.4319C71.2819 14.3799 71.352 12.7077 71.4921 12.5791C71.6322 12.4504 71.9826 12.3218 72.2628 12.2575C72.6131 12.1931 72.8233 12.0645 72.8233 11.9359C72.8233 11.7429 72.4029 11.6786 70.4412 11.6786C68.1291 11.6143 68.0591 11.6143 68.0591 11.9359C68.0591 12.1931 68.1992 12.2575 68.4794 12.2575C68.6896 12.2575 69.11 12.4504 69.3902 12.6434L69.8807 13.0293L69.9508 16.8883C69.9508 19.0751 69.9508 20.7473 69.8807 20.7473C69.8106 20.7473 69.2501 20.2328 68.6896 19.6539C68.1291 19.0751 66.5177 17.4028 65.1165 15.9879C63.7152 14.5729 62.1738 13.0293 61.6834 12.5147L60.8427 11.6143H59.021C57.1994 11.55 57.1294 11.55 57.1294 11.8716ZM75.4857 11.8716C75.4857 12.1288 75.6258 12.1932 75.9761 12.1932C76.2564 12.1932 76.6067 12.3218 76.8168 12.4504C77.1672 12.6434 77.1672 12.965 77.2372 17.4028C77.3073 22.9341 77.2372 23.2557 76.1863 23.3843C75.6959 23.4487 75.4857 23.5773 75.4857 23.7702C75.4857 24.0275 75.6959 24.0918 78.148 24.0918C80.6703 24.0918 80.8104 24.0918 80.8104 23.7702C80.8104 23.513 80.6703 23.4487 80.39 23.4487C80.1798 23.4487 79.8295 23.32 79.6193 23.1914C79.269 22.9984 79.269 22.6768 79.199 17.9174C79.1289 13.0293 79.1289 12.8363 79.4792 12.5147C79.6894 12.3218 80.0397 12.1932 80.2499 12.1932C80.6002 12.1932 80.6703 12.1288 80.6703 11.8716C80.6703 11.55 80.5302 11.55 78.0079 11.55C75.6258 11.55 75.4857 11.55 75.4857 11.8716ZM93.912 11.8716C93.9821 12.0645 94.1222 12.1932 94.4025 12.1932C94.6127 12.1932 94.963 12.3861 95.1732 12.5791C95.3834 12.772 96.5744 15.409 97.9056 18.5605L100.218 24.1561L100.848 24.2205L101.479 24.2848L103.09 20.2971C104.001 18.1103 104.842 16.1165 104.912 15.9235C105.122 15.5376 105.122 15.602 105.683 16.8883C105.963 17.6601 106.804 19.5896 107.504 21.2619L108.765 24.2848H109.326C109.606 24.2848 109.886 24.2205 109.956 24.0918C110.026 23.9632 110.797 22.098 111.778 19.9112C112.689 17.7244 113.74 15.2804 114.09 14.5086C114.861 12.7077 115.001 12.5147 115.561 12.3218C115.842 12.2575 116.052 12.0645 116.052 11.9359C116.052 11.7429 115.701 11.6786 113.95 11.6786C111.988 11.6786 111.848 11.6786 111.848 12.0002C111.848 12.2575 111.988 12.3218 112.268 12.3218C112.969 12.3218 113.249 12.5147 113.249 12.9006C113.249 13.2222 109.886 21.5191 109.676 21.7121C109.536 21.8407 106.523 14.1227 106.453 13.3509C106.313 12.6434 106.663 12.3218 107.434 12.3218C107.714 12.3218 107.854 12.2575 107.854 12.0002C107.854 11.6786 107.714 11.6786 105.122 11.6786C102.53 11.6786 102.39 11.6786 102.39 12.0002C102.39 12.1932 102.53 12.3218 102.67 12.3218C103.23 12.3218 103.931 12.8363 104.141 13.2865C104.421 13.994 104.211 14.7015 102.6 18.5605L101.269 21.8407L100.988 21.1976C100.848 20.876 100.007 18.8178 99.1667 16.6954C97.4852 12.5147 97.4852 12.3218 98.6062 12.3218C99.0266 12.3218 99.0967 12.2575 99.0967 12.0002C99.0967 11.6786 98.9565 11.6786 96.5044 11.6786C93.842 11.55 93.7719 11.55 93.912 11.8716ZM129.364 12.0002C129.364 12.0002 129.364 12.1931 129.364 12.2575C129.364 12.3218 129.574 12.3218 129.574 12.3218C129.714 12.3218 129.784 12.3861 129.924 12.3861C130.485 12.5147 130.835 12.5791 130.975 12.9006C131.045 13.0936 131.115 13.8654 131.115 17.9174C131.115 22.1623 131.115 22.6768 130.975 22.9341C130.835 23.2557 130.555 23.4487 129.854 23.6416C129.854 23.6416 129.574 23.7059 129.504 23.7702C129.434 23.8346 129.434 23.9632 129.434 23.9632C129.434 23.9632 129.434 24.0918 129.504 24.1561C129.574 24.2205 129.784 24.2205 129.784 24.2205H131.535H134.478C134.478 24.2205 134.618 24.2205 134.688 24.1561C134.758 24.0918 134.758 23.9632 134.758 23.9632C134.758 23.9632 134.758 23.8346 134.688 23.7702C134.618 23.7059 134.338 23.6416 134.338 23.6416C133.707 23.513 133.357 23.32 133.217 22.9984C133.077 22.7412 133.077 22.1623 133.077 20.8117V18.8821C133.147 18.9465 133.217 18.9465 133.287 19.0108C133.637 19.2037 134.058 19.5253 135.599 19.5253C137.491 19.5896 138.612 18.8178 139.312 17.9174C140.013 17.0169 140.223 15.602 139.733 14.0583C139.242 12.5791 137.771 11.6143 135.739 11.55C134.688 11.4857 133.077 11.55 132.236 11.6143H132.026C131.255 11.6143 130.274 11.7429 129.784 11.7429C129.644 11.7429 129.644 11.7429 129.574 11.8072C129.364 11.9359 129.364 12.0002 129.364 12.0002ZM137.14 17.9174C137.911 17.2742 137.911 16.2451 137.911 15.5376C137.841 14.5086 137.351 12.5147 134.828 12.5147C134.198 12.5147 133.007 12.5791 132.937 13.3509C132.867 13.4795 132.867 14.4443 132.867 15.8592V18.1746L133.147 18.3033C133.287 18.3676 133.497 18.4319 133.777 18.4962C134.828 18.7535 136.37 18.5605 137.14 17.9174ZM121.026 11.7429C121.236 11.6786 121.376 11.6143 121.376 11.6143C121.376 11.6143 121.657 11.4857 121.727 11.6143C121.727 11.6786 121.867 11.8716 122.147 12.5147C122.217 12.6434 122.287 12.772 122.287 12.9006C122.638 13.8011 123.198 15.0874 123.478 15.7949C123.759 16.5024 124.319 17.7887 124.739 18.8178C125.16 19.7826 125.65 21.0046 125.931 21.5835C126.141 22.1623 126.491 22.6768 126.561 22.8055C126.631 22.8698 126.631 22.9341 126.701 22.9984C126.911 23.2557 127.122 23.6416 127.612 23.7059C127.612 23.7059 127.962 23.7702 128.032 23.8346C128.102 23.8989 128.102 23.9632 128.102 23.9632V24.1561C128.102 24.1561 128.102 24.2205 128.032 24.2205C128.032 24.2848 127.892 24.2205 127.892 24.2205H124.95H122.848C122.848 24.2205 122.778 24.2205 122.708 24.2205C122.638 24.2205 122.638 24.0918 122.638 24.0918V23.9632C122.638 23.9632 122.638 23.8346 122.708 23.7702C122.778 23.7059 123.128 23.6416 123.128 23.6416C123.759 23.5773 124.039 23.1271 124.109 22.8698V22.8055C124.249 22.5482 124.179 22.3553 123.548 21.0046C123.128 20.1042 122.988 19.8469 122.918 19.7826C122.848 19.7826 121.727 19.7826 120.536 19.7826H118.224L118.084 20.1042C117.663 21.1332 117.313 22.098 117.313 22.3553C117.173 22.8698 117.383 23.513 118.224 23.6416C118.224 23.6416 118.574 23.7059 118.644 23.7702C118.714 23.8346 118.784 23.9632 118.784 23.9632V24.0918C118.784 24.0918 118.784 24.1561 118.714 24.2205C118.644 24.2848 118.504 24.2205 118.504 24.2205H116.332H114.23C114.23 24.2205 114.16 24.2205 114.09 24.1561C114.02 24.0918 114.02 24.0275 114.02 24.0275V23.8989C114.02 23.8989 114.02 23.8346 114.16 23.7059C114.3 23.5773 114.58 23.5773 114.58 23.5773C115.141 23.513 115.491 22.9341 115.701 22.6125C115.701 22.6125 115.701 22.5482 115.771 22.5482C115.842 22.4196 116.192 21.7121 116.542 20.9403C116.892 20.1685 117.243 19.268 117.383 19.0108C117.803 18.046 118.224 17.1456 118.854 15.7306C119.205 14.9588 119.695 13.8011 119.975 13.1579L120.466 12.0002L121.026 11.7429ZM120.886 14.5086C121.026 14.7658 121.166 15.1517 121.236 15.3447C121.306 15.5376 121.587 16.1165 121.797 16.631C122.007 17.1456 122.287 17.7244 122.427 17.9817C122.568 18.239 122.638 18.4319 122.638 18.4319C122.638 18.4319 121.797 18.4319 120.746 18.4319C119.555 18.4319 118.854 18.4319 118.854 18.3676C118.854 18.3676 118.924 18.239 118.924 18.1103C118.994 17.9174 119.415 16.8883 120.255 14.7015C120.396 14.3799 120.536 14.0583 120.536 13.994C120.606 13.994 120.676 14.0583 120.886 14.5086Z" fill="#0B0C04"/>
</svg>
