
<svg width="140" height="34" viewBox="0 0 140 34" fill="none" xmlns="http://www.w3.org/2000/svg">
<path d="M14.7514 16.2116C15.5381 17.4867 13.7679 17.851 12.9812 17.9421C11.8011 18.0332 11.506 17.3956 11.7027 16.5759C11.8011 16.3027 11.9978 16.0295 12.1944 15.8473C12.3911 15.6652 12.7845 15.483 13.0795 15.483C13.3746 15.483 13.7679 15.483 13.9646 15.6652C14.358 15.7563 14.5547 15.9384 14.7514 16.2116Z" fill="#9EB0CB"/>
<path d="M19.4728 13.9346C18.5877 20.3099 30.5856 18.9437 30.3889 23.9529C31.5691 22.4957 32.0608 18.6705 28.6188 16.6668C25.4718 14.8453 21.4397 15.8472 19.4728 13.9346Z" fill="#9EB0CB"/>
<path d="M26.4547 11.4759C26.3562 11.3846 26.2577 11.3846 26.2577 11.2934C26.2577 11.3846 26.3562 11.4759 26.4547 11.4759Z" fill="#9EB0CB"/>
<path d="M29.2073 16.1204C29.109 15.9383 29.0106 15.7561 28.8139 15.574C28.4206 15.0275 27.8305 14.6632 27.1421 14.5721C26.7487 14.4811 26.257 14.39 25.7653 14.39C25.2736 14.39 24.8802 14.2989 24.3885 14.2989C23.405 14.2078 22.52 14.1168 21.5365 13.9346C21.3398 13.8435 21.0448 13.8435 20.8481 13.7525C20.7498 13.7525 20.6514 13.6614 20.4547 13.6614C20.3564 13.5703 20.2581 13.5703 20.0614 13.4792C19.5697 13.2971 19.1763 12.9328 18.8813 12.6596C18.1929 12.022 17.6028 11.2934 17.0127 10.6559C16.4227 9.92728 15.931 9.28975 15.2426 8.65221C14.6525 8.01468 13.8658 7.46823 13.079 7.10392C12.2923 6.73962 11.3088 6.46639 10.4237 6.37532C11.4072 6.28424 12.3906 6.37532 13.2757 6.73962C14.1608 7.10393 15.0459 7.5593 15.7343 8.19683C16.226 8.56114 16.6194 9.01652 17.0127 9.4719C20.0614 8.92544 22.4216 9.38082 24.2901 10.3827C24.8802 10.6559 25.4703 11.0202 25.962 11.4756C26.0603 11.5666 26.1587 11.5666 26.1587 11.6577C26.552 12.022 26.9454 12.3863 27.2404 12.7506C28.6172 13.9346 29.2073 15.3008 29.2073 16.1204Z" fill="#9EB0CB"/>
<path d="M10.7198 7.10388C11.5065 7.19496 12.2933 7.46819 12.785 8.01464C13.2767 8.5611 13.4734 9.2897 13.6701 9.92724C13.7684 10.4737 13.8668 11.0201 14.0635 11.4755C14.1618 11.7488 14.3585 11.9309 14.4568 12.1131C14.5552 12.2952 14.7519 12.4774 14.8502 12.6595V12.7506V12.8417C14.5552 13.1149 13.8668 12.8417 13.5718 12.6595C13.08 12.4774 12.6867 12.1131 12.2933 11.7488C11.2115 10.6558 10.6215 9.01648 10.6215 7.55926C10.6215 7.46819 10.7198 7.28603 10.7198 7.10388Z" fill="#9EB0CB"/>
<path d="M23.5045 19.8547C21.8326 24.1353 29.4051 27.0497 26.5531 31.4214C29.4051 30.3285 30.7819 26.9587 29.6017 24.3175C28.6183 21.9495 25.4713 21.0387 23.5045 19.8547Z" fill="#9EB0CB"/>
<path d="M13.5721 25.4102C14.0638 25.137 14.5555 24.8637 15.0472 24.5905C15.5389 24.4084 16.129 24.2262 16.719 24.1351C17.8008 23.953 18.9809 23.8619 19.866 23.4976C20.3577 23.3154 20.7511 23.1333 21.1445 22.769C21.5379 22.4958 21.7345 22.1315 21.9312 21.6761C22.1279 21.2207 22.1279 20.7653 22.1279 20.3099C22.1279 19.7635 21.9312 19.3081 21.7345 18.8527C22.1279 19.217 22.4229 19.7635 22.6196 20.3099C22.8163 20.8564 22.8163 21.4028 22.718 21.9493C22.6196 22.4958 22.2263 23.0422 21.8329 23.4976C21.4395 23.8619 20.8495 24.2262 20.2594 24.4084C19.6693 24.5905 19.0793 24.6816 18.4892 24.7727C17.8992 24.7727 17.4074 24.8637 16.8174 24.8637C15.7356 24.8637 14.6538 25.0459 13.5721 25.4102Z" fill="#9EB0CB"/>
<path d="M24.1927 32.9695C23.996 33.0605 23.8976 33.2427 23.701 33.3338C23.5043 33.4249 23.3076 33.5159 23.1109 33.607C22.7175 33.7892 22.2258 33.8802 21.7341 33.8802C20.4556 33.8802 19.5705 32.9695 19.0788 31.9676C18.6854 31.3301 18.4888 30.6015 18.0954 29.964C17.5053 29.0532 16.4236 28.3246 15.2434 28.4157C14.7517 28.5068 14.26 28.6889 14.0633 29.0532C13.3749 30.055 14.3583 31.5123 15.7351 31.3301C15.8335 31.3301 15.9318 31.3301 16.0302 31.239C16.1285 31.239 16.2269 31.148 16.3252 31.0569C16.5219 30.8747 16.6202 30.6926 16.7186 30.5104C16.8169 30.3283 16.8169 30.055 16.8169 29.7818C16.7186 29.5086 16.6202 29.3264 16.4236 29.2354C16.7186 29.3264 16.9153 29.5086 17.0136 29.7818C16.9153 30.2372 16.9153 30.5104 16.9153 30.7837C16.8169 31.0569 16.7186 31.3301 16.5219 31.5123C16.4236 31.6033 16.3252 31.6944 16.1285 31.7855C16.0302 31.8766 15.8335 31.9676 15.7351 31.9676C15.4401 32.0587 15.1451 32.0587 14.8501 32.0587C14.4567 31.9676 13.965 31.8766 13.6699 31.6033C13.2766 31.3301 12.9815 30.8747 12.5882 30.6015C12.1948 30.1461 11.7031 29.8729 11.113 29.5997C10.7196 29.4175 10.3263 29.3264 9.9329 29.2354C9.73621 29.2354 9.53952 29.1443 9.34284 29.1443C9.24449 29.1443 8.75278 29.0532 8.75278 29.0532C9.44118 28.5068 10.1296 28.0514 10.818 27.596C11.6047 27.1406 12.3915 26.8674 13.2766 26.5942C14.1617 26.3209 15.0467 26.3209 16.0302 26.412C16.5219 26.5031 16.9153 26.5942 17.407 26.7763C17.8987 26.9585 18.2921 27.2317 18.6854 27.5049C19.0788 27.8692 19.3739 28.2335 19.5705 28.5978C19.7672 28.9621 19.8656 29.4175 19.9639 29.8729C20.2589 31.148 20.1606 33.1516 21.9308 33.4249C22.0291 33.4249 22.1275 33.4249 22.2258 33.4249H22.5208C22.7175 33.4249 22.9142 33.4249 23.1109 33.3338C23.4059 33.3338 23.7993 33.1516 24.1927 32.9695Z" fill="#9EB0CB"/>
<path d="M12.0962 13.5703C11.9979 13.8435 11.8995 14.0257 11.8012 14.2078C11.5062 14.5721 11.1128 14.8454 10.7194 15.0275C10.326 15.2097 9.93267 15.3007 9.44096 15.3007C9.34261 15.3007 9.24427 15.3007 9.14593 15.3007C8.8509 15.3007 8.65421 15.3918 8.35918 15.574C8.16249 15.7561 7.96581 15.9383 7.96581 16.2115C7.96581 16.3026 7.86746 16.4847 7.86746 16.5758C7.86746 16.9401 7.76912 17.2133 7.76912 17.6687C7.67078 18.3973 7.47409 19.0349 7.17906 19.6724C6.78569 20.4921 6.29397 21.2207 6.39231 22.1314C6.49066 22.769 6.78569 23.2243 7.2774 23.5887C8.06415 24.4083 9.93267 24.7726 9.5393 26.6852C9.24427 27.8692 7.17906 29.0532 4.32711 29.5086C4.62214 29.5086 3.93373 28.4157 3.93373 28.3246C3.6387 27.8692 3.24533 27.4138 3.04864 26.9585C2.55693 26.0477 2.36024 24.8637 2.55693 23.8619C2.75361 22.769 3.6387 21.9493 4.32711 21.0385C5.2122 20.0367 6.09729 18.7616 6.29397 17.3955C6.29397 17.1223 6.39231 16.6669 6.49066 16.3026C6.589 15.8472 6.68734 15.4829 6.88403 15.0275C6.98237 14.7543 7.17906 14.5721 7.47409 14.2989C7.57243 14.2078 7.67078 14.0257 7.67078 13.9346C7.67078 13.7525 7.67078 13.6614 7.57243 13.4792L2.9503 5.73778L9.63764 13.3882C9.73599 13.4792 9.83433 13.5703 9.93267 13.5703C10.031 13.6614 10.1294 13.6614 10.326 13.6614C10.4244 13.6614 10.5227 13.6614 10.7194 13.5703C10.8178 13.4792 10.9161 13.4792 11.0144 13.3882C11.1128 13.2971 11.1128 13.206 11.1128 13.0239C11.1128 12.9328 11.1128 12.7506 11.0144 12.6595C10.6211 12.1131 10.1294 11.6577 9.63764 11.1113L7.96581 9.19866L4.62214 5.37348L0 0L5.01551 5.00917L8.55587 8.65221L10.326 10.4737C10.9161 11.1113 11.5062 11.6577 12.0962 12.3863L12.1946 12.4774V12.6595C12.1946 13.0239 12.1946 13.2971 12.0962 13.5703Z" fill="#9EB0CB"/>
<path d="M13.67 31.5122C13.3749 31.239 13.0799 30.9657 12.7849 30.6925C13.0799 31.0568 13.2766 31.33 13.67 31.5122Z" fill="#9EB0CB"/>
<path fill-rule="evenodd" clip-rule="evenodd" d="M87.0459 10.5412C84.7339 11.0557 83.683 12.728 84.3135 14.7218C84.5938 15.5579 85.4345 16.4584 86.6956 17.1015C88.8676 18.2592 89.5682 18.7095 89.9185 19.417C90.1988 19.9958 90.2688 20.1888 90.1287 20.7676C89.7784 22.054 88.7975 22.6971 87.3963 22.6971C85.995 22.6971 85.0141 21.9896 84.7339 20.7676C84.6638 20.2531 84.5237 20.1244 84.3135 20.1244C84.0333 20.1244 83.9632 20.2531 83.9632 21.4751V22.8258L84.874 23.083C86.3453 23.5333 88.3771 23.4689 89.5682 22.9544C91.9503 21.9253 92.8611 19.9315 91.8102 18.0663C91.3898 17.3588 90.4089 16.587 88.7274 15.6222C86.9058 14.5932 86.1351 13.8857 85.995 13.1782C85.7848 12.0205 86.9058 11.12 88.4472 11.12C89.6382 11.12 90.1287 11.3773 90.5491 12.2134C90.8293 12.728 90.9694 12.9209 91.3197 12.9209C91.6701 12.9209 91.7401 12.8566 91.6 12.535C91.5299 12.3421 91.4599 11.8275 91.4599 11.4416C91.4599 10.9271 91.3898 10.6698 91.1796 10.6055C90.6892 10.4126 87.6765 10.3482 87.0459 10.5412ZM40.8048 10.9914C40.8048 11.2487 40.945 11.313 41.2252 11.313C42.066 11.313 42.136 11.5059 42.2061 16.2011C42.2761 20.2531 42.3462 20.5747 42.6965 21.2178C43.187 22.054 43.8876 22.6328 44.9385 23.083C45.6391 23.4046 46.1296 23.4689 47.6009 23.4689C49.1423 23.4689 49.4926 23.4046 50.3333 23.0187C50.8938 22.7614 51.5944 22.3112 51.8747 21.9896C52.8556 20.8963 52.9957 20.3174 53.0657 15.8152C53.2059 11.4416 53.2059 11.3773 53.9765 11.3773C54.1867 11.3773 54.2568 11.2487 54.2568 11.0557C54.2568 10.7341 54.1167 10.7341 52.1549 10.7341C50.1932 10.7341 50.0531 10.7341 50.0531 11.0557C50.0531 11.313 50.1932 11.3773 50.6136 11.4416C51.5244 11.5059 51.5944 11.8275 51.5944 15.8152C51.5944 19.8672 51.4543 20.639 50.4734 21.4751C49.6327 22.2469 48.9321 22.5042 47.741 22.5042C46.0595 22.5042 44.7984 21.7967 44.4481 20.5103C44.308 20.0601 44.2379 18.5165 44.308 15.7509L44.378 11.6346L45.0086 11.4416C45.3589 11.313 45.6391 11.12 45.7092 10.9914C45.7793 10.7341 45.499 10.7341 43.3271 10.7341C40.945 10.6698 40.8048 10.6698 40.8048 10.9914ZM57.1294 10.9914C57.1294 11.2487 57.2695 11.313 57.6198 11.313C58.5306 11.313 59.021 11.6346 59.2312 12.3421C59.3713 12.728 59.3713 14.5932 59.3713 17.2302C59.3013 21.9896 59.2312 22.3112 58.1803 22.5042C57.83 22.5685 57.6899 22.6971 57.6899 22.8901C57.6899 23.1474 57.83 23.2117 60.142 23.2117C62.384 23.2117 62.5942 23.2117 62.5942 22.9544C62.5942 22.7615 62.384 22.6328 61.8235 22.5042C61.1229 22.3112 61.0528 22.2469 60.8427 21.7324C60.5624 20.9606 60.5624 13.6927 60.7726 13.757C60.8427 13.757 61.5433 14.4002 62.314 15.2363C63.0846 16.0725 65.1165 18.1949 66.9381 19.9315C69.7406 22.6971 70.231 23.2117 70.6514 23.2117H71.1418L71.2119 17.5518C71.2819 13.4998 71.352 11.8275 71.4921 11.6989C71.6322 11.5703 71.9826 11.4416 72.2628 11.3773C72.6131 11.313 72.8233 11.1844 72.8233 11.0557C72.8233 10.8628 72.4029 10.7985 70.4412 10.7985C68.1291 10.7341 68.0591 10.7341 68.0591 11.0557C68.0591 11.313 68.1992 11.3773 68.4794 11.3773C68.6896 11.3773 69.11 11.5703 69.3902 11.7632L69.8807 12.1491L69.9508 16.0081C69.9508 18.1949 69.9508 19.8672 69.8807 19.8672C69.8106 19.8672 69.2501 19.3526 68.6896 18.7738C68.1291 18.1949 66.5177 16.5227 65.1165 15.1077C63.7152 13.6927 62.1738 12.1491 61.6834 11.6346L60.8427 10.7341H59.021C57.1994 10.6698 57.1294 10.6698 57.1294 10.9914ZM75.4857 10.9914C75.4857 11.2487 75.6258 11.313 75.9761 11.313C76.2564 11.313 76.6067 11.4416 76.8168 11.5703C77.1672 11.7632 77.1672 12.0848 77.2372 16.5227C77.3073 22.054 77.2372 22.3755 76.1863 22.5042C75.6959 22.5685 75.4857 22.6971 75.4857 22.8901C75.4857 23.1474 75.6959 23.2117 78.148 23.2117C80.6703 23.2117 80.8104 23.2117 80.8104 22.8901C80.8104 22.6328 80.6703 22.5685 80.39 22.5685C80.1798 22.5685 79.8295 22.4399 79.6193 22.3112C79.269 22.1183 79.269 21.7967 79.199 17.0372C79.1289 12.1491 79.1289 11.9562 79.4792 11.6346C79.6894 11.4416 80.0397 11.313 80.2499 11.313C80.6002 11.313 80.6703 11.2487 80.6703 10.9914C80.6703 10.6698 80.5302 10.6698 78.0079 10.6698C75.6258 10.6698 75.4857 10.6698 75.4857 10.9914ZM93.912 10.9914C93.9821 11.1844 94.1222 11.313 94.4025 11.313C94.6127 11.313 94.963 11.5059 95.1732 11.6989C95.3834 11.8918 96.5744 14.5288 97.9056 17.6804L100.218 23.276L100.848 23.3403L101.479 23.4046L103.09 19.417C104.001 17.2302 104.842 15.2363 104.912 15.0434C105.122 14.6575 105.122 14.7218 105.683 16.0081C105.963 16.78 106.804 18.7095 107.504 20.3817L108.765 23.4046H109.326C109.606 23.4046 109.886 23.3403 109.956 23.2117C110.026 23.083 110.797 21.2178 111.778 19.0311C112.689 16.8443 113.74 14.4002 114.09 13.6284C114.861 11.8275 115.001 11.6346 115.561 11.4416C115.842 11.3773 116.052 11.1844 116.052 11.0557C116.052 10.8628 115.701 10.7985 113.95 10.7985C111.988 10.7985 111.848 10.7985 111.848 11.12C111.848 11.3773 111.988 11.4416 112.268 11.4416C112.969 11.4416 113.249 11.6346 113.249 12.0205C113.249 12.3421 109.886 20.639 109.676 20.8319C109.536 20.9606 106.523 13.2425 106.453 12.4707C106.313 11.7632 106.663 11.4416 107.434 11.4416C107.714 11.4416 107.854 11.3773 107.854 11.12C107.854 10.7985 107.714 10.7985 105.122 10.7985C102.53 10.7985 102.39 10.7985 102.39 11.12C102.39 11.313 102.53 11.4416 102.67 11.4416C103.23 11.4416 103.931 11.9562 104.141 12.4064C104.421 13.1139 104.211 13.8214 102.6 17.6804L101.269 20.9606L100.988 20.3174C100.848 19.9958 100.007 17.9377 99.1667 15.8152C97.4852 11.6346 97.4852 11.4416 98.6062 11.4416C99.0266 11.4416 99.0967 11.3773 99.0967 11.12C99.0967 10.7985 98.9565 10.7985 96.5044 10.7985C93.842 10.6698 93.7719 10.6698 93.912 10.9914ZM129.364 11.12C129.364 11.12 129.364 11.313 129.364 11.3773C129.364 11.4416 129.574 11.4416 129.574 11.4416C129.714 11.4416 129.784 11.5059 129.924 11.5059C130.485 11.6346 130.835 11.6989 130.975 12.0205C131.045 12.2134 131.115 12.9852 131.115 17.0372C131.115 21.2822 131.115 21.7967 130.975 22.054C130.835 22.3755 130.555 22.5685 129.854 22.7614C129.854 22.7614 129.574 22.8258 129.504 22.8901C129.434 22.9544 129.434 23.083 129.434 23.083C129.434 23.083 129.434 23.2117 129.504 23.276C129.574 23.3403 129.784 23.3403 129.784 23.3403H131.535H134.478C134.478 23.3403 134.618 23.3403 134.688 23.276C134.758 23.2117 134.758 23.083 134.758 23.083C134.758 23.083 134.758 22.9544 134.688 22.8901C134.618 22.8258 134.338 22.7614 134.338 22.7614C133.707 22.6328 133.357 22.4399 133.217 22.1183C133.077 21.861 133.077 21.2822 133.077 19.9315V18.002C133.147 18.0663 133.217 18.0663 133.287 18.1306C133.637 18.3236 134.058 18.6451 135.599 18.6451C137.491 18.7095 138.612 17.9377 139.312 17.0372C140.013 16.1368 140.223 14.7218 139.733 13.1782C139.242 11.6989 137.771 10.7341 135.739 10.6698C134.688 10.6055 133.077 10.6698 132.236 10.7341H132.026C131.255 10.7341 130.274 10.8628 129.784 10.8628C129.644 10.8628 129.644 10.8628 129.574 10.9271C129.364 11.0557 129.364 11.12 129.364 11.12ZM137.14 17.0372C137.911 16.394 137.911 15.365 137.911 14.6575C137.841 13.6284 137.351 11.6346 134.828 11.6346C134.198 11.6346 133.007 11.6989 132.937 12.4707C132.867 12.5993 132.867 13.5641 132.867 14.9791V17.2945L133.147 17.4231C133.287 17.4874 133.497 17.5518 133.777 17.6161C134.828 17.8733 136.37 17.6804 137.14 17.0372ZM121.026 10.8628C121.236 10.7985 121.376 10.7341 121.376 10.7341C121.376 10.7341 121.657 10.6055 121.727 10.7341C121.727 10.7985 121.867 10.9914 122.147 11.6346C122.217 11.7632 122.287 11.8918 122.287 12.0205C122.638 12.9209 123.198 14.2073 123.478 14.9148C123.759 15.6222 124.319 16.9086 124.739 17.9377C125.16 18.9024 125.65 20.1244 125.931 20.7033C126.141 21.2822 126.491 21.7967 126.561 21.9253C126.631 21.9896 126.631 22.054 126.701 22.1183C126.911 22.3755 127.122 22.7614 127.612 22.8258C127.612 22.8258 127.962 22.8901 128.032 22.9544C128.102 23.0187 128.102 23.083 128.102 23.083V23.276C128.102 23.276 128.102 23.3403 128.032 23.3403C128.032 23.4046 127.892 23.3403 127.892 23.3403H124.95H122.848C122.848 23.3403 122.778 23.3403 122.708 23.3403C122.638 23.3403 122.638 23.2117 122.638 23.2117V23.083C122.638 23.083 122.638 22.9544 122.708 22.8901C122.778 22.8258 123.128 22.7614 123.128 22.7614C123.759 22.6971 124.039 22.2469 124.109 21.9896V21.9253C124.249 21.6681 124.179 21.4751 123.548 20.1244C123.128 19.224 122.988 18.9667 122.918 18.9024C122.848 18.9024 121.727 18.9024 120.536 18.9024H118.224L118.084 19.224C117.663 20.2531 117.313 21.2178 117.313 21.4751C117.173 21.9896 117.383 22.6328 118.224 22.7614C118.224 22.7614 118.574 22.8258 118.644 22.8901C118.714 22.9544 118.784 23.083 118.784 23.083V23.2117C118.784 23.2117 118.784 23.276 118.714 23.3403C118.644 23.4046 118.504 23.3403 118.504 23.3403H116.332H114.23C114.23 23.3403 114.16 23.3403 114.09 23.276C114.02 23.2117 114.02 23.1474 114.02 23.1474V23.0187C114.02 23.0187 114.02 22.9544 114.16 22.8258C114.3 22.6971 114.58 22.6971 114.58 22.6971C115.141 22.6328 115.491 22.054 115.701 21.7324C115.701 21.7324 115.701 21.6681 115.771 21.6681C115.842 21.5394 116.192 20.8319 116.542 20.0601C116.892 19.2883 117.243 18.3879 117.383 18.1306C117.803 17.1659 118.224 16.2654 118.854 14.8504C119.205 14.0786 119.695 12.9209 119.975 12.2778L120.466 11.12L121.026 10.8628ZM120.886 13.6284C121.026 13.8857 121.166 14.2716 121.236 14.4645C121.306 14.6575 121.587 15.2363 121.797 15.7509C122.007 16.2654 122.287 16.8443 122.427 17.1015C122.568 17.3588 122.638 17.5518 122.638 17.5518C122.638 17.5518 121.797 17.5518 120.746 17.5518C119.555 17.5518 118.854 17.5518 118.854 17.4874C118.854 17.4874 118.924 17.3588 118.924 17.2302C118.994 17.0372 119.415 16.0081 120.255 13.8214C120.396 13.4998 120.536 13.1782 120.536 13.1139C120.606 13.1139 120.676 13.1782 120.886 13.6284Z" fill="#9EB0CB"/>
</svg>
