<svg width="336" height="54" viewBox="0 0 336 54" fill="none" xmlns="http://www.w3.org/2000/svg">
<path d="M319.046 40.7903C315.673 38.1216 312.234 35.4529 308.772 32.7953C308.985 32.505 309.186 32.1923 309.375 31.8797C311.732 27.9268 311.698 22.7792 309.275 17.3747C304.819 7.47022 294.3 0 284.797 0H284.652H247.445H143.013H141.606H137.932H106.576H102.902H94.0019H76.9726H75.7554H69.2005H39.9547H39.24H31.9928H14.1595L12.987 4.03102C9.11209 17.33 5.48289 30.3275 2.19985 42.6551L0 50.8846L8.43091 49.6117C18.0678 48.16 27.8499 46.8201 37.5315 45.6476L40.2785 45.3127L41.6744 42.9231C42.3221 41.8176 42.9586 40.7233 43.6062 39.629L42.7129 45.0112L50.0271 44.2184C57.9779 43.3586 66.018 42.6104 74.0245 41.9404L73.9575 42.0298L86.7323 41.0918C92.271 40.6898 97.8991 40.3213 103.449 40.0087L105.995 39.8635L107.558 37.8536C108.563 36.5583 109.557 35.2742 110.54 33.9901C116.603 33.7444 122.723 33.5323 128.798 33.3759C129.177 34.1464 129.568 34.9169 129.948 35.6762L131.545 38.8139L135.062 38.7246C140.612 38.5906 146.251 38.5012 151.801 38.4566L160.4 38.3896V38.4119L165.793 38.4454C170.74 38.4789 175.754 38.5459 180.678 38.6576L186.921 38.7916L186.351 32.572L185.703 25.3809L185.19 19.7643C188.808 19.7978 192.437 19.8424 196.044 19.8871L198.802 34.8722L199.606 39.2382L204.039 39.4392C220.086 40.165 236.322 41.2928 252.313 42.8003L255.339 43.0794L258.332 43.3809C263.257 43.8722 268.248 44.4082 273.15 44.9777L282.341 46.0385L279.002 37.4181L278.455 36C279.27 36.0782 280.085 36.1452 280.889 36.2233C285.847 39.8412 290.772 43.4926 295.529 47.0993L296.69 47.9702L298.131 48.1712C303.647 48.9529 309.23 49.7903 314.736 50.6613L335.83 54L319.068 40.768L319.046 40.7903ZM156.569 30.0931C154.537 26.5757 152.627 23.1141 150.83 19.6749C153.632 19.6749 156.435 19.6526 159.238 19.6526H159.852L160.143 29.9591L160.232 33.0409L160.333 36.5918L156.569 30.0931Z" fill="url(#paint0_linear_103_1004)"/>
<path d="M195.028 5.02508H148.306C148.161 7.86131 148.005 10.6975 147.859 13.5338C151.656 13.5226 155.442 13.5114 159.238 13.5114C161.26 13.5114 163.27 13.5114 165.291 13.5114C165.469 19.7757 165.637 26.0511 165.816 32.3154C170.807 32.3489 175.787 32.4159 180.779 32.5276C180.21 26.2075 179.629 19.8874 179.059 13.5784C184.866 13.6231 190.673 13.6789 196.491 13.7571C195.999 10.8427 195.519 7.92831 195.028 5.01392V5.02508Z" fill="white"/>
<path d="M80.3559 5.0252C75.5096 14.3379 70.4398 23.818 65.158 33.4657C66.2858 24.1642 67.637 14.684 69.1892 5.0252H43.1371C36.8725 15.7001 30.407 26.6096 23.7404 37.7982C26.2753 27.1344 29.0223 16.2138 31.9815 5.0252H18.3357C14.5055 18.2237 10.921 31.0537 7.59326 43.5376C17.3307 42.0637 27.0904 40.7349 36.8502 39.5513C43.0589 28.9433 49.0667 18.5587 54.8622 8.40858C52.8299 18.5252 51.0208 28.4185 49.4128 38.1108C59.1949 37.05 68.977 36.1344 78.7814 35.3639C84.1192 25.0686 89.1889 14.9632 94.0017 5.01404H80.3559V5.0252Z" fill="white"/>
<path d="M109.401 5.02509C102.332 14.6504 94.6383 24.5884 86.3079 34.973C91.9136 34.5598 97.5081 34.2025 103.114 33.8899C104.655 31.9023 106.162 29.937 107.648 27.9717C115.833 27.6144 124.018 27.3464 132.214 27.1566C133.085 28.9767 133.979 30.7968 134.894 32.6057C140.5 32.4717 146.117 32.3824 151.734 32.3377C146.486 23.2819 141.885 14.2149 137.921 5.02509H109.39H109.401ZM113.231 20.5239C116.804 15.6889 120.21 10.9209 123.46 6.21988C125.146 10.9209 127 15.5549 129.021 20.1665C123.761 20.267 118.491 20.3899 113.231 20.535V20.5239Z" fill="white"/>
<path d="M217.462 26.6765C217.194 25.5487 216.926 24.4097 216.658 23.2819C226.049 23.6504 235.429 24.1082 244.809 24.6665C243.938 21.9978 243.056 19.3402 242.185 16.6715C233.084 16.3477 223.994 16.0685 214.894 15.8564L214.09 12.4618C224.341 12.6293 234.592 12.8526 244.843 13.1206C243.927 10.4184 243.011 7.72733 242.096 5.02509H199.093C200.835 14.4606 202.565 23.8849 204.307 33.3204C220.51 34.0462 236.691 35.174 252.861 36.6926C251.945 33.9904 251.029 31.2993 250.114 28.5971C239.248 27.8154 228.372 27.1678 217.495 26.6653L217.462 26.6765Z" fill="white"/>
<path d="M298.756 31.6343C304.886 31.1876 307.287 26.0065 304.183 19.1057C300.677 11.3005 292.022 5.02509 284.797 5.02509H284.652C272.246 5.02509 259.84 5.02509 247.445 5.02509C251.264 15.7782 255.071 26.5313 258.891 37.2844C263.86 37.7869 268.829 38.3229 273.787 38.8923C272.525 35.6318 271.263 32.3713 270.001 29.1107C274.312 29.4792 278.622 29.8588 282.933 30.272C288.125 34.0462 293.452 37.9879 298.89 42.1082C304.462 42.8899 310.023 43.7273 315.584 44.6095C309.844 40.076 304.239 35.7546 298.745 31.6231L298.756 31.6343ZM288.773 21.4172H288.538C281.202 20.9258 273.854 20.4792 266.506 20.0772C265.78 18.2013 265.043 16.3142 264.318 14.4382C271.52 14.6839 278.723 14.9631 285.914 15.2645C287.678 15.3315 289.722 16.7943 290.459 18.5139C291.174 20.1554 290.414 21.4172 288.762 21.4172H288.773Z" fill="white"/>
<defs>
<linearGradient id="paint0_linear_103_1004" x1="189.802" y1="-7.73687" x2="149.127" y2="59.4065" gradientUnits="userSpaceOnUse">
<stop stop-color="#1F99DD"/>
<stop offset="1" stop-color="#0071BC"/>
</linearGradient>
</defs>
</svg>
