<svg width="150" height="55" viewBox="0 0 150 55" fill="none" xmlns="http://www.w3.org/2000/svg">
<path fill-rule="evenodd" clip-rule="evenodd" d="M73.0891 11.5685C71.9472 10.4265 70.5471 9.7896 68.8944 9.53711C68.2575 9.41087 66.4786 9.53711 65.9736 9.66335C64.4472 10.0421 63.3053 10.5528 62.2896 11.6947L61.6527 12.2054V0H53.596V33.0528H61.9051V19.9579C62.0314 19.321 62.1576 18.684 62.5421 18.179C63.0528 17.2896 63.9422 16.9051 64.9579 17.0371C66.3581 17.1634 67.2475 17.9265 67.5 19.5792V32.9266H75.637V25.3003C75.637 18.816 75.637 17.5478 75.5107 16.9109C75.2582 14.6213 74.495 12.8424 73.0949 11.5742L73.0891 11.5685Z" fill="#9EB0CB"/>
<path fill-rule="evenodd" clip-rule="evenodd" d="M145.168 0H140.337L140.21 0.252487C139.958 0.763198 131.695 20.7211 131.695 20.7211H141.358L145.679 10.4266C148.095 4.70543 150 0 150 0L145.168 0Z" fill="#9EB0CB"/>
<path fill-rule="evenodd" clip-rule="evenodd" d="M23.3837 10.2946H19.0627L16.3944 16.9052C15.2525 20.463 14.1048 23.5158 14.1048 23.5158C14.1048 23.5158 12.9629 20.463 11.4365 16.9052L8.89441 10.2946H4.44721C2.03137 10.1684 0 10.1684 0 10.1684C0 10.1684 2.16335 15.3788 4.83168 21.7369C7.5 28.0949 9.66335 33.3054 9.66335 33.3054C9.66335 33.3054 8.90015 35.2105 7.88447 37.5001C6.86878 39.7897 6.10559 41.5686 6.10559 41.6948C6.10559 41.821 8.01071 41.6948 10.4265 41.6948H14.7475L21.2318 26.0578C24.7896 17.4159 27.7161 10.4209 27.7161 10.2946C27.7161 10.2946 26.8267 10.1684 23.3952 10.2946H23.3837Z" fill="#9EB0CB"/>
<path fill-rule="evenodd" clip-rule="evenodd" d="M43.2154 10.042V12.0734L42.8367 11.6947C41.9473 10.679 40.6734 10.042 39.0207 9.66329C38.51 9.53705 38.2575 9.53705 37.2418 9.53705C36.6049 9.66329 36.0999 9.66329 35.9679 9.66329C34.189 9.91578 32.7889 10.4265 31.3887 11.3159C28.5942 13.0948 26.8095 16.1476 26.3046 19.7054C26.0521 21.358 26.1783 23.3894 26.557 24.9158C27.5727 28.858 30.2411 31.9051 33.6783 33.0527C34.9522 33.4315 35.4572 33.5635 36.9836 33.5635C38.1255 33.5635 38.51 33.5635 38.8887 33.4372C40.5414 33.0585 41.6833 32.4215 42.7047 31.4058L43.2154 30.8951V32.9265H51.0942V10.042H43.2154ZM43.3417 22.7524C42.9629 24.4051 41.689 25.679 40.0364 26.0577C39.3994 26.184 38.2575 26.184 37.6206 26.0577C36.2204 25.679 34.9522 24.6576 34.4415 23.3894C33.8046 21.9892 34.0628 20.2103 34.8202 18.9422C35.9622 17.2895 37.873 16.6526 39.9044 17.037C41.5571 17.4158 42.831 18.6897 43.3359 20.3423C43.4622 20.9793 43.4622 22.1212 43.3359 22.7582L43.3417 22.7524Z" fill="#9EB0CB"/>
<path fill-rule="evenodd" clip-rule="evenodd" d="M99.6577 14.4895C99.147 13.8525 98.1313 12.7106 97.4944 12.1999C95.7155 10.7997 93.6784 9.91029 91.3945 9.65781C90.5051 9.53156 88.7262 9.53156 87.8368 9.65781C85.6734 9.91029 83.3896 10.9317 81.7369 12.1999C78.5579 14.8682 76.9053 19.0629 77.5422 23.3839C78.1792 28.2156 81.6107 31.8996 86.4424 33.1735C87.458 33.426 88.4737 33.5522 89.7476 33.5522C92.0372 33.5522 93.6899 33.1735 95.4688 32.2783C99.0265 30.4994 101.316 27.3204 101.827 23.3782C101.953 22.3625 101.953 20.7098 101.827 19.8204C101.574 17.9153 100.811 16.0044 99.6635 14.4837L99.6577 14.4895ZM94.1891 22.8789C93.8104 24.5316 92.5365 25.6735 91.0101 26.1842C90.4994 26.3105 89.1049 26.3105 88.5942 26.1842C87.3261 25.8055 86.3046 24.9103 85.6734 23.7684C85.289 23.0052 85.289 22.6264 85.289 21.737C85.289 20.9738 85.4152 20.5951 85.6734 19.9581C86.0522 19.1949 86.5629 18.4317 87.3261 17.9267C88.0893 17.1635 89.3574 16.9111 90.6313 17.1635C92.4102 17.416 93.8104 18.8162 94.1891 20.5951C94.3154 21.232 94.3154 22.2477 94.1891 22.8847V22.8789Z" fill="#9EB0CB"/>
<path fill-rule="evenodd" clip-rule="evenodd" d="M117.326 9.66333C116.437 9.53709 114.658 9.53709 113.768 9.66333C111.605 9.91582 109.447 10.8053 107.795 12.2054C107.158 12.7161 106.016 13.8581 105.631 14.495C104.489 16.0214 103.852 17.9265 103.468 19.8317C103.342 20.7211 103.342 22.5 103.468 23.3894C104.231 28.4736 107.915 32.4158 112.999 33.4315C114.015 33.684 114.526 33.684 115.668 33.684C117.831 33.684 119.736 33.3053 121.515 32.2838C126.22 29.868 128.762 24.5314 127.615 19.0627C126.599 13.9786 122.531 10.2888 117.32 9.65759L117.326 9.66333ZM119.742 23.6477C119.231 24.7896 118.089 25.679 116.821 26.0635C116.31 26.1897 114.916 26.1897 114.405 26.0635C112.879 25.6848 111.611 24.4108 111.226 22.7582C111.1 22.1213 111.1 20.9793 111.226 20.3424C111.737 18.311 113.516 16.9108 115.547 16.9108C115.8 17.0371 116.184 17.0371 116.437 17.1633C117.963 17.4158 119.231 18.4372 119.742 19.8317C119.994 20.4686 120.126 20.8473 120.126 21.6105C120.126 22.5 120 22.8845 119.742 23.6419V23.6477Z" fill="#9EB0CB"/>
<path fill-rule="evenodd" clip-rule="evenodd" d="M137.158 23.7739C136.142 22.8845 134.742 22.632 133.726 22.7582C131.31 23.0107 129.531 24.7896 129.021 27.0792C128.894 27.7162 128.894 28.8581 129.021 29.495C129.531 31.5264 131.052 32.9266 133.089 33.4373C133.342 33.4373 133.852 33.5635 134.231 33.5635C135.757 33.5635 137.026 33.0528 138.047 32.0371C139.189 30.8952 139.573 29.7475 139.573 28.2211C139.573 26.316 138.684 24.6634 137.158 23.7739Z" fill="#9EB0CB"/>
<path fill-rule="evenodd" clip-rule="evenodd" d="M68.6361 35.3369C68.2574 35.0844 68.1254 35.0844 67.6204 35.0844C67.1155 35.0844 66.9835 35.0844 66.731 35.2107C65.0783 35.7214 64.3151 37.6265 65.2046 39.0266C65.4571 39.4054 65.9678 39.9161 66.3465 40.0423C66.6028 40.1265 66.9835 40.1686 67.4884 40.1686C68.1254 40.1686 68.2516 40.1686 68.6304 40.0423C69.1411 39.7898 69.6461 39.2791 69.9043 38.7684C70.5412 37.4945 69.9043 35.9739 68.6304 35.3369H68.6361Z" fill="#9EB0CB"/>
<path fill-rule="evenodd" clip-rule="evenodd" d="M61.3944 35.3367C60.7575 35.2105 60.2525 35.3367 59.868 35.3367C57.7047 35.7155 56.3103 37.1156 55.6733 39.4052C55.5471 39.784 55.5471 40.1684 55.5471 40.6791V41.5686H53.7682V45.3846H55.5471V54.5372H60.3787V45.3846H63.684V41.5686H60.3787V41.1898C60.505 40.3004 60.8894 39.6635 61.6526 39.5372C62.1634 39.411 62.9208 39.411 63.4315 39.6635C63.684 39.7897 63.816 39.7897 63.816 39.7897V35.7212L63.4315 35.595C62.9208 35.3425 62.2896 35.3425 61.4002 35.3425L61.3944 35.3367Z" fill="#9EB0CB"/>
<path fill-rule="evenodd" clip-rule="evenodd" d="M83.3836 42.2056C82.8729 41.6949 82.368 41.3161 81.6048 41.1899C80.9678 41.1899 79.6996 41.1899 79.1889 41.3161C78.1732 41.5686 77.41 42.0793 76.8993 42.7163L76.6468 43.095V41.5686H71.8152V54.5372H76.6468V47.0372C76.7731 46.5265 77.0313 46.0216 77.2838 45.7633C77.9208 45.2526 79.0627 45.3846 79.5734 46.0158C79.8297 46.3563 79.9579 47.8827 79.9579 50.595V54.411H84.7895V50.09C84.7895 45.5166 84.7895 45.0059 84.537 44.1164C84.2846 43.3532 84.0263 42.7163 83.3951 42.2113L83.3836 42.2056Z" fill="#9EB0CB"/>
<path fill-rule="evenodd" clip-rule="evenodd" d="M114.658 43.2212C114.405 42.7105 114.273 42.5842 113.894 42.2055C113.384 41.6948 113.005 41.4423 112.494 41.1898C111.605 41.1898 110.589 41.0636 109.7 41.3161C108.81 41.4423 107.921 42.0793 107.41 42.7162L107.158 42.9687V41.4423H102.326V54.4109H107.158V50.7269C107.158 48.0988 107.242 46.5743 107.41 46.1535C107.663 45.6428 108.173 45.3903 108.678 45.3903C109.183 45.3903 109.442 45.5165 109.82 45.769C110.331 46.2797 110.331 46.1477 110.331 50.4744V54.2904H115.163V49.585C115.163 46.4481 115.121 44.7112 115.036 44.3746C114.91 44.1221 114.784 43.6114 114.652 43.2327L114.658 43.2212Z" fill="#9EB0CB"/>
<path fill-rule="evenodd" clip-rule="evenodd" d="M122.284 41.3162C120.12 41.6949 118.468 42.7164 117.452 44.4952C117.2 45.006 116.941 45.6372 116.689 46.2741C116.563 46.9111 116.563 47.0373 116.563 48.053C116.563 49.1949 116.563 49.5794 116.947 50.4688C117.71 52.6322 119.489 54.2848 121.905 54.7898C122.29 54.9161 122.668 54.916 123.558 54.916C124.832 54.916 125.337 54.7898 126.226 54.4053L126.737 54.1529V49.8319L126.358 50.0844C125.721 50.4631 125.342 50.5951 124.579 50.5951C123.816 50.5951 123.437 50.5951 122.927 50.3426C122.416 50.0901 122.037 49.7056 121.785 49.2007C121.7 48.9482 121.658 48.6096 121.658 48.185C121.658 47.6743 121.658 47.548 121.785 47.1693C122.163 46.1536 123.059 45.6429 124.327 45.5167C125.216 45.5167 125.601 45.5167 126.869 46.1536V41.8327L126.484 41.7064C125.084 41.1957 123.558 41.0695 122.29 41.3277L122.284 41.3162Z" fill="#9EB0CB"/>
<path fill-rule="evenodd" clip-rule="evenodd" d="M65.0784 41.5686V48.0529V54.5373H67.4942H69.91V48.0529V41.5686H67.4942H65.0784Z" fill="#9EB0CB"/>
<path fill-rule="evenodd" clip-rule="evenodd" d="M136.647 49.1949H141.094V48.053C141.094 47.2898 141.094 46.779 140.968 46.5266C140.715 45.0002 140.078 43.9845 139.189 42.9688C138.3 42.0793 137.284 41.5686 135.884 41.3161C135.373 41.1899 133.852 41.1899 133.215 41.3161C129.531 41.9531 127.242 45.1321 127.494 48.8162C127.621 50.0901 128.005 51.232 128.636 52.1214C129.526 53.5216 130.926 54.411 132.705 54.7898C133.468 54.916 135.499 54.916 136.389 54.7898C137.663 54.5373 138.805 53.9003 139.694 53.0109C140.073 52.6321 140.71 51.737 140.71 51.737C140.71 51.737 139.82 51.3582 138.678 50.9738L136.647 50.2106L136.394 50.4631C136.016 50.8418 135.758 50.9738 135.253 51.1C133.852 51.4787 132.458 50.7213 132.2 49.4474V49.1949H136.647ZM132.326 46.0158C132.71 45.1264 133.852 44.6157 135.121 44.8739C135.505 45.0002 135.631 45.1264 136.01 45.3846C136.263 45.6371 136.521 45.8953 136.521 46.2741V46.5266H134.357C131.942 46.5266 132.068 46.5266 132.326 46.0158Z" fill="#9EB0CB"/>
<path fill-rule="evenodd" clip-rule="evenodd" d="M95.8416 41.4424V42.7163L95.4571 42.59C94.8202 41.9531 93.9307 41.4481 92.9151 41.3161C92.5363 41.1899 91.6469 41.1899 91.2624 41.1899C90.4992 41.3161 89.3573 41.7006 88.7203 42.2056C87.3202 43.2213 86.4307 44.7476 86.052 46.6528C85.9258 47.416 85.9258 48.8161 86.052 49.5793C86.3045 50.7213 86.689 51.8689 87.3259 52.6321C88.2154 53.774 89.3573 54.5372 90.7574 54.7955C91.5206 54.9217 92.7888 54.9217 93.4258 54.6692C94.189 54.4167 94.6997 54.1585 95.3309 53.6535L95.8416 53.1428V54.4167H100.673V41.4481H95.8416V41.4424ZM94.189 50.4688C93.6783 50.595 92.9151 50.595 92.4101 50.4688C91.6469 50.2163 90.8837 49.5793 90.7574 48.8161C90.6312 48.4374 90.6312 48.3054 90.6312 47.9267C90.6312 47.416 90.6312 47.2897 90.8837 46.911C91.3944 45.7691 92.6626 45.2584 94.0627 45.5108C94.6997 45.6371 95.4629 46.274 95.7154 46.911C96.3523 48.3112 95.7154 49.9638 94.189 50.4688Z" fill="#9EB0CB"/>
</svg>
