<svg width="150" height="56" viewBox="0 0 150 56" fill="none" xmlns="http://www.w3.org/2000/svg">
<path fill-rule="evenodd" clip-rule="evenodd" d="M73.0891 12.4843C71.9472 11.3424 70.5471 10.7054 68.8944 10.4529C68.2575 10.3267 66.4786 10.4529 65.9736 10.5792C64.4472 10.9579 63.3053 11.4686 62.2896 12.6106L61.6527 13.1213V0.915833H53.596V33.9686H61.9051V20.8738C62.0314 20.2368 62.1576 19.5998 62.5421 19.0949C63.0528 18.2054 63.9422 17.821 64.9579 17.9529C66.3581 18.0792 67.2475 18.8424 67.5 20.495V33.8424H75.637V26.2161C75.637 19.7318 75.637 18.4637 75.5107 17.8267C75.2582 15.5371 74.495 13.7582 73.0949 12.49L73.0891 12.4843Z" fill="#39007D"/>
<path fill-rule="evenodd" clip-rule="evenodd" d="M145.168 0.915833H140.337L140.21 1.16832C139.958 1.67903 131.695 21.637 131.695 21.637H141.358L145.679 11.3424C148.095 5.62127 150 0.915833 150 0.915833L145.168 0.915833Z" fill="#39007D"/>
<path fill-rule="evenodd" clip-rule="evenodd" d="M23.3837 11.2105H19.0627L16.3944 17.821C15.2525 21.3788 14.1048 24.4316 14.1048 24.4316C14.1048 24.4316 12.9629 21.3788 11.4365 17.821L8.89441 11.2105H4.44721C2.03137 11.0842 0 11.0842 0 11.0842C0 11.0842 2.16335 16.2946 4.83168 22.6527C7.5 29.0108 9.66335 34.2212 9.66335 34.2212C9.66335 34.2212 8.90015 36.1263 7.88447 38.4159C6.86878 40.7055 6.10559 42.4844 6.10559 42.6106C6.10559 42.7369 8.01071 42.6106 10.4265 42.6106H14.7475L21.2318 26.9737C24.7896 18.3317 27.7161 11.3367 27.7161 11.2105C27.7161 11.2105 26.8267 11.0842 23.3952 11.2105H23.3837Z" fill="#39007D"/>
<path fill-rule="evenodd" clip-rule="evenodd" d="M43.2154 10.9579V12.9892L42.8367 12.6105C41.9473 11.5948 40.6734 10.9579 39.0207 10.5791C38.51 10.4529 38.2575 10.4529 37.2418 10.4529C36.6049 10.5791 36.0999 10.5791 35.9679 10.5791C34.189 10.8316 32.7889 11.3423 31.3887 12.2318C28.5942 14.0106 26.8095 17.0634 26.3046 20.6212C26.0521 22.2738 26.1783 24.3052 26.557 25.8316C27.5727 29.7738 30.2411 32.8209 33.6783 33.9686C34.9522 34.3473 35.4572 34.4793 36.9836 34.4793C38.1255 34.4793 38.51 34.4793 38.8887 34.353C40.5414 33.9743 41.6833 33.3374 42.7047 32.3217L43.2154 31.811V33.8423H51.0942V10.9579H43.2154ZM43.3417 23.6683C42.9629 25.3209 41.689 26.5948 40.0364 26.9735C39.3994 27.0998 38.2575 27.0998 37.6206 26.9735C36.2204 26.5948 34.9522 25.5734 34.4415 24.3052C33.8046 22.9051 34.0628 21.1262 34.8202 19.858C35.9622 18.2054 37.873 17.5684 39.9044 17.9529C41.5571 18.3316 42.831 19.6055 43.3359 21.2582C43.4622 21.8951 43.4622 23.037 43.3359 23.674L43.3417 23.6683Z" fill="#39007D"/>
<path fill-rule="evenodd" clip-rule="evenodd" d="M99.6577 15.4053C99.147 14.7684 98.1313 13.6264 97.4944 13.1157C95.7155 11.7156 93.6784 10.8261 91.3945 10.5737C90.5051 10.4474 88.7262 10.4474 87.8368 10.5737C85.6734 10.8261 83.3896 11.8476 81.7369 13.1157C78.5579 15.7841 76.9053 19.9788 77.5422 24.2998C78.1792 29.1314 81.6107 32.8154 86.4424 34.0893C87.458 34.3418 88.4737 34.4681 89.7476 34.4681C92.0372 34.4681 93.6899 34.0893 95.4688 33.1942C99.0265 31.4153 101.316 28.2362 101.827 24.294C101.953 23.2783 101.953 21.6257 101.827 20.7362C101.574 18.8311 100.811 16.9203 99.6635 15.3996L99.6577 15.4053ZM94.1891 23.7948C93.8104 25.4474 92.5365 26.5893 91.0101 27.1001C90.4994 27.2263 89.1049 27.2263 88.5942 27.1001C87.3261 26.7213 86.3046 25.8261 85.6734 24.6842C85.289 23.921 85.289 23.5423 85.289 22.6528C85.289 21.8897 85.4152 21.5109 85.6734 20.874C86.0522 20.1108 86.5629 19.3476 87.3261 18.8426C88.0893 18.0794 89.3574 17.8269 90.6313 18.0794C92.4102 18.3319 93.8104 19.732 94.1891 21.5109C94.3154 22.1479 94.3154 23.1636 94.1891 23.8005V23.7948Z" fill="#39007D"/>
<path fill-rule="evenodd" clip-rule="evenodd" d="M117.326 10.5792C116.437 10.4529 114.658 10.4529 113.768 10.5792C111.605 10.8317 109.447 11.7211 107.795 13.1213C107.158 13.632 106.016 14.7739 105.631 15.4109C104.489 16.9373 103.852 18.8424 103.468 20.7475C103.342 21.6369 103.342 23.4158 103.468 24.3053C104.231 29.3894 107.915 33.3317 112.999 34.3474C114.015 34.5998 114.526 34.5998 115.668 34.5998C117.831 34.5998 119.736 34.2211 121.515 33.1997C126.22 30.7839 128.762 25.4472 127.615 19.9786C126.599 14.8944 122.531 11.2047 117.32 10.5734L117.326 10.5792ZM119.742 24.5635C119.231 25.7054 118.089 26.5949 116.821 26.9793C116.31 27.1056 114.916 27.1056 114.405 26.9793C112.879 26.6006 111.611 25.3267 111.226 23.6741C111.1 23.0371 111.1 21.8952 111.226 21.2582C111.737 19.2268 113.516 17.8267 115.547 17.8267C115.8 17.9529 116.184 17.9529 116.437 18.0792C117.963 18.3317 119.231 19.3531 119.742 20.7475C119.994 21.3845 120.126 21.7632 120.126 22.5264C120.126 23.4158 120 23.8003 119.742 24.5578V24.5635Z" fill="#39007D"/>
<path fill-rule="evenodd" clip-rule="evenodd" d="M137.158 24.6898C136.142 23.8003 134.742 23.5478 133.726 23.6741C131.31 23.9266 129.531 25.7054 129.021 27.995C128.894 28.632 128.894 29.7739 129.021 30.4109C129.531 32.4422 131.052 33.8424 133.089 34.3531C133.342 34.3531 133.852 34.4794 134.231 34.4794C135.757 34.4794 137.026 33.9686 138.047 32.953C139.189 31.811 139.573 30.6634 139.573 29.137C139.573 27.2318 138.684 25.5792 137.158 24.6898Z" fill="#39007D"/>
<path fill-rule="evenodd" clip-rule="evenodd" d="M68.6361 36.2527C68.2574 36.0002 68.1254 36.0002 67.6204 36.0002C67.1155 36.0002 66.9835 36.0002 66.731 36.1265C65.0783 36.6372 64.3151 38.5423 65.2046 39.9425C65.4571 40.3212 65.9678 40.8319 66.3465 40.9582C66.6028 41.0423 66.9835 41.0844 67.4884 41.0844C68.1254 41.0844 68.2516 41.0844 68.6304 40.9582C69.1411 40.7057 69.6461 40.195 69.9043 39.6843C70.5412 38.4103 69.9043 36.8897 68.6304 36.2527H68.6361Z" fill="#7E1FFF"/>
<path fill-rule="evenodd" clip-rule="evenodd" d="M61.3944 36.2526C60.7575 36.1263 60.2525 36.2526 59.868 36.2526C57.7047 36.6313 56.3103 38.0315 55.6733 40.3211C55.5471 40.6998 55.5471 41.0843 55.5471 41.595V42.4844H53.7682V46.3004H55.5471V55.453H60.3787V46.3004H63.684V42.4844H60.3787V42.1057C60.505 41.2162 60.8894 40.5793 61.6526 40.453C62.1634 40.3268 62.9208 40.3268 63.4315 40.5793C63.684 40.7055 63.816 40.7055 63.816 40.7055V36.637L63.4315 36.5108C62.9208 36.2583 62.2896 36.2583 61.4002 36.2583L61.3944 36.2526Z" fill="#7E1FFF"/>
<path fill-rule="evenodd" clip-rule="evenodd" d="M83.3836 43.1214C82.8729 42.6107 82.368 42.232 81.6048 42.1057C80.9678 42.1057 79.6996 42.1057 79.1889 42.232C78.1732 42.4844 77.41 42.9952 76.8993 43.6321L76.6468 44.0108V42.4844H71.8152V55.4531H76.6468V47.9531C76.7731 47.4424 77.0313 46.9374 77.2838 46.6792C77.9208 46.1685 79.0627 46.3004 79.5734 46.9317C79.8297 47.2721 79.9579 48.7985 79.9579 51.5108V55.3268H84.7895V51.0059C84.7895 46.4324 84.7895 45.9217 84.537 45.0323C84.2846 44.2691 84.0263 43.6321 83.3951 43.1271L83.3836 43.1214Z" fill="#7E1FFF"/>
<path fill-rule="evenodd" clip-rule="evenodd" d="M114.658 44.137C114.405 43.6263 114.273 43.5001 113.894 43.1213C113.384 42.6106 113.005 42.3581 112.494 42.1057C111.605 42.1057 110.589 41.9794 109.7 42.2319C108.81 42.3581 107.921 42.9951 107.41 43.6321L107.158 43.8845V42.3581H102.326V55.3268H107.158V51.6428C107.158 49.0146 107.242 47.4901 107.41 47.0693C107.663 46.5586 108.173 46.3061 108.678 46.3061C109.183 46.3061 109.442 46.4324 109.82 46.6848C110.331 47.1956 110.331 47.0636 110.331 51.3903V55.2063H115.163V50.5008C115.163 47.3639 115.121 45.6271 115.036 45.2904C114.91 45.0379 114.784 44.5272 114.652 44.1485L114.658 44.137Z" fill="#7E1FFF"/>
<path fill-rule="evenodd" clip-rule="evenodd" d="M122.284 42.232C120.12 42.6108 118.468 43.6322 117.452 45.4111C117.2 45.9218 116.941 46.553 116.689 47.19C116.563 47.8269 116.563 47.9532 116.563 48.9688C116.563 50.1108 116.563 50.4952 116.947 51.3847C117.71 53.548 119.489 55.2007 121.905 55.7056C122.29 55.8319 122.668 55.8319 123.558 55.8319C124.832 55.8319 125.337 55.7056 126.226 55.3212L126.737 55.0687V50.7477L126.358 51.0002C125.721 51.3789 125.342 51.5109 124.579 51.5109C123.816 51.5109 123.437 51.5109 122.927 51.2584C122.416 51.0059 122.037 50.6215 121.785 50.1165C121.7 49.864 121.658 49.5255 121.658 49.1008C121.658 48.5901 121.658 48.4639 121.785 48.0851C122.163 47.0694 123.059 46.5587 124.327 46.4325C125.216 46.4325 125.601 46.4325 126.869 47.0694V42.7485L126.484 42.6222C125.084 42.1115 123.558 41.9853 122.29 42.2435L122.284 42.232Z" fill="#7E1FFF"/>
<path fill-rule="evenodd" clip-rule="evenodd" d="M65.0784 42.4845V48.9688V55.4531H67.4942H69.91V48.9688V42.4845H67.4942H65.0784Z" fill="#7E1FFF"/>
<path fill-rule="evenodd" clip-rule="evenodd" d="M136.647 50.1107H141.094V48.9688C141.094 48.2056 141.094 47.6949 140.968 47.4424C140.715 45.916 140.078 44.9003 139.189 43.8846C138.3 42.9952 137.284 42.4845 135.884 42.232C135.373 42.1057 133.852 42.1057 133.215 42.232C129.531 42.8689 127.242 46.048 127.494 49.732C127.621 51.0059 128.005 52.1478 128.636 53.0373C129.526 54.4374 130.926 55.3269 132.705 55.7056C133.468 55.8318 135.499 55.8318 136.389 55.7056C137.663 55.4531 138.805 54.8161 139.694 53.9267C140.073 53.548 140.71 52.6528 140.71 52.6528C140.71 52.6528 139.82 52.2741 138.678 51.8896L136.647 51.1264L136.394 51.3789C136.016 51.7576 135.758 51.8896 135.253 52.0158C133.852 52.3946 132.458 51.6371 132.2 50.3632V50.1107H136.647ZM132.326 46.9317C132.71 46.0422 133.852 45.5315 135.121 45.7897C135.505 45.916 135.631 46.0422 136.01 46.3005C136.263 46.5529 136.521 46.8112 136.521 47.1899V47.4424H134.357C131.942 47.4424 132.068 47.4424 132.326 46.9317Z" fill="#7E1FFF"/>
<path fill-rule="evenodd" clip-rule="evenodd" d="M95.8416 42.3582V43.6321L95.4571 43.5059C94.8202 42.8689 93.9307 42.3639 92.9151 42.232C92.5363 42.1057 91.6469 42.1057 91.2624 42.1057C90.4992 42.232 89.3573 42.6164 88.7203 43.1214C87.3202 44.1371 86.4307 45.6635 86.052 47.5686C85.9258 48.3318 85.9258 49.732 86.052 50.4952C86.3045 51.6371 86.689 52.7848 87.3259 53.5479C88.2154 54.6899 89.3573 55.4531 90.7574 55.7113C91.5206 55.8375 92.7888 55.8375 93.4258 55.5851C94.189 55.3326 94.6997 55.0743 95.3309 54.5694L95.8416 54.0587V55.3326H100.673V42.3639H95.8416V42.3582ZM94.189 51.3846C93.6783 51.5108 92.9151 51.5108 92.4101 51.3846C91.6469 51.1321 90.8837 50.4952 90.7574 49.732C90.6312 49.3532 90.6312 49.2212 90.6312 48.8425C90.6312 48.3318 90.6312 48.2056 90.8837 47.8268C91.3944 46.6849 92.6626 46.1742 94.0627 46.4267C94.6997 46.5529 95.4629 47.1899 95.7154 47.8268C96.3523 49.227 95.7154 50.8796 94.189 51.3846Z" fill="#7E1FFF"/>
</svg>
