<svg width="50" height="50" viewBox="0 0 50 50" fill="none" xmlns="http://www.w3.org/2000/svg">
<rect width="50" height="50" fill="#FF0000"/>
<path d="M36.4 19.55C36.1 18.5 35.35 17.75 34.3 17.45C32.5 17 24.85 17 24.85 17C24.85 17 17.35 17 15.4 17.45C14.35 17.75 13.6 18.5 13.3 19.55C13 21.5 13 25.4 13 25.4C13 25.4 13 29.3 13.45 31.25C13.75 32.3 14.5 33.05 15.55 33.35C17.35 33.8 25 33.8 25 33.8C25 33.8 32.5 33.8 34.45 33.35C35.5 33.05 36.25 32.3 36.55 31.25C37 29.3 37 25.4 37 25.4C37 25.4 37 21.5 36.4 19.55ZM22.6 29V21.8L28.9 25.4L22.6 29Z" fill="white"/>
</svg>
